<svg width="32" height="32" viewBox="0 0 32 32" fill="none" xmlns="http://www.w3.org/2000/svg">
<rect width="32" height="32" rx="16" fill="#E9F5F8"/>
<g clip-path="url(#clip0_497_4780)">
<path d="M21.25 9.2665C21.25 9.2605 21.25 9.256 21.25 9.25V7.75C21.25 7.55109 21.171 7.36032 21.0303 7.21967C20.8897 7.07902 20.6989 7 20.5 7C20.3011 7 20.1103 7.07902 19.9697 7.21967C19.829 7.36032 19.75 7.55109 19.75 7.75V8.575C19.5032 8.52487 19.2519 8.49975 19 8.5H18.25V7.75C18.25 7.55109 18.171 7.36032 18.0303 7.21967C17.8897 7.07902 17.6989 7 17.5 7C17.3011 7 17.1103 7.07902 16.9697 7.21967C16.829 7.36032 16.75 7.55109 16.75 7.75V8.5H15.25V7.75C15.25 7.55109 15.171 7.36032 15.0303 7.21967C14.8897 7.07902 14.6989 7 14.5 7C14.3011 7 14.1103 7.07902 13.9697 7.21967C13.829 7.36032 13.75 7.55109 13.75 7.75V8.5H13C12.7481 8.49975 12.4968 8.52487 12.25 8.575V7.75C12.25 7.55109 12.171 7.36032 12.0303 7.21967C11.8897 7.07902 11.6989 7 11.5 7C11.3011 7 11.1103 7.07902 10.9697 7.21967C10.829 7.36032 10.75 7.55109 10.75 7.75V9.25V9.2665C10.2856 9.61328 9.90827 10.0634 9.64792 10.5812C9.38757 11.0991 9.25134 11.6704 9.25 12.25V21.25C9.25119 22.2442 9.64666 23.1973 10.3497 23.9003C11.0527 24.6033 12.0058 24.9988 13 25H19C19.9942 24.9988 20.9473 24.6033 21.6503 23.9003C22.3533 23.1973 22.7488 22.2442 22.75 21.25V12.25C22.7487 11.6704 22.6124 11.0991 22.3521 10.5812C22.0917 10.0634 21.7144 9.61328 21.25 9.2665ZM21.25 21.25C21.25 21.8467 21.0129 22.419 20.591 22.841C20.169 23.2629 19.5967 23.5 19 23.5H13C12.4033 23.5 11.831 23.2629 11.409 22.841C10.9871 22.419 10.75 21.8467 10.75 21.25V12.25C10.75 11.6533 10.9871 11.081 11.409 10.659C11.831 10.2371 12.4033 10 13 10H19C19.5967 10 20.169 10.2371 20.591 10.659C21.0129 11.081 21.25 11.6533 21.25 12.25V21.25ZM19.75 13C19.75 13.1989 19.671 13.3897 19.5303 13.5303C19.3897 13.671 19.1989 13.75 19 13.75H13C12.8011 13.75 12.6103 13.671 12.4697 13.5303C12.329 13.3897 12.25 13.1989 12.25 13C12.25 12.8011 12.329 12.6103 12.4697 12.4697C12.6103 12.329 12.8011 12.25 13 12.25H19C19.1989 12.25 19.3897 12.329 19.5303 12.4697C19.671 12.6103 19.75 12.8011 19.75 13ZM19.75 16C19.75 16.1989 19.671 16.3897 19.5303 16.5303C19.3897 16.671 19.1989 16.75 19 16.75H13C12.8011 16.75 12.6103 16.671 12.4697 16.5303C12.329 16.3897 12.25 16.1989 12.25 16C12.25 15.8011 12.329 15.6103 12.4697 15.4697C12.6103 15.329 12.8011 15.25 13 15.25H19C19.1989 15.25 19.3897 15.329 19.5303 15.4697C19.671 15.6103 19.75 15.8011 19.75 16ZM16.75 19C16.75 19.1989 16.671 19.3897 16.5303 19.5303C16.3897 19.671 16.1989 19.75 16 19.75H13C12.8011 19.75 12.6103 19.671 12.4697 19.5303C12.329 19.3897 12.25 19.1989 12.25 19C12.25 18.8011 12.329 18.6103 12.4697 18.4697C12.6103 18.329 12.8011 18.25 13 18.25H16C16.1989 18.25 16.3897 18.329 16.5303 18.4697C16.671 18.6103 16.75 18.8011 16.75 19Z" fill="#219EBC"/>
</g>
<defs>
<clipPath id="clip0_497_4780">
<rect width="18" height="18" fill="white" transform="translate(7 7)"/>
</clipPath>
</defs>
</svg>
