<svg width="25" height="25" viewBox="0 0 25 25" fill="none" xmlns="http://www.w3.org/2000/svg">
<path d="M12.0416 0.0206885C11.666 0.0207444 11.3057 0.169997 11.0401 0.43562C10.7745 0.701245 10.6252 1.06149 10.6252 1.43714L10.6252 10.6251L1.43725 10.6251C1.0616 10.6251 0.701349 10.7744 0.435725 11.04C0.170101 11.3056 0.0208498 11.6659 0.0207931 12.0415C0.0208498 12.4172 0.170101 12.7774 0.435725 13.043C0.701349 13.3086 1.0616 13.4579 1.43725 13.458L10.6252 13.458L10.6252 22.6459C10.6252 23.0215 10.7745 23.3818 11.0401 23.6474C11.3057 23.913 11.666 24.0623 12.0416 24.0623C12.4173 24.0623 12.7775 23.913 13.0431 23.6474C13.3088 23.3818 13.458 23.0215 13.4581 22.6459V13.458H22.646C23.0216 13.4579 23.3819 13.3086 23.6475 13.043C23.9131 12.7774 24.0624 12.4172 24.0624 12.0415C24.0624 11.6659 23.9131 11.3056 23.6475 11.04C23.3819 10.7744 23.0216 10.6251 22.646 10.6251H13.4581V1.43714C13.458 1.06149 13.3088 0.701245 13.0431 0.435621C12.7775 0.169997 12.4173 0.0207445 12.0416 0.0206885Z" fill="white"/>
</svg>
