<svg width="22" height="24" viewBox="0 0 22 24" fill="none" xmlns="http://www.w3.org/2000/svg">
<path d="M21.8149 13.6582L19.8933 6.82296C19.33 4.82052 18.1059 3.06167 16.4154 1.826C14.725 0.590322 12.6653 -0.0512704 10.5636 0.00320346C8.462 0.0576773 6.4391 0.805092 4.81647 2.12664C3.19384 3.44819 2.06461 5.26804 1.60826 7.2969L0.1205 13.9111C-0.0438365 14.642 -0.0400371 15.4 0.131618 16.1292C0.303273 16.8584 0.638399 17.5402 1.11226 18.1242C1.58611 18.7082 2.1866 19.1796 2.86938 19.5035C3.55217 19.8273 4.29981 19.9955 5.05712 19.9954H6.18382C6.41595 21.1256 7.03615 22.1417 7.93934 22.8715C8.84253 23.6013 9.97316 24 11.1397 24C12.3062 24 13.4368 23.6013 14.34 22.8715C15.2432 22.1417 15.8634 21.1256 16.0955 19.9954H16.943C17.7226 19.9955 18.4917 19.8174 19.1901 19.4749C19.8885 19.1325 20.4974 18.6351 20.9692 18.0215C21.441 17.408 21.7629 16.6949 21.9098 15.938C22.0567 15.181 22.0236 14.4008 21.8149 13.6582ZM11.1397 21.9952C10.5143 21.9927 9.90511 21.7992 9.3953 21.4412C8.88549 21.0832 8.5 20.5783 8.29156 19.9954H13.9877C13.7793 20.5783 13.3938 21.0832 12.884 21.4412C12.3742 21.7992 11.765 21.9927 11.1397 21.9952ZM19.3583 16.8108C19.0764 17.1804 18.7113 17.48 18.2918 17.6857C17.8724 17.8914 17.4102 17.9975 16.942 17.9957H5.05712C4.60279 17.9956 4.15427 17.8947 3.74467 17.7003C3.33508 17.5059 2.97487 17.2231 2.69062 16.8727C2.40637 16.5223 2.20535 16.1133 2.10239 15.6758C1.99943 15.2383 1.99716 14.7836 2.09576 14.3451L3.58251 7.72985C3.9409 6.13624 4.82785 4.7068 6.10235 3.66877C7.37686 2.63073 8.96579 2.04367 10.6165 2.00092C12.2673 1.95817 13.8851 2.46217 15.2129 3.43281C16.5406 4.40345 17.502 5.78502 17.9443 7.35789L19.866 14.1931C19.9929 14.6384 20.0132 15.1069 19.925 15.5613C19.8369 16.0157 19.6428 16.4435 19.3583 16.8108Z" fill="#219EBC"/>
</svg>
