<svg width="12" height="13" viewBox="0 0 12 13" fill="none" xmlns="http://www.w3.org/2000/svg">
<path d="M9.5 1.5H9V1C9 0.724 8.776 0.5 8.5 0.5C8.224 0.5 8 0.724 8 1V1.5H4V1C4 0.724 3.776 0.5 3.5 0.5C3.224 0.5 3 0.724 3 1V1.5H2.5C1.1215 1.5 0 2.6215 0 4V10C0 11.3785 1.1215 12.5 2.5 12.5H9.5C10.8785 12.5 12 11.3785 12 10V4C12 2.6215 10.8785 1.5 9.5 1.5ZM2.5 2.5H9.5C10.327 2.5 11 3.173 11 4V4.5H1V4C1 3.173 1.673 2.5 2.5 2.5ZM9.5 11.5H2.5C1.673 11.5 1 10.827 1 10V5.5H11V10C11 10.827 10.327 11.5 9.5 11.5ZM8 8.5C8 8.776 7.776 9 7.5 9H4.5C4.224 9 4 8.776 4 8.5C4 8.224 4.224 8 4.5 8H7.5C7.776 8 8 8.224 8 8.5Z" fill="#6B737F"/>
</svg>
