<svg width="18" height="19" viewBox="0 0 18 19" fill="none" xmlns="http://www.w3.org/2000/svg">
<g clip-path="url(#clip0_497_4795)">
<path d="M14.25 3.6001H13.869L12.231 1.4761C12.0199 1.20445 11.7497 0.98441 11.441 0.832638C11.1323 0.680866 10.793 0.601345 10.449 0.600098L7.551 0.600098C7.20697 0.601345 6.86774 0.680866 6.559 0.832638C6.25026 0.98441 5.9801 1.20445 5.769 1.4761L4.131 3.6001H3.75C2.7558 3.60129 1.80267 3.99676 1.09966 4.69976C0.396661 5.40277 0.00119089 6.3559 0 7.3501L0 14.8501C0.00119089 15.8443 0.396661 16.7974 1.09966 17.5004C1.80267 18.2034 2.7558 18.5989 3.75 18.6001H14.25C15.2442 18.5989 16.1973 18.2034 16.9003 17.5004C17.6033 16.7974 17.9988 15.8443 18 14.8501V7.3501C17.9988 6.3559 17.6033 5.40277 16.9003 4.69976C16.1973 3.99676 15.2442 3.60129 14.25 3.6001ZM6.957 2.3926C7.02725 2.30189 7.11727 2.2284 7.2202 2.17771C7.32313 2.12702 7.43627 2.10048 7.551 2.1001H10.449C10.5637 2.10059 10.6768 2.12718 10.7797 2.17786C10.8826 2.22854 10.9727 2.30197 11.043 2.3926L11.9745 3.6001H6.0255L6.957 2.3926ZM16.5 14.8501C16.5 15.4468 16.2629 16.0191 15.841 16.4411C15.419 16.863 14.8467 17.1001 14.25 17.1001H3.75C3.15326 17.1001 2.58097 16.863 2.15901 16.4411C1.73705 16.0191 1.5 15.4468 1.5 14.8501V7.3501C1.5 6.75336 1.73705 6.18106 2.15901 5.75911C2.58097 5.33715 3.15326 5.1001 3.75 5.1001H14.25C14.8467 5.1001 15.419 5.33715 15.841 5.75911C16.2629 6.18106 16.5 6.75336 16.5 7.3501V14.8501Z" fill="white"/>
<path d="M9 6.6001C8.10999 6.6001 7.23996 6.86402 6.49994 7.35848C5.75991 7.85295 5.18314 8.55575 4.84254 9.37802C4.50195 10.2003 4.41283 11.1051 4.58647 11.978C4.7601 12.8509 5.18869 13.6527 5.81802 14.2821C6.44736 14.9114 7.24918 15.34 8.1221 15.5136C8.99501 15.6873 9.89981 15.5982 10.7221 15.2576C11.5443 14.917 12.2471 14.3402 12.7416 13.6002C13.2361 12.8601 13.5 11.9901 13.5 11.1001C13.4988 9.90699 13.0243 8.76309 12.1807 7.91943C11.337 7.07578 10.1931 6.60129 9 6.6001ZM9 14.1001C8.40666 14.1001 7.82664 13.9242 7.33329 13.5945C6.83994 13.2649 6.45543 12.7963 6.22836 12.2481C6.0013 11.7 5.94189 11.0968 6.05765 10.5148C6.1734 9.93288 6.45912 9.39833 6.87868 8.97878C7.29824 8.55922 7.83279 8.2735 8.41473 8.15774C8.99667 8.04199 9.59987 8.1014 10.1481 8.32846C10.6962 8.55552 11.1648 8.94004 11.4944 9.43339C11.8241 9.92673 12 10.5068 12 11.1001C12 11.8957 11.6839 12.6588 11.1213 13.2214C10.5587 13.784 9.79565 14.1001 9 14.1001Z" fill="white"/>
</g>
<defs>
<clipPath id="clip0_497_4795">
<rect width="18" height="18" fill="white" transform="translate(0 0.600098)"/>
</clipPath>
</defs>
</svg>
