<svg width="102" height="91" viewBox="0 0 102 91" fill="none" xmlns="http://www.w3.org/2000/svg">
<path d="M87.1964 74.9222C85.4971 79.9276 83.3117 84.9222 80.5119 89.676C80.4498 89.7831 80.387 89.888 80.3236 89.9947L73.3923 87.7895C73.4322 87.6886 73.4759 87.5757 73.5228 87.4524C76.3185 80.1817 93.1853 35.8831 92.4283 27.1489C92.5098 27.8639 95.1484 51.5237 87.1964 74.9222Z" fill="#E6E6E6"/>
<path d="M81.8489 90.1014C81.7548 90.1983 81.6581 90.2943 81.5607 90.3883L76.3611 88.734C76.4314 88.6485 76.5132 88.5477 76.6074 88.4338C78.1473 86.5425 82.7256 80.8801 87.1962 74.9221C92.0006 68.5196 96.6815 61.7767 97.3376 59.0061C97.2058 59.6361 93.1029 78.8153 81.8489 90.1014Z" fill="#E6E6E6"/>
<path d="M84.4481 16.3422C84.4461 16.3422 84.4443 16.3428 84.4423 16.3428V5.13382C84.4423 3.92028 83.963 2.75643 83.1097 1.89833C82.2564 1.04022 81.0991 0.55814 79.8923 0.55814H44.9968C43.79 0.55814 42.6327 1.04022 41.7794 1.89833C40.9261 2.75643 40.4468 3.92028 40.4468 5.13382V10.8801C40.3504 10.8822 40.2587 10.9221 40.1913 10.9913C40.1239 11.0606 40.0861 11.1536 40.086 11.2505V14.0967C40.086 14.1936 40.1239 14.2866 40.1913 14.3558C40.2587 14.425 40.3504 14.4649 40.4468 14.467V17.4487H40.4283C40.3798 17.4487 40.3318 17.4583 40.287 17.4769C40.2423 17.4956 40.2016 17.5229 40.1673 17.5574C40.133 17.5918 40.1058 17.6328 40.0873 17.6778C40.0687 17.7228 40.0592 17.7711 40.0592 17.8198V23.3237C40.0592 23.3724 40.0687 23.4207 40.0873 23.4657C40.1058 23.5108 40.133 23.5517 40.1673 23.5861C40.2016 23.6206 40.2423 23.6479 40.287 23.6666C40.3318 23.6853 40.3798 23.6949 40.4283 23.6948H40.4468V25.8808H40.441C40.3926 25.8808 40.3446 25.8904 40.2998 25.9091C40.255 25.9277 40.2143 25.955 40.18 25.9895C40.1458 26.024 40.1186 26.0649 40.1 26.1099C40.0815 26.155 40.0719 26.2032 40.0719 26.252V31.8097C40.0719 31.8584 40.0815 31.9067 40.1 31.9517C40.1186 31.9967 40.1458 32.0377 40.18 32.0721C40.2143 32.1066 40.255 32.1339 40.2998 32.1526C40.3446 32.1712 40.3926 32.1808 40.441 32.1808H40.4468V85.9027C40.4468 87.1162 40.9261 88.2801 41.7794 89.1382C42.6327 89.9963 43.79 90.4784 44.9968 90.4784H79.8923C81.0991 90.4784 82.2564 89.9963 83.1097 89.1382C83.963 88.2801 84.4423 87.1162 84.4423 85.9027V27.2418C84.4443 27.2418 84.4461 27.2423 84.4481 27.2423C84.5344 27.2423 84.6198 27.2252 84.6996 27.192C84.7793 27.1588 84.8518 27.1101 84.9128 27.0488C84.9738 26.9874 85.0222 26.9145 85.0552 26.8344C85.0883 26.7542 85.1053 26.6682 85.1053 26.5814V17.0031C85.1053 16.8278 85.036 16.6597 84.9128 16.5358C84.7895 16.4118 84.6224 16.3422 84.4481 16.3422Z" fill="#3F3D56"/>
<path d="M81.7257 6.41464V84.6206C81.7254 85.5524 81.3571 86.4459 80.7018 87.1047C80.0465 87.7634 79.1579 88.1335 78.2313 88.1335H46.658C45.7315 88.1335 44.8429 87.7634 44.1876 87.1047C43.5323 86.4459 43.164 85.5524 43.1636 84.6206V6.41464C43.1636 5.48263 43.5318 4.58879 44.1871 3.92976C44.8424 3.27074 45.7313 2.9005 46.658 2.9005H51.3827V3.51717C51.383 4.2845 51.6863 5.02031 52.2258 5.56289C52.7654 6.10548 53.497 6.41045 54.2601 6.41079H70.3233C71.0854 6.4091 71.8156 6.10348 72.3538 5.56101C72.8921 5.01853 73.1943 4.2835 73.1943 3.51717V2.90691H78.2313C79.157 2.90691 80.0448 3.27626 80.7 3.93391C81.3551 4.59155 81.724 5.48374 81.7257 6.41464Z" fill="white"/>
<path d="M30.5271 44.4409C30.3404 44.3682 30.1401 44.3375 29.9403 44.3511C29.7406 44.3647 29.5462 44.4221 29.3709 44.5194C29.1956 44.6167 29.0436 44.7514 28.9257 44.9141C28.8078 45.0769 28.7268 45.2636 28.6884 45.4612L17.4372 51.6136L19.4154 53.8526L29.8642 47.1091C30.1986 47.1519 30.537 47.0699 30.8153 46.8786C31.0936 46.6873 31.2924 46.4 31.3741 46.0711C31.4558 45.7422 31.4147 45.3946 31.2586 45.0941C31.1025 44.7937 30.8422 44.5613 30.5271 44.4409Z" fill="#FFB8B8"/>
<path d="M27.6578 88.7067L29.0598 87.7947L26.2292 81.9225L24.16 83.2684L27.6578 88.7067Z" fill="#FFB8B8"/>
<path d="M32.6055 87.3451L28.1993 90.2113L27.0981 88.4993L29.8656 86.6991C30.3002 86.4163 30.8287 86.3188 31.3348 86.428C31.841 86.5371 32.2832 86.844 32.5644 87.2811L32.6055 87.3451Z" fill="#2F2E41"/>
<path d="M11.9269 88.9189H13.5966L14.3912 82.4422H11.9269V88.9189Z" fill="#FFB8B8"/>
<path d="M16.8168 90.478H11.5691V88.439H14.8651C15.1214 88.439 15.3752 88.4898 15.612 88.5884C15.8488 88.6871 16.064 88.8316 16.2452 89.0139C16.4264 89.1961 16.5702 89.4125 16.6683 89.6506C16.7664 89.8888 16.8168 90.144 16.8168 90.4017V90.478Z" fill="#2F2E41"/>
<path d="M50.235 13.2496H46.7928C46.7083 13.2496 46.6272 13.2158 46.5675 13.1557C46.5077 13.0956 46.4741 13.0141 46.4741 12.9291C46.4741 12.8441 46.5077 12.7625 46.5675 12.7024C46.6272 12.6423 46.7083 12.6086 46.7928 12.6086H50.235C50.3195 12.6086 50.4006 12.6423 50.4603 12.7024C50.5201 12.7625 50.5537 12.8441 50.5537 12.9291C50.5537 13.0141 50.5201 13.0956 50.4603 13.1557C50.4006 13.2158 50.3195 13.2496 50.235 13.2496Z" fill="#3F3D56"/>
<path d="M50.235 14.147H46.7928C46.7083 14.147 46.6272 14.1132 46.5675 14.0531C46.5077 13.993 46.4741 13.9115 46.4741 13.8265C46.4741 13.7415 46.5077 13.66 46.5675 13.5998C46.6272 13.5397 46.7083 13.506 46.7928 13.506H50.235C50.3195 13.506 50.4006 13.5397 50.4603 13.5998C50.5201 13.66 50.5537 13.7415 50.5537 13.8265C50.5537 13.9115 50.5201 13.993 50.4603 14.0531C50.4006 14.1132 50.3195 14.147 50.235 14.147Z" fill="#3F3D56"/>
<path d="M50.235 15.0445H46.7928C46.7083 15.0445 46.6272 15.0107 46.5675 14.9506C46.5077 14.8905 46.4741 14.809 46.4741 14.724C46.4741 14.639 46.5077 14.5574 46.5675 14.4973C46.6272 14.4372 46.7083 14.4035 46.7928 14.4035H50.235C50.3195 14.4035 50.4006 14.4372 50.4603 14.4973C50.5201 14.5574 50.5537 14.639 50.5537 14.724C50.5537 14.809 50.5201 14.8905 50.4603 14.9506C50.4006 15.0107 50.3195 15.0445 50.235 15.0445Z" fill="#3F3D56"/>
<path d="M76.917 14.1535H76.801L76.7564 14.1163C76.9029 13.9406 76.9833 13.7187 76.9833 13.4894C76.9823 13.3007 76.9257 13.1166 76.8206 12.9603C76.7155 12.804 76.5667 12.6826 76.3931 12.6113C76.2194 12.5401 76.0285 12.5222 75.8448 12.56C75.661 12.5978 75.4924 12.6896 75.3605 12.8237C75.2286 12.9578 75.1392 13.1282 75.1036 13.3135C75.0679 13.4987 75.0877 13.6904 75.1605 13.8643C75.2332 14.0382 75.3555 14.1865 75.5121 14.2904C75.6686 14.3944 75.8523 14.4494 76.0399 14.4484C76.2672 14.4467 76.487 14.3661 76.662 14.2202L76.7054 14.2573V14.3753L77.4371 15.1125L77.6564 14.892L76.917 14.1535ZM76.0399 14.1535C75.9093 14.154 75.7814 14.1155 75.6726 14.043C75.5637 13.9704 75.4787 13.867 75.4282 13.7459C75.3778 13.6247 75.3642 13.4913 75.3891 13.3623C75.4141 13.2334 75.4766 13.1148 75.5686 13.0216C75.6606 12.9284 75.778 12.8647 75.906 12.8385C76.034 12.8124 76.1668 12.825 76.2877 12.8748C76.4085 12.9246 76.512 13.0094 76.585 13.1183C76.658 13.2272 76.6972 13.3555 76.6977 13.4868L76.6977 13.4894C76.6982 13.5761 76.6817 13.662 76.6492 13.7423C76.6167 13.8226 76.5687 13.8957 76.5081 13.9574C76.4475 14.019 76.3754 14.0681 76.2959 14.1017C76.2165 14.1354 76.1312 14.153 76.045 14.1535C76.0433 14.1535 76.0416 14.1535 76.0399 14.1535Z" fill="#3F3D56"/>
<path d="M57.2476 25.0446H51.0638C50.6919 25.0446 50.3352 24.896 50.0722 24.6315C49.8092 24.3671 49.6614 24.0084 49.6614 23.6343C49.6614 23.2603 49.8092 22.9016 50.0722 22.6371C50.3352 22.3726 50.6919 22.2241 51.0638 22.2241H57.2476C57.6195 22.2241 57.9762 22.3726 58.2392 22.6371C58.5022 22.9016 58.6499 23.2603 58.6499 23.6343C58.6499 24.0084 58.5022 24.3671 58.2392 24.6315C57.9762 24.896 57.6195 25.0446 57.2476 25.0446Z" fill="#219EBC"/>
<path d="M76.1786 28.1215H50.4264C50.2235 28.1215 50.0289 28.0404 49.8855 27.8962C49.742 27.7519 49.6614 27.5563 49.6614 27.3523C49.6614 27.1482 49.742 26.9526 49.8855 26.8083C50.0289 26.6641 50.2235 26.583 50.4264 26.583H76.1786C76.3815 26.583 76.576 26.6641 76.7195 26.8083C76.8629 26.9526 76.9435 27.1482 76.9435 27.3523C76.9435 27.5563 76.8629 27.7519 76.7195 27.8962C76.576 28.0404 76.3815 28.1215 76.1786 28.1215Z" fill="#E6E6E6"/>
<path d="M59.8859 31.1985H50.4264C50.2235 31.1985 50.0289 31.1174 49.8855 30.9732C49.742 30.8289 49.6614 30.6333 49.6614 30.4292C49.6614 30.2252 49.742 30.0296 49.8855 29.8853C50.0289 29.7411 50.2235 29.66 50.4264 29.66H59.8859C60.0887 29.66 60.2833 29.7411 60.4268 29.8853C60.5702 30.0296 60.6508 30.2252 60.6508 30.4292C60.6508 30.6333 60.5702 30.8289 60.4268 30.9732C60.2833 31.1174 60.0887 31.1985 59.8859 31.1985Z" fill="#E6E6E6"/>
<path d="M57.2476 59.1475H51.0638C50.6919 59.1475 50.3352 58.9989 50.0722 58.7345C49.8092 58.47 49.6614 58.1113 49.6614 57.7373C49.6614 57.3632 49.8092 57.0045 50.0722 56.74C50.3352 56.4756 50.6919 56.327 51.0638 56.327H57.2476C57.6195 56.327 57.9762 56.4756 58.2392 56.74C58.5022 57.0045 58.6499 57.3632 58.6499 57.7373C58.6499 58.1113 58.5022 58.47 58.2392 58.7345C57.9762 58.9989 57.6195 59.1475 57.2476 59.1475Z" fill="#219EBC"/>
<path d="M76.1786 62.2245H50.4264C50.2235 62.2245 50.0289 62.1434 49.8855 61.9992C49.742 61.8549 49.6614 61.6593 49.6614 61.4552C49.6614 61.2512 49.742 61.0556 49.8855 60.9113C50.0289 60.767 50.2235 60.686 50.4264 60.686H76.1786C76.3815 60.686 76.576 60.767 76.7195 60.9113C76.8629 61.0556 76.9435 61.2512 76.9435 61.4552C76.9435 61.6593 76.8629 61.8549 76.7195 61.9992C76.576 62.1434 76.3815 62.2245 76.1786 62.2245Z" fill="#E6E6E6"/>
<path d="M59.8859 65.3015H50.4264C50.2235 65.3015 50.0289 65.2204 49.8855 65.0762C49.742 64.9319 49.6614 64.7362 49.6614 64.5322C49.6614 64.3282 49.742 64.1326 49.8855 63.9883C50.0289 63.844 50.2235 63.763 50.4264 63.763H59.8859C60.0887 63.763 60.2833 63.844 60.4268 63.9883C60.5702 64.1326 60.6508 64.3282 60.6508 64.5322C60.6508 64.7362 60.5702 64.9319 60.4268 65.0762C60.2833 65.2204 60.0887 65.3015 59.8859 65.3015Z" fill="#E6E6E6"/>
<path d="M57.2476 74.917H51.0638C50.6919 74.917 50.3352 74.7684 50.0722 74.5039C49.8092 74.2394 49.6614 73.8807 49.6614 73.5067C49.6614 73.1327 49.8092 72.774 50.0722 72.5095C50.3352 72.245 50.6919 72.0964 51.0638 72.0964H57.2476C57.6195 72.0964 57.9762 72.245 58.2392 72.5095C58.5022 72.774 58.6499 73.1327 58.6499 73.5067C58.6499 73.8807 58.5022 74.2394 58.2392 74.5039C57.9762 74.7684 57.6195 74.917 57.2476 74.917Z" fill="#219EBC"/>
<path d="M76.1786 77.9939H50.4264C50.2235 77.9939 50.0289 77.9128 49.8855 77.7685C49.742 77.6243 49.6614 77.4286 49.6614 77.2246C49.6614 77.0206 49.742 76.8249 49.8855 76.6807C50.0289 76.5364 50.2235 76.4554 50.4264 76.4554H76.1786C76.3815 76.4554 76.576 76.5364 76.7195 76.6807C76.8629 76.8249 76.9435 77.0206 76.9435 77.2246C76.9435 77.4286 76.8629 77.6243 76.7195 77.7685C76.576 77.9128 76.3815 77.9939 76.1786 77.9939Z" fill="#E6E6E6"/>
<path d="M59.8859 81.0708H50.4264C50.2235 81.0708 50.0289 80.9898 49.8855 80.8455C49.742 80.7013 49.6614 80.5056 49.6614 80.3016C49.6614 80.0976 49.742 79.9019 49.8855 79.7577C50.0289 79.6134 50.2235 79.5324 50.4264 79.5324H59.8859C60.0887 79.5324 60.2833 79.6134 60.4268 79.7577C60.5702 79.9019 60.6508 80.0976 60.6508 80.3016C60.6508 80.5056 60.5702 80.7013 60.4268 80.8455C60.2833 80.9898 60.0887 81.0708 59.8859 81.0708Z" fill="#E6E6E6"/>
<path d="M79.8121 51.1346H30.6023C30.315 51.1343 30.0396 51.0194 29.8364 50.8151C29.6333 50.6108 29.519 50.3338 29.5187 50.0449V36.5832C29.519 36.2943 29.6333 36.0173 29.8364 35.813C30.0396 35.6087 30.315 35.4938 30.6023 35.4934H79.8121C80.0994 35.4938 80.3748 35.6087 80.5779 35.813C80.7811 36.0173 80.8954 36.2943 80.8957 36.5832V50.0449C80.8954 50.3338 80.7811 50.6108 80.5779 50.8151C80.3748 51.0194 80.0994 51.1343 79.8121 51.1346Z" fill="#219EBC"/>
<path d="M12.9112 67.1502C13.3816 70.4694 10.8905 85.1747 11.1671 85.1734L14.7444 85.1542C14.8719 84.908 16.5139 76.9733 17.029 75.7003C17.748 73.9336 18.4734 72.1451 18.7564 70.2579C19.0229 68.4861 18.8915 66.6809 18.7182 64.8976C18.7262 64.8445 18.7216 64.7903 18.7047 64.7394C18.6879 64.6885 18.6592 64.6423 18.6211 64.6048C18.583 64.5672 18.5365 64.5393 18.4856 64.5233C18.4346 64.5074 18.3806 64.5038 18.3281 64.5129L13.5282 64.2642C12.5389 64.2129 12.3043 63.995 12.4548 64.9719C12.5593 65.7014 12.8066 66.4117 12.9112 67.1502Z" fill="#0F4755"/>
<path d="M13.8543 59.0796C12.879 60.4899 11.8566 62.113 12.1804 63.8015C12.4265 65.0835 13.3979 66.0771 14.3145 67.0066C17.9785 70.7067 25.2032 87.0325 25.2032 87.0325C28.6897 84.7889 25.1201 87.0966 28.658 84.7248C28.3444 84.7004 21.2192 58.9424 20.6289 58.9078C18.2411 58.7489 16.1809 58.5142 13.8543 59.0796Z" fill="#0F4755"/>
<path d="M17.712 45.6565C17.2166 45.2122 13.7354 43.8422 13.7354 43.8422C13.6714 43.8336 13.6064 43.8356 13.5431 43.848C13.3449 43.8983 13.2546 44.1458 13.2969 44.346C13.3392 44.5462 12.992 47.8364 12.9026 49.3325C12.7458 51.9438 14.2749 57.8587 14.2615 58.0396C14.2091 58.6846 13.9282 59.2893 13.47 59.7436C13.5891 59.8923 21.1529 60.1905 21.6675 60.3665C21.7713 60.234 21.0818 50.8519 21.05 50.3219C20.9971 49.5173 18.366 46.2658 17.712 45.6565Z" fill="#FFAA00"/>
<path d="M12.3171 66.0141C12.4963 65.9244 12.6538 65.7962 12.7785 65.6387C12.9032 65.4811 12.992 65.298 13.0387 65.1022C13.0854 64.9064 13.0888 64.7027 13.0488 64.5054C13.0087 64.3081 12.9261 64.1221 12.8068 63.9604L15.9982 46.1987L13.0201 46.1592L10.8039 63.7232C10.547 63.9428 10.3792 64.2495 10.3321 64.5851C10.2851 64.9208 10.3621 65.2622 10.5487 65.5446C10.7352 65.8269 11.0182 66.0307 11.3442 66.1172C11.6701 66.2038 12.0163 66.1671 12.3171 66.0141Z" fill="#FFB8B8"/>
<path d="M12.2913 47.5166C12.1671 47.5257 12.0434 47.4932 11.9394 47.4243C11.7622 47.2717 13.2079 44.9371 13.4935 44.9025C14.4229 44.7948 15.379 44.7589 16.2804 45.0115C17.1817 45.264 18.0295 45.8384 18.4323 46.6884C18.6006 47.0423 17.3806 48.823 16.826 48.5615C16.1618 48.2487 13.1659 47.5384 12.2913 47.5166Z" fill="#E89B00"/>
<path d="M15.5718 43.6507C17.4193 43.6507 18.9169 42.1446 18.9169 40.2868C18.9169 38.4289 17.4193 36.9228 15.5718 36.9228C13.7244 36.9228 12.2267 38.4289 12.2267 40.2868C12.2267 42.1446 13.7244 43.6507 15.5718 43.6507Z" fill="#FFB8B8"/>
<path d="M12.2863 45.8488C12.7511 45.8977 13.2207 45.8287 13.6522 45.6479C14.0836 45.4671 14.4631 45.1804 14.7558 44.814C15.0486 44.4477 15.2454 44.0133 15.3281 43.5507C15.4108 43.0881 15.3769 42.612 15.2294 42.166C15.0962 41.7636 14.8737 41.3946 14.7518 40.9886C14.6299 40.5825 14.6266 40.1024 14.897 39.7769C15.426 39.1399 16.4457 39.5406 17.2612 39.4139C18.1303 39.279 18.797 38.4406 18.8665 37.559C18.9361 36.6775 18.4792 35.8052 17.799 35.2447C17.1189 34.6842 16.2417 34.4082 15.3666 34.3218C14.2427 34.2107 13.1093 34.3925 12.0756 34.8497C11.0419 35.3068 10.1426 36.0239 9.46431 36.932C8.78606 37.84 8.3517 38.9083 8.20305 40.0341C8.0544 41.1598 8.19647 42.3052 8.61558 43.3597C8.98119 44.2797 9.57838 45.1365 10.4266 45.6403C11.2749 46.1441 12.3952 46.2409 13.2406 45.7323" fill="#2F2E41"/>
<path d="M48.1032 41.6473H39.5547C39.0118 41.6473 38.5701 41.0147 38.5701 40.2371C38.5701 39.4594 39.0118 38.8268 39.5547 38.8268H48.1032C48.6461 38.8268 49.0878 39.4594 49.0878 40.2371C49.0878 41.0147 48.6461 41.6473 48.1032 41.6473Z" fill="#FFAA00"/>
<path d="M71.5257 44.5643H39.1898C38.9832 44.5643 38.785 44.5133 38.6389 44.4225C38.4927 44.3317 38.4106 44.2085 38.4106 44.0801C38.4106 43.9517 38.4927 43.8285 38.6389 43.7377C38.785 43.6469 38.9832 43.5959 39.1898 43.5959H71.5257C71.7323 43.5959 71.9305 43.6469 72.0767 43.7377C72.2228 43.8285 72.3049 43.9517 72.3049 44.0801C72.3049 44.2085 72.2228 44.3317 72.0767 44.4225C71.9305 44.5133 71.7323 44.5643 71.5257 44.5643Z" fill="#FFF7E6"/>
<path d="M55.0568 47.4695H39.1958C38.9876 47.4695 38.7879 47.4185 38.6406 47.3277C38.4934 47.2369 38.4106 47.1137 38.4106 46.9853C38.4106 46.8569 38.4934 46.7337 38.6406 46.6429C38.7879 46.5521 38.9876 46.5011 39.1958 46.5011H55.0568C55.265 46.5011 55.4647 46.5521 55.612 46.6429C55.7592 46.7337 55.842 46.8569 55.842 46.9853C55.842 47.1137 55.7592 47.2369 55.612 47.3277C55.4647 47.4185 55.265 47.4695 55.0568 47.4695Z" fill="#FFF7E6"/>
<path d="M101.357 90.3017H0.642883V90.5581H101.357V90.3017Z" fill="#3F3D56"/>
</svg>
