<svg width="94" height="91" viewBox="0 0 94 91" fill="none" xmlns="http://www.w3.org/2000/svg">
<path d="M69.9097 63.0234H26.8009C25.3391 63.0218 23.9375 62.4327 22.9038 61.3854C21.8701 60.3381 21.2887 58.9182 21.287 57.4371V6.14447C21.2887 4.66339 21.8701 3.24346 22.9038 2.19618C23.9375 1.14891 25.3391 0.559813 26.8009 0.55814H66.9066L75.4236 7.43591V57.4371C75.422 58.9182 74.8405 60.3381 73.8068 61.3854C72.7731 62.4327 71.3716 63.0218 69.9097 63.0234Z" fill="#E6E6E6"/>
<path d="M26.8673 2.22391C25.8295 2.2251 24.8345 2.64379 24.1006 3.38813C23.3668 4.13247 22.954 5.14167 22.9528 6.19432V57.3873C22.954 58.44 23.3668 59.4492 24.1006 60.1935C24.8345 60.9379 25.8295 61.3565 26.8673 61.3577H69.8434C70.8812 61.3565 71.8762 60.9379 72.6101 60.1935C73.3439 59.4492 73.7567 58.44 73.7579 57.3873V8.2565L66.296 2.22391H26.8673Z" fill="white"/>
<path d="M57.1935 31.3743H37.3916C37.1459 31.3743 36.9103 31.2866 36.7366 31.1304C36.5628 30.9742 36.4652 30.7624 36.4652 30.5415C36.4652 30.3206 36.5628 30.1087 36.7366 29.9525C36.9103 29.7963 37.1459 29.7086 37.3916 29.7086H57.1935C57.4392 29.7086 57.6748 29.7963 57.8485 29.9525C58.0223 30.1087 58.1199 30.3206 58.1199 30.5415C58.1199 30.7624 58.0223 30.9742 57.8485 31.1304C57.6748 31.2866 57.4392 31.3743 57.1935 31.3743Z" fill="#CCCCCC"/>
<path d="M61.3454 34.7059H37.4041C37.1551 34.7059 36.9163 34.5742 36.7402 34.3399C36.5642 34.1057 36.4652 33.7879 36.4652 33.4566C36.4652 33.1252 36.5642 32.8075 36.7402 32.5732C36.9163 32.3389 37.1551 32.2072 37.4041 32.2072H61.3454C61.5944 32.2072 61.8332 32.3389 62.0092 32.5732C62.1853 32.8075 62.2842 33.1252 62.2842 33.4566C62.2842 33.7879 62.1853 34.1057 62.0092 34.3399C61.8332 34.5742 61.5944 34.7059 61.3454 34.7059Z" fill="#CCCCCC"/>
<path d="M57.1935 45.5331H37.3916C37.1459 45.5331 36.9103 45.4015 36.7366 45.1672C36.5628 44.9329 36.4652 44.6152 36.4652 44.2838C36.4652 43.9525 36.5628 43.6347 36.7366 43.4004C36.9103 43.1661 37.1459 43.0345 37.3916 43.0345H57.1935C57.4392 43.0345 57.6748 43.1661 57.8485 43.4004C58.0223 43.6347 58.1199 43.9525 58.1199 44.2838C58.1199 44.6152 58.0223 44.9329 57.8485 45.1672C57.6748 45.4015 57.4392 45.5331 57.1935 45.5331Z" fill="#CCCCCC"/>
<path d="M61.3454 48.0317H37.4041C37.1551 48.0317 36.9163 47.944 36.7402 47.7878C36.5642 47.6316 36.4652 47.4198 36.4652 47.1989C36.4652 46.978 36.5642 46.7661 36.7402 46.6099C36.9163 46.4537 37.1551 46.366 37.4041 46.366H61.3454C61.5944 46.366 61.8332 46.4537 62.0092 46.6099C62.1853 46.7661 62.2842 46.978 62.2842 47.1989C62.2842 47.4198 62.1853 47.6316 62.0092 47.7878C61.8332 47.944 61.5944 48.0317 61.3454 48.0317Z" fill="#CCCCCC"/>
<path d="M30.7967 21.3799C32.6367 21.3799 34.1282 19.8884 34.1282 18.0484C34.1282 16.2085 32.6367 14.717 30.7967 14.717C28.9568 14.717 27.4652 16.2085 27.4652 18.0484C27.4652 19.8884 28.9568 21.3799 30.7967 21.3799Z" fill="#219EBC"/>
<path d="M30.4347 19.7141C30.3482 19.7143 30.2641 19.6824 30.1949 19.6233L30.1907 19.6196L29.2877 18.8322C29.2034 18.7583 29.1482 18.6493 29.1343 18.529C29.1204 18.4088 29.149 18.2872 29.2137 18.191C29.2784 18.0948 29.374 18.0318 29.4794 18.0158C29.5849 17.9999 29.6915 18.0323 29.776 18.106L30.3608 18.6174L31.7428 16.5617C31.7749 16.5141 31.8148 16.4741 31.8604 16.444C31.906 16.414 31.9564 16.3945 32.0086 16.3866C32.0608 16.3787 32.1139 16.3827 32.1648 16.3982C32.2157 16.4137 32.2634 16.4405 32.3052 16.477L32.2967 16.4907L32.3055 16.4771C32.3898 16.551 32.445 16.6601 32.4589 16.7803C32.4728 16.9005 32.4443 17.0221 32.3797 17.1184L30.7542 19.5352C30.7166 19.5909 30.6682 19.6359 30.6129 19.6669C30.5575 19.6978 30.4967 19.7138 30.435 19.7136L30.4347 19.7141Z" fill="white"/>
<path d="M30.7967 35.5387C32.6367 35.5387 34.1282 34.0472 34.1282 32.2072C34.1282 30.3673 32.6367 28.8758 30.7967 28.8758C28.9568 28.8758 27.4652 30.3673 27.4652 32.2072C27.4652 34.0472 28.9568 35.5387 30.7967 35.5387Z" fill="#CCCCCC"/>
<path d="M30.7967 48.8647C32.6367 48.8647 34.1282 47.3731 34.1282 45.5332C34.1282 43.6932 32.6367 42.2017 30.7967 42.2017C28.9568 42.2017 27.4652 43.6932 27.4652 45.5332C27.4652 47.3731 28.9568 48.8647 30.7967 48.8647Z" fill="#CCCCCC"/>
<path d="M75.3016 8.05398H68.2131C67.6957 8.05398 67.1994 7.84314 66.8335 7.46785C66.4676 7.09256 66.262 6.58356 66.262 6.05282V0.683214C66.262 0.659706 66.2685 0.636671 66.2806 0.616756C66.2928 0.59684 66.3102 0.580848 66.3309 0.570614C66.3515 0.56038 66.3745 0.556317 66.3973 0.558893C66.4201 0.561468 66.4417 0.570577 66.4597 0.585175L75.3773 7.83086C75.3972 7.84699 75.4117 7.86905 75.4187 7.89398C75.4258 7.91892 75.4251 7.94549 75.4168 7.97002C75.4085 7.99454 75.3929 8.01581 75.3723 8.03085C75.3516 8.04589 75.3269 8.05398 75.3016 8.05398Z" fill="#E6E6E6"/>
<path d="M31.2822 57.9089L7.68421 62.9297C7.00226 63.074 6.29145 62.9393 5.70774 62.5553C5.12402 62.1712 4.71507 61.5691 4.57059 60.8811L0.521211 41.4893C0.378269 40.8009 0.511671 40.0834 0.892151 39.4942C1.27263 38.905 1.86912 38.4922 2.55074 38.3464L26.1487 33.3256C26.8307 33.1813 27.5415 33.3159 28.1252 33.7C28.7089 34.0841 29.1179 34.6861 29.2624 35.3742L33.3117 54.766C33.4547 55.4544 33.3213 56.1718 32.9408 56.761C32.5603 57.3502 31.9638 57.763 31.2822 57.9089Z" fill="white"/>
<path d="M31.2822 57.9089L7.68421 62.9297C7.00226 63.074 6.29145 62.9393 5.70774 62.5553C5.12402 62.1712 4.71507 61.5691 4.57059 60.8811L0.521211 41.4893C0.378269 40.8009 0.511671 40.0834 0.892151 39.4942C1.27263 38.905 1.86912 38.4922 2.55074 38.3464L26.1487 33.3256C26.8307 33.1813 27.5415 33.3159 28.1252 33.7C28.7089 34.0841 29.1179 34.6861 29.2624 35.3742L33.3117 54.766C33.4547 55.4544 33.3213 56.1718 32.9408 56.761C32.5603 57.3502 31.9638 57.763 31.2822 57.9089ZM2.61451 38.6518C2.01308 38.7804 1.48677 39.1447 1.15106 39.6646C0.815338 40.1845 0.697627 40.8175 0.823748 41.4249L4.87313 60.8167C5.00061 61.4238 5.36146 61.955 5.8765 62.2939C6.39154 62.6328 7.01872 62.7516 7.62044 62.6243L31.2184 57.6035C31.8199 57.4748 32.3462 57.1106 32.6819 56.5907C33.0176 56.0708 33.1353 55.4377 33.0092 54.8304L28.9598 35.4386C28.8323 34.8315 28.4715 34.3002 27.9565 33.9614C27.4414 33.6225 26.8142 33.5037 26.2125 33.631L2.61451 38.6518Z" fill="#3F3D56"/>
<path d="M24.6827 39.7196L12.7731 42.2535C12.6689 42.278 12.5594 42.2615 12.4667 42.2076C12.374 42.1536 12.3051 42.0661 12.2739 41.9628C12.2596 41.909 12.2563 41.8527 12.2643 41.7975C12.2723 41.7424 12.2913 41.6894 12.3202 41.6419C12.3491 41.5944 12.3873 41.5533 12.4325 41.5212C12.4776 41.489 12.5288 41.4665 12.5828 41.455L24.7061 38.8756C25.1794 39.1449 25.03 39.6457 24.6827 39.7196Z" fill="#CCCCCC"/>
<path d="M25.1228 41.8283L13.2132 44.3622C13.1089 44.3866 12.9994 44.3702 12.9067 44.3162C12.8141 44.2622 12.7452 44.1748 12.7139 44.0715C12.6996 44.0176 12.6964 43.9614 12.7044 43.9062C12.7123 43.851 12.7313 43.798 12.7602 43.7505C12.7892 43.703 12.8274 43.6619 12.8725 43.6298C12.9177 43.5977 12.9688 43.5752 13.0229 43.5637L25.1461 40.9843C25.6195 41.2536 25.47 41.7544 25.1228 41.8283Z" fill="#CCCCCC"/>
<path d="M10.8892 46.1107L7.25454 46.884C7.13584 46.9091 7.01211 46.8857 6.9105 46.8188C6.8089 46.752 6.73772 46.6472 6.71258 46.5274L5.80849 42.1978C5.78359 42.078 5.8068 41.9531 5.87303 41.8506C5.93926 41.748 6.0431 41.6762 6.16175 41.6508L9.79644 40.8775C9.91514 40.8524 10.0389 40.8758 10.1404 40.9427C10.242 41.0095 10.3132 41.1143 10.3384 41.234L11.2425 45.5636C11.2674 45.6834 11.2442 45.8083 11.1779 45.9109C11.1117 46.0134 11.0079 46.0853 10.8892 46.1107Z" fill="#CCCCCC"/>
<path d="M25.99 46.1531L7.81374 50.0204C7.70952 50.0448 7.60001 50.0283 7.50734 49.9744C7.41466 49.9204 7.34574 49.8329 7.31451 49.7296C7.30023 49.6758 7.29697 49.6195 7.30494 49.5644C7.3129 49.5092 7.33192 49.4562 7.36083 49.4087C7.38974 49.3612 7.42794 49.3201 7.4731 49.288C7.51826 49.2559 7.56943 49.2334 7.62348 49.2219L26.0135 45.3091C26.4869 45.5784 26.3373 46.0792 25.99 46.1531Z" fill="#CCCCCC"/>
<path d="M26.4304 48.2624L8.25417 52.1297C8.14995 52.1541 8.04044 52.1377 7.94776 52.0837C7.85509 52.0297 7.78617 51.9423 7.75494 51.839C7.74066 51.7851 7.7374 51.7288 7.74537 51.6737C7.75333 51.6185 7.77235 51.5655 7.80126 51.518C7.83017 51.4705 7.86837 51.4294 7.91353 51.3973C7.95869 51.3652 8.00986 51.3427 8.06391 51.3312L26.4539 47.4184C26.9273 47.6877 26.7777 48.1885 26.4304 48.2624Z" fill="#CCCCCC"/>
<path d="M26.8702 50.3703L8.69399 54.2376C8.58977 54.262 8.48025 54.2456 8.38758 54.1916C8.29491 54.1376 8.22599 54.0502 8.19476 53.9469C8.18048 53.893 8.17722 53.8368 8.18519 53.7816C8.19315 53.7264 8.21217 53.6734 8.24108 53.6259C8.26999 53.5784 8.30819 53.5373 8.35335 53.5052C8.3985 53.4731 8.44968 53.4506 8.50373 53.4391L26.8938 49.5263C27.3671 49.7956 27.2175 50.2965 26.8702 50.3703Z" fill="#CCCCCC"/>
<path d="M27.3108 52.4795L9.13454 56.3467C9.03032 56.3711 8.9208 56.3547 8.82813 56.3007C8.73546 56.2468 8.66654 56.1593 8.63531 56.056C8.62103 56.0021 8.61777 55.9459 8.62574 55.8907C8.6337 55.8355 8.65272 55.7826 8.68163 55.735C8.71054 55.6875 8.74874 55.6465 8.7939 55.6143C8.83906 55.5822 8.89023 55.5597 8.94428 55.5482L27.3343 51.6355C27.8077 51.9047 27.6581 52.4056 27.3108 52.4795Z" fill="#CCCCCC"/>
<path d="M27.7511 54.5875L9.57485 58.4548C9.47063 58.4792 9.36111 58.4627 9.26844 58.4088C9.17577 58.3548 9.10685 58.2673 9.07562 58.164C9.06134 58.1102 9.05808 58.0539 9.06605 57.9987C9.07401 57.9436 9.09302 57.8906 9.12194 57.8431C9.15085 57.7956 9.18905 57.7545 9.23421 57.7224C9.27936 57.6902 9.33053 57.6677 9.38459 57.6562L27.7746 53.7435C28.248 54.0128 28.0984 54.5136 27.7511 54.5875Z" fill="#CCCCCC"/>
<path d="M30.9594 44.9334C30.9181 45.009 30.8828 45.0878 30.8538 45.1691L23.4127 47.0329L22.1182 45.6812L19.8418 47.3865L21.9031 50.0043C22.0696 50.2158 22.2996 50.3671 22.5585 50.4354C22.8174 50.5037 23.0913 50.4854 23.3391 50.3832L31.4134 47.0528C31.6787 47.25 31.9973 47.361 32.3267 47.371C32.6561 47.3809 32.9807 47.2894 33.2573 47.1086C33.5339 46.9279 33.7495 46.6664 33.8753 46.3589C34.0011 46.0515 34.0311 45.7126 33.9615 45.3875C33.8919 45.0624 33.7258 44.7664 33.4854 44.5388C33.2451 44.3113 32.9417 44.163 32.6158 44.1137C32.2899 44.0644 31.9569 44.1164 31.661 44.2629C31.3651 44.4093 31.1204 44.6432 30.9594 44.9334Z" fill="#A0616A"/>
<path d="M5.56036 61.52C5.79234 61.4477 6.00579 61.3249 6.18568 61.1603C6.36556 60.9957 6.50751 60.7933 6.60152 60.5674C6.69553 60.3414 6.73931 60.0974 6.72979 59.8525C6.72026 59.6076 6.65766 59.3678 6.54639 59.15L11.6672 44.7832L8.11096 44.1471L4.19564 58.4692C3.84551 58.6821 3.58493 59.0173 3.46327 59.4112C3.34161 59.8051 3.36733 60.2304 3.53555 60.6064C3.70377 60.9825 4.0028 61.2832 4.37599 61.4516C4.74917 61.6199 5.17058 61.6443 5.56036 61.52Z" fill="#A0616A"/>
<path d="M11.0168 47.3334L7.50556 45.9732C7.40566 45.9345 7.3152 45.8745 7.24033 45.7973C7.16547 45.7201 7.10796 45.6276 7.07173 45.5259C7.03549 45.4243 7.02139 45.316 7.03037 45.2084C7.03935 45.1007 7.0712 44.9963 7.12376 44.9022L8.96574 41.6056C9.16485 41.0909 9.55804 40.6768 10.0591 40.4542C10.5602 40.2316 11.1283 40.2187 11.6388 40.4182C12.1493 40.6177 12.5607 41.0134 12.7826 41.5186C13.0046 42.0237 13.019 42.5971 12.8228 43.113L12.0104 46.7953C11.9871 46.9007 11.9415 46.9998 11.8769 47.0859C11.8122 47.172 11.7299 47.2429 11.6356 47.294C11.5413 47.3451 11.4373 47.375 11.3305 47.3818C11.2237 47.3886 11.1167 47.3721 11.0168 47.3334Z" fill="#FFAA00"/>
<path d="M18.9422 88.493L20.8375 88.4928L21.7391 81.1137L18.9419 81.1138L18.9422 88.493Z" fill="#A0616A"/>
<path d="M18.4585 87.8684L22.191 87.8682H22.1911C22.5035 87.8682 22.8128 87.9303 23.1014 88.0509C23.39 88.1716 23.6522 88.3485 23.8731 88.5714C24.094 88.7944 24.2692 89.059 24.3887 89.3503C24.5083 89.6416 24.5698 89.9539 24.5698 90.2692V90.3472L18.4586 90.3474L18.4585 87.8684Z" fill="#2F2E41"/>
<path d="M8.27536 88.493L10.1707 88.4928L11.0723 81.1137L8.27505 81.1138L8.27536 88.493Z" fill="#A0616A"/>
<path d="M7.7919 87.8684L11.5244 87.8682H11.5245C11.8369 87.8682 12.1462 87.9303 12.4348 88.0509C12.7234 88.1716 12.9856 88.3485 13.2065 88.5714C13.4274 88.7944 13.6026 89.059 13.7221 89.3503C13.8416 89.6416 13.9032 89.9539 13.9032 90.2692V90.3472L7.79202 90.3474L7.7919 87.8684Z" fill="#2F2E41"/>
<path d="M10.2621 85.523H7.86366C7.76952 85.5229 7.67637 85.5037 7.58983 85.4662C7.5033 85.4288 7.42518 85.3741 7.36022 85.3053C7.29525 85.2366 7.24479 85.1552 7.21189 85.0662C7.17898 84.9771 7.16432 84.8823 7.16878 84.7874L8.30804 60.0802L8.37982 60.0782L19.9618 59.7735L22.2282 84.4948C22.2369 84.5875 22.2273 84.681 22.1999 84.7698C22.1725 84.8587 22.1278 84.9412 22.0686 85.0125C22.0093 85.0839 21.9366 85.1426 21.8546 85.1852C21.7726 85.2279 21.6831 85.2537 21.5912 85.2612L18.8972 85.4786C18.7279 85.4922 18.5596 85.4429 18.4239 85.3399C18.2882 85.237 18.1944 85.0875 18.1602 84.9197L14.7143 67.3213C14.7049 67.2678 14.6768 67.2195 14.6351 67.1852C14.5935 67.1509 14.541 67.1328 14.4872 67.1342H14.4863C14.4323 67.133 14.3797 67.1514 14.3381 67.1861C14.2965 67.2208 14.2686 67.2694 14.2596 67.3231L10.9447 84.9564C10.9133 85.1159 10.8281 85.2595 10.7037 85.3628C10.5793 85.4661 10.4232 85.5227 10.2621 85.523Z" fill="#0F4755"/>
<path d="M14.6556 38.0446C16.7526 38.0446 18.4526 36.3287 18.4526 34.212C18.4526 32.0952 16.7526 30.3793 14.6556 30.3793C12.5586 30.3793 10.8587 32.0952 10.8587 34.212C10.8587 36.3287 12.5586 38.0446 14.6556 38.0446Z" fill="#A0616A"/>
<path d="M13.3825 62.9756C11.5727 62.9756 9.71392 62.4955 8.17298 61.0758C8.09097 61.0008 8.02767 60.9073 7.98819 60.8029C7.94872 60.6985 7.9342 60.5862 7.9458 60.4751C8.11074 58.9792 8.9108 51.2557 8.46023 46.0964C8.37231 45.1327 8.50747 44.1616 8.85505 43.2597C9.20264 42.3578 9.75313 41.5497 10.4631 40.8993C11.1606 40.2504 11.998 39.774 12.9091 39.5077C13.8203 39.2414 14.7803 39.1925 15.7134 39.3648C15.7607 39.3733 15.808 39.3823 15.8553 39.3914C18.8952 39.9853 21.0073 42.8251 20.7683 45.997C20.4195 50.6254 20.1069 56.8859 20.5978 60.4263C20.6181 60.5712 20.5931 60.7188 20.5261 60.8485C20.4592 60.9783 20.3537 61.0837 20.2245 61.1499C19.1076 61.7195 16.3092 62.9756 13.3825 62.9756Z" fill="#FFAA00"/>
<path d="M18.3371 47.6092C18.248 47.5494 18.1727 47.4708 18.1164 47.379C18.0601 47.2871 18.0242 47.1841 18.0109 47.0769L17.5483 43.3334C17.4015 42.801 17.4698 42.2315 17.7382 41.7499C18.0067 41.2683 18.4534 40.9137 18.9804 40.764C19.5074 40.6143 20.0717 40.6816 20.5496 40.9513C21.0275 41.2209 21.38 41.6708 21.5298 42.2023L23.0535 45.6605C23.097 45.7592 23.1188 45.8662 23.1177 45.9742C23.1165 46.0822 23.0923 46.1887 23.0466 46.2864C23.001 46.3841 22.9351 46.4707 22.8533 46.5404C22.7715 46.61 22.6758 46.6611 22.5727 46.69L18.9495 47.7078C18.8464 47.7368 18.7383 47.743 18.6326 47.726C18.5269 47.709 18.4261 47.6691 18.3371 47.6092Z" fill="#FFAA00"/>
<path d="M13.3301 37.9905C12.9707 37.9972 12.6136 37.932 12.2793 37.7986C12.1323 37.7414 11.9796 37.6944 11.8328 37.6371C10.5363 37.1315 9.68219 35.7377 9.6516 34.3351C9.62101 32.9325 10.3406 31.5711 11.4092 30.6739C12.4778 29.7767 13.8618 29.3161 15.2477 29.2095C16.7406 29.0948 18.4216 29.4769 19.2557 30.7319C19.4778 31.0659 19.6331 31.4712 19.5015 31.8745C19.4621 31.9962 19.3917 32.1054 19.2974 32.191C18.9249 32.5255 18.5535 32.274 18.1737 32.2518C17.6517 32.2212 17.1829 32.6477 17.0144 33.1473C16.8459 33.6469 16.92 34.197 17.0561 34.7066C17.1597 35.0132 17.2251 35.3317 17.2506 35.6547C17.2616 35.8167 17.2314 35.9788 17.1629 36.1256C17.0945 36.2725 16.99 36.3993 16.8593 36.494C16.5332 36.693 16.1048 36.5778 15.7784 36.3791C15.4521 36.1804 15.1701 35.9042 14.8175 35.758C14.465 35.6117 13.9913 35.6442 13.7862 35.9684C13.7209 36.0864 13.6768 36.215 13.6558 36.3484C13.4718 37.1944 13.5141 37.1445 13.3301 37.9905Z" fill="#2F2E41"/>
<path d="M30.0948 90.5582H0.722128C0.681128 90.5582 0.641806 90.5417 0.612815 90.5125C0.583823 90.4832 0.567535 90.4435 0.567535 90.4021C0.567535 90.3607 0.583823 90.321 0.612815 90.2918C0.641806 90.2625 0.681128 90.2461 0.722128 90.2461H30.0948C30.1358 90.2461 30.1751 90.2625 30.2041 90.2918C30.2331 90.321 30.2494 90.3607 30.2494 90.4021C30.2494 90.4435 30.2331 90.4832 30.2041 90.5125C30.1751 90.5417 30.1358 90.5582 30.0948 90.5582Z" fill="#161616"/>
<path d="M89.4612 57.7952L68.4277 69.7042C67.8196 70.0476 67.1014 70.1335 66.4307 69.943C65.7599 69.7526 65.1914 69.3013 64.8499 68.6883L55.245 51.4039C54.9048 50.7901 54.8197 50.0651 55.0084 49.3881C55.197 48.711 55.6441 48.1372 56.2514 47.7924L77.2849 35.8834C77.893 35.54 78.6112 35.4541 79.2819 35.6445C79.9527 35.835 80.5212 36.2862 80.8628 36.8993L90.4677 54.1837C90.8078 54.7975 90.8929 55.5225 90.7043 56.1995C90.5156 56.8765 90.0685 57.4504 89.4612 57.7952Z" fill="white"/>
<path d="M89.4612 57.7952L68.4277 69.7042C67.8196 70.0476 67.1014 70.1335 66.4307 69.943C65.7599 69.7526 65.1914 69.3013 64.8499 68.6883L55.245 51.4039C54.9048 50.7901 54.8197 50.0651 55.0084 49.3881C55.197 48.711 55.6441 48.1372 56.2514 47.7924L77.2849 35.8834C77.893 35.54 78.6112 35.4541 79.2819 35.6445C79.9527 35.835 80.5212 36.2862 80.8628 36.8993L90.4677 54.1837C90.8078 54.7975 90.8929 55.5225 90.7043 56.1995C90.5156 56.8765 90.0685 57.4504 89.4612 57.7952ZM56.4026 48.0646C55.8668 48.3688 55.4724 48.8752 55.3059 49.4726C55.1394 50.07 55.2145 50.7096 55.5146 51.2512L65.1195 68.5356C65.4209 69.0765 65.9225 69.4747 66.5144 69.6427C67.1062 69.8108 67.7399 69.735 68.2764 69.432L89.31 57.523C89.8458 57.2188 90.2403 56.7124 90.4067 56.115C90.5732 55.5176 90.4981 54.878 90.198 54.3364L80.5931 37.0519C80.2917 36.511 79.7901 36.1129 79.1983 35.9448C78.6064 35.7768 77.9727 35.8526 77.4362 36.1556L56.4026 48.0646Z" fill="#3F3D56"/>
<path d="M77.7785 42.4275L67.1632 48.4378C67.0709 48.4926 66.9616 48.5099 66.8572 48.4864C66.7527 48.4628 66.6611 48.4001 66.6007 48.311C66.5711 48.2639 66.5514 48.2112 66.5426 48.1561C66.5339 48.1011 66.5364 48.0448 66.5499 47.9907C66.5634 47.9366 66.5877 47.8859 66.6213 47.8416C66.6549 47.7974 66.697 47.7605 66.7452 47.7332L77.551 41.615C78.0825 41.7292 78.0881 42.2522 77.7785 42.4275Z" fill="#CCCCCC"/>
<path d="M78.823 44.3069L68.2076 50.3173C68.1154 50.372 68.006 50.3894 67.9016 50.3658C67.7972 50.3423 67.7055 50.2796 67.6451 50.1904C67.6156 50.1433 67.5958 50.0906 67.5871 50.0356C67.5783 49.9805 67.5808 49.9242 67.5943 49.8702C67.6078 49.8161 67.6321 49.7654 67.6657 49.7211C67.6993 49.6768 67.7415 49.6399 67.7897 49.6126L78.5954 43.4945C79.1269 43.6087 79.1325 44.1317 78.823 44.3069Z" fill="#CCCCCC"/>
<path d="M66.5075 52.6868L63.2678 54.5211C63.162 54.5808 63.037 54.5958 62.9202 54.5627C62.8035 54.5295 62.7045 54.451 62.6451 54.3442L60.5006 50.4852C60.4414 50.3783 60.4266 50.2522 60.4594 50.1343C60.4922 50.0165 60.5701 49.9166 60.6758 49.8566L63.9155 48.0223C64.0213 47.9625 64.1463 47.9476 64.2631 47.9807C64.3798 48.0139 64.4788 48.0924 64.5382 48.1991L66.6827 52.0582C66.7419 52.165 66.7568 52.2912 66.7239 52.409C66.6911 52.5269 66.6132 52.6268 66.5075 52.6868Z" fill="#CCCCCC"/>
<path d="M80.9307 48.1728L64.7297 57.3457C64.6375 57.4004 64.5281 57.4178 64.4237 57.3942C64.3193 57.3707 64.2276 57.308 64.1672 57.2188C64.1376 57.1717 64.1179 57.119 64.1092 57.064C64.1004 57.0089 64.1029 56.9526 64.1164 56.8986C64.1299 56.8445 64.1542 56.7938 64.1878 56.7495C64.2214 56.7052 64.2636 56.6683 64.3118 56.641L80.7033 47.3603C81.2347 47.4745 81.2402 47.9975 80.9307 48.1728Z" fill="#CCCCCC"/>
<path d="M81.9754 50.0528L65.7744 59.2257C65.6822 59.2804 65.5728 59.2978 65.4684 59.2742C65.3639 59.2507 65.2723 59.188 65.2119 59.0988C65.1823 59.0517 65.1626 58.999 65.1538 58.944C65.1451 58.8889 65.1476 58.8326 65.1611 58.7786C65.1746 58.7245 65.1989 58.6738 65.2325 58.6295C65.2661 58.5852 65.3082 58.5483 65.3564 58.521L81.748 49.2403C82.2794 49.3545 82.2849 49.8776 81.9754 50.0528Z" fill="#CCCCCC"/>
<path d="M83.0193 51.9317L66.8183 61.1046C66.7261 61.1593 66.6167 61.1767 66.5123 61.1531C66.4079 61.1296 66.3162 61.0669 66.2559 60.9777C66.2263 60.9306 66.2065 60.878 66.1978 60.8229C66.189 60.7678 66.1915 60.7115 66.205 60.6575C66.2186 60.6034 66.2429 60.5527 66.2764 60.5084C66.31 60.4641 66.3522 60.4272 66.4004 60.4L82.7919 51.1192C83.3234 51.2334 83.3288 51.7565 83.0193 51.9317Z" fill="#CCCCCC"/>
<path d="M84.0641 53.8116L67.8631 62.9845C67.7709 63.0392 67.6615 63.0566 67.5571 63.033C67.4527 63.0095 67.361 62.9468 67.3007 62.8576C67.2711 62.8105 67.2513 62.7578 67.2426 62.7028C67.2338 62.6477 67.2363 62.5914 67.2498 62.5374C67.2634 62.4833 67.2877 62.4326 67.3212 62.3883C67.3548 62.344 67.397 62.3071 67.4452 62.2798L83.8367 52.9991C84.3682 53.1133 84.3736 53.6363 84.0641 53.8116Z" fill="#CCCCCC"/>
<path d="M85.1081 55.6906L68.9071 64.8635C68.8148 64.9182 68.7055 64.9355 68.601 64.912C68.4966 64.8884 68.405 64.8257 68.3446 64.7366C68.315 64.6895 68.2953 64.6368 68.2865 64.5817C68.2778 64.5267 68.2803 64.4704 68.2938 64.4163C68.3073 64.3623 68.3316 64.3115 68.3652 64.2673C68.3988 64.223 68.4409 64.1861 68.4891 64.1588L84.8807 54.878C85.4121 54.9922 85.4176 55.5153 85.1081 55.6906Z" fill="#CCCCCC"/>
<path d="M82.2817 62.7319C82.37 62.5354 82.4144 62.3219 82.412 62.1062C82.4096 61.8906 82.3604 61.6781 82.2679 61.4837C82.1753 61.2893 82.0416 61.1178 81.8763 60.9812C81.7109 60.8446 81.5179 60.7462 81.3109 60.6931L80.8703 55.4695L78.7514 57.1568L79.4946 61.8585C79.4292 62.2156 79.4958 62.5844 79.6818 62.8952C79.8678 63.206 80.1603 63.4371 80.5039 63.5448C80.8474 63.6524 81.2182 63.6291 81.5458 63.4793C81.8735 63.3295 82.1353 63.0635 82.2817 62.7319Z" fill="#FFB8B8"/>
<path d="M80.9101 60.146L79.1504 60.3578C79.061 60.3685 78.9703 60.3606 78.8841 60.3343C78.7979 60.3081 78.718 60.2641 78.6494 60.2053C78.5808 60.1464 78.525 60.0739 78.4854 59.9923C78.4459 59.9106 78.4235 59.8216 78.4196 59.7308L78.1629 53.7383L74.8272 44.54C74.6935 44.2546 74.6326 43.94 74.6499 43.6247C74.6672 43.3095 74.7622 43.0036 74.9263 42.7349C75.0081 42.605 75.1017 42.4832 75.2059 42.3708C75.4112 42.1477 75.6669 41.9779 75.9512 41.876C76.2355 41.7741 76.5399 41.7431 76.8387 41.7856C77.1465 41.8269 77.44 41.9418 77.695 42.1206C77.95 42.2995 78.159 42.5371 78.3047 42.8139L80.4801 47.4152C81.39 49.3398 81.8196 51.4598 81.7314 53.5904L81.4861 59.5183C81.4797 59.6734 81.4193 59.8213 81.3155 59.9359C81.2118 60.0505 81.0713 60.1244 80.9188 60.1448L80.9101 60.146Z" fill="#FFAA00"/>
<path d="M87.16 86.0449L85.5284 86.7677L81.9898 80.7595L84.3977 79.6926L87.16 86.0449Z" fill="#FFB8B8"/>
<path d="M88.2704 87.457L83.0096 89.7879L82.9804 89.7207C82.8624 89.4493 82.7984 89.157 82.7923 88.8607C82.7861 88.5643 82.8379 88.2696 82.9445 87.9935C83.0512 87.7173 83.2107 87.465 83.414 87.2511C83.6172 87.0371 83.8603 86.8657 84.1292 86.7465L87.3424 85.3228L88.2704 87.457Z" fill="#2F2E41"/>
<path d="M65.2556 88.0444H63.4738L62.6261 81.107L65.2559 81.1072L65.2556 88.0444Z" fill="#FFB8B8"/>
<path d="M65.7102 89.7879L59.9649 89.7876V89.7143C59.9649 89.4179 60.0227 89.1243 60.1351 88.8505C60.2475 88.5766 60.4122 88.3278 60.6198 88.1182C60.8275 87.9086 61.074 87.7423 61.3453 87.6289C61.6167 87.5154 61.9074 87.4571 62.2011 87.4571L65.7103 87.4572L65.7102 89.7879Z" fill="#2F2E41"/>
<path d="M82.6035 85.6728L72.6776 63.314C72.6597 63.2721 72.6293 63.2368 72.5907 63.2131C72.5521 63.1894 72.5071 63.1784 72.462 63.1816C72.4169 63.1848 72.3739 63.2021 72.339 63.2311C72.304 63.2601 72.2789 63.2993 72.267 63.3434L66.2192 84.9393C66.1793 85.0904 66.0873 85.2222 65.9596 85.3109C65.832 85.3996 65.6771 85.4394 65.523 85.4231L62.2201 85.0897C62.0499 85.0716 61.8934 84.9874 61.7837 84.8547C61.6741 84.7221 61.62 84.5516 61.6329 84.3794C62.6835 71.1898 64.3396 58.7414 69.3009 50.5923L69.3273 50.5489L76.8318 52.0342L86.8508 84.2381C86.9002 84.404 86.8834 84.5828 86.8039 84.7364C86.7245 84.8899 86.5886 85.0059 86.4254 85.0596L83.4042 86.0398C83.2494 86.0906 83.0814 86.0811 82.9332 86.0132C82.7851 85.9453 82.6674 85.8238 82.6035 85.6728Z" fill="#0F4755"/>
<path d="M72.9546 39.1389C74.926 39.1389 76.5242 37.5257 76.5242 35.5357C76.5242 33.5457 74.926 31.9325 72.9546 31.9325C70.9831 31.9325 69.3849 33.5457 69.3849 35.5357C69.3849 37.5257 70.9831 39.1389 72.9546 39.1389Z" fill="#FFB8B8"/>
<path d="M68.8395 51.216L68.7939 51.2066L68.7832 51.161C68.3023 49.1113 68.2908 46.8744 68.7491 44.5126C68.9816 43.3055 69.6286 42.2199 70.5762 41.4471C71.5238 40.6742 72.7111 40.2637 73.9292 40.2877C75.2508 40.3148 76.5122 40.8506 77.4553 41.7855C78.3984 42.7205 78.952 43.9839 79.0027 45.3172C79.1557 49.3794 77.5111 52.9011 77.4944 52.9362L77.47 52.9878L68.8395 51.216Z" fill="#FFAA00"/>
<path d="M59.2704 58.071C59.4817 58.0394 59.6837 57.9615 59.862 57.8427C60.0403 57.7238 60.1906 57.567 60.3023 57.3832C60.4141 57.1993 60.4845 56.993 60.5087 56.7787C60.5329 56.5644 60.5103 56.3474 60.4424 56.1429L64.554 52.94L62.0012 52.0558L58.4882 55.233C58.1554 55.3708 57.8843 55.6271 57.7262 55.9533C57.5681 56.2795 57.534 56.6528 57.6305 57.0027C57.7269 57.3525 57.9471 57.6544 58.2493 57.8513C58.5516 58.0482 58.9148 58.1264 59.2704 58.071Z" fill="#FFB8B8"/>
<path d="M61.5159 55.6554C61.3821 55.7352 61.2243 55.7642 61.0712 55.7369C60.9181 55.7096 60.7796 55.628 60.6809 55.5067L59.5514 54.1282C59.494 54.0582 59.4516 53.977 59.4268 53.8896C59.4019 53.8022 59.3952 53.7106 59.4071 53.6205C59.419 53.5304 59.4491 53.4438 59.4957 53.366C59.5423 53.2882 59.6043 53.221 59.6778 53.1685L64.5294 49.7052L70.3831 41.8928C70.5484 41.6248 70.7774 41.4027 71.0493 41.2466C71.3213 41.0906 71.6275 41.0056 71.9402 40.9994C72.0926 40.9984 72.2447 41.0118 72.3946 41.0393C72.6917 41.0926 72.9715 41.2177 73.2104 41.4037C73.4493 41.5898 73.64 41.8314 73.7664 42.108C73.8986 42.3915 73.962 42.7028 73.9511 43.016C73.9403 43.3292 73.8556 43.6352 73.704 43.9087L69.3696 50.9943L69.3601 51.0098L61.5159 55.6554Z" fill="#FFAA00"/>
<path d="M73.5929 35.3121C73.3298 34.8753 72.7492 34.7518 72.2451 34.8017C71.7411 34.8515 71.2509 35.0304 70.7444 35.0264C69.3381 35.0154 68.2526 33.2853 68.8438 31.9973C69.3287 30.9409 70.5398 30.4771 71.6353 30.1131C73.9322 29.3498 76.5707 28.6164 78.6551 29.854C79.3193 30.2601 79.8641 30.8378 80.2331 31.5274C80.6022 32.2171 80.7822 32.9937 80.7544 33.777C80.7076 34.751 80.338 35.7515 80.6505 36.6742C81.0111 37.7387 82.1543 38.3098 83.2347 38.5861C85.1285 39.0704 87.1253 38.9924 89.031 39.4267C90.9367 39.8611 92.8895 41.0145 93.4032 42.9171C93.7406 44.1669 93.3885 45.5122 92.8055 46.6661C92.2106 47.8434 91.3839 48.8857 90.376 49.7292C89.3681 50.5726 88.2002 51.1996 86.9439 51.5715C85.6876 51.9435 84.3693 52.0527 83.0697 51.8924C81.7701 51.7321 80.5166 51.3056 79.386 50.6393C77.0822 49.2813 75.4189 46.9864 74.4272 44.4864C73.865 43.0281 73.4692 41.5099 73.2475 39.9611C73.0254 38.5113 73.2138 37.0462 73.6161 35.6365C73.6351 35.5838 73.6429 35.5277 73.6389 35.4718C73.6349 35.4159 73.6192 35.3615 73.5929 35.3121Z" fill="#2F2E41"/>
<path d="M86.4708 89.9985H57.0981C57.0571 89.9985 57.0178 89.9821 56.9888 89.9528C56.9598 89.9236 56.9435 89.8839 56.9435 89.8425C56.9435 89.8011 56.9598 89.7614 56.9888 89.7321C57.0178 89.7029 57.0571 89.6864 57.0981 89.6864H86.4708C86.5118 89.6864 86.5511 89.7029 86.5801 89.7321C86.6091 89.7614 86.6254 89.8011 86.6254 89.8425C86.6254 89.8839 86.6091 89.9236 86.5801 89.9528C86.5511 89.9821 86.5118 89.9985 86.4708 89.9985Z" fill="#161616"/>
<path d="M41.2751 17.1228H40.4995C40.4697 16.9571 40.4142 16.8112 40.333 16.6853C40.2518 16.5593 40.1523 16.4524 40.0347 16.3646C39.917 16.2768 39.7853 16.2105 39.6394 16.1657C39.4953 16.121 39.342 16.0986 39.1796 16.0986C38.8863 16.0986 38.6236 16.1724 38.3916 16.3199C38.1612 16.4673 37.9789 16.6836 37.8447 16.9687C37.7121 17.2537 37.6458 17.6017 37.6458 18.0127C37.6458 18.427 37.7121 18.7767 37.8447 19.0617C37.9789 19.3467 38.1621 19.5622 38.3941 19.708C38.6261 19.8538 38.8871 19.9267 39.1771 19.9267C39.3378 19.9267 39.4903 19.9052 39.6345 19.8621C39.7803 19.8174 39.9121 19.7519 40.0297 19.6657C40.1474 19.5796 40.2468 19.4743 40.328 19.35C40.4109 19.2241 40.468 19.0799 40.4995 18.9175L41.2751 18.92C41.2337 19.1702 41.1533 19.4006 41.034 19.6111C40.9163 19.8199 40.7647 20.0005 40.5791 20.153C40.3951 20.3038 40.1847 20.4206 39.9477 20.5035C39.7107 20.5863 39.4522 20.6277 39.1721 20.6277C38.7313 20.6277 38.3385 20.5233 37.9938 20.3145C37.6492 20.1041 37.3774 19.8033 37.1785 19.4122C36.9813 19.0211 36.8827 18.5546 36.8827 18.0127C36.8827 17.4691 36.9821 17.0026 37.181 16.6132C37.3799 16.2221 37.6516 15.9221 37.9963 15.7133C38.341 15.5029 38.733 15.3976 39.1721 15.3976C39.4422 15.3976 39.6941 15.4366 39.9278 15.5145C40.1631 15.5907 40.3744 15.7034 40.5617 15.8525C40.7489 16 40.9039 16.1807 41.0265 16.3944C41.1492 16.6066 41.232 16.8493 41.2751 17.1228ZM43.7779 20.6352C43.4199 20.6352 43.1075 20.5532 42.8407 20.3891C42.5739 20.225 42.3668 19.9955 42.2193 19.7005C42.0718 19.4056 41.998 19.0609 41.998 18.6664C41.998 18.2704 42.0718 17.924 42.2193 17.6274C42.3668 17.3307 42.5739 17.1004 42.8407 16.9363C43.1075 16.7723 43.4199 16.6902 43.7779 16.6902C44.1358 16.6902 44.4482 16.7723 44.715 16.9363C44.9818 17.1004 45.189 17.3307 45.3365 17.6274C45.484 17.924 45.5577 18.2704 45.5577 18.6664C45.5577 19.0609 45.484 19.4056 45.3365 19.7005C45.189 19.9955 44.9818 20.225 44.715 20.3891C44.4482 20.5532 44.1358 20.6352 43.7779 20.6352ZM43.7804 20.0113C44.0124 20.0113 44.2046 19.9499 44.3571 19.8273C44.5095 19.7047 44.6222 19.5414 44.6951 19.3376C44.7697 19.1338 44.807 18.9092 44.807 18.664C44.807 18.4204 44.7697 18.1966 44.6951 17.9928C44.6222 17.7873 44.5095 17.6224 44.3571 17.4981C44.2046 17.3738 44.0124 17.3117 43.7804 17.3117C43.5467 17.3117 43.3528 17.3738 43.1987 17.4981C43.0462 17.6224 42.9327 17.7873 42.8581 17.9928C42.7852 18.1966 42.7488 18.4204 42.7488 18.664C42.7488 18.9092 42.7852 19.1338 42.8581 19.3376C42.9327 19.5414 43.0462 19.7047 43.1987 19.8273C43.3528 19.9499 43.5467 20.0113 43.7804 20.0113ZM46.4223 20.5581V16.74H47.1358V17.3614H47.183C47.2625 17.1509 47.3926 16.9869 47.5733 16.8692C47.7539 16.7499 47.9702 16.6902 48.2221 16.6902C48.4773 16.6902 48.691 16.7499 48.8634 16.8692C49.0374 16.9885 49.1658 17.1526 49.2487 17.3614H49.2885C49.3796 17.1576 49.5246 16.9952 49.7235 16.8742C49.9223 16.7516 50.1593 16.6902 50.4344 16.6902C50.7808 16.6902 51.0633 16.7988 51.2821 17.0159C51.5025 17.233 51.6127 17.5603 51.6127 17.9978V20.5581H50.8694V18.0674C50.8694 17.8088 50.799 17.6216 50.6581 17.5056C50.5173 17.3896 50.3491 17.3316 50.1535 17.3316C49.9116 17.3316 49.7235 17.4062 49.5892 17.5553C49.455 17.7028 49.3879 17.8925 49.3879 18.1245V20.5581H48.6471V18.0201C48.6471 17.813 48.5825 17.6464 48.4532 17.5205C48.324 17.3946 48.1558 17.3316 47.9486 17.3316C47.8078 17.3316 47.6777 17.3689 47.5583 17.4434C47.4407 17.5164 47.3454 17.6183 47.2725 17.7492C47.2012 17.8801 47.1656 18.0317 47.1656 18.2041V20.5581H46.4223ZM52.6439 21.99V16.74H53.3697V17.3589H53.4319C53.4749 17.2794 53.5371 17.1874 53.6183 17.083C53.6995 16.9786 53.8122 16.8874 53.9564 16.8096C54.1005 16.73 54.2911 16.6902 54.5281 16.6902C54.8363 16.6902 55.1114 16.7681 55.3534 16.9239C55.5953 17.0797 55.7851 17.3042 55.9226 17.5976C56.0618 17.8909 56.1314 18.2439 56.1314 18.6565C56.1314 19.0691 56.0627 19.423 55.9251 19.7179C55.7876 20.0113 55.5986 20.2375 55.3583 20.3966C55.1181 20.554 54.8438 20.6327 54.5356 20.6327C54.3035 20.6327 54.1138 20.5938 53.9663 20.5159C53.8205 20.438 53.7061 20.3468 53.6233 20.2424C53.5404 20.138 53.4766 20.0452 53.4319 19.964H53.3871V21.99H52.6439ZM53.3722 18.649C53.3722 18.9175 53.4111 19.1528 53.489 19.355C53.5669 19.5572 53.6796 19.7155 53.8271 19.8298C53.9746 19.9425 54.1552 19.9988 54.369 19.9988C54.5911 19.9988 54.7767 19.94 54.9258 19.8223C55.075 19.703 55.1877 19.5414 55.2639 19.3376C55.3418 19.1338 55.3807 18.9043 55.3807 18.649C55.3807 18.3972 55.3426 18.1709 55.2664 17.9704C55.1918 17.7699 55.0791 17.6116 54.9283 17.4956C54.7792 17.3796 54.5927 17.3216 54.369 17.3216C54.1536 17.3216 53.9713 17.3772 53.8221 17.4882C53.6746 17.5992 53.5628 17.7542 53.4865 17.953C53.4103 18.1519 53.3722 18.3839 53.3722 18.649ZM57.7424 15.4672V20.5581H56.9992V15.4672H57.7424ZM59.8885 20.6427C59.6465 20.6427 59.4278 20.5979 59.2322 20.5084C59.0367 20.4173 58.8817 20.2855 58.7674 20.1132C58.6547 19.9408 58.5984 19.7295 58.5984 19.4793C58.5984 19.2639 58.6398 19.0865 58.7226 18.9473C58.8055 18.8081 58.9174 18.6979 59.0582 18.6167C59.1991 18.5355 59.3565 18.4742 59.5305 18.4328C59.7045 18.3914 59.8819 18.3599 60.0625 18.3383C60.2912 18.3118 60.4768 18.2903 60.6193 18.2737C60.7618 18.2555 60.8654 18.2265 60.93 18.1867C60.9947 18.1469 61.027 18.0823 61.027 17.9928V17.9754C61.027 17.7583 60.9657 17.5901 60.843 17.4708C60.7221 17.3515 60.5414 17.2918 60.3011 17.2918C60.0509 17.2918 59.8537 17.3473 59.7095 17.4584C59.567 17.5677 59.4684 17.6895 59.4137 17.8238L58.7152 17.6647C58.7981 17.4327 58.919 17.2454 59.0781 17.1029C59.2389 16.9587 59.4236 16.8543 59.6324 16.7897C59.8413 16.7234 60.0608 16.6902 60.2912 16.6902C60.4436 16.6902 60.6052 16.7085 60.7759 16.7449C60.9483 16.7797 61.109 16.8444 61.2582 16.9388C61.409 17.0333 61.5324 17.1683 61.6285 17.344C61.7247 17.518 61.7727 17.7442 61.7727 18.0226V20.5581H61.0469V20.0361H61.017C60.969 20.1322 60.8969 20.2267 60.8008 20.3195C60.7047 20.4123 60.5812 20.4894 60.4304 20.5507C60.2796 20.612 60.099 20.6427 59.8885 20.6427ZM60.0501 20.0461C60.2556 20.0461 60.4312 20.0055 60.5771 19.9243C60.7245 19.8431 60.8364 19.737 60.9126 19.6061C60.9905 19.4735 61.0295 19.3318 61.0295 19.181V18.6888C61.003 18.7153 60.9516 18.7402 60.8753 18.7634C60.8008 18.7849 60.7154 18.804 60.6193 18.8206C60.5232 18.8355 60.4296 18.8496 60.3384 18.8628C60.2473 18.8744 60.171 18.8844 60.1097 18.8927C59.9655 18.9109 59.8338 18.9415 59.7145 18.9846C59.5968 19.0277 59.5024 19.0899 59.4311 19.1711C59.3615 19.2506 59.3267 19.3567 59.3267 19.4892C59.3267 19.6732 59.3946 19.8124 59.5305 19.9069C59.6664 19.9997 59.8396 20.0461 60.0501 20.0461ZM62.7977 20.5581V16.74H63.5409V20.5581H62.7977ZM63.173 16.1508C63.0438 16.1508 62.9327 16.1077 62.8399 16.0216C62.7488 15.9337 62.7032 15.8293 62.7032 15.7084C62.7032 15.5857 62.7488 15.4813 62.8399 15.3951C62.9327 15.3073 63.0438 15.2634 63.173 15.2634C63.3023 15.2634 63.4125 15.3073 63.5037 15.3951C63.5965 15.4813 63.6429 15.5857 63.6429 15.7084C63.6429 15.8293 63.5965 15.9337 63.5037 16.0216C63.4125 16.1077 63.3023 16.1508 63.173 16.1508ZM65.3191 18.2911V20.5581H64.5759V16.74H65.2893V17.3614H65.3365C65.4243 17.1592 65.5619 16.9968 65.7491 16.8742C65.9381 16.7516 66.1759 16.6902 66.4626 16.6902C66.7228 16.6902 66.9506 16.7449 67.1462 16.8543C67.3417 16.962 67.4933 17.1228 67.6011 17.3365C67.7088 17.5503 67.7626 17.8147 67.7626 18.1295V20.5581H67.0194V18.219C67.0194 17.9423 66.9473 17.726 66.8031 17.5702C66.6589 17.4128 66.4609 17.3341 66.209 17.3341C66.0367 17.3341 65.8834 17.3713 65.7491 17.4459C65.6166 17.5205 65.5113 17.6299 65.4335 17.774C65.3572 17.9166 65.3191 18.0889 65.3191 18.2911ZM70.5768 16.74V17.3365H68.4912V16.74H70.5768ZM69.0505 15.8252H69.7937V19.437C69.7937 19.5812 69.8153 19.6898 69.8584 19.7627C69.9015 19.8339 69.957 19.8828 70.0249 19.9093C70.0945 19.9342 70.1699 19.9466 70.2511 19.9466C70.3108 19.9466 70.363 19.9425 70.4077 19.9342C70.4525 19.9259 70.4873 19.9193 70.5121 19.9143L70.6464 20.5283C70.6033 20.5449 70.542 20.5615 70.4624 20.578C70.3829 20.5963 70.2834 20.6062 70.1641 20.6079C69.9686 20.6112 69.7863 20.5764 69.6172 20.5035C69.4482 20.4305 69.3115 20.3178 69.2071 20.1654C69.1027 20.0129 69.0505 19.8215 69.0505 19.5912V15.8252Z" fill="#177085"/>
</svg>
