<svg width="100" height="91" viewBox="0 0 100 91" fill="none" xmlns="http://www.w3.org/2000/svg">
<path d="M46.6268 90.5581C70.14 90.5581 89.2012 89.5848 89.2012 88.3842C89.2012 87.1836 70.14 86.2103 46.6268 86.2103C23.1136 86.2103 4.05237 87.1836 4.05237 88.3842C4.05237 89.5848 23.1136 90.5581 46.6268 90.5581Z" fill="#3A3A3A"/>
<path d="M71.5006 21.4456H71.017V8.21543C71.017 6.18459 70.2091 4.23693 68.7709 2.80091C67.3328 1.36489 65.3823 0.558138 63.3485 0.558136H35.2776C33.2438 0.558132 31.2933 1.36487 29.8552 2.80089C28.4171 4.23691 27.6091 6.18457 27.6091 8.21541V80.7974C27.6091 82.8282 28.4171 84.7759 29.8552 86.2119C31.2933 87.648 33.2438 88.4547 35.2776 88.4547H63.3485C65.3823 88.4547 67.3328 87.648 68.7709 86.212C70.209 84.7759 71.017 82.8283 71.017 80.7974V30.8631H71.5006L71.5006 21.4456Z" fill="#3F3D56"/>
<path d="M69.3848 8.26883V80.744C69.3848 82.2607 68.7814 83.7152 67.7074 84.7877C66.6334 85.8601 65.1767 86.4626 63.6579 86.4627H35.4523C33.9334 86.4626 32.4767 85.8601 31.4027 84.7877C30.3287 83.7152 29.7253 82.2607 29.7253 80.744V8.26883C29.7253 6.75216 30.3287 5.29762 31.4027 4.22517C32.4767 3.15272 33.9334 2.55021 35.4523 2.55019H38.874C38.7058 2.96275 38.6418 3.41024 38.6875 3.85331C38.7332 4.29638 38.8873 4.72144 39.1361 5.09111C39.385 5.46078 39.721 5.76372 40.1146 5.97329C40.5082 6.18286 40.9473 6.29264 41.3934 6.29297H57.4749C57.9209 6.29264 58.3601 6.18286 58.7537 5.97328C59.1473 5.76371 59.4833 5.46077 59.7321 5.0911C59.981 4.72143 60.135 4.29637 60.1807 3.85331C60.2264 3.41024 60.1624 2.96275 59.9943 2.55019H63.6579C65.1767 2.55021 66.6334 3.15272 67.7074 4.22517C68.7814 5.29762 69.3848 6.75216 69.3848 8.26883Z" fill="white"/>
<path d="M60.2983 39.5198C60.1108 39.6176 59.9201 39.7102 59.7262 39.7976C59.5496 39.8773 59.3702 39.9522 59.188 40.0222C59.1214 40.0476 59.0538 40.073 58.986 40.0983C58.4505 40.2923 57.9005 40.4437 57.3411 40.5512C57.0641 40.6056 56.7835 40.6483 56.4993 40.6793C56.2646 40.7058 56.0276 40.7247 55.7881 40.736C55.6175 40.7445 55.447 40.7481 55.2752 40.7481C54.5951 40.7484 53.9164 40.6849 53.2481 40.5585C53.0739 40.5271 52.9034 40.4896 52.7329 40.4486C51.9079 40.2512 51.1093 39.9568 50.3538 39.5718C50.286 39.5379 50.2183 39.5017 50.1506 39.4667C50.0502 39.4135 49.9523 39.358 49.8543 39.3C49.9014 39.2348 49.9523 39.1708 50.0042 39.108C50.5702 38.4076 51.2776 37.8342 52.0803 37.4251C52.8831 37.016 53.7632 36.7805 54.6632 36.7338C55.5632 36.687 56.463 36.8302 57.3039 37.154C58.1448 37.4778 58.9079 37.9748 59.5436 38.6128C59.7642 38.8339 59.9687 39.0704 60.1556 39.3205C60.2051 39.3858 60.2523 39.4522 60.2983 39.5198Z" fill="#FFAA00"/>
<path d="M55.5167 34.2146C58.4498 34.2146 60.8276 31.8403 60.8276 28.9114C60.8276 25.9826 58.4498 23.6083 55.5167 23.6083C52.5835 23.6083 50.2058 25.9826 50.2058 28.9114C50.2058 31.8403 52.5835 34.2146 55.5167 34.2146Z" fill="#2F2E41"/>
<path d="M56.9292 34.2221C58.8447 33.1765 59.5487 30.7783 58.5016 28.8656C57.4545 26.9529 55.0528 26.2499 53.1372 27.2955C51.2217 28.3411 50.5177 30.7393 51.5649 32.652C52.612 34.5647 55.0137 35.2677 56.9292 34.2221Z" fill="#FFB8B8"/>
<path d="M59.1867 28.2761C58.2834 28.8978 57.2113 29.2286 56.1143 29.2242C56.5056 29.4952 56.9511 29.6782 57.4201 29.7607C55.9615 30.0731 54.4541 30.0815 52.9921 29.7855C52.6671 29.7335 52.3536 29.6259 52.0651 29.4676C51.9214 29.3874 51.7962 29.278 51.6976 29.1464C51.5991 29.0147 51.5293 28.8638 51.493 28.7035C51.3958 28.1493 51.8283 27.6458 52.2777 27.3065C52.9658 26.7949 53.7592 26.4424 54.6004 26.2746C55.4417 26.1067 56.3098 26.1277 57.1419 26.3359C57.6853 26.4762 58.2296 26.7131 58.5825 27.1489C58.9355 27.5846 59.04 28.2563 58.7037 28.705L59.1867 28.2761Z" fill="#2F2E41"/>
<path d="M55.2753 19.0088C52.9013 19.0085 50.5923 19.7832 48.7002 21.2149C46.8081 22.6466 45.4367 24.6568 44.7949 26.9391C44.1532 29.2214 44.2764 31.6506 45.1457 33.8565C46.015 36.0624 47.5827 37.924 49.61 39.1575L49.6802 39.1986C49.7382 39.2336 49.7963 39.2674 49.8543 39.3C49.9523 39.358 50.0502 39.4136 50.1506 39.4667C50.2183 39.5017 50.2861 39.538 50.3538 39.5718C51.1094 39.9569 51.908 40.2512 52.7329 40.4486C52.9035 40.4897 53.074 40.5271 53.2482 40.5585C53.9164 40.6849 54.5951 40.7484 55.2753 40.7481C55.447 40.7481 55.6176 40.7445 55.7881 40.736C56.0276 40.7252 56.2647 40.7062 56.4993 40.6793C56.7836 40.6479 57.0642 40.6052 57.3411 40.5513C57.9005 40.4437 58.4505 40.2923 58.9861 40.0984C59.0538 40.073 59.1215 40.0476 59.188 40.0223C59.3706 39.9522 59.55 39.8773 59.7262 39.7976C59.9198 39.7107 60.1105 39.6181 60.2984 39.5198C62.1813 38.5352 63.7375 37.0261 64.7783 35.1756C64.7832 35.166 64.7892 35.1563 64.7941 35.1466C65.3494 34.1516 65.7433 33.0751 65.9612 31.957C66.2672 30.383 66.2208 28.7609 65.8255 27.2069C65.4302 25.6529 64.6956 24.2054 63.6744 22.968C62.6533 21.7307 61.3707 20.7341 59.9187 20.0496C58.4666 19.3651 56.881 19.0097 55.2753 19.0088ZM64.5957 35.0053C64.586 35.0222 64.5776 35.0391 64.5679 35.0548C63.5478 36.878 62.0135 38.3614 60.1556 39.3206C59.9705 39.4172 59.7823 39.5078 59.5908 39.5923C59.4323 39.6636 59.2703 39.7312 59.107 39.794C59.038 39.8206 58.9679 39.8471 58.8977 39.8713C58.4351 40.04 57.961 40.1757 57.479 40.2771C57.1215 40.3531 56.7601 40.41 56.3965 40.4474C56.1727 40.4715 55.9453 40.4885 55.7167 40.4969C55.5704 40.5029 55.4229 40.5066 55.2753 40.5066C54.6171 40.5073 53.9602 40.4463 53.3135 40.3242C52.92 40.2517 52.5311 40.1566 52.1487 40.0392C51.5662 39.8595 51.0001 39.6304 50.4566 39.3544C50.3937 39.3218 50.3309 39.2892 50.2691 39.2554C50.1808 39.2083 50.0914 39.1599 50.0043 39.108C49.9389 39.0718 49.8736 39.0331 49.8095 38.9945C49.772 38.9727 49.7345 38.9498 49.697 38.9268C47.9196 37.8369 46.5018 36.2499 45.6194 34.3626C44.7371 32.4754 44.429 30.371 44.7335 28.3105C45.038 26.25 45.9416 24.3242 47.3322 22.7718C48.7229 21.2195 50.5393 20.109 52.5562 19.5781C54.5732 19.0472 56.7018 19.1193 58.6781 19.7855C60.6543 20.4516 62.3913 21.6824 63.6734 23.3253C64.9554 24.9681 65.7263 26.9507 65.8903 29.0271C66.0542 31.1034 65.6041 33.1821 64.5957 35.0053Z" fill="#3F3D56"/>
<path d="M52.8272 23.6814C52.77 23.0814 52.0339 22.712 51.4583 22.8933C50.8826 23.0745 50.5047 23.6533 50.3905 24.2451C50.3355 24.4944 50.3303 24.752 50.3753 25.0032C50.4202 25.2544 50.5144 25.4944 50.6523 25.7092C50.9433 26.1273 51.478 26.3883 51.9767 26.2821C52.5461 26.161 52.9405 25.6059 53.0534 25.0356C53.1662 24.4654 53.0542 23.8775 52.9423 23.3071L52.8272 23.6814Z" fill="#2F2E41"/>
<path d="M60.9286 24.5385C60.8715 23.9385 60.1354 23.5692 59.5597 23.7504C58.9841 23.9316 58.6061 24.5104 58.4919 25.1022C58.4369 25.3515 58.4318 25.6091 58.4767 25.8603C58.5216 26.1116 58.6158 26.3515 58.7538 26.5663C59.0448 26.9844 59.5795 27.2454 60.0782 27.1393C60.6475 27.0181 61.0419 26.463 61.1548 25.8927C61.2677 25.3225 61.1556 24.7346 61.0437 24.1642L60.9286 24.5385Z" fill="#2F2E41"/>
<path d="M50.3201 76.4899C48.635 77.5674 46.6828 78.1549 44.6822 78.1867C42.6815 78.2185 40.7116 77.6932 38.993 76.6699C39.2954 76.108 39.6784 75.5933 40.13 75.1421C40.8268 74.443 41.6749 73.9127 42.609 73.5919C43.5431 73.2711 44.5384 73.1684 45.5184 73.2917C46.4985 73.415 47.4372 73.761 48.2624 74.303C49.0877 74.8451 49.7775 75.5689 50.2789 76.4187C50.2922 76.4416 50.3067 76.4658 50.3201 76.4899Z" fill="#FFAA00"/>
<path d="M44.1835 70.7145C47.1361 70.7145 49.5297 68.3244 49.5297 65.3761C49.5297 62.4278 47.1361 60.0377 44.1835 60.0377C41.2309 60.0377 38.8373 62.4278 38.8373 65.3761C38.8373 68.3244 41.2309 70.7145 44.1835 70.7145Z" fill="#2F2E41"/>
<path d="M48.1617 69.1415C49.2157 67.216 48.5071 64.8019 46.5788 63.7493C44.6506 62.6968 42.2329 63.4044 41.1788 65.3299C40.1248 67.2553 40.8334 69.6695 42.7617 70.722C44.6899 71.7745 47.1076 71.0669 48.1617 69.1415Z" fill="#A0616A"/>
<path d="M40.4893 64.7365C41.3985 65.3623 42.4778 65.6953 43.5821 65.6909C43.1881 65.9637 42.7397 66.1479 42.2676 66.2309C43.7359 66.5454 45.2533 66.5539 46.725 66.2559C47.0522 66.2035 47.3678 66.0953 47.6581 65.9359C47.8028 65.8552 47.9289 65.745 48.0281 65.6125C48.1273 65.48 48.1975 65.3281 48.2341 65.1667C48.3319 64.6089 47.8966 64.102 47.4442 63.7605C46.7515 63.2455 45.9529 62.8906 45.106 62.7217C44.2592 62.5527 43.3853 62.5738 42.5476 62.7834C42.0007 62.9246 41.4527 63.1631 41.0974 63.6018C40.7422 64.0404 40.6369 64.7166 40.9754 65.1683L40.4893 64.7365Z" fill="#2F2E41"/>
<path d="M44.5107 78.3088C41.8925 78.3079 39.3623 77.3645 37.3842 75.6516C35.4062 73.9386 34.113 71.5709 33.7419 68.9829C33.3707 66.3948 33.9465 63.7599 35.3635 61.5614C36.7806 59.363 38.9439 57.7484 41.4568 57.0139C43.9696 56.2793 46.6634 56.4741 49.044 57.5624C51.4247 58.6507 53.3325 60.5597 54.4177 62.939C55.5028 65.3184 55.6924 68.0086 54.9518 70.5163C54.2111 73.024 52.5899 75.1809 50.3854 76.5915C48.6323 77.714 46.5932 78.31 44.5107 78.3088ZM44.5107 56.811C42.4053 56.8108 40.3472 57.434 38.5965 58.6019C36.8459 59.7698 35.4814 61.4298 34.6756 63.3721C33.8698 65.3143 33.6589 67.4516 34.0696 69.5135C34.4803 71.5754 35.4941 73.4695 36.9828 74.956C38.4716 76.4426 40.3684 77.4549 42.4333 77.865C44.4983 78.2751 46.6386 78.0646 48.5837 77.2599C50.5288 76.4553 52.1912 75.0928 53.3608 73.3447C54.5304 71.5966 55.1545 69.5414 55.1543 67.4391C55.1512 64.6213 54.0288 61.9199 52.0334 59.9274C50.038 57.935 47.3326 56.8142 44.5107 56.811Z" fill="#3F3D56"/>
<path d="M64.1856 57.1371C65.0629 57.1371 65.7741 56.427 65.7741 55.5509C65.7741 54.6749 65.0629 53.9647 64.1856 53.9647C63.3083 53.9647 62.597 54.6749 62.597 55.5509C62.597 56.427 63.3083 57.1371 64.1856 57.1371Z" fill="#219EBC"/>
<path d="M63.337 71.7348C63.2346 71.7012 63.1466 71.6418 63.0846 71.5645C63.0227 71.4872 62.9898 71.3956 62.9903 71.3019V66.4492C62.9901 66.2849 62.9136 66.1274 62.7776 66.0113C62.6416 65.8951 62.4573 65.8298 62.265 65.8296H61.1016C60.6209 65.8291 60.1601 65.6658 59.8202 65.3755C59.4804 65.0852 59.2892 64.6916 59.2886 64.281V54.5243C59.2892 54.1137 59.4804 53.7201 59.8202 53.4298C60.1601 53.1395 60.6209 52.9762 61.1016 52.9757L97.0361 52.9757C97.5168 52.9762 97.9776 53.1395 98.3175 53.4298C98.6574 53.7201 98.8485 54.1137 98.8491 54.5243V64.281C98.8485 64.6915 98.6574 65.0852 98.3175 65.3755C97.9776 65.6658 97.5168 65.6513 97.0361 65.6518H70.4635C70.363 65.6519 69.9663 65.6172 69.8743 65.6518C68.8866 65.6518 68.9546 66.011 68.8866 66.0742L63.935 71.6158C63.8844 71.6633 63.8227 71.7013 63.754 71.7274C63.6852 71.7534 63.6108 71.7668 63.5356 71.7669C63.4676 71.7668 63.4003 71.756 63.337 71.7348Z" fill="#219EBC"/>
<path d="M62.8746 72.7188C62.7839 72.6799 62.7059 72.6111 62.6511 72.5216C62.5962 72.4321 62.5671 72.326 62.5675 72.2175V66.5986C62.5673 66.4084 62.4996 66.226 62.3791 66.0915C62.2587 65.9571 62.0954 65.8814 61.925 65.8812H60.8945C60.4688 65.8807 60.0606 65.6916 59.7595 65.3554C59.4585 65.0192 59.2891 64.5635 59.2886 64.0881L59.5026 54.4592C59.5031 53.9838 59.6724 53.5281 59.9735 53.1919C60.2746 52.8557 60.6828 52.6666 61.1085 52.6661H97.4572C97.8829 52.6666 98.2911 52.8557 98.5922 53.1919C98.8932 53.5281 99.0626 53.9838 99.0631 54.4592L98.8491 64.0881C98.8486 64.5635 98.6793 65.0192 98.3782 65.3554C98.0771 65.6916 97.6689 65.8807 97.2432 65.8812H69.1872C69.0981 65.8813 69.0101 65.902 68.9286 65.9421C68.847 65.9821 68.7739 66.0406 68.7136 66.1138L63.4043 72.581C63.3595 72.6361 63.3049 72.6801 63.244 72.7102C63.183 72.7403 63.1172 72.7559 63.0505 72.756C62.9903 72.7559 62.9307 72.7433 62.8746 72.7188ZM61.1085 52.905C60.7395 52.9055 60.3857 53.0694 60.1247 53.3608C59.8638 53.6521 59.717 54.0472 59.7166 54.4592L59.5026 64.0881C59.503 64.5001 59.6498 64.8952 59.9108 65.1865C60.1717 65.4779 60.5255 65.6418 60.8945 65.6422H61.925C62.1521 65.6425 62.3698 65.7434 62.5304 65.9227C62.6909 66.102 62.7812 66.345 62.7815 66.5986V72.2175C62.7815 72.2778 62.7978 72.3366 62.8282 72.3863C62.8587 72.436 62.9019 72.4743 62.9522 72.4962C63.0025 72.518 63.0575 72.5224 63.11 72.5087C63.1625 72.495 63.2102 72.464 63.2466 72.4196L68.5559 65.9524C68.6362 65.8547 68.7338 65.7768 68.8424 65.7234C68.9511 65.67 69.0685 65.6424 69.1872 65.6422H97.2432C97.6122 65.6418 97.966 65.4779 98.227 65.1865C98.4879 64.8952 98.6347 64.5001 98.6351 64.0881L98.8491 54.4592C98.8487 54.0472 98.7019 53.6521 98.4409 53.3608C98.18 53.0694 97.8262 52.9055 97.4572 52.905H61.1085Z" fill="#3F3D56"/>
<path d="M81.3708 60.4999H62.6307C62.5479 60.5001 62.4659 60.4807 62.3894 60.4431C62.3129 60.4055 62.2433 60.3502 62.1848 60.2806C62.1262 60.2109 62.0797 60.1282 62.048 60.0372C62.0163 59.9461 62 59.8485 62 59.7499C62 59.6514 62.0163 59.5538 62.048 59.4627C62.0797 59.3717 62.1262 59.2889 62.1848 59.2193C62.2433 59.1496 62.3129 59.0944 62.3894 59.0568C62.4659 59.0191 62.5479 58.9998 62.6307 58.9999H81.3708C81.5378 59.0002 81.6978 59.0793 81.8158 59.2199C81.9337 59.3606 82 59.5512 82 59.7499C82 59.9487 81.9337 60.1393 81.8158 60.28C81.6978 60.4206 81.5378 60.4997 81.3708 60.4999Z" fill="white"/>
<path d="M89.393 62.9999H62.6078C62.528 63.0001 62.449 62.9807 62.3752 62.9431C62.3015 62.9055 62.2345 62.8502 62.1781 62.7806C62.1216 62.7109 62.0768 62.6282 62.0463 62.5372C62.0157 62.4461 62 62.3485 62 62.2499C62 62.1514 62.0157 62.0538 62.0463 61.9627C62.0768 61.8717 62.1216 61.7889 62.1781 61.7193C62.2345 61.6496 62.3015 61.5944 62.3752 61.5568C62.449 61.5191 62.528 61.4998 62.6078 61.4999H89.393C89.554 61.4999 89.7084 61.579 89.8222 61.7196C89.936 61.8603 90 62.051 90 62.2499C90 62.4489 89.936 62.6396 89.8222 62.7803C89.7084 62.9209 89.554 62.9999 89.393 62.9999Z" fill="white"/>
<path d="M63.0761 74.0347C64.713 74.0347 66.0399 73.8876 66.0399 73.7062C66.0399 73.5248 64.713 73.3777 63.0761 73.3777C61.4393 73.3777 60.1124 73.5248 60.1124 73.7062C60.1124 73.8876 61.4393 74.0347 63.0761 74.0347Z" fill="#F2F2F2"/>
<path d="M36.5881 35.387C38.225 35.387 39.5519 35.2399 39.5519 35.0585C39.5519 34.8771 38.225 34.7301 36.5881 34.7301C34.9513 34.7301 33.6244 34.8771 33.6244 35.0585C33.6244 35.2399 34.9513 35.387 36.5881 35.387Z" fill="#F2F2F2"/>
<path d="M36.6631 33.473C36.7655 33.4394 36.8535 33.38 36.9154 33.3027C36.9773 33.2254 37.0103 33.1338 37.0098 33.0401V28.1874C37.01 28.0231 37.0865 27.8656 37.2225 27.7495C37.3584 27.6333 37.5428 27.568 37.7351 27.5678H38.8985C39.3791 27.5674 39.8399 27.4041 40.1798 27.1137C40.5197 26.8234 40.7109 26.4298 40.7114 26.0192V16.2625C40.7109 15.852 40.5197 15.4583 40.1798 15.168C39.8399 14.8777 39.3791 14.7144 38.8985 14.7139L2.96395 14.7139C2.48329 14.7144 2.02246 14.8777 1.68258 15.168C1.3427 15.4583 1.15152 15.8519 1.15098 16.2625V26.0192C1.15152 26.4298 1.3427 26.8234 1.68258 27.1137C2.02246 27.404 2.48329 27.3896 2.96395 27.39H29.5365C29.6371 27.3901 30.0338 27.3554 30.1258 27.39C31.1135 27.39 31.0455 27.7492 31.1135 27.8124L36.0651 33.354C36.1157 33.4016 36.1773 33.4396 36.2461 33.4656C36.3149 33.4916 36.3892 33.5051 36.4645 33.5051C36.5324 33.5051 36.5998 33.4942 36.6631 33.473Z" fill="#219EBC"/>
<path d="M37.1254 34.457C37.2161 34.4181 37.2941 34.3493 37.3489 34.2598C37.4038 34.1702 37.433 34.0642 37.4325 33.9557V28.3367C37.4327 28.1465 37.5005 27.9642 37.6209 27.8297C37.7414 27.6952 37.9047 27.6196 38.075 27.6193H39.1055C39.5313 27.6188 39.9395 27.4297 40.2405 27.0936C40.5416 26.7574 40.7109 26.3016 40.7114 25.8262L40.4974 16.1974C40.4969 15.722 40.3276 15.2662 40.0265 14.9301C39.7255 14.5939 39.3173 14.4048 38.8915 14.4043H2.54288C2.11711 14.4048 1.70892 14.5939 1.40786 14.9301C1.1068 15.2662 0.93745 15.722 0.936974 16.1974L1.15096 25.8262C1.15143 26.3016 1.32077 26.7574 1.62184 27.0936C1.9229 27.4297 2.33109 27.6188 2.75686 27.6193H30.8128C30.9019 27.6195 30.99 27.6402 31.0715 27.6802C31.153 27.7203 31.2262 27.7788 31.2864 27.852L36.5957 34.3192C36.6405 34.3742 36.6951 34.4182 36.7561 34.4483C36.817 34.4785 36.8829 34.4941 36.9495 34.4941C37.0097 34.4941 37.0694 34.4815 37.1254 34.457ZM38.8915 14.6432C39.2605 14.6437 39.6143 14.8076 39.8753 15.0989C40.1362 15.3903 40.283 15.7853 40.2834 16.1974L40.4974 25.8262C40.497 26.2383 40.3502 26.6333 40.0893 26.9247C39.8283 27.2161 39.4745 27.3799 39.1055 27.3804H38.075C37.8479 27.3807 37.6302 27.4815 37.4697 27.6608C37.3091 27.8401 37.2188 28.0832 37.2185 28.3367V33.9557C37.2185 34.0159 37.2022 34.0748 37.1718 34.1245C37.1413 34.1742 37.0981 34.2125 37.0478 34.2343C36.9976 34.2562 36.9426 34.2605 36.89 34.2468C36.8375 34.2332 36.7899 34.2021 36.7534 34.1577L31.4441 27.6905C31.3638 27.5929 31.2663 27.5149 31.1576 27.4616C31.0489 27.4082 30.9315 27.3806 30.8128 27.3804H2.75686C2.38783 27.3799 2.03403 27.216 1.77308 26.9247C1.51213 26.6333 1.36536 26.2383 1.36494 25.8262L1.15096 16.1974C1.15138 15.7853 1.29816 15.3903 1.5591 15.0989C1.82005 14.8076 2.17385 14.6437 2.54288 14.6432H38.8915Z" fill="#3F3D56"/>
<circle cx="36.0468" cy="17.8658" r="1.48352" fill="white"/>
<circle cx="63.7392" cy="56.4373" r="1.48352" fill="white"/>
<path d="M17.6292 22.5H36.3693C36.4521 22.5001 36.5341 22.4808 36.6106 22.4431C36.6871 22.4055 36.7567 22.3503 36.8152 22.2806C36.8738 22.211 36.9203 22.1282 36.952 22.0372C36.9837 21.9461 37 21.8485 37 21.75C37 21.6514 36.9837 21.5538 36.952 21.4627C36.9203 21.3717 36.8738 21.289 36.8152 21.2193C36.7567 21.1497 36.6871 21.0944 36.6106 21.0568C36.5341 21.0192 36.4521 20.9999 36.3693 21H17.6292C17.4622 21.0002 17.3022 21.0793 17.1842 21.22C17.0663 21.3606 17 21.5512 17 21.75C17 21.9487 17.0663 22.1394 17.1842 22.28C17.3022 22.4206 17.4622 22.4997 17.6292 22.5Z" fill="white"/>
<path d="M9.60703 25H36.3922C36.472 25.0001 36.551 24.9808 36.6248 24.9431C36.6985 24.9055 36.7655 24.8503 36.8219 24.7806C36.8784 24.711 36.9232 24.6282 36.9537 24.5372C36.9843 24.4461 37 24.3485 37 24.25C37 24.1514 36.9843 24.0538 36.9537 23.9627C36.9232 23.8717 36.8784 23.789 36.8219 23.7193C36.7655 23.6497 36.6985 23.5944 36.6248 23.5568C36.551 23.5192 36.472 23.4999 36.3922 23.5H9.60703C9.44604 23.5 9.29164 23.579 9.1778 23.7196C9.06396 23.8603 9 24.0511 9 24.25C9 24.4489 9.06396 24.6396 9.1778 24.7803C9.29164 24.9209 9.44604 25 9.60703 25Z" fill="white"/>
</svg>
