<svg width="11" height="14" viewBox="0 0 11 14" fill="none" xmlns="http://www.w3.org/2000/svg">
<path d="M2.91671 4.62656H9.01022L5.38013 0.995896C5.15205 0.767813 5.15205 0.399146 5.38013 0.171063C5.60821 -0.0570208 5.97688 -0.0570208 6.20497 0.171063L10.3997 4.3664C10.8547 4.82081 10.8547 5.56165 10.3997 6.01606L6.20497 10.2102C6.09122 10.324 5.94188 10.3811 5.79255 10.3811C5.64322 10.3811 5.49388 10.324 5.38013 10.2102C5.15205 9.98215 5.15205 9.61348 5.38013 9.3854L8.97288 5.79323H2.91671C1.95188 5.79323 1.16671 6.5784 1.16671 7.54323V13.3766C1.16671 13.6991 0.90538 13.9599 0.583381 13.9599C0.26138 13.9599 4.673e-05 13.6991 4.673e-05 13.3766V7.54323C4.673e-05 5.93498 1.30846 4.62656 2.91671 4.62656Z" fill="#219EBC"/>
</svg>
