<svg width="12" height="14" viewBox="0 0 12 14" fill="none" xmlns="http://www.w3.org/2000/svg">
<path d="M8.91675 8.16668C8.91675 8.32139 8.85529 8.46976 8.74589 8.57916C8.6365 8.68855 8.48812 8.75001 8.33341 8.75001H3.66675C3.51204 8.75001 3.36367 8.68855 3.25427 8.57916C3.14487 8.46976 3.08341 8.32139 3.08341 8.16668C3.08341 8.01197 3.14487 7.8636 3.25427 7.7542C3.36367 7.6448 3.51204 7.58335 3.66675 7.58335H8.33341C8.48812 7.58335 8.6365 7.6448 8.74589 7.7542C8.85529 7.8636 8.91675 8.01197 8.91675 8.16668ZM6.58341 9.91668H3.66675C3.51204 9.91668 3.36367 9.97814 3.25427 10.0875C3.14487 10.1969 3.08341 10.3453 3.08341 10.5C3.08341 10.6547 3.14487 10.8031 3.25427 10.9125C3.36367 11.0219 3.51204 11.0833 3.66675 11.0833H6.58341C6.73812 11.0833 6.8865 11.0219 6.99589 10.9125C7.10529 10.8031 7.16675 10.6547 7.16675 10.5C7.16675 10.3453 7.10529 10.1969 6.99589 10.0875C6.8865 9.97814 6.73812 9.91668 6.58341 9.91668ZM11.8334 6.11626V11.0833C11.8325 11.8566 11.5249 12.5979 10.9781 13.1447C10.4313 13.6915 9.69001 13.9991 8.91675 14H3.08341C2.31015 13.9991 1.56882 13.6915 1.02204 13.1447C0.475263 12.5979 0.167674 11.8566 0.166748 11.0833V2.91668C0.167674 2.14342 0.475263 1.40209 1.02204 0.855308C1.56882 0.308528 2.31015 0.000939695 3.08341 1.34451e-05H5.71716C6.25361 -0.00136726 6.785 0.103606 7.28063 0.308865C7.77625 0.514123 8.22627 0.815594 8.60466 1.19585L10.637 3.22935C11.0175 3.60749 11.3191 4.05736 11.5245 4.55292C11.7299 5.04847 11.8349 5.57984 11.8334 6.11626ZM7.77983 2.02068C7.59624 1.84286 7.39013 1.68989 7.16675 1.56568V4.08335C7.16675 4.23806 7.22821 4.38643 7.3376 4.49583C7.447 4.60522 7.59537 4.66668 7.75008 4.66668H10.2677C10.1435 4.44337 9.99029 4.23743 9.81216 4.05418L7.77983 2.02068ZM10.6667 6.11626C10.6667 6.02001 10.6481 5.92785 10.6393 5.83335H7.75008C7.28595 5.83335 6.84083 5.64897 6.51264 5.32078C6.18446 4.99259 6.00008 4.54748 6.00008 4.08335V1.1941C5.90558 1.18535 5.81283 1.16668 5.71716 1.16668H3.08341C2.61929 1.16668 2.17417 1.35105 1.84598 1.67924C1.51779 2.00743 1.33341 2.45255 1.33341 2.91668V11.0833C1.33341 11.5475 1.51779 11.9926 1.84598 12.3208C2.17417 12.649 2.61929 12.8333 3.08341 12.8333H8.91675C9.38088 12.8333 9.826 12.649 10.1542 12.3208C10.4824 11.9926 10.6667 11.5475 10.6667 11.0833V6.11626Z" fill="#219EBC"/>
</svg>
