<svg width="106" height="86" viewBox="0 0 106 86" fill="none" xmlns="http://www.w3.org/2000/svg">
<path d="M70.0365 84.6162H10.907L13.2106 38.9446H23.1524L32.32 45.4691H70.6377L70.0365 84.6162Z" fill="#E5E5E5"/>
<path d="M58.2358 59.3432L20.2282 47.5306C20.0953 47.4891 19.9839 47.3959 19.9184 47.2713C19.8529 47.1468 19.8387 47.0011 19.8789 46.8662L32.5627 4.45426C32.6032 4.31948 32.6948 4.20665 32.8173 4.14053C32.9398 4.07441 33.0833 4.0604 33.2162 4.10156L71.2238 15.9142C71.3567 15.9556 71.4682 16.0489 71.5336 16.1734C71.5991 16.298 71.6134 16.4437 71.5732 16.5785L58.8893 58.9905C58.8488 59.1252 58.7573 59.2381 58.6348 59.3042C58.5123 59.3703 58.3688 59.3843 58.2358 59.3432ZM33.1554 4.30497C33.0756 4.28027 32.9895 4.28868 32.916 4.32835C32.8425 4.36803 32.7876 4.43572 32.7633 4.51659L20.0794 46.9285C20.0553 47.0094 20.0638 47.0969 20.1031 47.1716C20.1424 47.2463 20.2093 47.3023 20.289 47.3272L58.2966 59.1398C58.3764 59.1645 58.4625 59.156 58.536 59.1164C58.6095 59.0767 58.6644 59.009 58.6887 58.9281L71.3726 16.5162C71.3967 16.4353 71.3882 16.3479 71.3489 16.2731C71.3096 16.1984 71.2427 16.1424 71.163 16.1176L33.1554 4.30497Z" fill="#3F3D56"/>
<path d="M54.0185 57.4814L24.535 48.318C24.4153 48.2808 24.315 48.1969 24.256 48.0848C24.1971 47.9727 24.1843 47.8415 24.2206 47.7201C24.2569 47.5987 24.3393 47.4971 24.4496 47.4376C24.5599 47.378 24.6891 47.3655 24.8088 47.4027L54.2922 56.566C54.4119 56.6032 54.5123 56.6871 54.5713 56.7992C54.6302 56.9114 54.6429 57.0426 54.6066 57.1639C54.5703 57.2853 54.488 57.387 54.3777 57.4465C54.2674 57.506 54.1382 57.5186 54.0185 57.4814Z" fill="#CCCCCC"/>
<path d="M57.7773 61.5478L29.2927 49.6369C29.1771 49.5885 29.0851 49.4955 29.037 49.3783C28.9889 49.2611 28.9886 49.1293 29.0363 49.0119C29.0839 48.8945 29.1755 48.8011 29.2909 48.7523C29.4064 48.7034 29.5362 48.7032 29.6518 48.7515L58.1364 60.6624C58.1936 60.6864 58.2457 60.7215 58.2896 60.7659C58.3334 60.8103 58.3683 60.863 58.3921 60.921C58.4159 60.979 58.4282 61.0413 58.4283 61.1041C58.4285 61.167 58.4164 61.2293 58.3928 61.2874C58.3692 61.3456 58.3346 61.3984 58.2909 61.443C58.2472 61.4875 58.1953 61.5229 58.1382 61.5471C58.081 61.5712 58.0197 61.5837 57.9578 61.5839C57.8959 61.584 57.8345 61.5717 57.7773 61.5478Z" fill="#CCCCCC"/>
<path d="M43.8812 61.3214C44.4513 61.3521 45.0229 61.3344 45.59 61.2685C46.1008 61.2079 46.6328 61.1244 47.0805 60.8518C47.2741 60.7396 47.4389 60.5827 47.5616 60.3937C47.6842 60.2047 47.7612 59.989 47.7863 59.7641C47.806 59.5502 47.7582 59.3354 47.6498 59.1509C47.5413 58.9664 47.3779 58.8217 47.1831 58.7378C46.9854 58.6533 46.7689 58.6247 46.5565 58.6549C46.3441 58.6851 46.1437 58.7731 45.9766 58.9095C45.798 59.0669 45.6567 59.2633 45.5633 59.484C45.4699 59.7046 45.4267 59.9439 45.4371 60.1838C45.4606 61.1692 46.2284 62.1423 47.081 62.5522C48.0414 63.0139 49.3528 62.6215 49.5988 61.4846C49.6499 61.2482 49.3327 61.166 49.2001 61.318C49.0191 61.5206 48.9211 61.7858 48.9261 62.0594C48.9312 62.3329 49.0389 62.5942 49.2273 62.7898C49.4157 62.9854 49.6705 63.1006 49.9398 63.1119C50.209 63.1232 50.4723 63.0296 50.6759 62.8504L50.3189 62.7011C50.4227 63.1425 50.6391 63.5484 50.9463 63.8779C51.2536 64.2075 51.6409 64.449 52.0694 64.5783C52.2807 64.6426 52.5 64.6765 52.7206 64.679C52.9888 64.6798 53.2643 64.8165 53.5208 64.9013L55.369 65.5127C55.6409 65.6026 55.8134 65.1836 55.5393 65.0929L53.8654 64.5392C53.5865 64.447 53.3082 64.3522 53.0285 64.2624C52.8285 64.1982 52.6095 64.233 52.4009 64.1952C52.0105 64.1202 51.6491 63.934 51.3589 63.6584C51.0687 63.3828 50.8616 63.0291 50.7618 62.6385C50.7557 62.5997 50.7399 62.5631 50.7159 62.5322C50.6918 62.5013 50.6604 62.4772 50.6246 62.4623C50.5887 62.4473 50.5497 62.4419 50.5112 62.4466C50.4728 62.4513 50.4361 62.466 50.4049 62.4893C50.2879 62.6023 50.1318 62.6638 49.9704 62.6604C49.809 62.657 49.6554 62.5891 49.5431 62.4713C49.4309 62.3535 49.369 62.1955 49.3709 62.0316C49.3729 61.8677 49.4385 61.7112 49.5535 61.5962L49.1549 61.4295C48.9962 62.1629 48.1151 62.4382 47.4801 62.2261C46.7699 61.9889 46.1595 61.2988 45.9477 60.5759C45.8911 60.4022 45.8703 60.2185 45.8867 60.0363C45.9031 59.8541 45.9564 59.6773 46.0431 59.5169C46.1204 59.3706 46.241 59.2527 46.3878 59.1797C46.5346 59.1066 46.7003 59.0822 46.8615 59.1099C47.0055 59.1305 47.1359 59.2072 47.2253 59.3236C47.3147 59.4401 47.356 59.5872 47.3405 59.734C47.3168 59.8992 47.2535 60.0559 47.1561 60.1904C47.0588 60.3248 46.9304 60.4329 46.7822 60.5052C46.3825 60.723 45.9039 60.7772 45.4599 60.8267C44.9538 60.8826 44.444 60.8973 43.9355 60.8707C43.6501 60.8561 43.5928 61.3067 43.8812 61.3214Z" fill="#6C63FF"/>
<path d="M62.6402 25.1267C62.7416 25.3814 62.8968 25.6104 63.0949 25.7977C63.2929 25.9849 63.5289 26.1257 63.7864 26.2103C64.0438 26.2949 64.3164 26.3211 64.5849 26.2872C64.8534 26.2532 65.1113 26.1599 65.3405 26.0138L70.4711 30.1925L70.7887 26.7371L65.8679 23.2987C65.6006 22.9241 65.2073 22.662 64.7625 22.5622C64.3177 22.4624 63.8522 22.5317 63.4544 22.7571C63.0565 22.9824 62.7539 23.3481 62.6038 23.7848C62.4538 24.2215 62.4667 24.699 62.6402 25.1267Z" fill="#9F616A"/>
<path d="M70.5856 26.4126L68.6707 25.0388L66.4987 27.5869L69.0252 29.1072L70.5856 26.4126Z" fill="#219EBC"/>
<path d="M70.1661 25.4809L76.6195 28.0021L82.8319 23.8718C83.4739 23.4449 84.247 23.2699 85.0068 23.3794C85.7666 23.4888 86.4611 23.8753 86.9608 24.4667C87.4605 25.0581 87.7312 25.8139 87.7222 26.5931C87.7133 27.3722 87.4254 28.1214 86.9122 28.7008L86.8566 28.7634L77.3019 33.9649L66.8652 29.1238L70.1661 25.4809Z" fill="#FFAA00"/>
<path d="M95.7305 80.9035L93.4552 81.7291L89.2358 73.2108L92.5941 71.9922L95.7305 80.9035Z" fill="#9F616A"/>
<path d="M89.7626 85.5946L89.7294 85.5004C89.4597 84.7313 89.5014 83.885 89.8455 83.1472C90.1895 82.4093 90.8078 81.8402 91.5646 81.5645L96.0456 79.9385L97.0994 82.9324L89.7626 85.5946Z" fill="#2F2E41"/>
<path d="M65.4735 36.261C65.6789 36.4398 65.9204 36.5707 66.1811 36.6445C66.4417 36.7183 66.7151 36.7332 66.982 36.6881C67.2489 36.643 67.5029 36.539 67.7259 36.3835C67.949 36.228 68.1357 36.0247 68.273 35.788L74.7215 37.1033L73.4387 33.8866L67.5118 33.1307C67.1048 32.9229 66.6369 32.8738 66.1967 32.9928C65.7565 33.1119 65.3746 33.3907 65.1233 33.7766C64.8721 34.1624 64.7689 34.6285 64.8335 35.0864C64.898 35.5442 65.1257 35.9622 65.4735 36.261Z" fill="#9F616A"/>
<path d="M80.9346 83.1884H78.5182L77.3688 73.7251L80.935 73.7252L80.9346 83.1884Z" fill="#9F616A"/>
<path d="M81.5507 85.5666L73.7595 85.5664V85.4663C73.7595 85.0619 73.838 84.6615 73.9904 84.288C74.1428 83.9144 74.3662 83.5749 74.6478 83.289C74.9294 83.0031 75.2637 82.7763 75.6316 82.6216C75.9995 82.4668 76.3939 82.3872 76.7921 82.3872H76.7923L81.5509 82.3874L81.5507 85.5666Z" fill="#2F2E41"/>
<path d="M86.4414 22.7303L85.3905 20.6219C85.3905 20.6219 81.4758 21.6178 81.1199 23.9216L86.4414 22.7303Z" fill="#219EBC"/>
<path d="M90.7774 46.8377L87.9196 63.0301L95.5076 76.6556L90.9745 78.4566L83.2878 65.2488L82.3024 61.6466L81.711 80.4578L77.6228 80.3318L75.7483 62.7666L78.7547 46.4375L90.7774 46.8377Z" fill="#2F2E41"/>
<path d="M90.186 39.5221L90.0872 30.0268C90.0872 26.0026 87.4787 23.0365 87.1171 22.7622C86.947 22.2109 86.6417 21.8298 86.2101 21.6304C85.3406 21.2302 84.2772 21.7104 84.2322 21.732L81.042 22.9464L81.027 22.9908C80.9932 23.0924 77.7743 33.8173 76.966 36.509C76.8509 36.8952 76.7847 37.1162 76.7847 37.1162C76.7847 37.1162 76.7972 37.7387 76.8197 38.7066C76.891 42.0347 77.0599 49.448 77.1274 49.7592C77.1274 49.7592 83.0199 50.6662 85.3531 50.6662C89.5504 50.6662 92.2165 49.8507 92.2765 49.8367L92.3728 49.8164L90.186 39.5221Z" fill="#FFAA00"/>
<path d="M84.1954 19.4216C86.2854 18.2615 87.0536 15.6007 85.911 13.4786C84.7685 11.3564 82.148 10.5764 80.0579 11.7365C77.9678 12.8966 77.1996 15.5574 78.3422 17.6796C79.4847 19.8018 82.1053 20.5817 84.1954 19.4216Z" fill="#9F616A"/>
<path opacity="0.2" d="M82.6046 37.5127L76.8197 38.7067C76.7972 37.7388 76.7847 37.1163 76.7847 37.1163C76.7847 37.1163 76.8509 36.8953 76.966 36.5092L82.6046 37.5127Z" fill="#6B4700"/>
<path d="M73.1114 33.6932L70.7888 33.3673L70.014 36.6441L72.9461 36.8146L73.1114 33.6932Z" fill="#219EBC"/>
<path d="M72.3171 33.0618L79.1895 32.2876L82.8357 25.7194C83.2124 25.0406 83.8197 24.5242 84.544 24.2667C85.2682 24.0092 86.0601 24.0281 86.7716 24.3199C87.4832 24.6118 88.0658 25.1566 88.4107 25.8527C88.7556 26.5487 88.8392 27.3485 88.646 28.1025L88.625 28.1841L82.4959 37.264L71.0356 37.8379L72.3171 33.0618Z" fill="#FFAA00"/>
<path d="M85.8002 19.3811L82.2204 19.5116C82.0022 19.5195 81.41 17.1284 81.3324 16.6324C81.2712 16.3095 81.0962 16.0202 80.8403 15.8187C80.5843 15.6172 80.2649 15.5171 79.9416 15.5372C79.6736 15.5629 78.9979 15.0546 78.3006 14.4527C76.9768 13.31 77.0457 11.1638 78.4999 10.1982C78.5396 10.1718 78.5786 10.1477 78.6169 10.1259C79.5343 9.60451 80.6074 9.42944 81.6587 9.41609C82.6116 9.40398 83.5916 9.52577 84.4311 9.98375C85.9362 10.8048 86.7372 12.5991 86.8076 14.3324C86.878 16.0658 86.3307 17.7607 85.7097 19.3768" fill="#2F2E41"/>
<path d="M20.258 47.4351L58.2654 59.2476C58.3727 59.2809 58.4884 59.2696 58.5873 59.2162C58.6862 59.1628 58.7605 59.0715 58.7935 58.9618L20.258 47.4351ZM20.258 47.4351C20.1507 47.4016 20.0602 47.3262 20.0069 47.2248M20.258 47.4351L20.0069 47.2248M20.0069 47.2248C19.9536 47.1233 19.942 47.0046 19.9747 46.8947M20.0069 47.2248L19.9747 46.8947M19.9747 46.8947L32.6585 4.48302L19.9747 46.8947ZM32.8648 4.22854C32.7659 4.28191 32.6915 4.37323 32.6586 4.48291L32.8648 4.22854ZM32.8648 4.22854C32.9636 4.17518 33.0793 4.16387 33.1866 4.19706M32.8648 4.22854L33.1866 4.19706M33.1866 4.19706C33.1866 4.19707 33.1867 4.19708 33.1867 4.19709M33.1866 4.19706L33.1867 4.19709M33.1867 4.19709L71.1941 16.0096C71.1941 16.0096 71.1941 16.0096 71.1942 16.0097C71.3014 16.0432 71.3918 16.1186 71.4451 16.22C71.4985 16.3214 71.5101 16.4401 71.4774 16.5499L33.1867 4.19709ZM71.4773 16.55L58.7935 58.9617L71.4773 16.55Z" fill="white" stroke="black" stroke-width="0.2"/>
<line x1="0.5" y1="85.2653" x2="105.5" y2="85.2653" stroke="#202937" stroke-width="0.3"/>
<path d="M70.6377 48.3146L70.0365 84.9852L10.907 84.616V42.022H20.8488L30.0159 48.5465L70.6377 48.3146Z" fill="white"/>
<path d="M70.0819 85.0941L10.7858 84.7391V41.8989H20.8871L30.0547 48.4234L70.6377 48.3147L70.0819 85.0941ZM11.0283 84.4929L70.0819 84.7391L70.3952 48.5609L29.9782 48.6696L20.8106 42.1451H11.0283V84.4929Z" fill="#3F3D56"/>
<path d="M45.3819 23.3436L35.9552 20.4138C35.8223 20.3724 35.7109 20.2791 35.6454 20.1546C35.5799 20.03 35.5657 19.8843 35.6059 19.7495L38.4651 10.189C38.5056 10.0542 38.5971 9.94138 38.7196 9.87526C38.8421 9.80914 38.9856 9.79512 39.1186 9.83629L48.5453 12.7661C48.6782 12.8075 48.7896 12.9008 48.8551 13.0253C48.9206 13.1499 48.9348 13.2956 48.8946 13.4304L46.0354 22.9909C45.9949 23.1257 45.9034 23.2385 45.7809 23.3046C45.6584 23.3708 45.5149 23.3848 45.3819 23.3436ZM39.0578 10.0397C38.978 10.015 38.8919 10.0234 38.8184 10.0631C38.7449 10.1028 38.6899 10.1704 38.6657 10.2513L35.8065 19.8118C35.7824 19.8927 35.7909 19.9801 35.8302 20.0549C35.8695 20.1296 35.9363 20.1855 36.0161 20.2104L45.4427 23.1402C45.5225 23.1649 45.6086 23.1565 45.6821 23.1168C45.7557 23.0771 45.8106 23.0095 45.8349 22.9286L48.694 13.3681C48.7182 13.2872 48.7096 13.1998 48.6703 13.125C48.631 13.0503 48.5642 12.9944 48.4845 12.9695L39.0578 10.0397Z" fill="#F2F2F2"/>
<path d="M42.3245 23.6717L32.8978 20.7419C32.7782 20.7046 32.6779 20.6207 32.619 20.5086C32.56 20.3965 32.5472 20.2653 32.5834 20.144L35.4426 10.5835C35.479 10.4622 35.5614 10.3606 35.6716 10.3011C35.7819 10.2416 35.911 10.229 36.0307 10.266L45.4574 13.1958C45.577 13.2331 45.6773 13.317 45.7362 13.4291C45.7952 13.5412 45.808 13.6724 45.7718 13.7938L42.9126 23.3542C42.8762 23.4755 42.7938 23.5771 42.6835 23.6366C42.5733 23.6961 42.4441 23.7087 42.3245 23.6717Z" fill="#219EBC"/>
<path d="M60.982 34.5838L31.4985 25.4205C31.4393 25.402 31.3841 25.372 31.3363 25.3319C31.2884 25.2919 31.2487 25.2427 31.2195 25.1872C31.1903 25.1317 31.1722 25.0709 31.1661 25.0083C31.16 24.9458 31.1662 24.8826 31.1841 24.8225C31.2021 24.7624 31.2316 24.7065 31.2709 24.658C31.3102 24.6096 31.3585 24.5694 31.4131 24.54C31.4677 24.5105 31.5275 24.4922 31.5892 24.4863C31.6508 24.4803 31.713 24.4867 31.7723 24.5051L61.2558 33.6684C61.3754 33.7056 61.4758 33.7895 61.5348 33.9016C61.5937 34.0138 61.6065 34.145 61.5702 34.2664C61.5339 34.3877 61.4515 34.4894 61.3412 34.5489C61.2309 34.6084 61.1017 34.621 60.982 34.5838Z" fill="#CCCCCC"/>
<path d="M52.9191 35.5238L30.5558 28.5734C30.4965 28.555 30.4414 28.5249 30.3935 28.4849C30.3456 28.4449 30.306 28.3957 30.2768 28.3402C30.2476 28.2847 30.2294 28.2239 30.2234 28.1613C30.2173 28.0987 30.2234 28.0356 30.2414 27.9755C30.2594 27.9154 30.2888 27.8595 30.3281 27.811C30.3674 27.7625 30.4157 27.7224 30.4703 27.6929C30.525 27.6634 30.5848 27.6452 30.6464 27.6392C30.7081 27.6332 30.7703 27.6396 30.8295 27.658L53.1929 34.6085C53.3125 34.6457 53.4129 34.7296 53.4719 34.8417C53.5308 34.9538 53.5435 35.085 53.5072 35.2064C53.4709 35.3278 53.3886 35.4294 53.2783 35.489C53.168 35.5485 53.0388 35.561 52.9191 35.5238Z" fill="#CCCCCC"/>
<path d="M64.3493 22.9581L51.3124 18.9063C51.2531 18.8879 51.198 18.8578 51.1501 18.8178C51.1022 18.7778 51.0626 18.7286 51.0334 18.6731C51.0042 18.6175 50.986 18.5568 50.9799 18.4942C50.9739 18.4316 50.98 18.3685 50.998 18.3084C51.016 18.2483 51.0454 18.1924 51.0847 18.1439C51.124 18.0954 51.1723 18.0553 51.2269 18.0258C51.2816 17.9963 51.3414 17.9781 51.403 17.9721C51.4646 17.9661 51.5269 17.9725 51.5861 17.9909L64.623 22.0427C64.7427 22.0799 64.8431 22.1638 64.902 22.276C64.961 22.3881 64.9737 22.5193 64.9374 22.6407C64.9011 22.7621 64.8188 22.8637 64.7085 22.9232C64.5982 22.9828 64.469 22.9953 64.3493 22.9581Z" fill="#CCCCCC"/>
<path d="M60.1528 25.0997L50.3695 22.0591C50.2498 22.0219 50.1495 21.938 50.0905 21.8259C50.0315 21.7138 50.0188 21.5826 50.0551 21.4612C50.0914 21.3398 50.1738 21.2382 50.2841 21.1786C50.3944 21.1191 50.5236 21.1066 50.6433 21.1438L60.4266 24.1844C60.5463 24.2216 60.6466 24.3055 60.7056 24.4176C60.7646 24.5297 60.7773 24.6609 60.741 24.7823C60.7047 24.9037 60.6223 25.0053 60.512 25.0649C60.4017 25.1244 60.2725 25.1369 60.1528 25.0997Z" fill="#CCCCCC"/>
<path d="M59.0962 40.8898L29.6128 31.7265C29.5535 31.7081 29.4984 31.678 29.4505 31.638C29.4026 31.598 29.363 31.5488 29.3338 31.4933C29.3046 31.4377 29.2864 31.3769 29.2804 31.3144C29.2743 31.2518 29.2804 31.1887 29.2984 31.1285C29.3164 31.0684 29.3458 31.0126 29.3851 30.9641C29.4244 30.9156 29.4727 30.8755 29.5274 30.846C29.582 30.8165 29.6418 30.7983 29.7034 30.7923C29.7651 30.7863 29.8273 30.7927 29.8865 30.8111L59.37 39.9745C59.4897 40.0117 59.59 40.0955 59.649 40.2077C59.708 40.3198 59.7207 40.451 59.6844 40.5724C59.6481 40.6938 59.5657 40.7954 59.4554 40.8549C59.3451 40.9145 59.2159 40.927 59.0962 40.8898Z" fill="#CCCCCC"/>
<path d="M51.0331 41.8296L28.6698 34.8792C28.6105 34.8608 28.5554 34.8307 28.5075 34.7907C28.4596 34.7507 28.42 34.7015 28.3908 34.646C28.3616 34.5904 28.3434 34.5297 28.3374 34.4671C28.3313 34.4045 28.3374 34.3414 28.3554 34.2813C28.3734 34.2212 28.4028 34.1653 28.4421 34.1168C28.4814 34.0683 28.5297 34.0282 28.5844 33.9987C28.639 33.9692 28.6988 33.951 28.7604 33.945C28.8221 33.939 28.8843 33.9454 28.9435 33.9638L51.3069 40.9142C51.3661 40.9327 51.4213 40.9627 51.4691 41.0028C51.517 41.0428 51.5567 41.092 51.5859 41.1475C51.6151 41.203 51.6332 41.2638 51.6393 41.3264C51.6454 41.3889 51.6392 41.4521 51.6213 41.5122C51.6033 41.5723 51.5738 41.6282 51.5345 41.6767C51.4952 41.7251 51.4469 41.7653 51.3923 41.7947C51.3377 41.8242 51.2779 41.8425 51.2162 41.8484C51.1546 41.8544 51.0924 41.848 51.0331 41.8296Z" fill="#CCCCCC"/>
</svg>
