<svg width="23" height="16" viewBox="0 0 23 16" fill="none" xmlns="http://www.w3.org/2000/svg">
<path d="M11.25 11C12.9069 11 14.25 9.65685 14.25 8C14.25 6.34315 12.9069 5 11.25 5C9.59315 5 8.25 6.34315 8.25 8C8.25 9.65685 9.59315 11 11.25 11Z" fill="#6B737F"/>
<path d="M17.7572 2.61781C15.7078 1.2125 13.5145 0.5 11.2387 0.5C9.19078 0.5 7.19438 1.10937 5.30484 2.30375C3.39937 3.51078 1.53141 5.70312 0 8C1.23844 10.0625 2.9325 12.1831 4.69687 13.3991C6.72094 14.7931 8.92172 15.5 11.2387 15.5C13.5356 15.5 15.7317 14.7936 17.7684 13.4005C19.5614 12.1719 21.2677 10.0541 22.5 8C21.2634 5.96422 19.5516 3.84875 17.7572 2.61781ZM11.25 12.5C10.36 12.5 9.48995 12.2361 8.74993 11.7416C8.00991 11.2471 7.43314 10.5443 7.09254 9.72208C6.75195 8.89981 6.66283 7.99501 6.83647 7.12209C7.0101 6.24918 7.43868 5.44736 8.06802 4.81802C8.69736 4.18868 9.49918 3.7601 10.3721 3.58647C11.245 3.41283 12.1498 3.50195 12.9721 3.84254C13.7943 4.18314 14.4971 4.75991 14.9916 5.49993C15.4861 6.23995 15.75 7.10998 15.75 8C15.7486 9.19306 15.2741 10.3369 14.4305 11.1805C13.5869 12.0241 12.4431 12.4986 11.25 12.5Z" fill="#6B737F"/>
</svg>
