<svg width="25" height="24" viewBox="0 0 25 24" fill="none" xmlns="http://www.w3.org/2000/svg">
<path d="M23.3615 7.27984e-06C16.9658 0.0173163 10.5701 0.00989824 4.1738 0.00989824C4.08444 0.00989824 3.99442 0.00742553 3.90506 0.0107225C3.13601 0.0395709 2.59332 0.731109 2.58223 1.70124C2.57701 2.12243 2.57309 2.54444 2.58418 2.96563C2.59005 3.17581 2.547 3.25741 2.36958 3.24669C2.06105 3.22856 1.75121 3.24092 1.44203 3.24175C0.545132 3.24587 0.00112772 3.93493 0.00112772 5.07074C0.000475433 7.27146 0.00112772 9.47136 0.00112772 11.6721C0.00112772 13.595 -0.00213244 15.518 0.00243357 17.4401C0.00504271 18.4127 0.573186 19.1315 1.34158 19.1529C1.48769 19.157 1.63446 19.1537 1.78122 19.1537C2.05996 19.1537 2.19934 19.3317 2.19934 19.6878C2.19934 20.8912 2.20064 22.0938 2.19803 23.2972C2.19803 23.5766 2.26456 23.8074 2.47199 23.9327C2.67615 24.0563 2.86727 24.0035 3.04013 23.8247C3.07144 23.7925 3.10536 23.7629 3.13797 23.7324C4.67606 22.2644 6.21546 20.7972 7.75094 19.3252C7.87357 19.2073 7.99359 19.1496 8.15014 19.1496C12.1858 19.1545 16.2222 19.1537 20.2579 19.1496C20.3955 19.1496 20.5057 19.19 20.6153 19.2971C21.0465 19.7183 21.4848 20.1271 21.9166 20.5475C22.1019 20.728 22.2911 20.8442 22.522 20.7C22.7614 20.5508 22.8044 20.2829 22.8031 19.9755C22.7985 18.7111 22.8044 17.4459 22.7979 16.1815C22.7966 15.9713 22.837 15.879 23.0131 15.9029C23.1338 15.9194 23.2571 15.9062 23.3791 15.9062C24.3314 15.9062 24.6432 15.6424 25 14.5338V1.3938C24.7306 0.276128 24.1422 -0.0016412 23.3615 7.27984e-06ZM19.0792 17.9206H18.8209C15.2001 17.9206 11.5792 17.9223 7.95837 17.9165C7.71833 17.9165 7.52264 17.994 7.33021 18.1786C6.03021 19.4315 4.72368 20.6728 3.41911 21.9182C3.35453 21.98 3.28865 22.0402 3.22146 22.1037C3.13928 22.0171 3.17842 21.9075 3.17777 21.8144C3.17451 20.7659 3.17646 19.7167 3.17515 18.6682C3.1745 18.1374 3.00426 17.9239 2.58092 17.9215C2.1902 17.919 1.79948 17.9248 1.40941 17.9198C1.10545 17.9157 0.978251 17.7566 0.978251 17.3734C0.976947 13.2604 0.976947 9.14743 0.978251 5.03529C0.978251 4.63471 1.1035 4.48058 1.42377 4.47728C1.71664 4.47399 2.01017 4.49377 2.3024 4.47069C2.52026 4.45338 2.5881 4.52921 2.58744 4.82017C2.57766 7.27723 2.58158 9.73511 2.58158 12.1922C2.58158 12.8606 2.57766 13.5291 2.58288 14.1967C2.59071 15.2015 3.14123 15.8996 3.93833 15.9054C4.99634 15.9128 10.8571 15.9087 12.131 15.907C13.6783 15.9087 15.2261 15.9103 16.7734 15.9029C16.9717 15.9021 17.1282 15.9647 17.2854 16.1189C17.8822 16.7041 18.4882 17.2744 19.0903 17.8498C19.0864 17.8737 19.0831 17.8976 19.0792 17.9206ZM24.0235 14.0508C24.0235 14.5396 23.9192 14.6723 23.5337 14.674C23.1677 14.6756 22.8011 14.6715 22.4352 14.6748C22.0014 14.6797 21.826 14.9006 21.826 15.4422C21.8247 16.573 21.826 17.703 21.826 18.838C21.7105 18.8644 21.6603 18.7507 21.5957 18.6888C20.2827 17.4409 18.9703 16.1922 17.6631 14.9344C17.4713 14.7498 17.2737 14.669 17.0336 14.6698C15.3083 14.6764 13.5837 14.6731 11.8584 14.6731C11.8179 14.6731 11.7769 14.6715 11.7364 14.6731C9.96611 14.6707 4.99242 14.6731 4.059 14.6723C3.65067 14.6723 3.55805 14.5544 3.55805 14.0377C3.55805 9.98651 3.55805 5.93536 3.55805 1.88422C3.55805 1.36083 3.64871 1.24214 4.05509 1.24214C10.5486 1.24214 17.0415 1.24214 23.535 1.24214C23.9224 1.24214 24.0242 1.37402 24.0248 1.86526C24.0248 5.9263 24.0248 9.98816 24.0248 14.0492L24.0235 14.0508Z" fill="#858585"/>
<path d="M21.4051 10.1485C21.3007 10.0241 21.2766 9.93421 21.3614 9.76194C21.7143 9.04733 21.8695 8.25771 21.8767 7.38071C21.8702 6.60016 21.713 5.83361 21.3862 5.12559C20.2995 2.76991 17.8854 2.58363 16.6395 4.78518C15.8672 6.15012 15.7511 7.65354 16.2566 9.20311C17.0009 11.4846 18.9975 12.3039 20.4841 10.9653C20.5806 10.8788 20.6354 10.9076 20.7091 11.0024C20.9596 11.3255 21.2133 11.6445 21.4703 11.9594C21.7104 12.2544 22.0013 12.2701 22.2041 12.0072C22.4096 11.7418 22.392 11.3898 22.1507 11.0799C21.9054 10.765 21.6588 10.451 21.4051 10.1469V10.1485ZM20.6511 8.86187C20.5774 9.05145 20.5265 9.05557 20.4162 8.90721C20.2042 8.62284 19.9818 8.35084 19.76 8.07967C19.5174 7.78294 19.2278 7.76234 19.0236 8.01785C18.8207 8.27254 18.8357 8.64675 19.068 8.94677C19.2897 9.23278 19.5076 9.52621 19.7457 9.79079C19.9133 9.97707 19.8461 10.0463 19.6922 10.1436C19.0712 10.5359 18.325 10.4205 17.7777 9.82459C17.1972 9.19239 16.9624 8.36403 16.9395 7.45077C16.9559 6.61087 17.1391 5.88059 17.5729 5.2723C18.342 4.19255 19.5617 4.21728 20.3067 5.32341C20.9413 6.26552 21.0822 7.75492 20.6504 8.86187H20.6511Z" fill="#858585"/>
<path d="M13.0508 4.21799C12.9543 3.92868 12.818 3.72592 12.5492 3.73004C12.2903 3.73499 12.1605 3.94105 12.0691 4.2147C11.3099 6.4929 10.5493 8.77027 9.79071 11.0493C9.65243 11.4647 9.73983 11.8084 10.0125 11.9584C10.2851 12.1084 10.548 11.9477 10.6876 11.5348C10.8853 10.9504 11.0868 10.3668 11.2707 9.77502C11.3366 9.56319 11.4195 9.47912 11.606 9.48407C12.2159 9.50055 12.8258 9.50632 13.435 9.48242C13.677 9.47253 13.7925 9.56319 13.8773 9.85333C14.0514 10.4493 14.2582 11.0303 14.4598 11.6131C14.5687 11.9279 14.7964 12.0689 15.0331 11.9947C15.2412 11.9296 15.3932 11.6848 15.3978 11.3567C15.4043 11.2694 15.3625 11.1449 15.3214 11.0221C14.5641 8.75379 13.8049 6.4863 13.0502 4.21717L13.0508 4.21799ZM13.1728 8.25924C12.7664 8.25348 12.3601 8.25677 11.953 8.25677C11.8637 8.25677 11.7815 8.25512 11.8376 8.08945C12.0718 7.39297 12.304 6.69566 12.561 5.92829C12.816 6.69071 13.0443 7.3806 13.2785 8.06802C13.3313 8.22298 13.2974 8.26089 13.1735 8.25924H13.1728Z" fill="#858585"/>
<path d="M8.95513 6.95317C8.16652 6.9474 7.3779 6.94657 6.58929 6.95564C6.43209 6.95729 6.37795 6.90289 6.38252 6.69848C6.39361 6.22619 6.39752 5.75307 6.38121 5.28078C6.37273 5.02774 6.42753 4.94944 6.6343 4.95438C7.38182 4.97087 8.12999 4.96015 8.87816 4.9618C9.00079 4.9618 9.12278 4.95768 9.23627 4.89009C9.43131 4.77387 9.54676 4.48457 9.50371 4.22575C9.45218 3.91666 9.27019 3.73039 8.99036 3.72956C7.99823 3.72544 7.00676 3.72626 6.01463 3.72791C5.57042 3.72791 5.41061 3.9282 5.40931 4.48621C5.40735 5.64675 5.40931 6.8081 5.40931 7.96863C5.40931 8.68819 5.40931 9.40693 5.40931 10.1265C5.40931 10.6095 5.40408 11.0925 5.41256 11.5747C5.41843 11.9283 5.60173 12.1698 5.85743 12.192C6.12356 12.2151 6.33751 11.9893 6.3773 11.6349C6.38839 11.5335 6.38578 11.4296 6.38578 11.3274C6.38578 10.382 6.39165 9.4366 6.38187 8.49202C6.37926 8.25711 6.42361 8.17634 6.6219 8.17964C7.40204 8.19447 8.18283 8.18293 8.96361 8.18788C9.188 8.18953 9.36282 8.09227 9.46327 7.83428C9.6309 7.40238 9.37716 6.95811 8.95513 6.95482V6.95317Z" fill="#858585"/>
</svg>
