<svg width="34" height="34" viewBox="0 0 34 34" fill="none" xmlns="http://www.w3.org/2000/svg">
<rect width="34" height="34" rx="4" fill="#FFAA00"/>
<path d="M33.9997 13.3379C18.0982 13.3379 14.1228 27.1122 14.1228 33.9994H30.0243C33.2046 33.9994 33.9997 31.3674 33.9997 30.0514V13.3379Z" fill="#E3A01B"/>
<path d="M20.6614 34C20.6614 18.0984 6.88702 14.123 -0.000160217 14.123L-0.000160912 30.0246C-0.000161051 33.2049 2.63188 34 3.9479 34L20.6614 34Z" fill="#EDBF63" fill-opacity="0.6"/>
<path d="M22.5964 8.89258H14.7235C14.2107 8.89258 13.7949 9.30833 13.7949 9.82118C13.7949 10.334 14.2107 10.7498 14.7235 10.7498H21.2834L10.3333 21.6999C9.97074 22.0625 9.97074 22.6504 10.3333 23.013C10.6959 23.3756 11.2838 23.3756 11.6464 23.013L22.5964 12.0628V18.6227C22.5964 19.1356 23.0122 19.5513 23.525 19.5513C24.0379 19.5513 24.4536 19.1356 24.4536 18.6227V10.7498C24.4536 9.72554 23.6207 8.89258 22.5964 8.89258Z" fill="white"/>
</svg>
