<svg width="232" height="206" viewBox="0 0 232 206" fill="none" xmlns="http://www.w3.org/2000/svg">
<path d="M15.1541 44.2891C16.8961 44.2891 18.3082 42.8812 18.3082 41.1446C18.3082 39.408 16.8961 38.0001 15.1541 38.0001C13.4121 38.0001 12 39.408 12 41.1446C12 42.8812 13.4121 44.2891 15.1541 44.2891Z" fill="#BDF2FF" fill-opacity="0.4"/>
<path d="M149.154 54.2891C150.896 54.2891 152.308 52.8812 152.308 51.1446C152.308 49.408 150.896 48.0001 149.154 48.0001C147.412 48.0001 146 49.408 146 51.1446C146 52.8812 147.412 54.2891 149.154 54.2891Z" fill="#FFC794" fill-opacity="0.4"/>
<path d="M214.478 136.147C214.478 136.147 214.27 137.408 214.477 138.17C214.733 139.113 215.611 139.302 215.88 140.241C216.089 140.969 215.758 141.447 215.951 142.179C216.183 143.057 216.879 143.122 217.116 144.193C217.354 145.264 216.797 145.577 217.014 146.42C217.191 147.109 217.876 148.025 217.876 148.025" stroke="#FFAA00" stroke-width="0.930681" stroke-linecap="round"/>
<path d="M132.374 1.28757C132.374 1.28757 133.372 1.71612 133.824 2.21363C134.382 2.8289 134.116 3.5443 134.665 4.1677C135.09 4.65079 135.584 4.63245 136.02 5.10614C136.543 5.67461 136.271 6.20235 136.929 6.86322C137.587 7.52409 138.066 7.26864 138.571 7.81013C138.984 8.25262 139.326 9.1632 139.326 9.1632" stroke="#4C1ADA" stroke-opacity="0.4" stroke-width="0.930681" stroke-linecap="round"/>
<path d="M185.371 83.3996C185.371 83.3996 185.762 84.6162 186.295 85.1998C186.955 85.9216 187.822 85.6884 188.492 86.4005C189.01 86.9522 188.934 87.5287 189.441 88.0916C190.049 88.7672 190.698 88.5063 191.399 89.3504C192.101 90.1946 191.748 90.7276 192.327 91.3789C192.8 91.911 193.829 92.412 193.829 92.412" stroke="#D30DF3" stroke-opacity="0.4" stroke-width="0.930681" stroke-linecap="round"/>
<path d="M191.257 119L191.966 121.282L194.355 121.251L192.404 122.63L193.172 124.893L191.257 123.463L189.343 124.893L190.111 122.63L188.159 121.251L190.549 121.282L191.257 119Z" stroke="#FF1F1F" stroke-opacity="0.4" stroke-width="0.930681"/>
<path d="M14.6534 82.0001L15.6654 85.2606L19.0791 85.2155L16.2909 87.1856L17.3886 90.4182L14.6534 88.3753L11.9182 90.4182L13.0159 87.1856L10.2278 85.2155L13.6414 85.2606L14.6534 82.0001Z" stroke="#FFAA00" stroke-opacity="0.4" stroke-width="0.930681"/>
<path d="M185.723 24.0001L186.532 26.6085L189.263 26.5725L187.033 28.1485L187.911 30.7346L185.723 29.1003L183.535 30.7346L184.413 28.1485L182.182 26.5725L184.913 26.6085L185.723 24.0001Z" stroke="#4C1ADA" stroke-opacity="0.4" stroke-width="0.930681"/>
<path d="M56.1893 37.4675L56.5199 37.8048L56.8523 37.4691C57.4818 36.8333 58.3324 36.4782 59.2174 36.4793C60.1023 36.4804 60.9521 36.8377 61.5801 37.4751C62.2083 38.1127 62.563 38.9787 62.5642 39.8835C62.5654 40.7881 62.2133 41.6549 61.5871 42.2943C61.5869 42.2944 61.5868 42.2946 61.5867 42.2947L56.5216 47.4359L51.4556 42.2938L51.4556 42.2938L51.4433 42.2813C51.4432 42.2812 51.4431 42.2811 51.443 42.281C50.8156 41.6406 50.4631 40.772 50.4654 39.8658C50.4676 38.9595 50.8245 38.0926 51.4552 37.4554C52.0858 36.8185 52.9382 36.4632 53.8247 36.4655C54.7111 36.4677 55.5618 36.8273 56.1893 37.4675Z" stroke="#DC0000" stroke-opacity="0.4" stroke-width="0.930681"/>
<path d="M2.12525 168.044L2.41019 167.667L2.02916 167.388C1.43902 166.955 1.04952 166.31 0.943803 165.595C0.838091 164.879 1.0244 164.149 1.46422 163.565C1.90425 162.98 2.56221 162.588 3.29448 162.478C4.02653 162.368 4.77039 162.548 5.36305 162.977C5.36322 162.978 5.36339 162.978 5.36356 162.978L10.2 166.504L6.60138 171.288L6.60136 171.288L6.59264 171.3C6.59253 171.3 6.59243 171.3 6.59232 171.3C6.14999 171.885 5.48971 172.275 4.75595 172.382C4.022 172.49 3.27742 172.306 2.68598 171.872C2.09481 171.439 1.70498 170.793 1.60001 170.076C1.49504 169.359 1.68313 168.628 2.12525 168.044Z" stroke="#36B0B0" stroke-opacity="0.4" stroke-width="0.930681"/>
<path d="M34.7959 129.829C43.3438 129.829 50.2733 122.912 50.2733 114.38C50.2733 105.848 43.3438 98.9319 34.7959 98.9319C26.2479 98.9319 19.3185 105.848 19.3185 114.38C19.3185 122.912 26.2479 129.829 34.7959 129.829Z" fill="#FFAA00"/>
<path d="M66.4917 201.639H66.476C65.931 201.639 65.4085 201.422 65.0232 201.038C64.6378 200.653 64.421 200.132 64.4204 199.588V79.1382C64.421 78.5942 64.6378 78.0727 65.0232 77.688C65.4085 77.3034 65.931 77.087 66.476 77.0864H168.046C168.591 77.087 169.114 77.3034 169.499 77.688C169.885 78.0727 170.101 78.5942 170.102 79.1382V172.794C170.101 173.336 169.887 173.855 169.505 174.239C169.123 174.623 168.605 174.841 168.062 174.846L66.4917 201.639Z" fill="#E9F5F8"/>
<path d="M141.565 60.0698H94.4076V32.7937C94.4083 32.2177 94.6378 31.6655 95.0458 31.2582C95.4538 30.851 96.0071 30.6219 96.5841 30.6212H139.389C139.966 30.6219 140.519 30.851 140.927 31.2582C141.335 31.6655 141.565 32.2177 141.565 32.7937V60.0698ZM94.8913 59.587H141.082V32.7937C141.081 32.3457 140.903 31.9162 140.585 31.5994C140.268 31.2827 139.838 31.1045 139.389 31.104H96.5841C96.1353 31.1045 95.705 31.2827 95.3876 31.5994C95.0703 31.9162 94.8918 32.3457 94.8913 32.7937V59.587Z" fill="#0F4755"/>
<path d="M107.83 41.0004H128.144C128.657 41.0004 129.149 41.2038 129.512 41.566C129.875 41.9281 130.079 42.4193 130.079 42.9314V71.8972H105.895V42.9314C105.895 42.4193 106.099 41.9281 106.462 41.566C106.825 41.2038 107.317 41.0004 107.83 41.0004Z" fill="#A0D5E2"/>
<path d="M111.82 31.1036H101.905V21.2069C101.905 20.8869 102.032 20.5802 102.259 20.3539C102.486 20.1276 102.793 20.0004 103.114 20H110.611C110.931 20.0004 111.238 20.1276 111.465 20.3539C111.692 20.5802 111.819 20.8869 111.82 21.2069V31.1036ZM102.388 30.6208H111.336V21.2069C111.336 21.0149 111.259 20.8309 111.123 20.6951C110.987 20.5593 110.803 20.483 110.611 20.4828H103.114C102.921 20.483 102.737 20.5593 102.601 20.6951C102.465 20.8309 102.388 21.0149 102.388 21.2069V30.6208Z" fill="#0F4755"/>
<path d="M48.92 205.885C48.8462 205.885 48.7754 205.856 48.7232 205.804C48.671 205.752 48.6417 205.681 48.6417 205.608V148.915C48.6415 148.878 48.6485 148.842 48.6624 148.808C48.6763 148.774 48.6968 148.743 48.7226 148.717C48.7485 148.691 48.7792 148.671 48.8131 148.657C48.847 148.642 48.8833 148.635 48.92 148.635C48.9566 148.635 48.9929 148.642 49.0268 148.657C49.0607 148.671 49.0914 148.691 49.1173 148.717C49.1431 148.743 49.1636 148.774 49.1775 148.808C49.1914 148.842 49.1984 148.878 49.1982 148.915V205.608C49.1982 205.681 49.1689 205.752 49.1167 205.804C49.0645 205.856 48.9938 205.885 48.92 205.885Z" fill="#CCCCCC"/>
<path d="M44.6756 206H23.8766V205.759C23.8759 204.395 24.1444 203.045 24.6668 201.785C25.1891 200.525 25.955 199.38 26.9208 198.416C27.8865 197.451 29.0332 196.686 30.2952 196.164C31.5573 195.642 32.91 195.374 34.2761 195.374C35.6422 195.374 36.9949 195.642 38.257 196.164C39.519 196.686 40.6657 197.451 41.6314 198.416C42.5972 199.38 43.3631 200.525 43.8854 201.785C44.4077 203.045 44.6762 204.395 44.6756 205.759L44.6756 206ZM24.3632 205.517H44.189C44.1259 202.935 43.0538 200.479 41.2017 198.675C39.3495 196.871 36.8641 195.861 34.2761 195.861C31.6881 195.861 29.2027 196.871 27.3505 198.675C25.4984 200.479 24.4263 202.935 24.3632 205.517Z" fill="#0F4755"/>
<path d="M34.2757 199.867C34.2029 199.867 34.1331 199.896 34.0816 199.947C34.0301 199.999 34.0012 200.068 34.0012 200.141V203.052L31.1602 200.618C31.1329 200.595 31.1011 200.577 31.0668 200.565C31.0325 200.554 30.9963 200.55 30.9603 200.552C30.9243 200.555 30.8892 200.565 30.857 200.581C30.8248 200.597 30.7961 200.62 30.7725 200.647C30.749 200.674 30.7311 200.706 30.7199 200.74C30.7087 200.775 30.7043 200.811 30.7071 200.847C30.7099 200.883 30.7198 200.918 30.7361 200.95C30.7525 200.982 30.7751 201.011 30.8025 201.034L34.0012 203.774V205.484C34.001 205.52 34.0081 205.556 34.0218 205.589C34.0356 205.623 34.0558 205.653 34.0813 205.679C34.1068 205.704 34.1371 205.724 34.1704 205.738C34.2038 205.752 34.2396 205.759 34.2757 205.759C34.3118 205.759 34.3476 205.752 34.381 205.738C34.4143 205.724 34.4446 205.704 34.4701 205.679C34.4956 205.653 34.5158 205.623 34.5296 205.589C34.5433 205.556 34.5504 205.52 34.5502 205.484V200.141C34.5502 200.068 34.5213 199.999 34.4698 199.947C34.4183 199.896 34.3485 199.867 34.2757 199.867Z" fill="#0F4755"/>
<path d="M49.1634 176.618C49.067 176.618 48.9731 176.618 48.8768 176.615C42.4114 176.543 36.2355 173.929 31.6886 169.34C27.1417 164.752 24.5904 158.559 24.5881 152.106C24.5881 144.981 27.5279 133.578 31.7371 124.376C34.7642 117.758 41.0534 106.656 49.1634 106.656C52.5039 106.656 55.8676 108.556 59.1612 112.304C59.3245 112.489 59.4882 112.68 59.6496 112.875L59.7049 112.942V174.249L59.5685 174.315C59.4057 174.394 59.2406 174.468 59.0755 174.539C56.0405 175.88 52.7628 176.586 49.444 176.616C49.3537 176.618 49.2573 176.618 49.1634 176.618ZM49.1634 107.139C41.3238 107.139 35.156 118.064 32.1771 124.576C27.9936 133.722 25.0718 145.043 25.0718 152.106C25.0718 165.207 35.7546 175.985 48.8855 176.133C48.9834 176.135 49.0746 176.136 49.1698 176.135C49.2575 176.135 49.3476 176.135 49.4353 176.133C52.6902 176.105 55.905 175.412 58.8816 174.097C58.9958 174.047 59.109 173.997 59.2212 173.945V113.115C59.0812 112.948 58.9396 112.784 58.798 112.623C55.5998 108.984 52.3584 107.139 49.1634 107.139Z" fill="#0F4755"/>
<path d="M49.1619 159.507C49.122 159.507 49.0825 159.499 49.0462 159.482C49.0099 159.466 48.9776 159.441 48.9515 159.411L34.958 143.304C34.9099 143.248 34.8858 143.176 34.8911 143.102C34.8964 143.029 34.9307 142.961 34.9863 142.913C35.042 142.864 35.1146 142.84 35.1881 142.845C35.2616 142.85 35.3301 142.884 35.3785 142.94L49.372 159.047C49.4069 159.088 49.4295 159.137 49.4371 159.19C49.4447 159.242 49.437 159.296 49.4148 159.345C49.3927 159.393 49.3571 159.434 49.3122 159.463C49.2674 159.492 49.2152 159.507 49.1619 159.507Z" fill="#CCCCCC"/>
<path d="M49.1619 168.803C49.1068 168.803 49.0531 168.787 49.0073 168.756C48.9616 168.726 48.9259 168.682 48.9048 168.632C48.8838 168.581 48.8783 168.525 48.889 168.471C48.8997 168.417 48.9262 168.368 48.9651 168.329L56.9165 160.392C56.9687 160.34 57.0394 160.311 57.113 160.312C57.1867 160.312 57.2573 160.341 57.3094 160.393C57.3614 160.445 57.3907 160.515 57.3908 160.589C57.3909 160.662 57.3618 160.733 57.3099 160.785L49.3586 168.722C49.3328 168.747 49.3021 168.768 49.2684 168.782C49.2346 168.796 49.1984 168.803 49.1619 168.803Z" fill="#CCCCCC"/>
<path d="M71.013 62.0002L71.192 62.3527C71.2713 62.5047 71.3128 62.6736 71.3129 62.8451V72.3797H79.7771V62.8451C79.7772 62.6736 79.8187 62.5047 79.898 62.3527L80.0771 62.0002H71.013ZM79.2934 62.8451V71.8969H71.7966V62.8451C71.7967 62.7231 71.7821 62.6015 71.753 62.483H79.337C79.308 62.6015 79.2933 62.7231 79.2934 62.8451ZM81.6537 62.0002L81.8327 62.3527C81.912 62.5047 81.9535 62.6736 81.9536 62.8451V72.3797H90.4178V62.8451C90.4179 62.6736 90.4594 62.5047 90.5387 62.3527L90.7178 62.0002H81.6537ZM89.9342 62.8451V71.8969H82.4373V62.8451C82.4374 62.7231 82.4228 62.6015 82.3937 62.483H89.9777C89.9487 62.6015 89.934 62.7231 89.9342 62.8451ZM92.2944 62.0002L92.4734 62.3527C92.5528 62.5047 92.5942 62.6736 92.5943 62.8451V72.3797H101.059V62.8451C101.059 62.6736 101.1 62.5047 101.179 62.3527L101.358 62.0002H92.2944ZM100.575 62.8451V71.8969H93.078V62.8451C93.0781 62.7231 93.0635 62.6015 93.0344 62.483H100.618C100.589 62.6015 100.575 62.7231 100.575 62.8451ZM102.935 62.0002L103.114 62.3527C103.193 62.5047 103.235 62.6736 103.235 62.8451V72.3797H111.699V62.8451C111.699 62.6736 111.741 62.5047 111.82 62.3527L111.999 62.0002H102.935ZM111.216 62.8451V71.8969H103.719V62.8451C103.719 62.7231 103.704 62.6015 103.675 62.483H111.259C111.23 62.6015 111.215 62.7231 111.216 62.8451ZM113.576 62.0002L113.755 62.3527C113.834 62.5047 113.876 62.6736 113.876 62.8451V72.3797H122.34V62.8451C122.34 62.6736 122.382 62.5047 122.461 62.3527L122.64 62.0002H113.576ZM121.856 62.8451V71.8969H114.359V62.8451C114.36 62.7231 114.345 62.6015 114.316 62.483H121.9C121.871 62.6015 121.856 62.7231 121.856 62.8451ZM124.217 62.0002L124.396 62.3527C124.475 62.5047 124.516 62.6736 124.516 62.8451V72.3797H132.981V62.8451C132.981 62.6736 133.022 62.5047 133.102 62.3527L133.281 62.0002H124.217ZM132.497 62.8451V71.8969H125V62.8451C125 62.7231 124.986 62.6015 124.957 62.483H132.541C132.512 62.6015 132.497 62.7231 132.497 62.8451ZM134.857 62.0002L135.036 62.3527C135.116 62.5047 135.157 62.6736 135.157 62.8451V72.3797H143.621V62.8451C143.622 62.6736 143.663 62.5047 143.742 62.3527L143.921 62.0002H134.857ZM143.138 62.8451V71.8969H135.641V62.8451C135.641 62.7231 135.626 62.6015 135.597 62.483H143.181C143.152 62.6015 143.138 62.7231 143.138 62.8451ZM145.498 62.0002L145.677 62.3527C145.756 62.5047 145.798 62.6736 145.798 62.8451V72.3797H154.262V62.8451C154.262 62.6736 154.304 62.5047 154.383 62.3527L154.562 62.0002H145.498ZM153.778 62.8451V71.8969H146.282V62.8451C146.282 62.7231 146.267 62.6015 146.238 62.483H153.822C153.793 62.6015 153.778 62.7231 153.778 62.8451ZM156.139 62.0002L156.318 62.3527C156.397 62.5047 156.439 62.6736 156.439 62.8451V72.3797H164.903V62.8451C164.903 62.6736 164.944 62.5047 165.024 62.3527L165.203 62.0002H156.139ZM164.419 62.8451V71.8969H156.922V62.8451C156.922 62.7231 156.908 62.6015 156.879 62.483H164.463C164.434 62.6015 164.419 62.7231 164.419 62.8451ZM156.139 62.0002L156.318 62.3527C156.397 62.5047 156.439 62.6736 156.439 62.8451V72.3797H164.903V62.8451C164.903 62.6736 164.944 62.5047 165.024 62.3527L165.203 62.0002H156.139ZM164.419 62.8451V71.8969H156.922V62.8451C156.922 62.7231 156.908 62.6015 156.879 62.483H164.463C164.434 62.6015 164.419 62.7231 164.419 62.8451ZM145.498 62.0002L145.677 62.3527C145.756 62.5047 145.798 62.6736 145.798 62.8451V72.3797H154.262V62.8451C154.262 62.6736 154.304 62.5047 154.383 62.3527L154.562 62.0002H145.498ZM153.778 62.8451V71.8969H146.282V62.8451C146.282 62.7231 146.267 62.6015 146.238 62.483H153.822C153.793 62.6015 153.778 62.7231 153.778 62.8451ZM134.857 62.0002L135.036 62.3527C135.116 62.5047 135.157 62.6736 135.157 62.8451V72.3797H143.621V62.8451C143.622 62.6736 143.663 62.5047 143.742 62.3527L143.921 62.0002H134.857ZM143.138 62.8451V71.8969H135.641V62.8451C135.641 62.7231 135.626 62.6015 135.597 62.483H143.181C143.152 62.6015 143.138 62.7231 143.138 62.8451ZM124.217 62.0002L124.396 62.3527C124.475 62.5047 124.516 62.6736 124.516 62.8451V72.3797H132.981V62.8451C132.981 62.6736 133.022 62.5047 133.102 62.3527L133.281 62.0002H124.217ZM132.497 62.8451V71.8969H125V62.8451C125 62.7231 124.986 62.6015 124.957 62.483H132.541C132.512 62.6015 132.497 62.7231 132.497 62.8451ZM113.576 62.0002L113.755 62.3527C113.834 62.5047 113.876 62.6736 113.876 62.8451V72.3797H122.34V62.8451C122.34 62.6736 122.382 62.5047 122.461 62.3527L122.64 62.0002H113.576ZM121.856 62.8451V71.8969H114.359V62.8451C114.36 62.7231 114.345 62.6015 114.316 62.483H121.9C121.871 62.6015 121.856 62.7231 121.856 62.8451ZM102.935 62.0002L103.114 62.3527C103.193 62.5047 103.235 62.6736 103.235 62.8451V72.3797H111.699V62.8451C111.699 62.6736 111.741 62.5047 111.82 62.3527L111.999 62.0002H102.935ZM111.216 62.8451V71.8969H103.719V62.8451C103.719 62.7231 103.704 62.6015 103.675 62.483H111.259C111.23 62.6015 111.215 62.7231 111.216 62.8451ZM92.2944 62.0002L92.4734 62.3527C92.5528 62.5047 92.5942 62.6736 92.5943 62.8451V72.3797H101.059V62.8451C101.059 62.6736 101.1 62.5047 101.179 62.3527L101.358 62.0002H92.2944ZM100.575 62.8451V71.8969H93.078V62.8451C93.0781 62.7231 93.0635 62.6015 93.0344 62.483H100.618C100.589 62.6015 100.575 62.7231 100.575 62.8451ZM81.6537 62.0002L81.8327 62.3527C81.912 62.5047 81.9535 62.6736 81.9536 62.8451V72.3797H90.4178V62.8451C90.4179 62.6736 90.4594 62.5047 90.5387 62.3527L90.7178 62.0002H81.6537ZM89.9342 62.8451V71.8969H82.4373V62.8451C82.4374 62.7231 82.4228 62.6015 82.3937 62.483H89.9777C89.9487 62.6015 89.934 62.7231 89.9342 62.8451ZM71.013 62.0002L71.192 62.3527C71.2713 62.5047 71.3128 62.6736 71.3129 62.8451V72.3797H79.7771V62.8451C79.7772 62.6736 79.8187 62.5047 79.898 62.3527L80.0771 62.0002H71.013ZM79.2934 62.8451V71.8969H71.7966V62.8451C71.7967 62.7231 71.7821 62.6015 71.753 62.483H79.337C79.308 62.6015 79.2933 62.7231 79.2934 62.8451ZM156.139 62.0002L156.318 62.3527C156.397 62.5047 156.439 62.6736 156.439 62.8451V72.3797H164.903V62.8451C164.903 62.6736 164.944 62.5047 165.024 62.3527L165.203 62.0002H156.139ZM164.419 62.8451V71.8969H156.922V62.8451C156.922 62.7231 156.908 62.6015 156.879 62.483H164.463C164.434 62.6015 164.419 62.7231 164.419 62.8451ZM145.498 62.0002L145.677 62.3527C145.756 62.5047 145.798 62.6736 145.798 62.8451V72.3797H154.262V62.8451C154.262 62.6736 154.304 62.5047 154.383 62.3527L154.562 62.0002H145.498ZM153.778 62.8451V71.8969H146.282V62.8451C146.282 62.7231 146.267 62.6015 146.238 62.483H153.822C153.793 62.6015 153.778 62.7231 153.778 62.8451ZM134.857 62.0002L135.036 62.3527C135.116 62.5047 135.157 62.6736 135.157 62.8451V72.3797H143.621V62.8451C143.622 62.6736 143.663 62.5047 143.742 62.3527L143.921 62.0002H134.857ZM143.138 62.8451V71.8969H135.641V62.8451C135.641 62.7231 135.626 62.6015 135.597 62.483H143.181C143.152 62.6015 143.138 62.7231 143.138 62.8451ZM124.217 62.0002L124.396 62.3527C124.475 62.5047 124.516 62.6736 124.516 62.8451V72.3797H132.981V62.8451C132.981 62.6736 133.022 62.5047 133.102 62.3527L133.281 62.0002H124.217ZM132.497 62.8451V71.8969H125V62.8451C125 62.7231 124.986 62.6015 124.957 62.483H132.541C132.512 62.6015 132.497 62.7231 132.497 62.8451ZM113.576 62.0002L113.755 62.3527C113.834 62.5047 113.876 62.6736 113.876 62.8451V72.3797H122.34V62.8451C122.34 62.6736 122.382 62.5047 122.461 62.3527L122.64 62.0002H113.576ZM121.856 62.8451V71.8969H114.359V62.8451C114.36 62.7231 114.345 62.6015 114.316 62.483H121.9C121.871 62.6015 121.856 62.7231 121.856 62.8451ZM102.935 62.0002L103.114 62.3527C103.193 62.5047 103.235 62.6736 103.235 62.8451V72.3797H111.699V62.8451C111.699 62.6736 111.741 62.5047 111.82 62.3527L111.999 62.0002H102.935ZM111.216 62.8451V71.8969H103.719V62.8451C103.719 62.7231 103.704 62.6015 103.675 62.483H111.259C111.23 62.6015 111.215 62.7231 111.216 62.8451ZM92.2944 62.0002L92.4734 62.3527C92.5528 62.5047 92.5942 62.6736 92.5943 62.8451V72.3797H101.059V62.8451C101.059 62.6736 101.1 62.5047 101.179 62.3527L101.358 62.0002H92.2944ZM100.575 62.8451V71.8969H93.078V62.8451C93.0781 62.7231 93.0635 62.6015 93.0344 62.483H100.618C100.589 62.6015 100.575 62.7231 100.575 62.8451ZM81.6537 62.0002L81.8327 62.3527C81.912 62.5047 81.9535 62.6736 81.9536 62.8451V72.3797H90.4178V62.8451C90.4179 62.6736 90.4594 62.5047 90.5387 62.3527L90.7178 62.0002H81.6537ZM89.9342 62.8451V71.8969H82.4373V62.8451C82.4374 62.7231 82.4228 62.6015 82.3937 62.483H89.9777C89.9487 62.6015 89.934 62.7231 89.9342 62.8451ZM71.013 62.0002L71.192 62.3527C71.2713 62.5047 71.3128 62.6736 71.3129 62.8451V72.3797H79.7771V62.8451C79.7772 62.6736 79.8187 62.5047 79.898 62.3527L80.0771 62.0002H71.013ZM79.2934 62.8451V71.8969H71.7966V62.8451C71.7967 62.7231 71.7821 62.6015 71.753 62.483H79.337C79.308 62.6015 79.2933 62.7231 79.2934 62.8451ZM156.139 62.0002L156.318 62.3527C156.397 62.5047 156.439 62.6736 156.439 62.8451V72.3797H164.903V62.8451C164.903 62.6736 164.944 62.5047 165.024 62.3527L165.203 62.0002H156.139ZM164.419 62.8451V71.8969H156.922V62.8451C156.922 62.7231 156.908 62.6015 156.879 62.483H164.463C164.434 62.6015 164.419 62.7231 164.419 62.8451ZM145.498 62.0002L145.677 62.3527C145.756 62.5047 145.798 62.6736 145.798 62.8451V72.3797H154.262V62.8451C154.262 62.6736 154.304 62.5047 154.383 62.3527L154.562 62.0002H145.498ZM153.778 62.8451V71.8969H146.282V62.8451C146.282 62.7231 146.267 62.6015 146.238 62.483H153.822C153.793 62.6015 153.778 62.7231 153.778 62.8451ZM134.857 62.0002L135.036 62.3527C135.116 62.5047 135.157 62.6736 135.157 62.8451V72.3797H143.621V62.8451C143.622 62.6736 143.663 62.5047 143.742 62.3527L143.921 62.0002H134.857ZM143.138 62.8451V71.8969H135.641V62.8451C135.641 62.7231 135.626 62.6015 135.597 62.483H143.181C143.152 62.6015 143.138 62.7231 143.138 62.8451ZM124.217 62.0002L124.396 62.3527C124.475 62.5047 124.516 62.6736 124.516 62.8451V72.3797H132.981V62.8451C132.981 62.6736 133.022 62.5047 133.102 62.3527L133.281 62.0002H124.217ZM132.497 62.8451V71.8969H125V62.8451C125 62.7231 124.986 62.6015 124.957 62.483H132.541C132.512 62.6015 132.497 62.7231 132.497 62.8451ZM113.576 62.0002L113.755 62.3527C113.834 62.5047 113.876 62.6736 113.876 62.8451V72.3797H122.34V62.8451C122.34 62.6736 122.382 62.5047 122.461 62.3527L122.64 62.0002H113.576ZM121.856 62.8451V71.8969H114.359V62.8451C114.36 62.7231 114.345 62.6015 114.316 62.483H121.9C121.871 62.6015 121.856 62.7231 121.856 62.8451ZM102.935 62.0002L103.114 62.3527C103.193 62.5047 103.235 62.6736 103.235 62.8451V72.3797H111.699V62.8451C111.699 62.6736 111.741 62.5047 111.82 62.3527L111.999 62.0002H102.935ZM111.216 62.8451V71.8969H103.719V62.8451C103.719 62.7231 103.704 62.6015 103.675 62.483H111.259C111.23 62.6015 111.215 62.7231 111.216 62.8451ZM92.2944 62.0002L92.4734 62.3527C92.5528 62.5047 92.5942 62.6736 92.5943 62.8451V72.3797H101.059V62.8451C101.059 62.6736 101.1 62.5047 101.179 62.3527L101.358 62.0002H92.2944ZM100.575 62.8451V71.8969H93.078V62.8451C93.0781 62.7231 93.0635 62.6015 93.0344 62.483H100.618C100.589 62.6015 100.575 62.7231 100.575 62.8451ZM81.6537 62.0002L81.8327 62.3527C81.912 62.5047 81.9535 62.6736 81.9536 62.8451V72.3797H90.4178V62.8451C90.4179 62.6736 90.4594 62.5047 90.5387 62.3527L90.7178 62.0002H81.6537ZM89.9342 62.8451V71.8969H82.4373V62.8451C82.4374 62.7231 82.4228 62.6015 82.3937 62.483H89.9777C89.9487 62.6015 89.934 62.7231 89.9342 62.8451ZM71.013 62.0002L71.192 62.3527C71.2713 62.5047 71.3128 62.6736 71.3129 62.8451V72.3797H79.7771V62.8451C79.7772 62.6736 79.8187 62.5047 79.898 62.3527L80.0771 62.0002H71.013ZM79.2934 62.8451V71.8969H71.7966V62.8451C71.7967 62.7231 71.7821 62.6015 71.753 62.483H79.337C79.308 62.6015 79.2933 62.7231 79.2934 62.8451ZM156.139 62.0002L156.318 62.3527C156.397 62.5047 156.439 62.6736 156.439 62.8451V72.3797H164.903V62.8451C164.903 62.6736 164.944 62.5047 165.024 62.3527L165.203 62.0002H156.139ZM164.419 62.8451V71.8969H156.922V62.8451C156.922 62.7231 156.908 62.6015 156.879 62.483H164.463C164.434 62.6015 164.419 62.7231 164.419 62.8451ZM145.498 62.0002L145.677 62.3527C145.756 62.5047 145.798 62.6736 145.798 62.8451V72.3797H154.262V62.8451C154.262 62.6736 154.304 62.5047 154.383 62.3527L154.562 62.0002H145.498ZM153.778 62.8451V71.8969H146.282V62.8451C146.282 62.7231 146.267 62.6015 146.238 62.483H153.822C153.793 62.6015 153.778 62.7231 153.778 62.8451ZM134.857 62.0002L135.036 62.3527C135.116 62.5047 135.157 62.6736 135.157 62.8451V72.3797H143.621V62.8451C143.622 62.6736 143.663 62.5047 143.742 62.3527L143.921 62.0002H134.857ZM143.138 62.8451V71.8969H135.641V62.8451C135.641 62.7231 135.626 62.6015 135.597 62.483H143.181C143.152 62.6015 143.138 62.7231 143.138 62.8451ZM124.217 62.0002L124.396 62.3527C124.475 62.5047 124.516 62.6736 124.516 62.8451V72.3797H132.981V62.8451C132.981 62.6736 133.022 62.5047 133.102 62.3527L133.281 62.0002H124.217ZM132.497 62.8451V71.8969H125V62.8451C125 62.7231 124.986 62.6015 124.957 62.483H132.541C132.512 62.6015 132.497 62.7231 132.497 62.8451ZM113.576 62.0002L113.755 62.3527C113.834 62.5047 113.876 62.6736 113.876 62.8451V72.3797H122.34V62.8451C122.34 62.6736 122.382 62.5047 122.461 62.3527L122.64 62.0002H113.576ZM121.856 62.8451V71.8969H114.359V62.8451C114.36 62.7231 114.345 62.6015 114.316 62.483H121.9C121.871 62.6015 121.856 62.7231 121.856 62.8451ZM102.935 62.0002L103.114 62.3527C103.193 62.5047 103.235 62.6736 103.235 62.8451V72.3797H111.699V62.8451C111.699 62.6736 111.741 62.5047 111.82 62.3527L111.999 62.0002H102.935ZM111.216 62.8451V71.8969H103.719V62.8451C103.719 62.7231 103.704 62.6015 103.675 62.483H111.259C111.23 62.6015 111.215 62.7231 111.216 62.8451ZM92.2944 62.0002L92.4734 62.3527C92.5528 62.5047 92.5942 62.6736 92.5943 62.8451V72.3797H101.059V62.8451C101.059 62.6736 101.1 62.5047 101.179 62.3527L101.358 62.0002H92.2944ZM100.575 62.8451V71.8969H93.078V62.8451C93.0781 62.7231 93.0635 62.6015 93.0344 62.483H100.618C100.589 62.6015 100.575 62.7231 100.575 62.8451ZM81.6537 62.0002L81.8327 62.3527C81.912 62.5047 81.9535 62.6736 81.9536 62.8451V72.3797H90.4178V62.8451C90.4179 62.6736 90.4594 62.5047 90.5387 62.3527L90.7178 62.0002H81.6537ZM89.9342 62.8451V71.8969H82.4373V62.8451C82.4374 62.7231 82.4228 62.6015 82.3937 62.483H89.9777C89.9487 62.6015 89.934 62.7231 89.9342 62.8451ZM71.013 62.0002L71.192 62.3527C71.2713 62.5047 71.3128 62.6736 71.3129 62.8451V72.3797H79.7771V62.8451C79.7772 62.6736 79.8187 62.5047 79.898 62.3527L80.0771 62.0002H71.013ZM79.2934 62.8451V71.8969H71.7966V62.8451C71.7967 62.7231 71.7821 62.6015 71.753 62.483H79.337C79.308 62.6015 79.2933 62.7231 79.2934 62.8451ZM156.139 62.0002L156.318 62.3527C156.397 62.5047 156.439 62.6736 156.439 62.8451V72.3797H164.903V62.8451C164.903 62.6736 164.944 62.5047 165.024 62.3527L165.203 62.0002H156.139ZM164.419 62.8451V71.8969H156.922V62.8451C156.922 62.7231 156.908 62.6015 156.879 62.483H164.463C164.434 62.6015 164.419 62.7231 164.419 62.8451ZM145.677 62.3527C145.756 62.5047 145.798 62.6736 145.798 62.8451V72.3797H154.262V62.8451C154.262 62.6736 154.304 62.5047 154.383 62.3527L154.562 62.0002H145.498L145.677 62.3527ZM153.822 62.483C153.793 62.6015 153.778 62.7231 153.778 62.8451V71.8969H146.282V62.8451C146.282 62.7231 146.267 62.6015 146.238 62.483H153.822ZM135.036 62.3527C135.116 62.5047 135.157 62.6736 135.157 62.8451V72.3797H143.621V62.8451C143.622 62.6736 143.663 62.5047 143.742 62.3527L143.921 62.0002H134.857L135.036 62.3527ZM143.181 62.483C143.152 62.6015 143.138 62.7231 143.138 62.8451V71.8969H135.641V62.8451C135.641 62.7231 135.626 62.6015 135.597 62.483H143.181ZM124.396 62.3527C124.475 62.5047 124.516 62.6736 124.516 62.8451V72.3797H132.981V62.8451C132.981 62.6736 133.022 62.5047 133.102 62.3527L133.281 62.0002H124.217L124.396 62.3527ZM132.541 62.483C132.512 62.6015 132.497 62.7231 132.497 62.8451V71.8969H125V62.8451C125 62.7231 124.986 62.6015 124.957 62.483H132.541ZM113.755 62.3527C113.834 62.5047 113.876 62.6736 113.876 62.8451V72.3797H122.34V62.8451C122.34 62.6736 122.382 62.5047 122.461 62.3527L122.64 62.0002H113.576L113.755 62.3527ZM121.9 62.483C121.871 62.6015 121.856 62.7231 121.856 62.8451V71.8969H114.359V62.8451C114.36 62.7231 114.345 62.6015 114.316 62.483H121.9ZM103.114 62.3527C103.193 62.5047 103.235 62.6736 103.235 62.8451V72.3797H111.699V62.8451C111.699 62.6736 111.741 62.5047 111.82 62.3527L111.999 62.0002H102.935L103.114 62.3527ZM111.259 62.483C111.23 62.6015 111.215 62.7231 111.216 62.8451V71.8969H103.719V62.8451C103.719 62.7231 103.704 62.6015 103.675 62.483H111.259ZM92.4734 62.3527C92.5528 62.5047 92.5942 62.6736 92.5943 62.8451V72.3797H101.059V62.8451C101.059 62.6736 101.1 62.5047 101.179 62.3527L101.358 62.0002H92.2944L92.4734 62.3527ZM100.618 62.483C100.589 62.6015 100.575 62.7231 100.575 62.8451V71.8969H93.078V62.8451C93.0781 62.7231 93.0635 62.6015 93.0344 62.483H100.618ZM81.8327 62.3527C81.912 62.5047 81.9535 62.6736 81.9536 62.8451V72.3797H90.4178V62.8451C90.4179 62.6736 90.4594 62.5047 90.5387 62.3527L90.7178 62.0002H81.6537L81.8327 62.3527ZM89.9777 62.483C89.9487 62.6015 89.934 62.7231 89.9342 62.8451V71.8969H82.4373V62.8451C82.4374 62.7231 82.4228 62.6015 82.3937 62.483H89.9777ZM71.192 62.3527C71.2713 62.5047 71.3128 62.6736 71.3129 62.8451V72.3797H79.7771V62.8451C79.7772 62.6736 79.8187 62.5047 79.898 62.3527L80.0771 62.0002H71.013L71.192 62.3527ZM79.337 62.483C79.308 62.6015 79.2933 62.7231 79.2934 62.8451V71.8969H71.7966V62.8451C71.7967 62.7231 71.7821 62.6015 71.753 62.483H79.337ZM156.318 62.3527C156.397 62.5047 156.439 62.6736 156.439 62.8451V72.3797H164.903V62.8451C164.903 62.6736 164.944 62.5047 165.024 62.3527L165.203 62.0002H156.139L156.318 62.3527ZM164.463 62.483C164.434 62.6015 164.419 62.7231 164.419 62.8451V71.8969H156.922V62.8451C156.922 62.7231 156.908 62.6015 156.879 62.483H164.463ZM145.677 62.3527C145.756 62.5047 145.798 62.6736 145.798 62.8451V72.3797H154.262V62.8451C154.262 62.6736 154.304 62.5047 154.383 62.3527L154.562 62.0002H145.498L145.677 62.3527ZM153.822 62.483C153.793 62.6015 153.778 62.7231 153.778 62.8451V71.8969H146.282V62.8451C146.282 62.7231 146.267 62.6015 146.238 62.483H153.822ZM135.036 62.3527C135.116 62.5047 135.157 62.6736 135.157 62.8451V72.3797H143.621V62.8451C143.622 62.6736 143.663 62.5047 143.742 62.3527L143.921 62.0002H134.857L135.036 62.3527ZM143.181 62.483C143.152 62.6015 143.138 62.7231 143.138 62.8451V71.8969H135.641V62.8451C135.641 62.7231 135.626 62.6015 135.597 62.483H143.181ZM124.396 62.3527C124.475 62.5047 124.516 62.6736 124.516 62.8451V72.3797H132.981V62.8451C132.981 62.6736 133.022 62.5047 133.102 62.3527L133.281 62.0002H124.217L124.396 62.3527ZM132.541 62.483C132.512 62.6015 132.497 62.7231 132.497 62.8451V71.8969H125V62.8451C125 62.7231 124.986 62.6015 124.957 62.483H132.541ZM113.755 62.3527C113.834 62.5047 113.876 62.6736 113.876 62.8451V72.3797H122.34V62.8451C122.34 62.6736 122.382 62.5047 122.461 62.3527L122.64 62.0002H113.576L113.755 62.3527ZM121.9 62.483C121.871 62.6015 121.856 62.7231 121.856 62.8451V71.8969H114.359V62.8451C114.36 62.7231 114.345 62.6015 114.316 62.483H121.9ZM103.114 62.3527C103.193 62.5047 103.235 62.6736 103.235 62.8451V72.3797H111.699V62.8451C111.699 62.6736 111.741 62.5047 111.82 62.3527L111.999 62.0002H102.935L103.114 62.3527ZM111.259 62.483C111.23 62.6015 111.215 62.7231 111.216 62.8451V71.8969H103.719V62.8451C103.719 62.7231 103.704 62.6015 103.675 62.483H111.259ZM92.4734 62.3527C92.5528 62.5047 92.5942 62.6736 92.5943 62.8451V72.3797H101.059V62.8451C101.059 62.6736 101.1 62.5047 101.179 62.3527L101.358 62.0002H92.2944L92.4734 62.3527ZM100.618 62.483C100.589 62.6015 100.575 62.7231 100.575 62.8451V71.8969H93.078V62.8451C93.0781 62.7231 93.0635 62.6015 93.0344 62.483H100.618ZM81.8327 62.3527C81.912 62.5047 81.9535 62.6736 81.9536 62.8451V72.3797H90.4178V62.8451C90.4179 62.6736 90.4594 62.5047 90.5387 62.3527L90.7178 62.0002H81.6537L81.8327 62.3527ZM89.9777 62.483C89.9487 62.6015 89.934 62.7231 89.9342 62.8451V71.8969H82.4373V62.8451C82.4374 62.7231 82.4228 62.6015 82.3937 62.483H89.9777ZM71.192 62.3527C71.2713 62.5047 71.3128 62.6736 71.3129 62.8451V72.3797H79.7771V62.8451C79.7772 62.6736 79.8187 62.5047 79.898 62.3527L80.0771 62.0002H71.013L71.192 62.3527ZM79.337 62.483C79.308 62.6015 79.2933 62.7231 79.2934 62.8451V71.8969H71.7966V62.8451C71.7967 62.7231 71.7821 62.6015 71.753 62.483H79.337ZM174.576 73.828H171.694C171.535 73.2727 171.199 72.784 170.738 72.4357C170.276 72.0874 169.714 71.8983 169.135 71.8969H167.563V62.8451C167.564 62.6508 167.527 62.4582 167.454 62.2778C167.728 62.1168 167.941 61.8702 168.061 61.5761C168.181 61.282 168.2 60.9568 168.116 60.6507C168.032 60.3445 167.85 60.0744 167.597 59.8821C167.344 59.6898 167.035 59.5859 166.717 59.5864H69.4992C69.1812 59.5859 68.8718 59.6898 68.6189 59.8821C68.3659 60.0744 68.1834 60.3445 68.0995 60.6507C68.0156 60.9568 68.035 61.282 68.1546 61.5761C68.2743 61.8702 68.4876 62.1168 68.7616 62.2778C68.6891 62.4582 68.6521 62.6508 68.6527 62.8451V71.8969H67.0808C66.5022 71.8983 65.9398 72.0874 65.4782 72.4357C65.0167 72.784 64.6812 73.2727 64.5222 73.828H61.3977C60.8207 73.8288 60.2676 74.058 59.8596 74.4652C59.4517 74.8724 59.2221 75.4245 59.2212 76.0004V203.45C59.2224 204.026 59.4522 204.578 59.8601 204.985C60.268 205.392 60.8208 205.621 61.3977 205.622H174.576C175.153 205.622 175.706 205.392 176.114 204.985C176.522 204.578 176.752 204.026 176.753 203.45V76.0004C176.752 75.4245 176.522 74.8724 176.114 74.4652C175.706 74.058 175.153 73.8288 174.576 73.828ZM176.269 203.45C176.269 203.795 176.163 204.132 175.965 204.415C175.767 204.698 175.488 204.914 175.164 205.033C174.976 205.105 174.777 205.141 174.576 205.14H61.3977C61.1969 205.141 60.9977 205.105 60.81 205.033C60.486 204.914 60.2064 204.698 60.0089 204.415C59.8113 204.132 59.7053 203.795 59.7049 203.45V76.0004C59.7054 75.5524 59.8839 75.1229 60.2012 74.8062C60.5186 74.4894 60.9489 74.3112 61.3977 74.3107H64.9091L64.9479 74.1176C65.0496 73.6276 65.317 73.1874 65.7054 72.8709C66.0938 72.5545 66.5794 72.381 67.0808 72.3797H69.1364V62.8451C69.1365 62.6487 69.19 62.4559 69.2912 62.2875L69.4411 62.0389L69.1678 61.9375C68.9543 61.8602 68.7749 61.7102 68.6612 61.5139C68.5476 61.3176 68.507 61.0876 68.5466 60.8643C68.5862 60.641 68.7034 60.4389 68.8777 60.2935C69.0519 60.148 69.272 60.0686 69.4992 60.0692H166.717C166.944 60.0686 167.164 60.148 167.338 60.2934C167.512 60.4389 167.63 60.641 167.669 60.8643C167.709 61.0876 167.668 61.3176 167.555 61.5139C167.441 61.7102 167.261 61.8602 167.048 61.9375L166.775 62.0389L166.925 62.2875C167.026 62.4559 167.079 62.6486 167.079 62.8451V72.3797H169.135C169.636 72.381 170.122 72.5544 170.51 72.8709C170.899 73.1874 171.166 73.6276 171.268 74.1176L171.307 74.3107H174.576C175.025 74.3112 175.455 74.4894 175.773 74.8062C176.09 75.1229 176.269 75.5524 176.269 76.0004L176.269 203.45ZM71.013 62.0002L71.192 62.3527C71.2713 62.5047 71.3128 62.6736 71.3129 62.8451V72.3797H79.7771V62.8451C79.7772 62.6736 79.8187 62.5047 79.898 62.3527L80.0771 62.0002H71.013ZM79.2934 62.8451V71.8969H71.7966V62.8451C71.7967 62.7231 71.7821 62.6015 71.753 62.483H79.337C79.308 62.6015 79.2933 62.7231 79.2934 62.8451ZM81.6537 62.0002L81.8327 62.3527C81.912 62.5047 81.9535 62.6736 81.9536 62.8451V72.3797H90.4178V62.8451C90.4179 62.6736 90.4594 62.5047 90.5387 62.3527L90.7178 62.0002H81.6537ZM89.9342 62.8451V71.8969H82.4373V62.8451C82.4374 62.7231 82.4228 62.6015 82.3937 62.483H89.9777C89.9487 62.6015 89.934 62.7231 89.9342 62.8451ZM92.2944 62.0002L92.4734 62.3527C92.5528 62.5047 92.5942 62.6736 92.5943 62.8451V72.3797H101.059V62.8451C101.059 62.6736 101.1 62.5047 101.179 62.3527L101.358 62.0002H92.2944ZM100.575 62.8451V71.8969H93.078V62.8451C93.0781 62.7231 93.0635 62.6015 93.0344 62.483H100.618C100.589 62.6015 100.575 62.7231 100.575 62.8451ZM102.935 62.0002L103.114 62.3527C103.193 62.5047 103.235 62.6736 103.235 62.8451V72.3797H111.699V62.8451C111.699 62.6736 111.741 62.5047 111.82 62.3527L111.999 62.0002H102.935ZM111.216 62.8451V71.8969H103.719V62.8451C103.719 62.7231 103.704 62.6015 103.675 62.483H111.259C111.23 62.6015 111.215 62.7231 111.216 62.8451ZM113.576 62.0002L113.755 62.3527C113.834 62.5047 113.876 62.6736 113.876 62.8451V72.3797H122.34V62.8451C122.34 62.6736 122.382 62.5047 122.461 62.3527L122.64 62.0002H113.576ZM121.856 62.8451V71.8969H114.359V62.8451C114.36 62.7231 114.345 62.6015 114.316 62.483H121.9C121.871 62.6015 121.856 62.7231 121.856 62.8451ZM124.217 62.0002L124.396 62.3527C124.475 62.5047 124.516 62.6736 124.516 62.8451V72.3797H132.981V62.8451C132.981 62.6736 133.022 62.5047 133.102 62.3527L133.281 62.0002H124.217ZM132.497 62.8451V71.8969H125V62.8451C125 62.7231 124.986 62.6015 124.957 62.483H132.541C132.512 62.6015 132.497 62.7231 132.497 62.8451ZM134.857 62.0002L135.036 62.3527C135.116 62.5047 135.157 62.6736 135.157 62.8451V72.3797H143.621V62.8451C143.622 62.6736 143.663 62.5047 143.742 62.3527L143.921 62.0002H134.857ZM143.138 62.8451V71.8969H135.641V62.8451C135.641 62.7231 135.626 62.6015 135.597 62.483H143.181C143.152 62.6015 143.138 62.7231 143.138 62.8451ZM145.498 62.0002L145.677 62.3527C145.756 62.5047 145.798 62.6736 145.798 62.8451V72.3797H154.262V62.8451C154.262 62.6736 154.304 62.5047 154.383 62.3527L154.562 62.0002H145.498ZM153.778 62.8451V71.8969H146.282V62.8451C146.282 62.7231 146.267 62.6015 146.238 62.483H153.822C153.793 62.6015 153.778 62.7231 153.778 62.8451ZM156.139 62.0002L156.318 62.3527C156.397 62.5047 156.439 62.6736 156.439 62.8451V72.3797H164.903V62.8451C164.903 62.6736 164.944 62.5047 165.024 62.3527L165.203 62.0002H156.139ZM164.419 62.8451V71.8969H156.922V62.8451C156.922 62.7231 156.908 62.6015 156.879 62.483H164.463C164.434 62.6015 164.419 62.7231 164.419 62.8451ZM71.013 62.0002L71.192 62.3527C71.2713 62.5047 71.3128 62.6736 71.3129 62.8451V72.3797H79.7771V62.8451C79.7772 62.6736 79.8187 62.5047 79.898 62.3527L80.0771 62.0002H71.013ZM79.2934 62.8451V71.8969H71.7966V62.8451C71.7967 62.7231 71.7821 62.6015 71.753 62.483H79.337C79.308 62.6015 79.2933 62.7231 79.2934 62.8451ZM81.6537 62.0002L81.8327 62.3527C81.912 62.5047 81.9535 62.6736 81.9536 62.8451V72.3797H90.4178V62.8451C90.4179 62.6736 90.4594 62.5047 90.5387 62.3527L90.7178 62.0002H81.6537ZM89.9342 62.8451V71.8969H82.4373V62.8451C82.4374 62.7231 82.4228 62.6015 82.3937 62.483H89.9777C89.9487 62.6015 89.934 62.7231 89.9342 62.8451ZM92.2944 62.0002L92.4734 62.3527C92.5528 62.5047 92.5942 62.6736 92.5943 62.8451V72.3797H101.059V62.8451C101.059 62.6736 101.1 62.5047 101.179 62.3527L101.358 62.0002H92.2944ZM100.575 62.8451V71.8969H93.078V62.8451C93.0781 62.7231 93.0635 62.6015 93.0344 62.483H100.618C100.589 62.6015 100.575 62.7231 100.575 62.8451ZM102.935 62.0002L103.114 62.3527C103.193 62.5047 103.235 62.6736 103.235 62.8451V72.3797H111.699V62.8451C111.699 62.6736 111.741 62.5047 111.82 62.3527L111.999 62.0002H102.935ZM111.216 62.8451V71.8969H103.719V62.8451C103.719 62.7231 103.704 62.6015 103.675 62.483H111.259C111.23 62.6015 111.215 62.7231 111.216 62.8451ZM113.576 62.0002L113.755 62.3527C113.834 62.5047 113.876 62.6736 113.876 62.8451V72.3797H122.34V62.8451C122.34 62.6736 122.382 62.5047 122.461 62.3527L122.64 62.0002H113.576ZM121.856 62.8451V71.8969H114.359V62.8451C114.36 62.7231 114.345 62.6015 114.316 62.483H121.9C121.871 62.6015 121.856 62.7231 121.856 62.8451ZM124.217 62.0002L124.396 62.3527C124.475 62.5047 124.516 62.6736 124.516 62.8451V72.3797H132.981V62.8451C132.981 62.6736 133.022 62.5047 133.102 62.3527L133.281 62.0002H124.217ZM132.497 62.8451V71.8969H125V62.8451C125 62.7231 124.986 62.6015 124.957 62.483H132.541C132.512 62.6015 132.497 62.7231 132.497 62.8451ZM134.857 62.0002L135.036 62.3527C135.116 62.5047 135.157 62.6736 135.157 62.8451V72.3797H143.621V62.8451C143.622 62.6736 143.663 62.5047 143.742 62.3527L143.921 62.0002H134.857ZM143.138 62.8451V71.8969H135.641V62.8451C135.641 62.7231 135.626 62.6015 135.597 62.483H143.181C143.152 62.6015 143.138 62.7231 143.138 62.8451ZM145.498 62.0002L145.677 62.3527C145.756 62.5047 145.798 62.6736 145.798 62.8451V72.3797H154.262V62.8451C154.262 62.6736 154.304 62.5047 154.383 62.3527L154.562 62.0002H145.498ZM153.778 62.8451V71.8969H146.282V62.8451C146.282 62.7231 146.267 62.6015 146.238 62.483H153.822C153.793 62.6015 153.778 62.7231 153.778 62.8451ZM156.139 62.0002L156.318 62.3527C156.397 62.5047 156.439 62.6736 156.439 62.8451V72.3797H164.903V62.8451C164.903 62.6736 164.944 62.5047 165.024 62.3527L165.203 62.0002H156.139ZM164.419 62.8451V71.8969H156.922V62.8451C156.922 62.7231 156.908 62.6015 156.879 62.483H164.463C164.434 62.6015 164.419 62.7231 164.419 62.8451ZM71.013 62.0002L71.192 62.3527C71.2713 62.5047 71.3128 62.6736 71.3129 62.8451V72.3797H79.7771V62.8451C79.7772 62.6736 79.8187 62.5047 79.898 62.3527L80.0771 62.0002H71.013ZM79.2934 62.8451V71.8969H71.7966V62.8451C71.7967 62.7231 71.7821 62.6015 71.753 62.483H79.337C79.308 62.6015 79.2933 62.7231 79.2934 62.8451ZM81.6537 62.0002L81.8327 62.3527C81.912 62.5047 81.9535 62.6736 81.9536 62.8451V72.3797H90.4178V62.8451C90.4179 62.6736 90.4594 62.5047 90.5387 62.3527L90.7178 62.0002H81.6537ZM89.9342 62.8451V71.8969H82.4373V62.8451C82.4374 62.7231 82.4228 62.6015 82.3937 62.483H89.9777C89.9487 62.6015 89.934 62.7231 89.9342 62.8451ZM92.2944 62.0002L92.4734 62.3527C92.5528 62.5047 92.5942 62.6736 92.5943 62.8451V72.3797H101.059V62.8451C101.059 62.6736 101.1 62.5047 101.179 62.3527L101.358 62.0002H92.2944ZM100.575 62.8451V71.8969H93.078V62.8451C93.0781 62.7231 93.0635 62.6015 93.0344 62.483H100.618C100.589 62.6015 100.575 62.7231 100.575 62.8451ZM102.935 62.0002L103.114 62.3527C103.193 62.5047 103.235 62.6736 103.235 62.8451V72.3797H111.699V62.8451C111.699 62.6736 111.741 62.5047 111.82 62.3527L111.999 62.0002H102.935ZM111.216 62.8451V71.8969H103.719V62.8451C103.719 62.7231 103.704 62.6015 103.675 62.483H111.259C111.23 62.6015 111.215 62.7231 111.216 62.8451ZM113.576 62.0002L113.755 62.3527C113.834 62.5047 113.876 62.6736 113.876 62.8451V72.3797H122.34V62.8451C122.34 62.6736 122.382 62.5047 122.461 62.3527L122.64 62.0002H113.576ZM121.856 62.8451V71.8969H114.359V62.8451C114.36 62.7231 114.345 62.6015 114.316 62.483H121.9C121.871 62.6015 121.856 62.7231 121.856 62.8451ZM124.217 62.0002L124.396 62.3527C124.475 62.5047 124.516 62.6736 124.516 62.8451V72.3797H132.981V62.8451C132.981 62.6736 133.022 62.5047 133.102 62.3527L133.281 62.0002H124.217ZM132.497 62.8451V71.8969H125V62.8451C125 62.7231 124.986 62.6015 124.957 62.483H132.541C132.512 62.6015 132.497 62.7231 132.497 62.8451ZM134.857 62.0002L135.036 62.3527C135.116 62.5047 135.157 62.6736 135.157 62.8451V72.3797H143.621V62.8451C143.622 62.6736 143.663 62.5047 143.742 62.3527L143.921 62.0002H134.857ZM143.138 62.8451V71.8969H135.641V62.8451C135.641 62.7231 135.626 62.6015 135.597 62.483H143.181C143.152 62.6015 143.138 62.7231 143.138 62.8451ZM145.498 62.0002L145.677 62.3527C145.756 62.5047 145.798 62.6736 145.798 62.8451V72.3797H154.262V62.8451C154.262 62.6736 154.304 62.5047 154.383 62.3527L154.562 62.0002H145.498ZM153.778 62.8451V71.8969H146.282V62.8451C146.282 62.7231 146.267 62.6015 146.238 62.483H153.822C153.793 62.6015 153.778 62.7231 153.778 62.8451ZM156.139 62.0002L156.318 62.3527C156.397 62.5047 156.439 62.6736 156.439 62.8451V72.3797H164.903V62.8451C164.903 62.6736 164.944 62.5047 165.024 62.3527L165.203 62.0002H156.139ZM164.419 62.8451V71.8969H156.922V62.8451C156.922 62.7231 156.908 62.6015 156.879 62.483H164.463C164.434 62.6015 164.419 62.7231 164.419 62.8451ZM71.013 62.0002L71.192 62.3527C71.2713 62.5047 71.3128 62.6736 71.3129 62.8451V72.3797H79.7771V62.8451C79.7772 62.6736 79.8187 62.5047 79.898 62.3527L80.0771 62.0002H71.013ZM79.2934 62.8451V71.8969H71.7966V62.8451C71.7967 62.7231 71.7821 62.6015 71.753 62.483H79.337C79.308 62.6015 79.2933 62.7231 79.2934 62.8451ZM81.6537 62.0002L81.8327 62.3527C81.912 62.5047 81.9535 62.6736 81.9536 62.8451V72.3797H90.4178V62.8451C90.4179 62.6736 90.4594 62.5047 90.5387 62.3527L90.7178 62.0002H81.6537ZM89.9342 62.8451V71.8969H82.4373V62.8451C82.4374 62.7231 82.4228 62.6015 82.3937 62.483H89.9777C89.9487 62.6015 89.934 62.7231 89.9342 62.8451ZM92.2944 62.0002L92.4734 62.3527C92.5528 62.5047 92.5942 62.6736 92.5943 62.8451V72.3797H101.059V62.8451C101.059 62.6736 101.1 62.5047 101.179 62.3527L101.358 62.0002H92.2944ZM100.575 62.8451V71.8969H93.078V62.8451C93.0781 62.7231 93.0635 62.6015 93.0344 62.483H100.618C100.589 62.6015 100.575 62.7231 100.575 62.8451ZM102.935 62.0002L103.114 62.3527C103.193 62.5047 103.235 62.6736 103.235 62.8451V72.3797H111.699V62.8451C111.699 62.6736 111.741 62.5047 111.82 62.3527L111.999 62.0002H102.935ZM111.216 62.8451V71.8969H103.719V62.8451C103.719 62.7231 103.704 62.6015 103.675 62.483H111.259C111.23 62.6015 111.215 62.7231 111.216 62.8451ZM113.576 62.0002L113.755 62.3527C113.834 62.5047 113.876 62.6736 113.876 62.8451V72.3797H122.34V62.8451C122.34 62.6736 122.382 62.5047 122.461 62.3527L122.64 62.0002H113.576ZM121.856 62.8451V71.8969H114.359V62.8451C114.36 62.7231 114.345 62.6015 114.316 62.483H121.9C121.871 62.6015 121.856 62.7231 121.856 62.8451ZM124.217 62.0002L124.396 62.3527C124.475 62.5047 124.516 62.6736 124.516 62.8451V72.3797H132.981V62.8451C132.981 62.6736 133.022 62.5047 133.102 62.3527L133.281 62.0002H124.217ZM132.497 62.8451V71.8969H125V62.8451C125 62.7231 124.986 62.6015 124.957 62.483H132.541C132.512 62.6015 132.497 62.7231 132.497 62.8451ZM134.857 62.0002L135.036 62.3527C135.116 62.5047 135.157 62.6736 135.157 62.8451V72.3797H143.621V62.8451C143.622 62.6736 143.663 62.5047 143.742 62.3527L143.921 62.0002H134.857ZM143.138 62.8451V71.8969H135.641V62.8451C135.641 62.7231 135.626 62.6015 135.597 62.483H143.181C143.152 62.6015 143.138 62.7231 143.138 62.8451ZM145.498 62.0002L145.677 62.3527C145.756 62.5047 145.798 62.6736 145.798 62.8451V72.3797H154.262V62.8451C154.262 62.6736 154.304 62.5047 154.383 62.3527L154.562 62.0002H145.498ZM153.778 62.8451V71.8969H146.282V62.8451C146.282 62.7231 146.267 62.6015 146.238 62.483H153.822C153.793 62.6015 153.778 62.7231 153.778 62.8451ZM156.139 62.0002L156.318 62.3527C156.397 62.5047 156.439 62.6736 156.439 62.8451V72.3797H164.903V62.8451C164.903 62.6736 164.944 62.5047 165.024 62.3527L165.203 62.0002H156.139ZM164.419 62.8451V71.8969H156.922V62.8451C156.922 62.7231 156.908 62.6015 156.879 62.483H164.463C164.434 62.6015 164.419 62.7231 164.419 62.8451Z" fill="#0F4755"/>
<path d="M99.7651 104.242H81.9315C81.5559 104.242 81.1958 104.093 80.9302 103.828C80.6646 103.563 80.5152 103.203 80.5148 102.828V93.3459C80.5152 92.971 80.6646 92.6116 80.9302 92.3465C81.1958 92.0814 81.5559 91.9323 81.9315 91.9319H99.7651C100.141 91.9323 100.501 92.0814 100.766 92.3465C101.032 92.6116 101.181 92.971 101.182 93.3459V102.828C101.181 103.203 101.032 103.563 100.766 103.828C100.501 104.093 100.141 104.242 99.7651 104.242Z" fill="#73C2D5"/>
<path d="M126.903 104.242H109.07C108.694 104.242 108.334 104.093 108.068 103.828C107.803 103.563 107.653 103.203 107.653 102.828V93.3459C107.653 92.971 107.803 92.6116 108.068 92.3465C108.334 92.0814 108.694 91.9323 109.07 91.9319H126.903C127.279 91.9323 127.639 92.0814 127.905 92.3465C128.17 92.6116 128.32 92.971 128.32 93.3459V102.828C128.32 103.203 128.17 103.563 127.905 103.828C127.639 104.093 127.279 104.242 126.903 104.242Z" fill="#73C2D5"/>
<path d="M154.042 104.242H136.208C135.833 104.242 135.473 104.093 135.207 103.828C134.941 103.563 134.792 103.203 134.792 102.828V93.3459C134.792 92.971 134.941 92.6116 135.207 92.3465C135.473 92.0814 135.833 91.9323 136.208 91.9319H154.042C154.418 91.9323 154.778 92.0814 155.043 92.3465C155.309 92.6116 155.458 92.971 155.459 93.3459V102.828C155.458 103.203 155.309 103.563 155.043 103.828C154.778 104.093 154.418 104.242 154.042 104.242Z" fill="#73C2D5"/>
<path d="M99.7651 135.863H81.9315C81.5559 135.863 81.1958 135.714 80.9302 135.449C80.6646 135.183 80.5152 134.824 80.5148 134.449V124.967C80.5152 124.592 80.6646 124.232 80.9302 123.967C81.1958 123.702 81.5559 123.553 81.9315 123.553H99.7651C100.141 123.553 100.501 123.702 100.766 123.967C101.032 124.232 101.181 124.592 101.182 124.967V134.449C101.181 134.824 101.032 135.183 100.766 135.449C100.501 135.714 100.141 135.863 99.7651 135.863Z" fill="#73C2D5"/>
<path d="M126.903 135.863H109.07C108.694 135.863 108.334 135.714 108.068 135.449C107.803 135.183 107.653 134.824 107.653 134.449V124.967C107.653 124.592 107.803 124.232 108.068 123.967C108.334 123.702 108.694 123.553 109.07 123.553H126.903C127.279 123.553 127.639 123.702 127.905 123.967C128.17 124.232 128.32 124.592 128.32 124.967V134.449C128.32 134.824 128.17 135.183 127.905 135.449C127.639 135.714 127.279 135.863 126.903 135.863Z" fill="#73C2D5"/>
<path d="M154.042 135.863H136.208C135.833 135.863 135.473 135.714 135.207 135.449C134.941 135.183 134.792 134.824 134.792 134.449V124.967C134.792 124.592 134.941 124.232 135.207 123.967C135.473 123.702 135.833 123.553 136.208 123.553H154.042C154.418 123.553 154.778 123.702 155.043 123.967C155.309 124.232 155.458 124.592 155.459 124.967V134.449C155.458 134.824 155.309 135.183 155.043 135.449C154.778 135.714 154.418 135.863 154.042 135.863Z" fill="#73C2D5"/>
<path d="M99.7651 167.484H81.9315C81.5559 167.484 81.1958 167.335 80.9302 167.07C80.6646 166.804 80.5152 166.445 80.5148 166.07V156.588C80.5152 156.213 80.6646 155.853 80.9302 155.588C81.1958 155.323 81.5559 155.174 81.9315 155.174H99.7651C100.141 155.174 100.501 155.323 100.766 155.588C101.032 155.853 101.181 156.213 101.182 156.588V166.07C101.181 166.445 101.032 166.804 100.766 167.07C100.501 167.335 100.141 167.484 99.7651 167.484Z" fill="#73C2D5"/>
<path d="M126.903 167.484H109.07C108.694 167.484 108.334 167.335 108.068 167.07C107.803 166.804 107.653 166.445 107.653 166.07V156.588C107.653 156.213 107.803 155.853 108.068 155.588C108.334 155.323 108.694 155.174 109.07 155.174H126.903C127.279 155.174 127.639 155.323 127.905 155.588C128.17 155.853 128.32 156.213 128.32 156.588V166.07C128.32 166.445 128.17 166.804 127.905 167.07C127.639 167.335 127.279 167.484 126.903 167.484Z" fill="#73C2D5"/>
<path d="M154.042 167.484H136.208C135.833 167.484 135.473 167.335 135.207 167.07C134.941 166.804 134.792 166.445 134.792 166.07V156.588C134.792 156.213 134.941 155.853 135.207 155.588C135.473 155.323 135.833 155.174 136.208 155.174H154.042C154.418 155.174 154.778 155.323 155.043 155.588C155.309 155.853 155.458 156.213 155.459 156.588V166.07C155.458 166.445 155.309 166.804 155.043 167.07C154.778 167.335 154.418 167.484 154.042 167.484Z" fill="#73C2D5"/>
<path d="M96.8781 105.459H76.2188C75.7196 105.458 75.2409 105.26 74.8879 104.908C74.5349 104.555 74.3364 104.077 74.3358 103.579V92.5944C74.3364 92.0961 74.5349 91.6184 74.8879 91.266C75.2409 90.9136 75.7196 90.7154 76.2188 90.7148H96.8781C97.3773 90.7154 97.8559 90.9136 98.209 91.266C98.562 91.6184 98.7605 92.0961 98.7611 92.5944V103.579C98.7605 104.077 98.562 104.555 98.209 104.908C97.8559 105.26 97.3773 105.458 96.8781 105.459ZM76.2188 91.1976C75.8478 91.198 75.4921 91.3453 75.2298 91.6072C74.9674 91.8691 74.8199 92.2241 74.8195 92.5944V103.579C74.8199 103.949 74.9674 104.304 75.2298 104.566C75.4921 104.828 75.8478 104.976 76.2188 104.976H96.8781C97.2491 104.976 97.6048 104.828 97.8671 104.566C98.1295 104.305 98.277 103.949 98.2774 103.579V92.5944C98.277 92.2241 98.1295 91.869 97.8671 91.6072C97.6048 91.3453 97.2491 91.198 96.8781 91.1976H76.2188Z" fill="#0F4755"/>
<path d="M128.316 105.459H107.657C107.158 105.458 106.679 105.26 106.326 104.908C105.973 104.555 105.775 104.077 105.774 103.579V92.5944C105.775 92.0961 105.973 91.6184 106.326 91.266C106.679 90.9136 107.158 90.7154 107.657 90.7148H128.316C128.816 90.7154 129.294 90.9136 129.647 91.266C130 91.6184 130.199 92.0961 130.199 92.5944V103.579C130.199 104.077 130 104.555 129.647 104.908C129.294 105.26 128.816 105.458 128.316 105.459ZM107.657 91.1976C107.286 91.198 106.93 91.3453 106.668 91.6072C106.406 91.869 106.258 92.2241 106.258 92.5944V103.579C106.258 103.949 106.406 104.305 106.668 104.566C106.93 104.828 107.286 104.976 107.657 104.976H128.316C128.687 104.976 129.043 104.828 129.305 104.566C129.568 104.305 129.715 103.949 129.716 103.579V92.5944C129.715 92.2241 129.568 91.869 129.305 91.6072C129.043 91.3453 128.687 91.198 128.316 91.1976H107.657Z" fill="#0F4755"/>
<path d="M159.755 105.459H139.096C138.597 105.458 138.118 105.26 137.765 104.908C137.412 104.555 137.213 104.077 137.213 103.579V92.5944C137.213 92.0961 137.412 91.6184 137.765 91.266C138.118 90.9136 138.597 90.7154 139.096 90.7148H159.755C160.254 90.7154 160.733 90.9136 161.086 91.266C161.439 91.6184 161.638 92.0961 161.638 92.5944V103.579C161.638 104.077 161.439 104.555 161.086 104.908C160.733 105.26 160.254 105.458 159.755 105.459ZM139.096 91.1976C138.725 91.198 138.369 91.3453 138.107 91.6072C137.845 91.869 137.697 92.2241 137.697 92.5944V103.579C137.697 103.949 137.845 104.305 138.107 104.566C138.369 104.828 138.725 104.976 139.096 104.976H159.755C160.126 104.976 160.482 104.828 160.744 104.566C161.007 104.305 161.154 103.949 161.154 103.579V92.5944C161.154 92.2241 161.007 91.869 160.744 91.6072C160.482 91.3453 160.126 91.198 159.755 91.1976H139.096Z" fill="#0F4755"/>
<path d="M96.8781 137.08H76.2188C75.7196 137.079 75.2409 136.881 74.8879 136.529C74.5349 136.176 74.3364 135.698 74.3358 135.2V124.215C74.3364 123.717 74.5349 123.239 74.8879 122.887C75.2409 122.535 75.7196 122.336 76.2188 122.336H96.8781C97.3773 122.336 97.8559 122.535 98.209 122.887C98.562 123.239 98.7605 123.717 98.7611 124.215V135.2C98.7605 135.698 98.562 136.176 98.209 136.529C97.8559 136.881 97.3773 137.079 96.8781 137.08ZM76.2188 122.819C75.8478 122.819 75.4921 122.966 75.2298 123.228C74.9674 123.49 74.8199 123.845 74.8195 124.215V135.2C74.8199 135.57 74.9674 135.925 75.2298 136.187C75.4921 136.449 75.8478 136.596 76.2188 136.597H96.8781C97.2491 136.596 97.6048 136.449 97.8671 136.187C98.1295 135.925 98.277 135.57 98.2774 135.2V124.215C98.277 123.845 98.1295 123.49 97.8671 123.228C97.6048 122.966 97.2491 122.819 96.8781 122.819H76.2188Z" fill="#0F4755"/>
<path d="M128.316 137.08H107.657C107.158 137.079 106.679 136.881 106.326 136.529C105.973 136.176 105.775 135.698 105.774 135.2V124.215C105.775 123.717 105.973 123.239 106.326 122.887C106.679 122.535 107.158 122.336 107.657 122.336H128.316C128.816 122.336 129.294 122.535 129.647 122.887C130 123.239 130.199 123.717 130.199 124.215V135.2C130.199 135.698 130 136.176 129.647 136.529C129.294 136.881 128.816 137.079 128.316 137.08ZM107.657 122.819C107.286 122.819 106.93 122.966 106.668 123.228C106.406 123.49 106.258 123.845 106.258 124.215V135.2C106.258 135.57 106.406 135.925 106.668 136.187C106.93 136.449 107.286 136.596 107.657 136.597H128.316C128.687 136.596 129.043 136.449 129.305 136.187C129.568 135.925 129.715 135.57 129.716 135.2V124.215C129.715 123.845 129.568 123.49 129.305 123.228C129.043 122.966 128.687 122.819 128.316 122.819H107.657Z" fill="#0F4755"/>
<path d="M159.755 137.08H139.096C138.597 137.079 138.118 136.881 137.765 136.529C137.412 136.176 137.213 135.698 137.213 135.2V124.215C137.213 123.717 137.412 123.239 137.765 122.887C138.118 122.535 138.597 122.336 139.096 122.336H159.755C160.254 122.336 160.733 122.535 161.086 122.887C161.439 123.239 161.638 123.717 161.638 124.215V135.2C161.638 135.698 161.439 136.176 161.086 136.529C160.733 136.881 160.254 137.079 159.755 137.08ZM139.096 122.819C138.725 122.819 138.369 122.966 138.107 123.228C137.845 123.49 137.697 123.845 137.697 124.215V135.2C137.697 135.57 137.845 135.925 138.107 136.187C138.369 136.449 138.725 136.596 139.096 136.597H159.755C160.126 136.596 160.482 136.449 160.744 136.187C161.007 135.925 161.154 135.57 161.154 135.2V124.215C161.154 123.845 161.007 123.49 160.744 123.228C160.482 122.966 160.126 122.819 159.755 122.819H139.096Z" fill="#0F4755"/>
<path d="M96.8781 168.701H76.2188C75.7196 168.7 75.2409 168.502 74.8879 168.149C74.5349 167.797 74.3364 167.319 74.3358 166.821V155.836C74.3364 155.338 74.5349 154.86 74.8879 154.508C75.2409 154.156 75.7196 153.957 76.2188 153.957H96.8781C97.3773 153.957 97.8559 154.156 98.209 154.508C98.562 154.86 98.7605 155.338 98.7611 155.836V166.821C98.7605 167.319 98.562 167.797 98.209 168.15C97.8559 168.502 97.3773 168.7 96.8781 168.701ZM76.2188 154.44C75.8478 154.44 75.4921 154.587 75.2298 154.849C74.9674 155.111 74.8199 155.466 74.8195 155.836V166.821C74.8199 167.191 74.9674 167.546 75.2298 167.808C75.4921 168.07 75.8478 168.217 76.2188 168.218H96.8781C97.2491 168.217 97.6048 168.07 97.8671 167.808C98.1295 167.546 98.277 167.191 98.2774 166.821V155.836C98.277 155.466 98.1295 155.111 97.8671 154.849C97.6048 154.587 97.2491 154.44 96.8781 154.44H76.2188Z" fill="#0F4755"/>
<path d="M128.316 168.701H107.657C107.158 168.7 106.679 168.502 106.326 168.15C105.973 167.797 105.775 167.319 105.774 166.821V155.836C105.775 155.338 105.973 154.86 106.326 154.508C106.679 154.156 107.158 153.957 107.657 153.957H128.316C128.816 153.957 129.294 154.156 129.647 154.508C130 154.86 130.199 155.338 130.199 155.836V166.821C130.199 167.319 130 167.797 129.647 168.149C129.294 168.502 128.816 168.7 128.316 168.701ZM107.657 154.44C107.286 154.44 106.93 154.587 106.668 154.849C106.406 155.111 106.258 155.466 106.258 155.836V166.821C106.258 167.191 106.406 167.546 106.668 167.808C106.93 168.07 107.286 168.217 107.657 168.218H128.316C128.687 168.217 129.043 168.07 129.305 167.808C129.568 167.546 129.715 167.191 129.716 166.821V155.836C129.715 155.466 129.568 155.111 129.305 154.849C129.043 154.587 128.687 154.44 128.316 154.44H107.657Z" fill="#0F4755"/>
<path d="M159.755 168.701H139.096C138.597 168.7 138.118 168.502 137.765 168.15C137.412 167.797 137.213 167.319 137.213 166.821V155.836C137.213 155.338 137.412 154.86 137.765 154.508C138.118 154.156 138.597 153.957 139.096 153.957H159.755C160.254 153.957 160.733 154.156 161.086 154.508C161.439 154.86 161.638 155.338 161.638 155.836V166.821C161.638 167.319 161.439 167.797 161.086 168.149C160.733 168.502 160.254 168.7 159.755 168.701ZM139.096 154.44C138.725 154.44 138.369 154.587 138.107 154.849C137.845 155.111 137.697 155.466 137.697 155.836V166.821C137.697 167.191 137.845 167.546 138.107 167.808C138.369 168.07 138.725 168.217 139.096 168.218H159.755C160.126 168.217 160.482 168.07 160.744 167.808C161.007 167.546 161.154 167.191 161.154 166.821V155.836C161.154 155.466 161.007 155.111 160.744 154.849C160.482 154.587 160.126 154.44 159.755 154.44H139.096Z" fill="#0F4755"/>
<path d="M231.63 204.906H1.22857C1.16795 204.906 1.10981 204.964 1.06695 205.066C1.02408 205.169 1 205.308 1 205.453C1 205.598 1.02408 205.737 1.06695 205.84C1.10981 205.942 1.16795 206 1.22857 206H231.63C231.691 206 231.749 205.942 231.792 205.84C231.835 205.737 231.859 205.598 231.859 205.453C231.859 205.308 231.835 205.169 231.792 205.066C231.749 204.964 231.691 204.906 231.63 204.906Z" fill="#0F4755"/>
<path d="M130.199 182.622C130.206 182.071 129.993 181.54 129.608 181.145C129.222 180.751 128.696 180.526 128.144 180.519H117.987V205.502H130.199V182.622Z" fill="#0F4755"/>
<path d="M118.229 205.261H105.533V182.691C105.533 182.083 105.776 181.501 106.206 181.071C106.637 180.641 107.221 180.399 107.83 180.398H118.229V205.261ZM106.016 204.778H117.745V180.881H107.83C107.349 180.882 106.888 181.073 106.548 181.412C106.208 181.751 106.017 182.211 106.016 182.691V204.778Z" fill="#0F4755"/>
<path d="M107.104 194.519C107.505 194.519 107.83 194.195 107.83 193.795C107.83 193.395 107.505 193.07 107.104 193.07C106.704 193.07 106.379 193.395 106.379 193.795C106.379 194.195 106.704 194.519 107.104 194.519Z" fill="#0F4755"/>
<path d="M194.829 178.049C194.531 177.663 194.111 177.306 194.084 176.829C194.06 176.393 194.385 175.959 194.248 175.541C194.142 175.22 193.794 175.026 193.454 174.923C192.803 174.729 192.106 174.756 191.472 175L191.506 174.975C191.119 174.837 190.667 174.98 190.362 175.244C190.057 175.508 189.876 175.874 189.736 176.24C189.595 176.607 189.487 176.987 189.291 177.331C189.096 177.675 188.797 177.987 188.403 178.106C188.535 178.37 188.948 178.46 189.19 178.279C189.252 178.228 189.307 178.171 189.355 178.107C189.517 177.911 189.678 177.714 189.839 177.518C190.006 177.814 189.757 178.222 189.962 178.495C190.067 178.637 190.259 178.69 190.438 178.729C191.833 179.027 193.281 178.973 194.651 178.572C194.761 178.54 194.882 178.495 194.928 178.395C194.981 178.28 194.907 178.15 194.829 178.049Z" fill="#2F2E41"/>
<path d="M198.786 179.555C198.777 179.593 198.771 179.632 198.769 179.672L195.718 181.434L194.977 181.006L194.186 182.042L195.426 182.926C195.526 182.998 195.646 183.035 195.769 183.032C195.892 183.029 196.011 182.986 196.107 182.91L199.252 180.425C199.394 180.478 199.549 180.486 199.696 180.449C199.842 180.411 199.974 180.33 200.074 180.215C200.173 180.101 200.235 179.959 200.252 179.809C200.269 179.658 200.24 179.506 200.168 179.372C200.096 179.239 199.986 179.13 199.851 179.061C199.716 178.992 199.564 178.966 199.414 178.986C199.264 179.006 199.123 179.071 199.011 179.172C198.899 179.274 198.82 179.408 198.786 179.555Z" fill="#FFB7B7"/>
<path d="M195.616 181.517L194.631 182.796C194.603 182.833 194.567 182.863 194.526 182.884C194.486 182.905 194.441 182.918 194.395 182.92C194.349 182.923 194.303 182.915 194.261 182.899C194.218 182.882 194.179 182.856 194.147 182.823L193.031 181.662C192.846 181.518 192.726 181.305 192.697 181.072C192.668 180.838 192.732 180.603 192.876 180.417C193.02 180.231 193.232 180.11 193.465 180.081C193.698 180.051 193.934 180.115 194.12 180.259L195.519 181.042C195.56 181.065 195.594 181.096 195.621 181.133C195.649 181.17 195.667 181.212 195.677 181.257C195.686 181.302 195.685 181.349 195.675 181.394C195.664 181.439 195.644 181.481 195.616 181.517Z" fill="#6C63FF"/>
<path d="M194.26 203.806L195.13 203.806L195.544 200.444L194.26 200.444L194.26 203.806Z" fill="#FFB7B7"/>
<path d="M194.038 203.522L195.752 203.522H195.752C196.042 203.522 196.32 203.637 196.525 203.842C196.73 204.047 196.845 204.326 196.845 204.616V204.651L194.038 204.651L194.038 203.522Z" fill="#2F2E41"/>
<path d="M188.295 203.806L189.165 203.806L189.58 200.444L188.295 200.444L188.295 203.806Z" fill="#FFB7B7"/>
<path d="M188.073 203.522L189.787 203.522H189.787C190.077 203.522 190.355 203.637 190.56 203.842C190.765 204.047 190.88 204.326 190.88 204.616V204.651L188.073 204.651L188.073 203.522Z" fill="#2F2E41"/>
<path d="M193.737 177.573C193.828 176.747 193.231 176.003 192.406 175.912C191.58 175.821 190.837 176.418 190.746 177.245C190.655 178.072 191.251 178.816 192.077 178.906C192.903 178.997 193.646 178.4 193.737 177.573Z" fill="#FFB7B7"/>
<path d="M193.122 179.667L194.008 180.107C194.008 180.107 194.998 181.83 194.43 183.465C194.154 184.259 194.931 186.789 194.931 186.789C194.931 186.789 196.134 198.252 196.138 201.79C194.643 202.02 193.223 202.305 193.152 201.594C193.081 200.883 192.304 192.477 192.304 192.477C192.304 192.477 191.235 201.807 190.383 201.949C189.531 202.091 187.826 201.878 187.826 201.878C187.826 201.878 189.179 188.211 190.102 187.358L190.245 186.647L190.241 180.266L191.304 179.758L193.122 179.667Z" fill="#2F2E41"/>
<path d="M189.951 189.355C190.049 189.302 190.134 189.228 190.201 189.139C190.267 189.049 190.313 188.946 190.335 188.836C190.358 188.727 190.356 188.614 190.33 188.505C190.304 188.397 190.254 188.295 190.185 188.208L191.215 181.329L189.869 181.264L189.065 188.115C188.926 188.241 188.839 188.414 188.819 188.601C188.799 188.788 188.848 188.976 188.958 189.129C189.067 189.282 189.228 189.389 189.411 189.431C189.594 189.473 189.786 189.446 189.951 189.355Z" fill="#FFB7B7"/>
<path d="M191.186 183.052L189.576 182.95C189.53 182.947 189.485 182.935 189.445 182.913C189.404 182.891 189.369 182.861 189.341 182.824C189.313 182.788 189.294 182.745 189.284 182.701C189.274 182.656 189.274 182.609 189.283 182.564L189.619 180.989C189.635 180.754 189.743 180.535 189.92 180.381C190.097 180.226 190.328 180.148 190.563 180.163C190.797 180.179 191.016 180.287 191.171 180.463C191.326 180.64 191.405 180.871 191.39 181.106L191.525 182.706C191.529 182.752 191.523 182.798 191.507 182.841C191.491 182.884 191.467 182.924 191.435 182.957C191.402 182.989 191.364 183.015 191.321 183.031C191.278 183.048 191.232 183.055 191.186 183.052Z" fill="#6C63FF"/>
<path d="M193.818 176.43C193.759 176.164 193.569 175.943 193.35 175.782C192.988 175.515 192.544 175.384 192.096 175.412C191.648 175.439 191.224 175.623 190.897 175.931C190.715 176.092 190.583 176.304 190.518 176.539C190.488 176.656 190.486 176.78 190.514 176.898C190.541 177.016 190.597 177.126 190.677 177.218L190.707 177.236C190.68 177.121 190.77 177.005 190.877 176.954C190.989 176.913 191.105 176.887 191.223 176.876C191.402 176.842 191.572 176.77 191.721 176.665C191.87 176.56 191.995 176.424 192.087 176.266C192.155 176.46 192.264 176.637 192.406 176.786C192.548 176.934 192.72 177.05 192.911 177.126C193.11 177.204 193.656 177.311 193.845 177.212C194.087 177.086 193.877 176.696 193.818 176.43Z" fill="#2F2E41"/>
<path d="M181.045 201.805C181.305 201.897 181.584 201.92 181.856 201.872C182.128 201.824 182.383 201.707 182.596 201.532C183.14 201.075 183.31 200.323 183.449 199.626L183.859 197.566L183 198.157C182.383 198.583 181.751 199.022 181.324 199.639C180.897 200.255 180.71 201.097 181.053 201.764" fill="#E6E6E6"/>
<path d="M181.177 204.443C181.069 203.655 180.958 202.856 181.034 202.06C181.101 201.352 181.317 200.661 181.756 200.095C181.989 199.795 182.272 199.537 182.593 199.335C182.677 199.282 182.754 199.415 182.671 199.467C182.115 199.819 181.685 200.338 181.443 200.951C181.176 201.631 181.133 202.373 181.179 203.096C181.207 203.534 181.266 203.968 181.325 204.402C181.33 204.422 181.327 204.442 181.317 204.46C181.307 204.477 181.291 204.491 181.272 204.497C181.252 204.502 181.231 204.499 181.213 204.489C181.196 204.479 181.183 204.462 181.177 204.443L181.177 204.443Z" fill="#F2F2F2"/>
<path d="M181.955 203.178C182.066 203.348 182.22 203.487 182.4 203.58C182.581 203.673 182.782 203.718 182.985 203.711C183.507 203.686 183.942 203.322 184.334 202.976L185.492 201.952L184.725 201.915C184.174 201.889 183.609 201.864 183.084 202.034C182.559 202.205 182.075 202.614 181.979 203.158" fill="#E6E6E6"/>
<path d="M180.872 204.896C181.392 203.975 181.995 202.951 183.073 202.623C183.373 202.533 183.687 202.5 183.999 202.528C184.098 202.536 184.073 202.688 183.975 202.679C183.452 202.636 182.93 202.774 182.497 203.071C182.081 203.355 181.756 203.75 181.481 204.168C181.313 204.425 181.163 204.692 181.012 204.959C180.964 205.044 180.823 204.983 180.872 204.896Z" fill="#F2F2F2"/>
<path d="M206.941 192.73C205.965 191.422 204.178 191.106 203.29 191.771C202.402 192.435 202.198 194.24 203.174 195.548C204.078 196.758 205.715 197.088 206.617 196.635C206.614 196.649 206.614 196.664 206.616 196.678L206.667 196.929C206.671 196.949 206.68 196.966 206.692 196.981C206.705 196.996 206.721 197.008 206.74 197.014C206.758 197.021 206.778 197.023 206.797 197.02C206.816 197.017 206.835 197.009 206.85 196.997L207.281 196.66C207.296 196.648 207.308 196.633 207.316 196.615C207.323 196.596 207.326 196.577 207.324 196.557C207.322 196.538 207.315 196.519 207.303 196.503C207.292 196.487 207.277 196.475 207.259 196.466L207.028 196.356C207.02 196.352 207.011 196.35 207.002 196.348C207.697 195.612 207.846 193.943 206.941 192.73Z" fill="#CCCCCC"/>
<path d="M204.805 192.236C205.283 192.312 205.713 192.568 206.007 192.952C206.301 193.337 206.436 193.819 206.385 194.301C206.375 194.411 206.547 194.41 206.557 194.301C206.607 193.782 206.458 193.264 206.142 192.85C205.825 192.436 205.364 192.157 204.851 192.07C204.743 192.051 204.696 192.217 204.805 192.236Z" fill="white"/>
<path d="M215.995 165.993C216.848 164.602 216.481 162.823 215.537 162.242C214.592 161.661 212.842 162.138 211.988 163.53C211.198 164.817 211.496 166.463 212.25 167.134C212.236 167.136 212.223 167.142 212.21 167.149L211.996 167.29C211.979 167.3 211.966 167.315 211.957 167.332C211.948 167.35 211.943 167.369 211.944 167.388C211.944 167.408 211.95 167.427 211.959 167.444C211.969 167.461 211.983 167.475 212 167.485L212.472 167.761C212.489 167.771 212.508 167.776 212.527 167.777C212.547 167.777 212.566 167.772 212.584 167.763C212.601 167.754 212.615 167.741 212.626 167.724C212.637 167.708 212.643 167.689 212.644 167.669L212.661 167.413C212.661 167.404 212.661 167.395 212.659 167.387C213.599 167.762 215.203 167.284 215.995 165.993Z" fill="#CCCCCC"/>
<path d="M215.664 163.824C215.77 164.296 215.691 164.791 215.443 165.207C215.194 165.622 214.797 165.926 214.331 166.057C214.225 166.088 214.289 166.247 214.394 166.217C214.894 166.071 215.32 165.741 215.588 165.294C215.855 164.847 215.943 164.315 215.835 163.805C215.812 163.697 215.641 163.715 215.664 163.824Z" fill="white"/>
<path d="M201.914 170.575C201.842 168.944 200.543 167.676 199.436 167.724C198.329 167.773 197.145 169.15 197.217 170.781C197.283 172.291 198.45 173.486 199.45 173.62C199.44 173.63 199.432 173.642 199.426 173.655L199.326 173.892C199.319 173.91 199.316 173.929 199.318 173.949C199.32 173.968 199.327 173.987 199.339 174.003C199.35 174.019 199.365 174.031 199.383 174.04C199.401 174.048 199.42 174.052 199.44 174.051L199.985 174.015C200.004 174.014 200.023 174.008 200.039 173.997C200.056 173.986 200.069 173.972 200.078 173.954C200.088 173.937 200.092 173.918 200.092 173.898C200.091 173.879 200.086 173.859 200.076 173.843L199.947 173.621C199.942 173.613 199.937 173.606 199.93 173.6C200.918 173.384 201.98 172.088 201.914 170.575Z" fill="#6C63FF"/>
<path d="M200.427 168.964C200.779 169.296 200.99 169.75 201.017 170.234C201.044 170.717 200.884 171.192 200.572 171.561C200.501 171.646 200.643 171.743 200.714 171.658C201.046 171.257 201.215 170.745 201.186 170.225C201.157 169.704 200.933 169.214 200.558 168.852C200.479 168.776 200.347 168.887 200.427 168.964Z" fill="white"/>
<path d="M207.547 184.98C207.121 184.953 206.706 184.825 206.338 184.607C205.97 184.389 205.659 184.086 205.431 183.724C205.367 183.622 205.283 183.509 205.327 183.383C205.343 183.334 205.374 183.293 205.416 183.265C205.459 183.236 205.509 183.223 205.56 183.228C205.69 183.243 205.775 183.372 205.791 183.494C205.809 183.634 205.711 183.743 205.59 183.795C205.294 183.921 204.995 183.726 204.754 183.57C204.205 183.214 203.601 182.893 202.935 182.853C202.319 182.815 201.658 183.057 201.316 183.592C201.256 183.685 201.405 183.772 201.464 183.679C201.804 183.148 202.491 182.958 203.088 183.04C203.444 183.096 203.788 183.213 204.104 183.385C204.268 183.47 204.428 183.565 204.584 183.664C204.732 183.768 204.889 183.858 205.054 183.934C205.328 184.047 205.691 184.038 205.882 183.779C206.061 183.536 205.923 183.133 205.624 183.065C205.559 183.052 205.491 183.056 205.427 183.075C205.363 183.095 205.305 183.13 205.258 183.178C205.211 183.226 205.177 183.284 205.158 183.349C205.14 183.413 205.137 183.481 205.151 183.546C205.181 183.689 205.288 183.828 205.371 183.945C205.621 184.296 205.946 184.587 206.322 184.796C206.699 185.005 207.118 185.127 207.547 185.152C207.658 185.157 207.658 184.985 207.547 184.98Z" fill="#CCCCCC"/>
<path d="M221.342 170.233C221.813 170.013 222.391 169.941 222.871 170.145C223.35 170.349 223.676 170.871 223.522 171.334C223.451 171.543 223.291 171.75 223.354 171.961C223.402 172.124 223.569 172.232 223.733 172.308C223.898 172.385 224.078 172.449 224.196 172.578C224.315 172.707 224.34 172.929 224.192 173.029C224.143 173.062 224.081 173.078 224.034 173.113C223.994 173.146 223.964 173.19 223.951 173.241C223.937 173.291 223.939 173.344 223.957 173.393C223.996 173.492 224.062 173.578 224.146 173.642C224.315 173.788 224.537 173.954 224.485 174.161C224.466 174.216 224.433 174.266 224.39 174.306C224.348 174.346 224.296 174.375 224.24 174.391C224.123 174.425 224.001 174.441 223.88 174.438L218.905 174.595C218.741 174.608 218.576 174.598 218.414 174.568C218.335 174.553 218.261 174.523 218.194 174.478C218.128 174.434 218.071 174.376 218.028 174.308C217.933 174.132 217.996 173.914 218.113 173.75C218.231 173.585 218.397 173.455 218.535 173.303C218.672 173.152 218.785 172.963 218.761 172.767C218.741 172.611 218.638 172.475 218.564 172.333C218.49 172.191 218.447 172.013 218.543 171.882C218.678 171.698 219.003 171.714 219.156 171.542C219.272 171.413 219.25 171.226 219.261 171.059C219.289 170.656 219.567 170.276 219.963 170.1C220.165 170.013 220.384 169.976 220.603 169.991C220.821 170.006 221.033 170.073 221.221 170.186L221.342 170.233Z" fill="#2F2E41"/>
<path d="M227.4 190.144V190.959L224.262 191.346L224.262 190.144L227.4 190.144Z" fill="#9E616A"/>
<path d="M228.189 189.937L228.189 192.563H228.156C227.885 192.563 227.625 192.455 227.434 192.263C227.242 192.072 227.135 191.812 227.135 191.541V191.541L227.135 189.937L228.189 189.937Z" fill="#2F2E41"/>
<path d="M223.521 191.53L223.322 192.319L220.185 191.924L220.48 190.759L223.521 191.53Z" fill="#9E616A"/>
<path d="M224.337 191.523L223.693 194.068L223.661 194.06C223.398 193.994 223.173 193.825 223.034 193.593C222.896 193.36 222.855 193.081 222.922 192.818L223.315 191.263L224.337 191.523Z" fill="#2F2E41"/>
<path d="M222.72 182.396L222.89 182.573C222.89 182.573 223.995 183.441 223.177 185.727L221.839 189.586L226.324 189.761L226.228 191.525C226.228 191.525 219.724 191.887 219.781 190.814C219.838 189.741 220.078 185.767 220.078 185.767L218.727 184.681L219.052 182.843L222.72 182.396Z" fill="#2F2E41"/>
<path d="M219.246 184.148L218.727 184.681L216.985 189.475C216.985 189.475 216.719 190.671 217.316 190.937C217.914 191.203 221.756 192.689 221.756 192.689L222.149 191.275L219.188 189.496L220.568 187.682L220.775 184.822L219.246 184.148Z" fill="#2F2E41"/>
<path d="M219.274 175.69L223.695 174.805L223.791 177.234L222.646 179.678L222.89 182.573L218.927 183.266L219.051 179.459C219.051 179.459 217.987 177.956 218.614 176.441L219.274 175.69Z" fill="#E4E4E4"/>
<path d="M229.133 169.928C229.156 170.03 229.155 170.136 229.132 170.238C229.109 170.339 229.064 170.435 229 170.517C228.936 170.6 228.855 170.667 228.763 170.715C228.67 170.763 228.568 170.789 228.464 170.793L224.224 175.716L223.238 174.518L227.716 170.056C227.721 169.88 227.79 169.713 227.91 169.585C228.03 169.457 228.193 169.378 228.368 169.362C228.543 169.346 228.717 169.395 228.858 169.499C228.999 169.604 229.097 169.757 229.133 169.928Z" fill="#9E616A"/>
<path d="M225.147 175.179C225.148 175.225 225.139 175.27 225.121 175.313C225.102 175.355 225.075 175.393 225.041 175.423L223.849 176.498C223.699 176.679 223.484 176.794 223.25 176.816C223.016 176.839 222.783 176.768 222.601 176.619C222.42 176.469 222.305 176.254 222.281 176.02C222.258 175.786 222.328 175.552 222.477 175.37L223.309 173.991C223.333 173.951 223.365 173.918 223.403 173.892C223.441 173.866 223.484 173.848 223.529 173.841C223.575 173.833 223.621 173.835 223.665 173.847C223.71 173.859 223.751 173.88 223.786 173.909L225.031 174.939C225.066 174.968 225.095 175.005 225.115 175.046C225.135 175.088 225.146 175.133 225.147 175.179Z" fill="#E4E4E4"/>
<path d="M212.341 181.497C212.334 181.393 212.35 181.288 212.388 181.191C212.426 181.094 212.485 181.007 212.561 180.935C212.636 180.863 212.727 180.808 212.825 180.775C212.924 180.742 213.029 180.731 213.132 180.742L218.062 176.512L218.857 177.845L213.762 181.584C213.73 181.757 213.637 181.912 213.499 182.02C213.361 182.129 213.188 182.183 213.013 182.172C212.838 182.161 212.672 182.087 212.549 181.962C212.425 181.838 212.351 181.672 212.341 181.497Z" fill="#9E616A"/>
<path d="M217.069 176.905C217.075 176.859 217.091 176.816 217.115 176.777C217.139 176.738 217.172 176.704 217.21 176.679L218.55 175.796C218.725 175.639 218.955 175.558 219.19 175.571C219.424 175.584 219.644 175.689 219.802 175.864C219.959 176.039 220.04 176.269 220.028 176.504C220.016 176.739 219.911 176.959 219.737 177.117L218.708 178.356C218.678 178.391 218.642 178.42 218.6 178.44C218.559 178.459 218.514 178.47 218.468 178.471C218.422 178.472 218.376 178.463 218.334 178.444C218.292 178.426 218.254 178.399 218.224 178.364L217.148 177.16C217.117 177.125 217.094 177.085 217.081 177.041C217.067 176.997 217.063 176.951 217.069 176.905Z" fill="#E4E4E4"/>
<path d="M221.158 174.557C222.058 174.557 222.788 173.826 222.788 172.925C222.788 172.024 222.058 171.294 221.158 171.294C220.258 171.294 219.529 172.024 219.529 172.925C219.529 173.826 220.258 174.557 221.158 174.557Z" fill="#9E616A"/>
<path d="M222.826 172.693C222.311 172.652 221.884 172.137 221.937 171.623C221.943 171.835 221.871 172.041 221.735 172.204C221.599 172.366 221.408 172.472 221.198 172.503C220.962 172.529 220.703 172.457 220.498 172.576C220.27 172.708 220.197 173.029 219.96 173.143C219.731 173.253 219.44 173.103 219.327 172.875C219.214 172.647 219.241 172.374 219.316 172.131C219.423 171.784 219.618 171.471 219.882 171.222C220.145 170.973 220.469 170.796 220.821 170.709C221.173 170.623 221.541 170.628 221.89 170.726C222.239 170.824 222.557 171.011 222.813 171.269C223.029 171.486 223.201 171.764 223.229 172.07C223.257 172.376 223.115 172.708 222.84 172.846L222.826 172.693Z" fill="#2F2E41"/>
<path d="M203.348 204.757H178.066C178.049 204.757 178.032 204.75 178.019 204.738C178.007 204.725 178 204.708 178 204.691C178 204.673 178.007 204.656 178.019 204.644C178.032 204.631 178.049 204.624 178.066 204.624H203.348C203.365 204.624 203.382 204.631 203.395 204.644C203.407 204.656 203.414 204.673 203.414 204.691C203.414 204.708 203.407 204.725 203.395 204.738C203.382 204.75 203.365 204.757 203.348 204.757Z" fill="#CACACA"/>
</svg>
