<svg width="32" height="32" viewBox="0 0 32 32" fill="none" xmlns="http://www.w3.org/2000/svg">
<rect width="32" height="32" rx="16" fill="#E9F5F8"/>
<g clip-path="url(#clip0_532_5075)">
<path d="M16 8C14.4178 8 12.871 8.46919 11.5554 9.34824C10.2398 10.2273 9.21447 11.4767 8.60897 12.9385C8.00347 14.4003 7.84504 16.0089 8.15372 17.5607C8.4624 19.1126 9.22433 20.538 10.3431 21.6569C11.462 22.7757 12.8874 23.5376 14.4393 23.8463C15.9911 24.155 17.5997 23.9965 19.0615 23.391C20.5233 22.7855 21.7727 21.7602 22.6518 20.4446C23.5308 19.129 24 17.5823 24 16C23.9977 13.879 23.1541 11.8455 21.6543 10.3457C20.1545 8.84589 18.121 8.00229 16 8ZM16 22.6667C14.6815 22.6667 13.3925 22.2757 12.2962 21.5431C11.1999 20.8106 10.3454 19.7694 9.84081 18.5512C9.33622 17.333 9.2042 15.9926 9.46144 14.6994C9.71867 13.4062 10.3536 12.2183 11.286 11.286C12.2183 10.3536 13.4062 9.71867 14.6994 9.46143C15.9926 9.2042 17.3331 9.33622 18.5512 9.8408C19.7694 10.3454 20.8106 11.1999 21.5431 12.2962C22.2757 13.3925 22.6667 14.6815 22.6667 16C22.6647 17.7675 21.9617 19.4621 20.7119 20.7119C19.4621 21.9617 17.7675 22.6647 16 22.6667Z" fill="#219EBC"/>
<path d="M16 11.3334C15.8232 11.3334 15.6537 11.4036 15.5286 11.5286C15.4036 11.6537 15.3334 11.8232 15.3334 12V17.3334C15.3334 17.5102 15.4036 17.6798 15.5286 17.8048C15.6537 17.9298 15.8232 18 16 18C16.1769 18 16.3464 17.9298 16.4714 17.8048C16.5965 17.6798 16.6667 17.5102 16.6667 17.3334V12C16.6667 11.8232 16.5965 11.6537 16.4714 11.5286C16.3464 11.4036 16.1769 11.3334 16 11.3334Z" fill="#219EBC"/>
<path d="M16.6667 20C16.6667 19.6319 16.3682 19.3334 16 19.3334C15.6319 19.3334 15.3334 19.6319 15.3334 20C15.3334 20.3682 15.6319 20.6667 16 20.6667C16.3682 20.6667 16.6667 20.3682 16.6667 20Z" fill="#219EBC"/>
</g>
<defs>
<clipPath id="clip0_532_5075">
<rect width="16" height="16" fill="white" transform="translate(8 8)"/>
</clipPath>
</defs>
</svg>
