<svg width="13" height="14" viewBox="0 0 13 14" fill="none" xmlns="http://www.w3.org/2000/svg">
<path d="M9.75617 1.06322L3.28125 0.747311C2.71795 0.720851 2.16708 0.918367 1.74893 1.29672C1.33079 1.67508 1.07935 2.20352 1.04954 2.76665L0.718558 9.24082C0.705328 9.52246 0.804086 9.7979 0.993263 10.007C1.18244 10.216 1.44666 10.3418 1.72823 10.3567C1.86891 10.3643 2.00971 10.344 2.1425 10.2969C2.2753 10.2498 2.39745 10.1769 2.50192 10.0823C2.6064 9.98781 2.69112 9.87353 2.7512 9.7461C2.81128 9.61866 2.84554 9.48058 2.85199 9.33984L3.09975 4.38029L10.9766 13.0855C11.1665 13.2954 11.432 13.4213 11.7147 13.4354C11.9974 13.4495 12.2742 13.3507 12.4841 13.1608C12.6939 12.9709 12.8198 12.7054 12.8339 12.4227C12.848 12.14 12.7493 11.8633 12.5594 11.6534L4.68252 2.94814L9.64207 3.1959C9.92488 3.21103 10.2021 3.1132 10.4128 2.92392C10.6235 2.73464 10.7503 2.46942 10.7655 2.18661C10.7806 1.9038 10.6828 1.62656 10.4935 1.41588C10.3042 1.20521 10.039 1.07835 9.75617 1.06322Z" fill="#1C86A0"/>
</svg>
