<svg width="12" height="13" viewBox="0 0 12 13" fill="none" xmlns="http://www.w3.org/2000/svg">
<g clip-path="url(#clip0_213_4234)">
<path d="M6 3.5C5.60444 3.5 5.21776 3.6173 4.88886 3.83706C4.55996 4.05682 4.30362 4.36918 4.15224 4.73463C4.00087 5.10009 3.96126 5.50222 4.03843 5.89018C4.1156 6.27814 4.30608 6.63451 4.58579 6.91421C4.86549 7.19392 5.22186 7.3844 5.60982 7.46157C5.99778 7.53874 6.39992 7.49913 6.76537 7.34776C7.13082 7.19638 7.44318 6.94004 7.66294 6.61114C7.8827 6.28224 8 5.89556 8 5.5C8 4.96957 7.78929 4.46086 7.41421 4.08579C7.03914 3.71071 6.53043 3.5 6 3.5ZM6 6.5C5.80222 6.5 5.60888 6.44135 5.44443 6.33147C5.27998 6.22159 5.15181 6.06541 5.07612 5.88268C5.00043 5.69996 4.98063 5.49889 5.01922 5.30491C5.0578 5.11093 5.15304 4.93275 5.29289 4.79289C5.43275 4.65304 5.61093 4.5578 5.80491 4.51921C5.99889 4.48063 6.19996 4.50043 6.38268 4.57612C6.56541 4.65181 6.72159 4.77998 6.83147 4.94443C6.94135 5.10888 7 5.30222 7 5.5C7 5.76522 6.89464 6.01957 6.70711 6.20711C6.51957 6.39464 6.26522 6.5 6 6.5Z" fill="#6B737F"/>
<path d="M6.00003 12.5C5.57901 12.5022 5.16359 12.4034 4.78857 12.212C4.41354 12.0207 4.08983 11.7422 3.84453 11.4C1.93903 8.77152 0.972534 6.79552 0.972534 5.52652C0.972534 4.19315 1.50222 2.91438 2.44505 1.97154C3.38789 1.02871 4.66666 0.499023 6.00003 0.499023C7.33341 0.499023 8.61217 1.02871 9.55501 1.97154C10.4979 2.91438 11.0275 4.19315 11.0275 5.52652C11.0275 6.79552 10.061 8.77152 8.15553 11.4C7.91024 11.7422 7.58652 12.0207 7.2115 12.212C6.83648 12.4034 6.42106 12.5022 6.00003 12.5ZM6.00003 1.59052C4.95624 1.59171 3.95554 2.00689 3.21747 2.74496C2.4794 3.48303 2.06423 4.48373 2.06303 5.52752C2.06303 6.53252 3.00953 8.39102 4.72753 10.7605C4.87338 10.9614 5.06472 11.1249 5.28589 11.2377C5.50706 11.3504 5.75179 11.4092 6.00003 11.4092C6.24828 11.4092 6.49301 11.3504 6.71418 11.2377C6.93535 11.1249 7.12669 10.9614 7.27253 10.7605C8.99053 8.39102 9.93703 6.53252 9.93703 5.52752C9.93584 4.48373 9.52067 3.48303 8.7826 2.74496C8.04453 2.00689 7.04383 1.59171 6.00003 1.59052Z" fill="#6B737F"/>
</g>
<defs>
<clipPath id="clip0_213_4234">
<rect width="12" height="12" fill="white" transform="translate(0 0.5)"/>
</clipPath>
</defs>
</svg>
