<svg width="23" height="24" viewBox="0 0 23 24" fill="none" xmlns="http://www.w3.org/2000/svg">
<path d="M7.85212 0C8.54334 0.400203 9.23716 0.796023 9.92515 1.20124C10.3074 1.4267 10.4097 1.81375 10.1921 2.19454C9.84482 2.80268 9.49305 3.4083 9.13546 4.0108C8.91131 4.38846 8.47856 4.50745 8.12032 4.30391C7.77179 4.106 7.66684 3.69452 7.87155 3.3225C7.93569 3.20601 8.00436 3.09202 8.07885 2.96363C7.95836 2.93357 7.87544 2.99244 7.79381 3.02626C4.2405 4.48115 2.09685 7.03957 1.55333 10.7353C0.891252 15.234 3.59851 19.4891 8.00954 21.0536C8.54075 21.2421 9.08622 21.3792 9.64335 21.4788C10.1279 21.5653 10.389 21.936 10.2808 22.3588C10.1869 22.7264 9.81891 22.9431 9.39653 22.8667C6.82596 22.3982 4.64409 21.244 2.90534 19.3519C0.864044 17.133 -0.0876092 14.5157 0.00632524 11.552C0.144959 7.16295 3.16123 3.16029 7.44528 1.64778C7.51849 1.62211 7.59947 1.61271 7.67591 1.5338C7.38244 1.33464 7.01189 1.21126 6.95488 0.802912C6.90694 0.457197 7.07149 0.20793 7.51266 0C7.62603 0 7.73875 0 7.85212 0Z" fill="#858585"/>
<path d="M11.3757 18.1886C10.22 18.1886 9.06431 18.1898 7.90859 18.1886C6.65959 18.1867 5.81353 17.3675 5.81159 16.155C5.80964 14.7408 5.81677 13.3266 5.80899 11.9124C5.80511 11.1346 6.12902 10.5384 6.81766 10.1388C6.94787 10.063 6.9375 9.96905 6.93426 9.86321C6.91548 9.18618 6.98674 8.52419 7.24911 7.88724C7.99086 6.08602 9.94794 4.9568 11.8558 5.1735C14.0078 5.41838 15.6177 7.07995 15.8179 9.00393C15.8496 9.30831 15.849 9.61206 15.847 9.91644C15.8464 10.021 15.8788 10.083 15.9746 10.14C16.66 10.5465 16.9794 11.1434 16.9749 11.92C16.9671 13.326 16.9742 14.7327 16.9723 16.1387C16.9703 17.38 16.1314 18.1867 14.8429 18.1873C13.6872 18.1879 12.5315 18.1873 11.3757 18.1873V18.1886ZM11.3855 11.2887C10.2388 11.2887 9.09152 11.288 7.94487 11.2887C7.44021 11.2887 7.26465 11.4615 7.26465 11.9557C7.26465 13.3454 7.26401 14.7352 7.26465 16.1255C7.26465 16.5984 7.45188 16.7819 7.93386 16.7819C10.2356 16.7819 12.5373 16.7819 14.8397 16.7819C15.3275 16.7819 15.5199 16.6003 15.5199 16.1356C15.5212 14.7377 15.5205 13.3404 15.5199 11.9425C15.5199 11.4659 15.3391 11.2893 14.8507 11.2887C13.6956 11.2874 12.5405 11.2887 11.3855 11.2887ZM11.3919 9.88262H13.9107C14.2411 9.88262 14.4024 9.72187 14.3946 9.40038C14.3512 7.55969 12.5418 6.21065 10.6975 6.64405C9.25218 6.9835 8.29793 8.26239 8.38409 9.72793C8.39446 9.90517 8.49487 9.88262 8.60694 9.88262C9.53528 9.88262 10.4636 9.88262 11.3919 9.88262Z" fill="#858585"/>
<path d="M15.0791 22.4538C15.2359 22.5477 15.3583 22.6166 15.4769 22.6918C15.8377 22.9216 15.9427 23.3394 15.7263 23.6725C15.5158 23.997 15.0888 24.0991 14.7267 23.893C14.0938 23.5323 13.4654 23.164 12.8409 22.7901C12.4846 22.5772 12.3783 22.1845 12.5798 21.8306C12.9342 21.2081 13.2937 20.5893 13.661 19.9743C13.8787 19.6098 14.3082 19.4983 14.6619 19.6974C15.0033 19.8897 15.116 20.2956 14.9256 20.6569C14.8602 20.7816 14.7863 20.9018 14.715 21.0271C14.8103 21.0859 14.8789 21.0208 14.9444 20.9945C18.5314 19.5427 20.6925 16.9718 21.2341 13.2453C21.9311 8.44979 18.786 3.95737 13.9467 2.69601C13.6824 2.62711 13.4123 2.57826 13.1434 2.52628C12.6841 2.43734 12.4153 2.09288 12.4956 1.69017C12.5772 1.28183 12.9549 1.04759 13.4116 1.14029C17.6017 1.98704 20.5416 4.31373 22.0685 8.18048C24.2931 13.8128 21.2652 20.1935 15.4302 22.321C15.3279 22.3586 15.2268 22.3987 15.0804 22.4544L15.0791 22.4538Z" fill="#858585"/>
<path d="M12.1183 14.0449C12.1183 14.209 12.1247 14.3731 12.117 14.5372C12.0982 14.9199 11.7814 15.2217 11.3998 15.2268C11.0118 15.2324 10.6794 14.9224 10.6684 14.5284C10.6587 14.2009 10.6594 13.8721 10.6684 13.5445C10.6794 13.1462 11.0021 12.8437 11.3972 12.8462C11.793 12.8487 12.104 13.1512 12.1183 13.5533C12.1241 13.7174 12.1189 13.8815 12.1183 14.0456V14.0449Z" fill="#858585"/>
</svg>
