<svg width="14" height="14" viewBox="0 0 14 14" fill="none" xmlns="http://www.w3.org/2000/svg">
<g clip-path="url(#clip0_378_4418)">
<path d="M11.0834 4.914V4.08333C11.0834 3.00037 10.6532 1.96175 9.88743 1.19598C9.12166 0.430207 8.08305 0 7.00008 0C5.91711 0 4.8785 0.430207 4.11273 1.19598C3.34696 1.96175 2.91675 3.00037 2.91675 4.08333V4.914C2.39721 5.14074 1.955 5.51397 1.64421 5.98804C1.33341 6.46211 1.16749 7.01647 1.16675 7.58333V11.0833C1.16767 11.8566 1.47526 12.5979 2.02204 13.1447C2.56882 13.6915 3.31015 13.9991 4.08342 14H9.91675C10.69 13.9991 11.4313 13.6915 11.9781 13.1447C12.5249 12.5979 12.8325 11.8566 12.8334 11.0833V7.58333C12.8327 7.01647 12.6668 6.46211 12.356 5.98804C12.0452 5.51397 11.603 5.14074 11.0834 4.914ZM4.08342 4.08333C4.08342 3.30979 4.39071 2.56792 4.93769 2.02094C5.48467 1.47396 6.22653 1.16667 7.00008 1.16667C7.77363 1.16667 8.5155 1.47396 9.06248 2.02094C9.60946 2.56792 9.91675 3.30979 9.91675 4.08333V4.66667H4.08342V4.08333ZM11.6667 11.0833C11.6667 11.5475 11.4824 11.9926 11.1542 12.3208C10.826 12.649 10.3809 12.8333 9.91675 12.8333H4.08342C3.61929 12.8333 3.17417 12.649 2.84598 12.3208C2.51779 11.9926 2.33341 11.5475 2.33341 11.0833V7.58333C2.33341 7.1192 2.51779 6.67408 2.84598 6.3459C3.17417 6.01771 3.61929 5.83333 4.08342 5.83333H9.91675C10.3809 5.83333 10.826 6.01771 11.1542 6.3459C11.4824 6.67408 11.6667 7.1192 11.6667 7.58333V11.0833Z" fill="#219EBC"/>
<path d="M7.00008 8.1665C6.84537 8.1665 6.697 8.22796 6.5876 8.33736C6.47821 8.44675 6.41675 8.59513 6.41675 8.74984V9.9165C6.41675 10.0712 6.47821 10.2196 6.5876 10.329C6.697 10.4384 6.84537 10.4998 7.00008 10.4998C7.15479 10.4998 7.30316 10.4384 7.41256 10.329C7.52196 10.2196 7.58341 10.0712 7.58341 9.9165V8.74984C7.58341 8.59513 7.52196 8.44675 7.41256 8.33736C7.30316 8.22796 7.15479 8.1665 7.00008 8.1665Z" fill="#219EBC"/>
</g>
<defs>
<clipPath id="clip0_378_4418">
<rect width="14" height="14" fill="white"/>
</clipPath>
</defs>
</svg>
