<svg width="15" height="14" viewBox="0 0 15 14" fill="none" xmlns="http://www.w3.org/2000/svg">
<g clip-path="url(#clip0_197_3442)">
<path d="M7.19433 8.75C7.03962 8.75 6.89125 8.81146 6.78185 8.92085C6.67246 9.03025 6.611 9.17862 6.611 9.33333V11.0833C6.611 11.5475 6.42663 11.9926 6.09844 12.3208C5.77025 12.649 5.32513 12.8333 4.861 12.8333H3.41667C2.95254 12.8333 2.50742 12.649 2.17923 12.3208C1.85104 11.9926 1.66667 11.5475 1.66667 11.0833V2.91667C1.66667 2.45254 1.85104 2.00742 2.17923 1.67923C2.50742 1.35104 2.95254 1.16667 3.41667 1.16667H4.861C5.32513 1.16667 5.77025 1.35104 6.09844 1.67923C6.42663 2.00742 6.611 2.45254 6.611 2.91667V4.66667C6.611 4.82138 6.67246 4.96975 6.78185 5.07915C6.89125 5.18854 7.03962 5.25 7.19433 5.25C7.34904 5.25 7.49742 5.18854 7.60681 5.07915C7.71621 4.96975 7.77767 4.82138 7.77767 4.66667V2.91667C7.77674 2.1434 7.46915 1.40208 6.92237 0.855295C6.37559 0.308514 5.63426 0.00092625 4.861 0H3.41667C2.6434 0.00092625 1.90208 0.308514 1.35529 0.855295C0.808514 1.40208 0.500926 2.1434 0.5 2.91667L0.5 11.0833C0.500926 11.8566 0.808514 12.5979 1.35529 13.1447C1.90208 13.6915 2.6434 13.9991 3.41667 14H4.861C5.63426 13.9991 6.37559 13.6915 6.92237 13.1447C7.46915 12.5979 7.77674 11.8566 7.77767 11.0833V9.33333C7.77767 9.17862 7.71621 9.03025 7.60681 8.92085C7.49742 8.81146 7.34904 8.75 7.19433 8.75Z" fill="#219EBC"/>
<path d="M13.8392 5.76292L11.164 3.08775C11.1102 3.03204 11.0458 2.9876 10.9747 2.95703C10.9035 2.92646 10.8269 2.91036 10.7495 2.90969C10.672 2.90902 10.5952 2.92378 10.5235 2.95311C10.4518 2.98244 10.3867 3.02575 10.3319 3.08052C10.2772 3.13529 10.2339 3.20042 10.2045 3.27211C10.1752 3.3438 10.1604 3.42062 10.1611 3.49807C10.1618 3.57552 10.1779 3.65207 10.2084 3.72324C10.239 3.79441 10.2835 3.85878 10.3392 3.91259L12.8253 6.39934L4.00008 6.41684C3.84537 6.41684 3.697 6.47829 3.5876 6.58769C3.47821 6.69709 3.41675 6.84546 3.41675 7.00017C3.41675 7.15488 3.47821 7.30325 3.5876 7.41265C3.697 7.52204 3.84537 7.5835 4.00008 7.5835L12.8597 7.56542L10.338 10.0878C10.2823 10.1416 10.2378 10.2059 10.2073 10.2771C10.1767 10.3483 10.1606 10.4248 10.1599 10.5023C10.1593 10.5797 10.174 10.6565 10.2034 10.7282C10.2327 10.7999 10.276 10.865 10.3308 10.9198C10.3855 10.9746 10.4507 11.0179 10.5224 11.0472C10.594 11.0766 10.6709 11.0913 10.7483 11.0906C10.8258 11.09 10.9023 11.0739 10.9735 11.0433C11.0447 11.0127 11.109 10.9683 11.1628 10.9126L13.838 8.23742C14.1662 7.9094 14.3507 7.46445 14.351 7.00041C14.3512 6.53637 14.1671 6.09125 13.8392 5.76292Z" fill="#219EBC"/>
</g>
<defs>
<clipPath id="clip0_197_3442">
<rect width="14" height="14" fill="white" transform="translate(0.5)"/>
</clipPath>
</defs>
</svg>
