<svg width="14" height="14" viewBox="0 0 14 14" fill="none" xmlns="http://www.w3.org/2000/svg">
<g clip-path="url(#clip0_459_4468)">
<path d="M6.9999 9.33333C5.71307 9.33333 4.66657 8.28683 4.66657 7C4.66657 5.71317 5.71307 4.66667 6.9999 4.66667C8.28674 4.66667 9.33324 5.71317 9.33324 7C9.33324 8.28683 8.28674 9.33333 6.9999 9.33333ZM6.9999 5.83333C6.35649 5.83333 5.83324 6.35658 5.83324 7C5.83324 7.64342 6.35649 8.16667 6.9999 8.16667C7.64332 8.16667 8.16657 7.64342 8.16657 7C8.16657 6.35658 7.64332 5.83333 6.9999 5.83333ZM2.91657 4.08333C2.59457 4.08333 2.33324 4.34467 2.33324 4.66667C2.33324 4.98867 2.59457 5.25 2.91657 5.25C3.23857 5.25 3.4999 4.98867 3.4999 4.66667C3.4999 4.34467 3.23857 4.08333 2.91657 4.08333ZM10.4999 5.83333C10.4999 6.15533 10.7612 6.41667 11.0832 6.41667C11.4052 6.41667 11.6666 6.15533 11.6666 5.83333C11.6666 5.51133 11.4052 5.25 11.0832 5.25C10.7612 5.25 10.4999 5.51133 10.4999 5.83333ZM2.91657 7.58333C2.59457 7.58333 2.33324 7.84467 2.33324 8.16667C2.33324 8.48867 2.59457 8.75 2.91657 8.75C3.23857 8.75 3.4999 8.48867 3.4999 8.16667C3.4999 7.84467 3.23857 7.58333 2.91657 7.58333ZM10.4999 9.33333C10.4999 9.65533 10.7612 9.91667 11.0832 9.91667C11.4052 9.91667 11.6666 9.65533 11.6666 9.33333C11.6666 9.01133 11.4052 8.75 11.0832 8.75C10.7612 8.75 10.4999 9.01133 10.4999 9.33333ZM9.91599 12.25C8.96282 12.25 8.10882 12.0173 7.2834 11.7921C6.49707 11.5774 5.75507 11.375 4.95824 11.375C4.04182 11.375 3.46374 11.4339 2.96382 11.5786C2.26032 11.781 1.52065 11.6445 0.933821 11.2029C0.340572 10.7567 0.000488281 10.0753 0.000488281 9.33333V4.93033C0.000488281 3.72692 0.758238 2.62967 1.8864 2.19975C2.66865 1.90108 3.40832 1.75 4.0844 1.75C5.03757 1.75 5.89099 1.98275 6.71699 2.20792C7.50332 2.42258 8.24532 2.625 9.04215 2.625C9.95799 2.625 10.5367 2.56608 11.0366 2.42142C11.7412 2.219 12.4809 2.3555 13.0672 2.79708C13.6604 3.24333 14.0005 3.92467 14.0005 4.66667V9.06967C14.0005 10.2731 13.2422 11.3703 12.114 11.8003C11.3317 12.0989 10.5927 12.25 9.91599 12.25ZM4.95824 10.2083C5.9114 10.2083 6.76482 10.4411 7.59082 10.6662C8.37715 10.8809 9.11915 11.0833 9.91599 11.0833C10.4492 11.0833 11.0488 10.9579 11.6987 10.71C12.3887 10.4475 12.8338 9.8035 12.8338 9.06967V4.66667C12.8338 4.29508 12.6629 3.95325 12.3654 3.72983C12.0743 3.51108 11.7086 3.44225 11.3592 3.54258C10.7461 3.71933 10.0747 3.79167 9.04099 3.79167C8.08782 3.79167 7.2344 3.55892 6.4084 3.33375C5.62207 3.11908 4.88007 2.91667 4.08324 2.91667C3.54949 2.91667 2.9504 3.04208 2.30057 3.29C1.61049 3.5525 1.1654 4.1965 1.1654 4.93033V9.33333C1.1654 9.70492 1.33632 10.0468 1.63382 10.2702C1.9249 10.4889 2.29065 10.5577 2.63949 10.4568C3.25257 10.2801 3.92457 10.2078 4.95765 10.2078L4.95824 10.2083Z" fill="#219EBC"/>
</g>
<defs>
<clipPath id="clip0_459_4468">
<rect width="14" height="14" fill="white"/>
</clipPath>
</defs>
</svg>
