<svg width="14" height="15" viewBox="0 0 14 15" fill="none" xmlns="http://www.w3.org/2000/svg">
<path d="M7.26875 13.7708C7.16958 13.7708 7.07042 13.7708 6.97125 13.765C3.70458 13.6191 0.974584 10.9883 0.747084 7.77997C0.548751 5.02664 2.14125 2.45414 4.70792 1.37498C5.43708 1.07164 5.82208 1.30498 5.98542 1.47414C6.14875 1.63748 6.37625 2.01664 6.07292 2.71081C5.80458 3.32914 5.67042 3.98831 5.67625 4.66498C5.68792 7.24914 7.83458 9.44248 10.4538 9.54748C10.8329 9.56498 11.2063 9.53581 11.5679 9.47164C12.3379 9.33164 12.6588 9.64081 12.7813 9.83914C12.9038 10.0375 13.0438 10.4633 12.5771 11.0933C11.3404 12.785 9.37458 13.7708 7.26875 13.7708ZM1.61625 7.71581C1.81458 10.4925 4.18292 12.7675 7.00625 12.89C8.92542 12.9833 10.7454 12.1083 11.8654 10.58C11.9529 10.4575 11.9938 10.37 12.0113 10.3233C11.9588 10.3175 11.8654 10.3116 11.7196 10.3408C11.2938 10.4166 10.8504 10.4458 10.4129 10.4283C7.33292 10.3058 4.81292 7.72164 4.79542 4.67664C4.79542 3.87164 4.95292 3.09581 5.27375 2.36664C5.33208 2.23831 5.34375 2.15081 5.34958 2.10414C5.29708 2.10414 5.20375 2.11581 5.05208 2.17998C2.82958 3.11331 1.45292 5.34164 1.61625 7.71581Z" fill="#F7FCFF"/>
</svg>
