<svg width="35" height="35" viewBox="0 0 35 35" fill="none" xmlns="http://www.w3.org/2000/svg">
<circle cx="17.5" cy="17.5" r="17.5" fill="url(#paint0_linear_93_1980)"/>
<path d="M24.4563 25.375C22.575 25.375 20.7413 24.9556 18.9551 24.1168C17.169 23.2779 15.5867 22.1696 14.2083 20.7917C12.8298 19.4139 11.7215 17.8316 10.8833 16.0449C10.045 14.2581 9.62558 12.4244 9.625 10.5438C9.625 10.2813 9.7125 10.0625 9.8875 9.8875C10.0625 9.7125 10.2813 9.625 10.5438 9.625H14.0875C14.2917 9.625 14.474 9.69062 14.6344 9.82187C14.7948 9.95312 14.8896 10.1208 14.9188 10.325L15.4875 13.3875C15.5167 13.5917 15.5129 13.7778 15.4761 13.9458C15.4394 14.1137 15.3557 14.2631 15.225 14.3937L13.125 16.5375C13.7375 17.5875 14.5031 18.5719 15.4219 19.4906C16.3406 20.4094 17.3542 21.2042 18.4625 21.875L20.5188 19.8187C20.65 19.6875 20.8215 19.5892 21.0332 19.5239C21.245 19.4585 21.4527 19.4402 21.6562 19.4688L24.675 20.0813C24.8792 20.125 25.0469 20.2236 25.1781 20.377C25.3094 20.5304 25.375 20.7089 25.375 20.9125V24.4563C25.375 24.7188 25.2875 24.9375 25.1125 25.1125C24.9375 25.2875 24.7188 25.375 24.4563 25.375Z" fill="white"/>
<defs>
<linearGradient id="paint0_linear_93_1980" x1="17.5" y1="0" x2="17.5" y2="35" gradientUnits="userSpaceOnUse">
<stop stop-color="#FFA13C"/>
<stop offset="1" stop-color="#FF7334"/>
</linearGradient>
</defs>
</svg>
