<svg width="21" height="24" viewBox="0 0 21 24" fill="none" xmlns="http://www.w3.org/2000/svg">
<path d="M10.1318 23.9984C7.85205 23.9652 5.53287 23.6925 3.31665 22.8334C2.36606 22.4651 1.47508 21.9904 0.773752 21.2261C0.249691 20.6551 -0.0204653 19.9925 0.00120929 19.2089C0.0770703 16.5052 1.05242 14.1806 2.9505 12.2428C3.34606 11.839 3.91657 11.8205 4.29433 12.185C4.67673 12.5541 4.68292 13.1119 4.27884 13.5226C3.00391 14.8209 2.21898 16.3604 1.9465 18.1556C1.89928 18.4685 1.89541 18.7874 1.85594 19.1018C1.79865 19.5603 2.00069 19.8993 2.32968 20.1882C2.88238 20.6729 3.53649 20.9795 4.22079 21.2207C6.51287 22.0305 8.88624 22.2285 11.296 22.1199C12.9611 22.0444 14.5967 21.7924 16.172 21.2253C16.7448 21.0188 17.2898 20.7561 17.7953 20.4124C18.3665 20.0249 18.6026 19.5264 18.5361 18.819C18.3441 16.7695 17.5716 14.9989 16.117 13.5311C15.8879 13.2991 15.747 13.0364 15.7911 12.7058C15.8407 12.3306 16.0481 12.0671 16.4089 11.9415C16.7851 11.8105 17.1117 11.9122 17.3889 12.1858C18.3681 13.152 19.1205 14.27 19.6422 15.5398C20.1144 16.6894 20.3474 17.8875 20.397 19.128C20.4349 20.0711 20.0734 20.8285 19.3969 21.4572C18.5454 22.2486 17.5119 22.7147 16.4236 23.0738C14.4063 23.7395 12.3232 23.9745 10.1294 23.9999L10.1318 23.9984Z" fill="#858585"/>
<path d="M3.70984 6.44836C3.70752 2.91021 6.61888 0.00540107 10.1735 7.53059e-06C13.8094 -0.00538601 16.6906 2.88709 16.6875 6.54083C16.6852 10.0212 13.7374 12.9245 10.2114 12.9191C6.61424 12.9129 3.71294 10.0258 3.70984 6.44836ZM5.56379 6.43681C5.56224 8.98564 7.62597 11.0668 10.1611 11.0722C12.7512 11.0776 14.8312 9.02108 14.8328 6.45299C14.8343 3.90801 12.7512 1.84614 10.1782 1.84537C7.65384 1.84537 5.56457 3.92342 5.56379 6.43604V6.43681Z" fill="#858585"/>
</svg>
