<svg width="12" height="16" viewBox="0 0 12 16" fill="none" xmlns="http://www.w3.org/2000/svg">
<path d="M5.99988 7.99976C6.79098 7.99976 7.56432 7.76518 8.2221 7.32566C8.87987 6.88615 9.39255 6.26145 9.69529 5.53057C9.99803 4.79969 10.0772 3.99545 9.92291 3.21955C9.76857 2.44364 9.38762 1.73093 8.82823 1.17154C8.26883 0.612146 7.55612 0.231195 6.78022 0.0768584C6.00432 -0.0774779 5.20008 0.00173309 4.46919 0.304475C3.73831 0.607216 3.11361 1.11989 2.6741 1.77767C2.23459 2.43545 2 3.20878 2 3.99988C2.00106 5.06039 2.42281 6.07716 3.17271 6.82706C3.9226 7.57695 4.93937 7.99871 5.99988 7.99976ZM5.99988 1.3333C6.52728 1.3333 7.04284 1.48969 7.48136 1.7827C7.91988 2.07571 8.26166 2.49217 8.46349 2.97942C8.66532 3.46668 8.71812 4.00284 8.61523 4.52011C8.51234 5.03738 8.25837 5.51252 7.88544 5.88545C7.51251 6.25837 7.03737 6.51234 6.52011 6.61523C6.00284 6.71812 5.46668 6.66532 4.97942 6.46349C4.49217 6.26166 4.0757 5.91988 3.7827 5.48136C3.48969 5.04284 3.33329 4.52728 3.33329 3.99988C3.33329 3.29266 3.61424 2.6144 4.11432 2.11432C4.6144 1.61424 5.29266 1.3333 5.99988 1.3333Z" fill="#219EBC"/>
<path d="M5.99982 9.33398C4.40911 9.33575 2.88406 9.96844 1.75926 11.0932C0.634454 12.218 0.00176452 13.7431 0 15.3338C0 15.5106 0.0702358 15.6802 0.195256 15.8052C0.320277 15.9302 0.489841 16.0005 0.666647 16.0005C0.843453 16.0005 1.01302 15.9302 1.13804 15.8052C1.26306 15.6802 1.33329 15.5106 1.33329 15.3338C1.33329 14.0962 1.82494 12.9092 2.70009 12.0341C3.57523 11.1589 4.76218 10.6673 5.99982 10.6673C7.23746 10.6673 8.42441 11.1589 9.29956 12.0341C10.1747 12.9092 10.6664 14.0962 10.6664 15.3338C10.6664 15.5106 10.7366 15.6802 10.8616 15.8052C10.9866 15.9302 11.1562 16.0005 11.333 16.0005C11.5098 16.0005 11.6794 15.9302 11.8044 15.8052C11.9294 15.6802 11.9996 15.5106 11.9996 15.3338C11.9979 13.7431 11.3652 12.218 10.2404 11.0932C9.11559 9.96844 7.59053 9.33575 5.99982 9.33398Z" fill="#219EBC"/>
</svg>
