<svg width="12" height="16" viewBox="0 0 12 16" fill="none" xmlns="http://www.w3.org/2000/svg">
<path d="M6.00001 13.3331C5.63201 13.3331 5.33335 13.0351 5.33335 12.6664C5.33335 11.1211 6.25468 9.76177 7.92735 8.8391C9.45201 7.9991 10.24 6.33577 9.93535 4.60243C9.65335 2.9971 8.33601 1.6791 6.73002 1.3971C5.52202 1.1851 4.35001 1.4951 3.42868 2.26843C2.52002 3.0311 1.99935 4.14843 1.99935 5.3331C1.99935 5.7011 1.70068 5.99977 1.33268 5.99977C0.964682 5.99977 0.666016 5.7011 0.666016 5.3331C0.666016 3.7531 1.36068 2.26377 2.57135 1.2471C3.78202 0.2311 5.38268 -0.1929 6.96068 0.0837665C9.10868 0.460433 10.8713 2.22377 11.2487 4.37177C11.6473 6.63977 10.5707 8.90377 8.57135 10.0071C7.70268 10.4858 6.66668 11.3358 6.66668 12.6664C6.66668 13.0351 6.36801 13.3331 6.00001 13.3331ZM5.00001 14.9998C5.00001 15.5518 5.44801 15.9998 6.00001 15.9998C6.55201 15.9998 7.00001 15.5518 7.00001 14.9998C7.00001 14.4478 6.55201 13.9998 6.00001 13.9998C5.44801 13.9998 5.00001 14.4478 5.00001 14.9998Z" fill="#219EBC"/>
</svg>
