<svg width="15" height="10" viewBox="0 0 15 10" fill="none" xmlns="http://www.w3.org/2000/svg">
<path d="M13.0579 0.584755L4.99686 8.64525C4.94266 8.69967 4.87825 8.74284 4.80733 8.7723C4.7364 8.80176 4.66036 8.81692 4.58356 8.81692C4.50677 8.81692 4.43072 8.80176 4.3598 8.7723C4.28888 8.74284 4.22447 8.69967 4.17027 8.64525L1.05294 5.525C0.998742 5.47059 0.934334 5.42742 0.863411 5.39796C0.792488 5.3685 0.716446 5.35334 0.639648 5.35334C0.56285 5.35334 0.486808 5.3685 0.415885 5.39796C0.344961 5.42742 0.280553 5.47059 0.226356 5.525C0.171945 5.5792 0.128771 5.64361 0.0993115 5.71453C0.0698522 5.78546 0.0546875 5.8615 0.0546875 5.9383C0.0546875 6.01509 0.0698522 6.09114 0.0993115 6.16206C0.128771 6.23298 0.171945 6.29739 0.226356 6.35159L3.34486 9.4695C3.67383 9.79786 4.11964 9.98228 4.58444 9.98228C5.04924 9.98228 5.49505 9.79786 5.82402 9.4695L13.8845 1.41075C13.9388 1.35657 13.9819 1.2922 14.0114 1.22133C14.0408 1.15046 14.0559 1.07448 14.0559 0.997755C14.0559 0.921026 14.0408 0.845051 14.0114 0.774182C13.9819 0.703313 13.9388 0.638941 13.8845 0.584755C13.8303 0.530343 13.7659 0.487169 13.695 0.45771C13.6241 0.428251 13.548 0.413086 13.4712 0.413086C13.3944 0.413086 13.3184 0.428251 13.2475 0.45771C13.1765 0.487169 13.1121 0.530343 13.0579 0.584755Z" fill="#219EBC"/>
</svg>
