<svg width="234" height="202" viewBox="0 0 234 202" fill="none" xmlns="http://www.w3.org/2000/svg">
<path d="M85.064 174.564L85.0417 170.816L84.7102 115.218L84.6978 113.137L84.5154 82.5367C81.7773 80.8187 78.9187 79.2995 75.9615 77.9912C64.3763 72.8766 50.6011 70.7675 39.1948 76.2646C33.1053 79.3133 28.3942 84.5406 26.003 90.902C25.9357 91.0701 25.8735 91.2329 25.8167 91.3957C23.9144 96.8051 23.9284 102.68 26.7133 107.753C31.6986 116.868 42.8476 120.235 52.7498 123.452C62.6468 126.669 73.623 131.908 76.0908 141.992C74.0123 139.445 71.2911 137.496 68.2067 136.345C65.1224 135.193 61.7862 134.882 58.5409 135.441C55.2957 136.001 52.2585 137.412 49.7415 139.53C47.2245 141.647 45.3184 144.395 44.2192 147.49C44.0382 147.994 43.873 148.504 43.7289 149.018C43.3842 150.254 43.1767 151.524 43.1101 152.806C42.627 162.583 50.144 171.343 59.0632 175.446C67.1284 179.151 76.1798 179.857 85.0977 180.213L85.064 174.564Z" fill="#E9F5F8"/>
<path d="M85.0418 170.817L85.0641 174.564C83.0671 169.46 80.0531 164.813 76.2042 160.903C72.3553 156.993 67.7514 153.901 62.6705 151.815C56.6656 149.408 50.1755 148.45 43.7288 149.018C43.8731 148.504 44.0382 147.994 44.2192 147.49C46.7238 147.313 49.2391 147.35 51.7372 147.603C60.6524 148.508 69.0389 152.249 75.6567 158.273C79.5366 161.839 82.7188 166.093 85.0418 170.817Z" fill="white"/>
<path d="M84.6979 113.137L84.7103 115.218C82.6199 113.21 80.3652 111.379 77.9697 109.744C70.5269 104.637 62.1193 100.777 53.5857 97.8871C44.8397 94.9106 35.7611 93.0125 26.5525 92.2352C26.3452 92.2162 26.1531 92.1185 26.0161 91.9622C25.8791 91.8059 25.8077 91.6031 25.8167 91.3957C25.8109 91.2131 25.8779 91.0356 26.0029 90.902C26.0683 90.8397 26.1476 90.7937 26.2342 90.7676C26.3209 90.7416 26.4125 90.7364 26.5015 90.7523C27.6377 90.8451 28.7685 90.9485 29.9046 91.078C39.3309 92.1387 48.5885 94.3636 57.4642 97.7017C66.0312 100.911 74.5037 105.053 81.7445 110.681C82.7638 111.456 83.7518 112.273 84.6979 113.137Z" fill="white"/>
<path d="M35.4437 66.8939C37.1856 66.8939 38.5978 65.4861 38.5978 63.7495C38.5978 62.0128 37.1856 60.605 35.4437 60.605C33.7017 60.605 32.2896 62.0128 32.2896 63.7495C32.2896 65.4861 33.7017 66.8939 35.4437 66.8939Z" fill="#BDF2FF"/>
<path d="M159.508 20.0414C161.25 20.0414 162.662 18.6336 162.662 16.8969C162.662 15.1603 161.25 13.7524 159.508 13.7524C157.766 13.7524 156.354 15.1603 156.354 16.8969C156.354 18.6336 157.766 20.0414 159.508 20.0414Z" fill="#FFC794"/>
<path d="M164.748 76.7919H163.847V52.1893C163.847 50.3193 163.477 48.4677 162.76 46.7401C162.042 45.0125 160.99 43.4428 159.664 42.1206C158.337 40.7983 156.763 39.7495 155.03 39.0339C153.297 38.3183 151.44 37.95 149.564 37.95H97.2805C93.4924 37.9499 89.8595 39.4502 87.1809 42.1205C84.5024 44.7909 82.9976 48.4127 82.9976 52.1892V187.161C82.9976 190.938 84.5024 194.559 87.1809 197.23C89.8595 199.9 93.4924 201.4 97.2805 201.4H149.564C153.352 201.4 156.985 199.9 159.664 197.23C162.342 194.559 163.847 190.938 163.847 187.161V94.3044H164.748V76.7919Z" fill="#3F3D56"/>
<path d="M160.807 52.2884V187.063C160.807 187.26 160.802 187.454 160.79 187.649C160.64 190.364 159.453 192.918 157.472 194.787C155.491 196.656 152.867 197.697 150.139 197.696H97.6051C94.8713 197.696 92.2416 196.65 90.2595 194.773C88.2773 192.896 87.0942 190.331 86.9547 187.61C86.9448 187.43 86.9398 187.248 86.9398 187.063V52.2884C86.9395 49.4681 88.063 46.7632 90.0631 44.7687C92.0633 42.7742 94.7762 41.6535 97.6051 41.6531H103.98C103.666 42.4202 103.546 43.2524 103.631 44.0765C103.716 44.9007 104.002 45.6914 104.466 46.3791C104.929 47.0668 105.555 47.6304 106.288 48.0202C107.022 48.41 107.84 48.614 108.671 48.6144H138.624C139.455 48.614 140.273 48.4099 141.006 48.02C141.74 47.6302 142.366 47.0667 142.829 46.379C143.292 45.6913 143.579 44.9006 143.664 44.0765C143.748 43.2524 143.628 42.4202 143.315 41.6531H150.139C152.968 41.6534 155.682 42.7739 157.682 44.7684C159.683 46.7628 160.807 49.4678 160.807 52.2884Z" fill="white"/>
<path d="M159.837 153.931H87.9084C87.6557 153.931 87.4135 153.831 87.2348 153.653C87.0561 153.474 86.9556 153.233 86.9553 152.981V65.0045C86.9556 64.7526 87.0561 64.5111 87.2348 64.333C87.4135 64.1549 87.6557 64.0547 87.9084 64.0544H159.837C160.09 64.0547 160.332 64.1549 160.511 64.333C160.689 64.5111 160.79 64.7526 160.79 65.0045V152.981C160.79 153.233 160.689 153.474 160.511 153.653C160.332 153.831 160.09 153.931 159.837 153.931Z" fill="#F0F0F0"/>
<path d="M154.558 70.1929H93.3348C93.082 70.193 92.8396 70.2932 92.6609 70.4714C92.4821 70.6497 92.3816 70.8913 92.3815 71.1434V134.711C92.3821 134.963 92.4829 135.204 92.6616 135.382C92.8403 135.56 93.0824 135.659 93.3348 135.659H154.558C154.811 135.659 155.053 135.56 155.232 135.382C155.41 135.204 155.511 134.963 155.512 134.711V71.1434C155.512 70.8913 155.411 70.6496 155.232 70.4714C155.054 70.2932 154.811 70.193 154.558 70.1929Z" fill="white"/>
<path d="M92.2725 60.8508C93.6366 60.8508 94.7425 59.7483 94.7425 58.3883C94.7425 57.0284 93.6366 55.9259 92.2725 55.9259C90.9083 55.9259 89.8025 57.0284 89.8025 58.3883C89.8025 59.7483 90.9083 60.8508 92.2725 60.8508Z" fill="#219EBC"/>
<path d="M96.6421 139.988C96.2546 139.563 95.7282 139.323 95.1788 139.321C94.6295 139.32 94.102 139.557 93.7126 139.98C93.3231 140.404 93.1036 140.979 93.1022 141.58C93.1008 142.181 93.3177 142.757 93.7052 143.183L93.7123 143.191L96.6421 146.393L99.5718 143.191C99.9585 142.766 100.175 142.19 100.175 141.591C100.174 140.991 99.9556 140.416 99.5677 139.992C99.1799 139.568 98.6541 139.33 98.1056 139.329C97.5572 139.328 97.0309 139.565 96.6421 139.988Z" fill="#E61515"/>
<path d="M137.836 60.3193H103.005C102.755 60.3196 102.507 60.2706 102.275 60.1753C102.044 60.0799 101.834 59.94 101.656 59.7635C101.479 59.5871 101.338 59.3775 101.243 59.1468C101.147 58.9161 101.097 58.6689 101.097 58.4192C101.097 58.1695 101.147 57.9222 101.243 57.6915C101.338 57.4608 101.479 57.2513 101.656 57.0748C101.834 56.8983 102.044 56.7584 102.275 56.6631C102.507 56.5677 102.755 56.5188 103.005 56.519H137.836C138.086 56.5188 138.334 56.5677 138.566 56.6631C138.797 56.7584 139.008 56.8983 139.185 57.0748C139.362 57.2513 139.503 57.4608 139.599 57.6915C139.695 57.9222 139.744 58.1695 139.744 58.4192C139.744 58.6689 139.695 58.9161 139.599 59.1468C139.503 59.3775 139.362 59.5871 139.185 59.7635C139.008 59.94 138.797 60.0799 138.566 60.1753C138.334 60.2706 138.086 60.3196 137.836 60.3193Z" fill="#219EBC"/>
<path d="M159.836 170.432H87.908C87.6552 170.432 87.4128 170.532 87.234 170.71C87.0552 170.888 86.9547 171.13 86.9546 171.382V187.61C87.0942 190.332 88.2773 192.896 90.2594 194.773C92.2415 196.65 94.8712 197.697 97.6051 197.696H150.139C152.867 197.697 155.491 196.656 157.472 194.787C159.453 192.918 160.64 190.364 160.79 187.649V171.382C160.79 171.13 160.689 170.888 160.51 170.71C160.332 170.532 160.089 170.432 159.836 170.432Z" fill="#F0F0F0"/>
<path d="M154.558 176.571H93.3348C93.082 176.572 92.8396 176.672 92.6609 176.85C92.4821 177.028 92.3816 177.27 92.3815 177.522V196.335C93.9759 197.23 95.7755 197.7 97.6055 197.697H150.14C152.027 197.699 153.882 197.2 155.512 196.251V177.522C155.512 177.27 155.411 177.028 155.232 176.85C155.054 176.672 154.811 176.572 154.558 176.571Z" fill="white"/>
<path d="M109.866 167.182H97.6978C97.6103 167.182 97.5236 167.067 97.4428 166.841C97.3619 166.615 97.2884 166.283 97.2265 165.865C97.1646 165.447 97.1155 164.951 97.0819 164.405C97.0484 163.858 97.0312 163.273 97.0312 162.681C97.0312 162.09 97.0484 161.504 97.0819 160.958C97.1155 160.411 97.1646 159.915 97.2265 159.497C97.2884 159.079 97.3619 158.748 97.4428 158.522C97.5236 158.296 97.6103 158.18 97.6978 158.181H109.866C109.954 158.18 110.041 158.296 110.121 158.522C110.202 158.748 110.276 159.079 110.338 159.497C110.4 159.915 110.449 160.411 110.482 160.958C110.516 161.504 110.533 162.09 110.533 162.681C110.533 163.273 110.516 163.858 110.482 164.405C110.449 164.951 110.4 165.447 110.338 165.865C110.276 166.283 110.202 166.615 110.121 166.841C110.041 167.067 109.954 167.182 109.866 167.182Z" fill="#E9F5F8"/>
<path d="M127.869 167.182H115.7C115.613 167.182 115.526 167.066 115.445 166.84C115.364 166.615 115.291 166.283 115.229 165.865C115.167 165.447 115.118 164.951 115.084 164.404C115.051 163.858 115.034 163.272 115.034 162.681C115.034 162.089 115.051 161.504 115.084 160.957C115.118 160.411 115.167 159.915 115.229 159.497C115.291 159.079 115.364 158.747 115.445 158.521C115.526 158.296 115.613 158.18 115.7 158.18H127.869C127.956 158.18 128.043 158.296 128.124 158.521C128.205 158.747 128.278 159.079 128.34 159.497C128.402 159.915 128.451 160.411 128.485 160.957C128.518 161.504 128.535 162.089 128.535 162.681C128.535 163.272 128.518 163.858 128.485 164.404C128.451 164.951 128.402 165.447 128.34 165.865C128.278 166.283 128.205 166.615 128.124 166.84C128.043 167.066 127.956 167.182 127.869 167.182Z" fill="#E9F5F8"/>
<path d="M145.871 167.182H133.703C133.615 167.182 133.528 167.066 133.448 166.84C133.367 166.615 133.293 166.283 133.231 165.865C133.169 165.447 133.12 164.951 133.087 164.404C133.053 163.858 133.036 163.272 133.036 162.681C133.036 162.089 133.053 161.504 133.087 160.957C133.12 160.411 133.169 159.915 133.231 159.497C133.293 159.079 133.367 158.747 133.448 158.521C133.528 158.296 133.615 158.18 133.703 158.18H145.871C145.959 158.18 146.045 158.296 146.126 158.521C146.207 158.747 146.281 159.079 146.342 159.497C146.404 159.915 146.453 160.411 146.487 160.957C146.521 161.504 146.538 162.089 146.538 162.681C146.538 163.272 146.521 163.858 146.487 164.404C146.453 164.951 146.404 165.447 146.342 165.865C146.281 166.283 146.207 166.615 146.126 166.84C146.045 167.066 145.959 167.182 145.871 167.182Z" fill="#E9F5F8"/>
<path d="M118.148 197.696H100.051C101.893 194.081 105.294 191.136 109.303 190.981C109.907 190.958 110.512 191.003 111.106 191.114C111.356 191.158 111.6 191.217 111.845 191.281C113.382 191.676 114.783 192.482 115.894 193.612C117.005 194.743 117.784 196.155 118.148 197.696Z" fill="#CAE8EF"/>
<path d="M147.094 197.696H122.52C122.898 196.572 123.218 195.429 123.481 194.273C124.585 189.518 125.709 184.179 129.782 181.476C132.049 179.969 134.808 179.722 137.424 180.387C137.503 180.407 137.584 180.429 137.663 180.454C140.749 181.307 143.397 183.29 145.078 186.007C147.161 189.488 147.625 193.63 147.094 197.696Z" fill="#CAE8EF"/>
<path d="M112.099 194.793C112.088 195.766 112.001 196.736 111.84 197.696H111.134C111.505 195.517 111.496 193.29 111.106 191.114C111.356 191.158 111.6 191.217 111.845 191.281C112.032 192.442 112.117 193.617 112.099 194.793Z" fill="white"/>
<path d="M137.755 180.681C137.757 181.212 137.755 181.747 137.74 182.281C137.631 186.723 136.967 191.135 135.764 195.413C135.552 196.177 135.322 196.938 135.075 197.696H134.349C134.793 196.347 135.181 194.98 135.517 193.611C136.556 189.408 137.074 185.095 137.058 180.767C137.059 180.669 137.097 180.575 137.165 180.504C137.233 180.434 137.326 180.392 137.424 180.388C137.509 180.378 137.595 180.402 137.663 180.454C137.695 180.482 137.72 180.517 137.736 180.556C137.752 180.596 137.758 180.638 137.755 180.681Z" fill="white"/>
<path d="M150.8 185.22C151.618 185.22 152.282 184.558 152.282 183.742C152.282 182.926 151.618 182.265 150.8 182.265C149.981 182.265 149.318 182.926 149.318 183.742C149.318 184.558 149.981 185.22 150.8 185.22Z" fill="#F2F2F2"/>
<path d="M189.644 145.208C189.665 144.775 189.78 144.352 189.983 143.969C190.185 143.585 190.469 143.251 190.815 142.989C191.161 142.727 191.56 142.543 191.985 142.452C192.409 142.36 192.849 142.363 193.272 142.459L197.202 136.938L201.151 138.5L195.491 146.22C195.282 146.918 194.823 147.516 194.201 147.9C193.579 148.284 192.837 148.427 192.117 148.303C191.396 148.178 190.746 147.794 190.291 147.223C189.835 146.653 189.605 145.936 189.644 145.208Z" fill="#A0616A"/>
<path d="M193.956 140.458L200.943 128.743L198.096 121.174L201.973 110.867L202.116 110.928C202.21 110.968 204.413 111.948 204.74 115.458L209.195 129.418L197.304 144.798L193.956 140.458Z" fill="#FFAA00"/>
<path d="M156.007 97.3878C156.438 97.4417 156.852 97.5891 157.22 97.8198C157.588 98.0504 157.9 98.3586 158.135 98.7227C158.371 99.0868 158.523 99.4979 158.582 99.9271C158.64 100.356 158.604 100.793 158.475 101.207L163.693 105.54L161.825 109.343L154.543 103.121C153.86 102.859 153.298 102.356 152.962 101.709C152.626 101.061 152.54 100.313 152.721 99.6059C152.901 98.8992 153.335 98.2831 153.941 97.8743C154.547 97.4655 155.282 97.2924 156.007 97.3878Z" fill="#FFB9B9"/>
<path d="M160.422 102.04L171.599 109.891L179.387 107.647L189.396 112.297L189.324 112.435C189.277 112.525 188.126 114.639 184.591 114.692L170.285 118.041L155.824 105.033L160.422 102.04Z" fill="#FFAA00"/>
<path d="M180.873 197.512L176.987 197.511L175.139 182.57L180.874 182.571L180.873 197.512Z" fill="#FFB9B9"/>
<path d="M173.038 196.405H181.706V201.108H169.494V199.938C169.494 199.001 169.868 198.102 170.532 197.44C171.197 196.777 172.098 196.405 173.038 196.405Z" fill="#0F012C"/>
<path d="M196.402 197.512L192.517 197.511L190.668 182.57L196.403 182.571L196.402 197.512Z" fill="#FFB9B9"/>
<path d="M188.568 196.405H197.235V201.108H185.023V199.938C185.023 199.001 185.397 198.102 186.061 197.44C186.726 196.777 187.628 196.405 188.568 196.405Z" fill="#0F012C"/>
<path d="M197.784 142.976L197.467 165.093L197.15 194.161L190.178 193.529L186.692 153.402L182.255 193.529H175.057L174.332 153.086L176.867 144.24L197.784 142.976Z" fill="#200A4E"/>
<path d="M176.172 144.374L175.11 144.329L180.044 117.233L178.024 109.043C177.919 108.617 177.974 108.167 178.179 107.779C178.385 107.391 178.726 107.091 179.138 106.937L182.772 105.578L184.056 102.058L194.188 103.146L194.437 105.898C195.535 106.249 204.575 109.25 203.952 112.671C203.336 116.046 199.701 126.667 199.516 127.205L198.879 142.437L198.801 142.476C198.707 142.523 191.724 145.946 184.137 145.946C181.466 145.946 178.718 145.521 176.172 144.374Z" fill="#FFAA00"/>
<path d="M195.125 96.532C197.058 93.0078 195.759 88.5892 192.224 86.6627C188.689 84.7362 184.257 86.0314 182.324 89.5556C180.392 93.0797 181.691 97.4984 185.226 99.4249C188.761 101.351 193.193 100.056 195.125 96.532Z" fill="#FFB9B9"/>
<path d="M194.634 100.083C193.244 101.56 190.662 100.767 190.481 98.7504C190.467 98.5938 190.468 98.4362 190.484 98.2798C190.577 97.3865 191.095 96.5754 190.971 95.6321C190.943 95.3973 190.855 95.1736 190.716 94.9821C189.608 93.5032 187.008 95.6436 185.962 94.3048C185.321 93.4839 186.075 92.1914 185.583 91.2739C184.934 90.0629 183.011 90.6603 181.804 89.9971C180.463 89.2592 180.543 87.2067 181.426 85.9583C182.503 84.4357 184.392 83.6233 186.257 83.5062C188.122 83.3892 189.975 83.8918 191.716 84.5684C193.695 85.337 195.657 86.3994 196.874 88.1338C198.355 90.2429 198.497 93.0786 197.757 95.5449C197.306 97.0451 195.769 98.8779 194.634 100.083Z" fill="#2F2E41"/>
<path d="M233.725 202H0.274648C0.201807 202 0.131949 201.947 0.0804423 201.854C0.0289358 201.76 0 201.633 0 201.5C0 201.367 0.0289358 201.24 0.0804423 201.146C0.131949 201.053 0.201807 201 0.274648 201H233.725C233.798 201 233.868 201.053 233.92 201.146C233.971 201.24 234 201.367 234 201.5C234 201.633 233.971 201.76 233.92 201.854C233.868 201.947 233.798 202 233.725 202Z" fill="#3F3D56"/>
<path d="M114.215 78.5576C115.143 78.5576 115.895 77.8076 115.895 76.8824C115.895 75.9573 115.143 75.2073 114.215 75.2073C113.287 75.2073 112.535 75.9573 112.535 76.8824C112.535 77.8076 113.287 78.5576 114.215 78.5576Z" fill="#219EBC"/>
<path d="M142.992 114.428H102.521V126.416H142.992V114.428Z" fill="#F0F0F0"/>
<path d="M125.116 116.905H120.397V126.415H125.116V116.905Z" fill="#73C2D5"/>
<path d="M140.633 100.281H104.881V111.311H140.633V100.281Z" fill="#F0F0F0"/>
<path d="M144.257 100.96H101.256C101.184 100.96 101.114 100.939 101.054 100.898C100.995 100.858 100.949 100.801 100.922 100.735C100.895 100.668 100.889 100.595 100.904 100.525C100.919 100.455 100.955 100.391 101.006 100.341L112.759 89.0532V84.1364C112.759 84.0411 112.797 83.9497 112.864 83.8822C112.932 83.8148 113.023 83.7769 113.119 83.7768H115.438C115.533 83.7769 115.625 83.8148 115.692 83.8822C115.76 83.9497 115.798 84.0411 115.798 84.1364V86.134L116.686 85.2814C118.138 83.8862 120.065 83.0921 122.08 83.0586C124.095 83.0251 126.047 83.7548 127.545 85.101L144.498 100.333C144.552 100.381 144.59 100.445 144.607 100.516C144.624 100.587 144.619 100.661 144.593 100.729C144.567 100.797 144.521 100.855 144.461 100.897C144.401 100.938 144.33 100.96 144.257 100.96Z" fill="#73C2D5"/>
<path d="M114.318 103.078C114.618 103.078 114.914 103.137 115.19 103.251C115.467 103.365 115.718 103.533 115.93 103.745C116.142 103.956 116.31 104.207 116.424 104.484C116.539 104.76 116.598 105.056 116.598 105.355V108.432H112.039V105.355C112.039 105.056 112.098 104.76 112.212 104.484C112.327 104.207 112.495 103.956 112.706 103.745C112.918 103.533 113.169 103.365 113.446 103.251C113.722 103.137 114.019 103.078 114.318 103.078Z" fill="white"/>
<path d="M122.757 103.118C123.361 103.118 123.941 103.358 124.369 103.785C124.796 104.212 125.036 104.792 125.036 105.396V108.473H120.477V105.396C120.477 104.792 120.717 104.212 121.145 103.785C121.572 103.358 122.152 103.118 122.757 103.118Z" fill="white"/>
<path d="M131.195 103.158C131.799 103.158 132.379 103.398 132.807 103.825C133.234 104.252 133.474 104.831 133.474 105.435V108.512H128.915V105.435C128.915 104.831 129.155 104.252 129.583 103.825C130.01 103.398 130.59 103.158 131.195 103.158Z" fill="white"/>
<path d="M134.554 116.784C135.158 116.784 135.738 117.024 136.166 117.451C136.593 117.879 136.833 118.458 136.833 119.062V122.139H132.274V119.062C132.274 118.458 132.515 117.879 132.942 117.451C133.37 117.024 133.949 116.784 134.554 116.784Z" fill="white"/>
<path d="M111.998 116.784C112.603 116.784 113.183 117.024 113.61 117.451C114.038 117.879 114.278 118.458 114.278 119.062V122.139H109.719V119.062C109.719 118.763 109.778 118.467 109.893 118.19C110.007 117.914 110.175 117.663 110.387 117.451C110.598 117.24 110.85 117.072 111.126 116.958C111.403 116.843 111.699 116.784 111.998 116.784Z" fill="white"/>
<path d="M148.905 114.615L141.313 111.258C141.272 111.24 141.228 111.231 141.183 111.231H105.002C104.96 111.231 104.919 111.239 104.881 111.254L96.6174 114.611C96.5487 114.639 96.4918 114.69 96.4565 114.755C96.4212 114.82 96.4097 114.896 96.4239 114.968C96.4381 115.041 96.4773 115.107 96.5345 115.154C96.5918 115.201 96.6637 115.227 96.7379 115.227H98.8819V126.256H98.642V127.375H146.871V126.256H146.471V115.227H148.775C148.848 115.227 148.92 115.201 148.977 115.155C149.034 115.109 149.073 115.045 149.088 114.973C149.103 114.901 149.093 114.827 149.06 114.761C149.026 114.696 148.972 114.644 148.905 114.615ZM145.831 126.256H99.5218V115.227H145.831V126.256Z" fill="#73C2D5"/>
<path d="M117.158 107.993H111.319V108.952H117.158V107.993Z" fill="#CACACA"/>
<path d="M125.715 107.993H119.877V108.952H125.715V107.993Z" fill="#CACACA"/>
<path d="M134.274 107.993H128.436V108.952H134.274V107.993Z" fill="#CACACA"/>
<path d="M137.473 121.82H131.634V122.779H137.473V121.82Z" fill="#CACACA"/>
<path d="M114.839 121.82H109V122.779H114.839V121.82Z" fill="#CACACA"/>
<path d="M153.504 127.651H92.9268C92.9091 127.651 92.8921 127.622 92.8795 127.572C92.867 127.522 92.86 127.453 92.86 127.382C92.86 127.311 92.867 127.243 92.8795 127.192C92.8921 127.142 92.9091 127.114 92.9268 127.114H153.504C153.521 127.114 153.538 127.142 153.551 127.192C153.563 127.243 153.57 127.311 153.57 127.382C153.57 127.453 153.563 127.522 153.551 127.572C153.538 127.622 153.521 127.651 153.504 127.651Z" fill="#3F3D56"/>
<path d="M133.575 99.6887C133.575 99.7437 133.574 99.7995 133.574 99.8545C133.573 99.9206 133.571 99.9859 133.569 100.052C133.566 100.11 133.564 100.166 133.561 100.223C133.551 100.413 133.535 100.602 133.514 100.791C133.509 100.84 133.504 100.887 133.497 100.935C133.492 100.972 133.487 101.01 133.482 101.047C133.476 101.089 133.47 101.132 133.464 101.174C133.451 101.263 133.436 101.352 133.42 101.442C133.412 101.486 133.404 101.531 133.395 101.576C133.378 101.664 133.359 101.753 133.34 101.842C133.338 101.849 133.336 101.856 133.335 101.863C133.325 101.907 133.315 101.95 133.305 101.994C133.302 102.007 133.299 102.019 133.295 102.032C133.288 102.064 133.28 102.097 133.271 102.129C133.26 102.175 133.249 102.22 133.237 102.265C133.217 102.336 133.198 102.405 133.177 102.476C133.175 102.483 133.173 102.49 133.171 102.498C133.132 102.631 133.09 102.762 133.045 102.893C133.021 102.962 132.996 103.031 132.971 103.1C132.946 103.169 132.92 103.237 132.893 103.305C132.867 103.371 132.84 103.437 132.813 103.503C132.807 103.518 132.8 103.534 132.793 103.549C132.765 103.617 132.735 103.683 132.705 103.749C132.705 103.75 132.705 103.752 132.704 103.753C132.68 103.806 132.655 103.859 132.63 103.911C132.63 103.913 132.629 103.915 132.628 103.916C132.604 103.967 132.579 104.019 132.553 104.069L132.511 104.153L132.506 104.162C132.454 104.264 132.401 104.366 132.344 104.466C132.332 104.489 132.32 104.511 132.307 104.532C132.295 104.555 132.282 104.577 132.269 104.599C132.261 104.614 132.252 104.629 132.242 104.645C132.225 104.674 132.208 104.704 132.191 104.733C132.187 104.739 132.183 104.745 132.18 104.751C132.149 104.802 132.118 104.852 132.087 104.903C132.049 104.963 132.01 105.024 131.97 105.084L131.088 106.576L131.05 106.543L131.04 106.533H131.039L131.004 106.502L130.908 106.416C130.879 106.446 130.851 106.476 130.821 106.505C130.81 106.517 130.798 106.528 130.786 106.54C130.777 106.549 130.769 106.557 130.76 106.566C129.236 108.141 127.207 109.052 125.077 109.121H125.075C123.462 109.168 121.866 108.769 120.443 107.965C120.411 107.948 120.381 107.931 120.35 107.911C120.165 107.804 119.984 107.692 119.806 107.572C119.805 107.571 119.804 107.571 119.803 107.57C119.597 107.415 119.396 107.25 119.199 107.075C118.145 106.135 117.31 104.95 116.762 103.612C116.213 102.274 115.965 100.82 116.037 99.3641C116.04 99.3066 116.043 99.2499 116.047 99.1923C116.06 98.9845 116.08 98.7775 116.107 98.5714C116.115 98.5139 116.123 98.4563 116.131 98.3997H133.492C133.526 98.6625 133.55 98.9267 133.563 99.1923C133.571 99.3581 133.575 99.523 133.575 99.6887Z" fill="#F0F0F0"/>
<path d="M133.647 99.1991C133.332 97.1037 132.274 95.1909 130.667 93.8084C129.06 92.426 127.01 91.6656 124.889 91.6656C122.769 91.6656 120.719 92.426 119.111 93.8084C117.504 95.1909 116.447 97.1037 116.132 99.1991C116.124 99.2531 116.115 99.308 116.108 99.3628C116.081 99.5593 116.061 99.7566 116.047 99.9548H133.718C133.705 99.7018 133.681 99.4499 133.647 99.1991Z" fill="#219EBC"/>
<path d="M125.775 108.15H119.925V104.184C120.033 102.372 121.861 102.225 123.579 102.322C123.867 102.322 124.153 102.371 124.419 102.464C124.686 102.558 124.928 102.695 125.132 102.868C125.336 103.04 125.498 103.246 125.608 103.472C125.718 103.697 125.775 103.939 125.775 104.184V108.15Z" fill="#219EBC"/>
<path d="M120.388 105.434V105.435C120.388 105.436 120.389 105.436 120.39 105.436L120.388 105.434ZM118.347 99.1997C118.344 99.2202 118.34 99.2406 118.336 99.2611C118.34 99.2406 118.344 99.2202 118.348 99.1997H118.347ZM118.246 99.9554C118.243 99.9865 118.241 100.018 118.239 100.049C118.241 100.018 118.243 99.9865 118.246 99.9554C118.246 99.9496 118.246 99.9439 118.247 99.9382C118.246 99.9439 118.246 99.9496 118.246 99.9554ZM120.388 105.435C120.388 105.436 120.389 105.436 120.39 105.436L120.388 105.434V105.435ZM118.347 99.1997C118.344 99.2202 118.34 99.2406 118.336 99.2611C118.34 99.2406 118.344 99.2202 118.348 99.1997H118.347ZM118.239 100.049C118.241 100.018 118.243 99.9865 118.246 99.9554C118.246 99.9496 118.246 99.9439 118.247 99.9382C118.246 99.9439 118.246 99.9496 118.246 99.9554C118.243 99.9865 118.241 100.018 118.239 100.049ZM143.551 115.109C143.535 115.093 143.518 115.077 143.5 115.062L143.499 115.061L139.442 111.64L139.337 111.551L138.938 111.215L138.838 111.131L138.269 110.651L138.114 110.52L137.792 110.248L137.627 110.109L136.074 108.8L135.183 108.049L135.063 107.948L132.439 105.735C132.479 105.678 132.519 105.621 132.557 105.563C132.588 105.514 132.619 105.467 132.651 105.419C132.654 105.413 132.658 105.407 132.661 105.401C132.679 105.373 132.696 105.345 132.714 105.317C132.724 105.302 132.733 105.288 132.741 105.273C132.754 105.252 132.767 105.231 132.779 105.21C132.792 105.189 132.804 105.168 132.816 105.147C132.873 105.051 132.928 104.954 132.98 104.857L132.985 104.848L133.027 104.768C133.053 104.72 133.078 104.671 133.103 104.622C133.104 104.621 133.104 104.619 133.105 104.618C133.13 104.568 133.155 104.517 133.179 104.466C133.18 104.466 133.18 104.464 133.181 104.463C133.211 104.4 133.241 104.337 133.269 104.272C133.277 104.258 133.283 104.243 133.29 104.228C133.317 104.166 133.344 104.103 133.37 104.04C133.397 103.975 133.423 103.91 133.449 103.844C133.474 103.779 133.499 103.712 133.523 103.647C133.568 103.522 133.611 103.396 133.65 103.27C133.652 103.263 133.654 103.256 133.657 103.249C133.677 103.182 133.697 103.116 133.717 103.048C133.729 103.005 133.74 102.962 133.752 102.919C133.76 102.888 133.768 102.857 133.776 102.826C133.78 102.813 133.782 102.802 133.785 102.79C133.796 102.748 133.806 102.707 133.816 102.665C133.817 102.659 133.819 102.651 133.821 102.645C133.84 102.56 133.859 102.475 133.876 102.391C133.885 102.348 133.894 102.306 133.902 102.263C133.917 102.178 133.933 102.093 133.946 102.008C133.952 101.968 133.958 101.928 133.964 101.887C133.97 101.851 133.975 101.815 133.98 101.78C133.986 101.734 133.992 101.689 133.997 101.644C134.018 101.463 134.034 101.282 134.043 101.102C134.047 101.048 134.049 100.993 134.052 100.939C134.054 100.876 134.056 100.813 134.057 100.75C134.057 100.698 134.058 100.645 134.058 100.592C134.058 100.434 134.054 100.277 134.046 100.119C134.033 99.8661 134.009 99.6142 133.975 99.3634C133.681 97.2197 132.625 95.253 131 93.823C129.375 92.3931 127.289 91.5952 125.124 91.5753C122.959 91.5555 120.859 92.3149 119.207 93.7148C117.556 95.1148 116.465 97.0617 116.132 99.1997C116.124 99.2537 116.115 99.3086 116.108 99.3634C116.081 99.5599 116.061 99.7572 116.047 99.9554C116.043 100.01 116.04 100.064 116.037 100.119C115.965 101.507 116.215 102.893 116.768 104.169C117.322 105.444 118.163 106.574 119.227 107.47C119.425 107.637 119.629 107.794 119.837 107.942C119.837 107.943 119.838 107.943 119.839 107.943C119.909 107.992 119.978 108.041 120.049 108.088C120.161 108.162 120.274 108.234 120.388 108.303C120.397 108.308 120.406 108.313 120.415 108.318C120.513 108.377 120.613 108.434 120.712 108.489H120.712C121.082 108.691 121.465 108.868 121.859 109.016C123.015 109.451 124.248 109.644 125.482 109.584H125.485C126.925 109.514 128.328 109.1 129.574 108.375C129.755 108.27 129.934 108.158 130.108 108.038C130.152 108.009 130.196 107.979 130.239 107.948C130.291 107.911 130.343 107.873 130.396 107.834C130.397 107.834 130.397 107.834 130.398 107.834C130.401 107.83 130.406 107.827 130.41 107.825C130.445 107.798 130.481 107.771 130.515 107.744C130.525 107.738 130.534 107.731 130.543 107.724C130.545 107.722 130.547 107.72 130.549 107.718C130.57 107.703 130.589 107.687 130.61 107.672C130.63 107.656 130.65 107.64 130.67 107.623C130.674 107.621 130.677 107.619 130.68 107.616C130.703 107.597 130.726 107.579 130.749 107.56C130.773 107.541 130.796 107.522 130.818 107.503C130.841 107.484 130.863 107.465 130.886 107.446C130.905 107.429 130.926 107.412 130.946 107.394C130.952 107.389 130.958 107.383 130.964 107.378C130.967 107.375 130.97 107.373 130.973 107.371C131 107.348 131.026 107.324 131.052 107.301C131.059 107.295 131.064 107.289 131.071 107.283C131.111 107.247 131.151 107.211 131.191 107.174C131.2 107.166 131.209 107.157 131.218 107.148C131.227 107.14 131.236 107.132 131.245 107.124C131.256 107.112 131.268 107.102 131.28 107.09C131.309 107.062 131.338 107.034 131.368 107.005L131.464 107.087L131.499 107.116H131.5L131.511 107.126L131.549 107.158L132.121 107.641L132.134 107.652L132.143 107.659L132.208 107.714L132.338 107.824L132.467 107.933L132.486 107.948L133.088 108.456L133.172 108.526L133.753 109.016L136.759 111.551L136.864 111.64L140.98 115.109L142.035 115.999L142.427 116.33C142.511 116.401 142.607 116.454 142.711 116.487C142.815 116.52 142.924 116.533 143.033 116.523C143.142 116.514 143.248 116.484 143.345 116.434C143.442 116.384 143.528 116.315 143.598 116.232C143.657 116.163 143.704 116.084 143.737 115.999C143.796 115.849 143.81 115.685 143.777 115.526C143.744 115.368 143.665 115.223 143.551 115.109ZM119.818 96.1312C120.64 95.1579 121.72 94.4368 122.935 94.0513C124.15 93.6657 125.449 93.6314 126.682 93.9523C127.916 94.2732 129.033 94.9362 129.905 95.8647C130.778 96.7933 131.369 97.9494 131.612 99.1997C131.622 99.2546 131.632 99.3086 131.641 99.3634C131.675 99.5591 131.699 99.7572 131.714 99.9554C131.718 100.01 131.722 100.064 131.725 100.119C131.732 100.242 131.735 100.366 131.735 100.488C131.736 101.233 131.612 101.973 131.37 102.678V102.678C131.099 103.468 130.683 104.201 130.144 104.838C130.132 104.851 130.121 104.865 130.108 104.878C130 105.006 129.886 105.129 129.769 105.246C129.768 105.247 129.767 105.248 129.767 105.249C129.726 105.289 129.686 105.33 129.645 105.368C129.561 105.449 129.476 105.526 129.389 105.599C129.259 105.713 129.125 105.82 128.988 105.92C128.942 105.953 128.897 105.986 128.85 106.019C128.804 106.051 128.757 106.082 128.711 106.114C128.617 106.176 128.522 106.236 128.426 106.292C128.379 106.321 128.33 106.349 128.281 106.376C128.233 106.403 128.184 106.43 128.135 106.455C128.085 106.481 128.036 106.507 127.986 106.531C127.887 106.581 127.787 106.628 127.686 106.671C127.635 106.694 127.584 106.715 127.533 106.735C127.501 106.748 127.47 106.761 127.438 106.773C127.426 106.778 127.413 106.783 127.4 106.787C127.382 106.795 127.365 106.801 127.348 106.807C127.342 106.81 127.337 106.812 127.331 106.814C127.296 106.827 127.261 106.84 127.225 106.852C127.174 106.871 127.122 106.888 127.069 106.904C127.017 106.922 126.965 106.938 126.913 106.953C126.861 106.969 126.807 106.984 126.755 106.998C126.702 107.013 126.649 107.026 126.596 107.039C126.539 107.053 126.483 107.067 126.425 107.079C126.376 107.09 126.326 107.1 126.276 107.109C126.23 107.119 126.182 107.127 126.135 107.135C126.07 107.147 126.004 107.157 125.938 107.166C125.902 107.172 125.867 107.177 125.831 107.18C125.815 107.183 125.8 107.184 125.786 107.186C125.74 107.193 125.694 107.198 125.649 107.202C125.637 107.202 125.625 107.204 125.614 107.205C125.564 107.21 125.513 107.214 125.463 107.218C125.355 107.225 125.249 107.23 125.142 107.233C125.088 107.234 125.033 107.234 124.979 107.234C124.925 107.234 124.87 107.234 124.816 107.232C124.816 107.232 124.816 107.233 124.816 107.232C124.815 107.233 124.815 107.233 124.814 107.232C124.814 107.232 124.814 107.232 124.814 107.232C124.813 107.232 124.813 107.232 124.813 107.232C124.813 107.232 124.813 107.232 124.813 107.232C124.813 107.232 124.812 107.232 124.812 107.232C124.81 107.233 124.807 107.233 124.804 107.232C124.766 107.232 124.727 107.23 124.689 107.228C124.662 107.227 124.633 107.226 124.604 107.224C124.566 107.222 124.527 107.22 124.489 107.216C124.476 107.216 124.464 107.215 124.452 107.214C124.446 107.214 124.44 107.213 124.435 107.212C124.395 107.209 124.355 107.206 124.316 107.202C124.296 107.2 124.276 107.198 124.256 107.196C124.196 107.189 124.136 107.182 124.077 107.174C124.01 107.166 123.943 107.156 123.877 107.144C123.846 107.139 123.815 107.134 123.785 107.128C123.745 107.121 123.705 107.114 123.664 107.106C123.623 107.098 123.581 107.089 123.539 107.08C123.505 107.072 123.471 107.065 123.437 107.057C123.421 107.053 123.405 107.049 123.389 107.045C123.303 107.025 123.218 107.003 123.134 106.978C123.08 106.963 123.027 106.948 122.975 106.931C122.902 106.909 122.831 106.886 122.76 106.86C122.732 106.851 122.705 106.841 122.677 106.831C122.649 106.822 122.622 106.811 122.594 106.8C122.569 106.791 122.544 106.782 122.519 106.772C122.478 106.756 122.438 106.74 122.398 106.724C122.315 106.69 122.234 106.655 122.153 106.617C122.107 106.595 122.061 106.574 122.016 106.552C121.838 106.466 121.663 106.37 121.491 106.265C121.448 106.24 121.406 106.213 121.363 106.186C121.31 106.153 121.258 106.119 121.207 106.084C121.178 106.064 121.15 106.046 121.122 106.026C121.07 105.99 121.02 105.953 120.97 105.916C120.943 105.897 120.917 105.878 120.892 105.858C120.801 105.789 120.712 105.717 120.624 105.644C120.582 105.608 120.54 105.572 120.499 105.536C120.482 105.521 120.465 105.505 120.448 105.49C120.428 105.472 120.408 105.455 120.39 105.436L120.388 105.434C120.359 105.409 120.331 105.382 120.303 105.355C120.259 105.314 120.217 105.272 120.176 105.229C120.133 105.188 120.092 105.144 120.052 105.102C120.011 105.059 119.972 105.016 119.933 104.972C119.894 104.928 119.855 104.884 119.818 104.839C119.781 104.796 119.745 104.752 119.71 104.709C119.627 104.606 119.547 104.5 119.471 104.394C119.436 104.344 119.402 104.295 119.37 104.245C119.334 104.195 119.301 104.143 119.269 104.091C119.235 104.04 119.203 103.987 119.172 103.934C119.171 103.932 119.17 103.931 119.169 103.929C119.107 103.825 119.048 103.721 118.994 103.614C118.937 103.506 118.884 103.397 118.834 103.287C118.808 103.232 118.784 103.176 118.761 103.12C118.713 103.008 118.669 102.896 118.628 102.782C118.608 102.727 118.589 102.673 118.57 102.617C118.569 102.613 118.568 102.61 118.567 102.606C118.529 102.493 118.495 102.38 118.464 102.265C118.463 102.263 118.463 102.262 118.463 102.26C118.447 102.204 118.432 102.147 118.419 102.09C118.406 102.04 118.395 101.99 118.384 101.939C118.372 101.883 118.359 101.826 118.349 101.769C118.343 101.739 118.337 101.71 118.332 101.68C118.327 101.656 118.323 101.63 118.319 101.606C118.315 101.581 118.311 101.556 118.307 101.531C118.299 101.481 118.291 101.431 118.285 101.381C118.277 101.322 118.27 101.263 118.264 101.203C118.256 101.132 118.25 101.061 118.244 100.989C118.24 100.94 118.237 100.891 118.235 100.842C118.232 100.797 118.23 100.752 118.229 100.707C118.228 100.705 118.228 100.702 118.229 100.7C118.229 100.699 118.229 100.699 118.229 100.699C118.229 100.699 118.229 100.699 118.229 100.699C118.229 100.699 118.229 100.698 118.229 100.698C118.229 100.698 118.229 100.698 118.229 100.698C118.228 100.697 118.228 100.697 118.229 100.696C118.229 100.696 118.229 100.696 118.229 100.696C118.229 100.696 118.229 100.696 118.229 100.695C118.229 100.695 118.229 100.695 118.229 100.695C118.229 100.695 118.229 100.695 118.229 100.695C118.228 100.677 118.227 100.659 118.227 100.641C118.226 100.587 118.225 100.534 118.225 100.481C118.225 100.433 118.226 100.385 118.227 100.337C118.228 100.27 118.231 100.203 118.234 100.135C118.234 100.121 118.236 100.107 118.237 100.092C118.237 100.077 118.238 100.063 118.239 100.049C118.241 100.018 118.243 99.9865 118.246 99.9554C118.246 99.9496 118.246 99.9439 118.247 99.9382C118.25 99.903 118.253 99.8678 118.256 99.8326C118.263 99.7622 118.271 99.6909 118.28 99.6205C118.285 99.5853 118.289 99.5501 118.295 99.5149C118.298 99.4904 118.302 99.465 118.306 99.4396C118.309 99.4142 118.314 99.3888 118.318 99.3635C118.324 99.3299 118.33 99.2955 118.336 99.2611C118.34 99.2406 118.344 99.2202 118.348 99.1997C118.363 99.1178 118.381 99.036 118.4 98.9541C118.418 98.8714 118.44 98.7896 118.463 98.7077C118.485 98.625 118.509 98.5423 118.536 98.4596C118.548 98.4179 118.561 98.3769 118.576 98.336C118.603 98.2533 118.631 98.1714 118.663 98.0904C118.678 98.0503 118.694 98.0093 118.711 97.9692C118.744 97.8882 118.778 97.8071 118.813 97.7277C118.831 97.6876 118.849 97.6475 118.869 97.6074C118.906 97.5279 118.944 97.4485 118.986 97.3708C119.026 97.2913 119.07 97.2136 119.114 97.1366C119.158 97.0597 119.204 96.9827 119.252 96.9066C119.275 96.8689 119.299 96.8304 119.325 96.7936C119.374 96.7183 119.425 96.6429 119.478 96.5693C119.583 96.4202 119.697 96.2737 119.818 96.1312ZM118.246 99.9554C118.243 99.9865 118.241 100.018 118.239 100.049C118.241 100.018 118.243 99.9865 118.246 99.9554C118.246 99.9496 118.246 99.9439 118.247 99.9382C118.246 99.9439 118.246 99.9496 118.246 99.9554ZM118.347 99.1997C118.344 99.2202 118.34 99.2406 118.336 99.2611C118.34 99.2406 118.344 99.2202 118.348 99.1997H118.347ZM120.388 105.434V105.435C120.388 105.436 120.389 105.436 120.39 105.436L120.388 105.434Z" fill="#19004D"/>
<path opacity="0.3" d="M120.27 106.354C118.719 105.047 117.718 103.205 117.464 101.194C117.21 99.1831 117.722 97.1502 118.898 95.499C118.744 95.6545 118.594 95.8174 118.45 95.9875C117.766 96.798 117.248 97.7352 116.926 98.7457C116.604 99.7561 116.485 100.82 116.574 101.877C116.664 102.933 116.961 103.962 117.448 104.904C117.936 105.846 118.604 106.683 119.415 107.367C121.053 108.748 123.173 109.422 125.308 109.241C127.444 109.06 129.42 108.039 130.802 106.402C130.946 106.232 131.082 106.058 131.209 105.879C129.778 107.316 127.859 108.162 125.832 108.25C123.806 108.338 121.82 107.662 120.27 106.354Z" fill="black"/>
<path d="M39.9137 150.17C40.0706 150.444 40.28 150.684 40.5299 150.878C40.7799 151.071 41.0656 151.213 41.3705 151.295C41.6755 151.378 41.9939 151.401 42.3075 151.361C42.621 151.321 42.9237 151.22 43.1981 151.063C43.4725 150.907 43.7133 150.698 43.9068 150.448C44.1003 150.199 44.2426 149.914 44.3257 149.61C44.4088 149.305 44.431 148.988 44.3911 148.675C44.3511 148.362 44.2498 148.06 44.0929 147.786C44.0876 147.777 44.0821 147.768 44.0766 147.758C44.0093 147.646 43.9335 147.539 43.8499 147.437L45.8747 133.039L45.9353 132.607L46.3466 129.669L46.4073 129.245L46.1832 129.256L42.2601 129.435L41.2082 129.482L41.0763 132.163L40.3302 147.232C39.9404 147.604 39.6874 148.096 39.6118 148.629C39.5363 149.162 39.6426 149.705 39.9137 150.17Z" fill="#FFB8B8"/>
<path d="M45.9235 132.738L40.9419 132.282C40.6835 132.257 40.4453 132.132 40.2792 131.933C40.113 131.734 40.0325 131.478 40.055 131.22L40.9777 120.884C41.0218 120.392 41.1628 119.912 41.3926 119.474C41.6224 119.035 41.9366 118.646 42.3171 118.329C42.6976 118.011 43.1371 117.772 43.6104 117.624C44.0837 117.476 44.5816 117.422 45.0756 117.466C45.5697 117.51 46.0502 117.651 46.4897 117.88C46.9293 118.109 47.3193 118.423 47.6374 118.802C47.9556 119.182 48.1957 119.621 48.344 120.093C48.4923 120.565 48.5459 121.062 48.5018 121.555C48.4955 121.626 48.4871 121.697 48.4766 121.767L46.9828 131.905C46.9485 132.137 46.8317 132.35 46.6538 132.503C46.4758 132.657 46.2484 132.741 46.0131 132.742C45.9832 132.742 45.9533 132.741 45.9235 132.738Z" fill="#FFAA00"/>
<path d="M42.1478 124.387C41.6439 122.963 41.6206 121.414 42.0813 119.976C42.542 118.537 43.4615 117.289 44.6996 116.42C46.5781 115.138 49.1486 114.678 51.9169 117.966C57.4535 124.542 58.9036 131.775 58.9036 131.775L47.5668 133.617C47.5668 133.617 43.7114 128.915 42.1478 124.387Z" fill="#FFAA00"/>
<path d="M60.4837 198.462H63.716L65.2536 186.023H60.4832L60.4837 198.462Z" fill="#FFB8B8"/>
<path d="M69.9486 201.456H59.79V197.541H66.0237C67.0646 197.541 68.063 197.953 68.799 198.687C69.5351 199.422 69.9486 200.418 69.9486 201.456Z" fill="#0F012C"/>
<path d="M33.9095 195.649L36.9784 196.661L42.3515 185.332L37.822 183.839L33.9095 195.649Z" fill="#FFB8B8"/>
<path d="M41.9553 201.456L32.3099 198.276L33.5417 194.558L39.4604 196.509C39.9498 196.671 40.4025 196.927 40.7927 197.263C41.183 197.599 41.5031 198.008 41.7347 198.467C41.9664 198.927 42.1051 199.427 42.143 199.94C42.1808 200.453 42.117 200.968 41.9553 201.456Z" fill="#0F012C"/>
<path d="M49.2641 113.16C45.6879 113.16 42.7887 110.267 42.7887 106.699C42.7887 103.131 45.6879 100.239 49.2641 100.239C52.8404 100.239 55.7396 103.131 55.7396 106.699C55.7396 110.267 52.8404 113.16 49.2641 113.16Z" fill="#FFB8B8"/>
<path d="M54.9341 195L51.9325 175.234C51.9004 175.023 51.796 174.829 51.6369 174.687C51.4778 174.544 51.2741 174.461 51.0604 174.452C50.8468 174.442 50.6365 174.507 50.4656 174.636C50.2947 174.764 50.1737 174.947 50.1233 175.155L45.5522 193.992C45.4802 194.28 45.3027 194.532 45.0545 194.696C44.8063 194.861 44.5054 194.927 44.2108 194.882L31.6019 192.86C31.4347 192.833 31.2752 192.771 31.1341 192.678C30.9929 192.585 30.8735 192.462 30.7838 192.319C30.694 192.176 30.6361 192.015 30.6138 191.847C30.5915 191.68 30.6054 191.509 30.6546 191.348L47.0959 137.266C47.1426 137.113 47.1481 136.949 47.112 136.793L46.5646 134.426C46.5045 134.169 46.5323 133.9 46.6435 133.661C46.7547 133.422 46.9429 133.227 47.1781 133.107C49.417 131.967 55.0875 129.597 59.3668 132.193C59.5057 132.277 59.6259 132.389 59.7202 132.522C59.8144 132.654 59.8807 132.804 59.9149 132.963L72.7587 193.191C72.7937 193.355 72.7934 193.525 72.7579 193.688C72.7224 193.852 72.6525 194.006 72.5529 194.141C72.4532 194.276 72.326 194.388 72.1797 194.47C72.0334 194.552 71.8713 194.602 71.7041 194.617L56.2131 196.001C56.1779 196.004 56.1427 196.006 56.1076 196.006C55.8239 196.005 55.5498 195.904 55.3348 195.719C55.1197 195.534 54.9779 195.279 54.9349 195L54.9341 195Z" fill="#200A4E"/>
<path d="M42.7773 100.294C42.7414 98.4734 40.6618 97.1679 38.8656 97.4907C37.0693 97.8134 35.6889 99.3412 34.9979 101.026C33.5378 104.586 34.6338 108.649 36.0406 112.232C37.4474 115.815 39.1885 119.449 38.9831 123.291C38.8442 125.367 38.1459 127.367 36.9618 129.081C35.7778 130.794 34.152 132.156 32.2562 133.023C34.2831 133.94 36.706 132.993 38.4094 131.564C42.1922 128.39 43.6523 122.74 41.8793 118.137C41.0048 115.867 39.4635 113.925 38.2602 111.81C37.0569 109.694 36.174 107.202 36.7954 104.85C37.4168 102.498 40.0607 100.594 42.3209 101.504L42.7773 100.294Z" fill="#2F2E41"/>
<path d="M49.6526 109.566C49.0881 108.614 48.5189 107.365 49.5503 106.533C49.7746 106.36 50.0313 106.234 50.3052 106.162C50.5791 106.089 50.8648 106.072 51.1453 106.112C52.3085 106.252 53.5754 106.309 54.7014 105.888C55.1237 105.743 55.5125 105.514 55.8447 105.217C56.1769 104.919 56.4457 104.557 56.6352 104.154C57.2153 102.78 56.4886 101.11 55.2735 100.241C54.5301 99.7294 53.6517 99.4477 52.7484 99.4317C51.8452 99.4158 50.9573 99.6663 50.1962 100.152C48.6222 99.4581 46.7126 99.7667 45.2826 100.722C43.8526 101.676 42.8742 103.205 42.3427 104.838C41.853 106.243 41.7687 107.758 42.0993 109.209C42.3654 110.218 42.8713 111.148 43.5742 111.921C44.2771 112.694 45.1563 113.286 46.1374 113.648C46.5195 113.799 46.9345 113.846 47.3409 113.786C47.7472 113.726 48.1306 113.561 48.4527 113.306C48.4527 113.306 49.3451 112.529 49.6243 111.593C49.8392 110.873 49.9539 110.074 49.6526 109.566Z" fill="#2F2E41"/>
<path d="M68.8623 115.331C68.83 115.473 68.8089 115.617 68.7993 115.762L57.4738 122.281L54.7211 120.7L51.7864 124.533L56.3871 127.805C56.7588 128.069 57.2065 128.206 57.6629 128.195C58.1192 128.184 58.5597 128.025 58.9181 127.743L70.5976 118.551C71.1248 118.746 71.699 118.776 72.2438 118.637C72.7885 118.498 73.2781 118.197 73.6472 117.774C74.0163 117.351 74.2476 116.826 74.3103 116.269C74.3729 115.711 74.264 115.148 73.9979 114.654C73.7318 114.16 73.3213 113.758 72.8208 113.502C72.3204 113.247 71.7538 113.149 71.1964 113.223C70.639 113.296 70.1173 113.537 69.7007 113.914C69.284 114.291 68.9921 114.785 68.8639 115.331H68.8623Z" fill="#FFB8B8"/>
<path d="M57.0951 122.59L53.4346 127.323C53.3305 127.457 53.1985 127.568 53.0477 127.647C52.8969 127.726 52.7308 127.772 52.5607 127.781C52.3906 127.79 52.2205 127.763 52.062 127.701C51.9034 127.639 51.7601 127.543 51.6418 127.421L47.4981 123.128C46.7969 122.607 46.3318 121.83 46.2049 120.967C46.0781 120.104 46.3 119.227 46.8219 118.527C47.3437 117.828 48.1227 117.363 48.9875 117.237C49.8523 117.11 50.732 117.332 51.4332 117.852C51.469 117.879 51.5043 117.906 51.539 117.934L56.736 120.834C56.8848 120.917 57.0139 121.031 57.1145 121.168C57.2151 121.305 57.2848 121.463 57.319 121.629C57.3531 121.796 57.3509 121.968 57.3124 122.134C57.2739 122.3 57.2 122.455 57.0959 122.59L57.0951 122.59Z" fill="#FFAA00"/>
<path d="M44.9705 102.134C45.4586 101.841 45.8917 101.466 46.2505 101.024C46.4276 100.801 46.5442 100.537 46.5889 100.256C46.6337 99.9745 46.6052 99.6867 46.5062 99.4198C46.179 98.6996 45.2069 98.4729 44.4534 98.7172C43.6999 98.9616 43.1181 99.5516 42.5676 100.12C42.0827 100.62 41.5839 101.144 41.3548 101.801C41.1257 102.458 41.243 103.292 41.8151 103.691C42.3767 104.082 43.184 103.922 43.7239 103.502C44.2639 103.082 44.5982 102.458 44.9169 101.853L44.9705 102.134Z" fill="#2F2E41"/>
<path d="M214.534 66.9478C214.534 66.9478 214.327 68.2084 214.533 68.9708C214.789 69.9137 215.667 70.103 215.937 71.0421C216.146 71.7698 215.815 72.2474 216.008 72.9795C216.239 73.858 216.935 73.9224 217.173 74.9935C217.41 76.0646 216.853 76.3774 217.07 77.2208C217.247 77.9099 217.933 78.8257 217.933 78.8257" stroke="#FFAA00" stroke-width="0.930681" stroke-linecap="round"/>
<path d="M103.374 1.28745C103.374 1.28745 104.372 1.716 104.824 2.21351C105.382 2.82878 105.116 3.54418 105.665 4.16758C106.09 4.65066 106.584 4.63233 107.02 5.10602C107.543 5.67449 107.271 6.20223 107.929 6.8631C108.587 7.52397 109.066 7.26852 109.571 7.81C109.984 8.2525 110.326 9.16308 110.326 9.16308" stroke="#4C1ADA" stroke-opacity="0.6" stroke-width="0.930681" stroke-linecap="round"/>
<path d="M207.912 170.506C207.912 170.506 208.304 171.723 208.837 172.306C209.496 173.028 210.363 172.795 211.033 173.507C211.552 174.059 211.476 174.635 211.983 175.198C212.591 175.874 213.239 175.613 213.941 176.457C214.642 177.301 214.29 177.834 214.869 178.485C215.341 179.017 216.37 179.518 216.37 179.518" stroke="#D30DF3" stroke-opacity="0.6" stroke-width="0.930681" stroke-linecap="round"/>
<path d="M225.69 132.88L226.398 135.162L228.788 135.13L226.836 136.509L227.605 138.772L225.69 137.342L223.775 138.772L224.544 136.509L222.592 135.13L224.982 135.162L225.69 132.88Z" stroke="#FF1F1F" stroke-opacity="0.6" stroke-width="0.930681"/>
<path d="M12.0987 78.8999L13.1107 82.1604L16.5244 82.1153L13.7362 84.0854L14.8339 87.318L12.0987 85.2751L9.36351 87.318L10.4612 84.0854L7.67307 82.1153L11.0867 82.1604L12.0987 78.8999Z" stroke="#FFAA00" stroke-opacity="0.6" stroke-width="0.930681"/>
<path d="M186.136 43.5342L186.946 46.1426L189.677 46.1065L187.446 47.6825L188.324 50.2686L186.136 48.6343L183.948 50.2686L184.826 47.6825L182.596 46.1065L185.326 46.1426L186.136 43.5342Z" stroke="#4C1ADA" stroke-opacity="0.6" stroke-width="0.930681"/>
<path d="M63.8912 46.8629L64.2218 47.2002L64.5542 46.8645C65.1837 46.2287 66.0343 45.8736 66.9193 45.8747C67.8042 45.8758 68.654 46.2331 69.282 46.8705C69.9102 47.5081 70.2649 48.3741 70.2661 49.2789C70.2673 50.1835 69.9152 51.0503 69.289 51.6897C69.2889 51.6898 69.2887 51.69 69.2886 51.6901L64.2235 56.8313L59.1575 51.6892L59.1575 51.6892L59.1452 51.6767C59.1451 51.6766 59.145 51.6765 59.1449 51.6763C58.5175 51.036 58.165 50.1674 58.1673 49.2612C58.1695 48.3549 58.5264 47.4879 59.1571 46.8508C59.7877 46.2139 60.6401 45.8586 61.5266 45.8609C62.413 45.8631 63.2637 46.2227 63.8912 46.8629Z" stroke="#DC0000" stroke-opacity="0.6" stroke-width="0.930681"/>
<path d="M15.3359 156.92L15.6209 156.543L15.2399 156.263C14.6497 155.831 14.2602 155.186 14.1545 154.471C14.0488 153.755 14.2351 153.025 14.6749 152.44C15.1149 151.855 15.7729 151.464 16.5052 151.354C17.2372 151.244 17.9811 151.424 18.5737 151.853C18.5739 151.854 18.5741 151.854 18.5743 151.854L23.4107 155.38L19.8121 160.164L19.812 160.164L19.8033 160.176C19.8032 160.176 19.8031 160.176 19.803 160.176C19.3607 160.761 18.7004 161.151 17.9666 161.258C17.2327 161.366 16.4881 161.182 15.8967 160.748C15.3055 160.315 14.9157 159.669 14.8107 158.952C14.7057 158.235 14.8938 157.504 15.3359 156.92Z" stroke="#36B0B0" stroke-opacity="0.6" stroke-width="0.930681"/>
</svg>
