<svg width="100" height="91" viewBox="0 0 100 91" fill="none" xmlns="http://www.w3.org/2000/svg">
<path d="M14.4391 24.2562C13.8984 22.2882 18.2597 20.6007 19.405 22.1855C19.5643 21.9602 20.1528 21.8233 20.4228 21.8924C20.6872 21.98 20.9314 22.1191 21.1415 22.3016C21.4462 22.5352 21.7619 22.7771 21.9489 23.113C22.1372 23.4476 22.1663 23.9037 21.9129 24.194C21.7121 24.4249 21.1194 24.5742 20.8175 24.635C20.607 24.6778 20.4298 24.7124 20.2774 24.7373C20.1391 24.5383 20.0753 24.297 20.0974 24.0558C19.9949 24.1248 19.9089 24.2157 19.8457 24.3218C19.7825 24.4279 19.7436 24.5467 19.7318 24.6695C19.7277 24.7207 21.4337 30.9868 21.4337 30.9868C21.2287 31.1033 21.0131 31.2 20.7898 31.2757C20.348 30.6017 20.0096 29.8655 19.7858 29.0916C19.7344 29.6091 19.7409 30.1307 19.8052 30.6468C19.8394 30.9361 19.8884 31.2236 19.952 31.508C17.9247 31.9448 14.8753 31.801 13.5487 29.9432L13.548 29.9201C13.547 29.8468 13.5205 29.7761 13.4729 29.7201C13.4254 29.6642 13.3599 29.6264 13.2876 29.6134C13.2153 29.6004 13.1407 29.6129 13.0766 29.6487C13.0125 29.6845 12.9629 29.7415 12.9362 29.8098C12.904 29.8918 12.8744 29.9628 12.848 30.0192C12.4616 28.6396 12.9615 27.043 14.4391 24.2562Z" fill="#2F2E41"/>
<path d="M23.9998 87.2034L25.5104 87.1907L26.179 81.2391L23.9497 81.2579L23.9998 87.2034Z" fill="#FFB8B8"/>
<path d="M28.5423 89.0493L26.1297 87.4158L26.1206 86.3368L25.6018 86.3715L23.9937 86.4821L23.5994 86.5083L23.3133 90.322L24.4465 90.3117L24.6396 89.2425L25.1654 90.3063L28.1687 90.2813C28.3126 90.28 28.4524 90.2329 28.5677 90.1467C28.6829 90.0606 28.7675 89.9399 28.8093 89.8024C28.851 89.6649 28.8476 89.5176 28.7995 89.3821C28.7515 89.2466 28.6614 89.13 28.5423 89.0493Z" fill="#2F2E41"/>
<path d="M8.93793 86.6154L10.4314 86.8421L12.0371 81.0716L9.83288 80.7372L8.93793 86.6154Z" fill="#FFB8B8"/>
<path d="M13.1298 89.1572L11.0073 87.1625L11.1697 86.0957L10.6519 86.0478L9.04658 85.9025L8.65316 85.8659L7.76477 89.586L8.88526 89.7553L9.24579 88.7301L9.59589 89.8637L12.5651 90.3145C12.7075 90.336 12.853 90.3116 12.9805 90.2448C13.1079 90.178 13.2107 90.0723 13.2737 89.9431C13.3368 89.8139 13.3568 89.6679 13.3309 89.5266C13.305 89.3852 13.2345 89.2558 13.1298 89.1572Z" fill="#2F2E41"/>
<path d="M23.3054 45.623L27.5883 53.2801C27.5883 53.2801 27.4095 69.0282 27.9787 69.6123C28.5479 70.1964 29.0633 70.7203 28.5479 70.7155C28.0326 70.7108 27.4088 71.9626 27.4088 71.9626L26.3429 83.7952H23.655C23.655 83.7952 21.7636 76.8173 22.1668 72.8381L18.9826 58.2964C18.9826 58.2964 16.6949 72.0483 16.2827 72.4599C15.8704 72.8714 15.6217 72.8685 16.0552 73.2815C16.4888 73.6945 16.0552 74.6286 16.0552 74.6286L11.5357 83.9921L9.08417 83.6835C9.08417 83.6835 9.50917 76.0394 10.9891 72.7578V57.2498C10.8777 58.5795 16.0918 45.1218 12.9033 46.1319C13.9121 45.8123 23.3054 45.623 23.3054 45.623Z" fill="#0F4755"/>
<path d="M19.6648 31.0223L15.3109 30.1003L14.4464 31.8373L11.5353 33.5197C11.5353 33.5197 13.4118 41.1787 13.4011 42.2559C13.3739 44.9907 8.99027 51.1214 12.3014 50.6497C15.6125 50.1781 16.2851 48.2026 17.348 48.515C21.7334 49.8037 26.9453 49.6671 25.1718 47.8967C23.3982 46.1263 23.7945 34.3415 23.7945 34.3415L20.3594 32.721L19.6648 31.0223Z" fill="#FFAA00"/>
<path d="M11.4534 58.8366C11.6283 58.6283 11.715 58.3602 11.6949 58.0892C11.6748 57.8182 11.5495 57.5657 11.3458 57.3854C11.3038 57.3494 11.2589 57.317 11.2115 57.2884L11.9395 53.7221L10.2566 52.7167L9.7885 57.7097C9.68495 57.9149 9.65235 58.1485 9.69581 58.3742C9.73926 58.5998 9.85632 58.8047 10.0287 58.957C10.2285 59.13 10.489 59.2168 10.7529 59.1981C11.0167 59.1795 11.2624 59.0569 11.4357 58.8575C11.4417 58.8506 11.4476 58.8436 11.4534 58.8366Z" fill="#FFB8B8"/>
<path d="M10.5238 42.1495L10.6638 35.6509C10.6726 35.2423 10.7632 34.8397 10.9302 34.4667C11.0973 34.0936 11.3375 33.7578 11.6366 33.4788C11.9357 33.1998 12.2877 32.9835 12.6719 32.8424C13.056 32.7013 13.4646 32.6384 13.8735 32.6574C15.2038 32.7195 14.8494 33.2501 15.2027 34.5319C15.7769 36.6154 15.9978 37.8198 15.8592 38.1114C15.8123 38.2102 15.7628 38.3048 15.7153 38.3959C15.4704 38.8647 15.2934 39.2035 15.7431 39.528C15.921 39.6454 16.1147 39.737 16.3185 39.7999C16.5214 39.8719 16.6681 39.9239 16.6784 40.0384C16.6883 40.1493 16.563 40.2643 16.2158 40.4626C15.2835 40.9952 14.4751 44.1784 14.4672 44.2099L11.762 55.5377L9.60693 55.4308L10.5238 42.1495Z" fill="#FFAA00"/>
<path d="M37.6405 51.0285C37.3709 50.9902 37.127 50.8485 36.9606 50.6334C36.7942 50.4183 36.7184 50.1469 36.7494 49.8769C36.7565 49.8221 36.7682 49.768 36.7843 49.7152L33.856 47.5469L34.4354 45.6765L38.1252 49.0797C38.3396 49.1634 38.5202 49.3155 38.6389 49.5124C38.7575 49.7092 38.8076 49.9398 38.7812 50.1681C38.7649 50.2978 38.7232 50.4231 38.6584 50.5367C38.5936 50.6503 38.5071 50.7501 38.4037 50.8304C38.3003 50.9106 38.182 50.9698 38.0557 51.0044C37.9294 51.0391 37.7975 51.0485 37.6676 51.0323C37.6585 51.0311 37.6495 51.0299 37.6405 51.0285Z" fill="#FFB8B8"/>
<path d="M36.7351 47.2628L35.2029 48.7793L25.609 42.1541C25.582 42.136 22.8502 40.3064 21.8 40.5317C21.409 40.6157 21.2387 40.6137 21.1719 40.5246C21.1029 40.4325 21.1772 40.296 21.2801 40.1071C21.3896 39.9244 21.4725 39.7271 21.5262 39.5211C21.6437 38.9797 21.2853 38.8456 20.7893 38.6601C20.693 38.6241 20.5929 38.5866 20.4919 38.5444C20.1936 38.4198 19.5519 37.3763 18.5848 35.443C17.9899 34.2535 17.3711 34.0951 18.3194 33.1618C18.611 32.875 18.9571 32.6493 19.3374 32.4981C19.7177 32.3469 20.1244 32.2732 20.5337 32.2813C20.9429 32.2894 21.3464 32.3792 21.7204 32.5453C22.0944 32.7115 22.4312 32.9507 22.7112 33.2488L27.1645 37.9913L36.7351 47.2628Z" fill="#FFAA00"/>
<path d="M17.8283 30.0353C19.7901 30.0353 21.3804 28.4478 21.3804 26.4896C21.3804 24.5313 19.7901 22.9438 17.8283 22.9438C15.8666 22.9438 14.2762 24.5313 14.2762 26.4896C14.2762 28.4478 15.8666 30.0353 17.8283 30.0353Z" fill="#FFB8B8"/>
<path d="M12.5003 24.5329C11.9596 22.5649 16.3209 20.8773 17.4662 22.4622C17.6255 22.2369 18.214 22.1 18.4841 22.1691C18.7484 22.2567 18.9927 22.3958 19.2028 22.5783C19.5074 22.8119 19.8231 23.0538 20.0101 23.3897C20.1984 23.7242 20.2275 24.1804 19.9741 24.4707C19.7733 24.7016 19.1806 24.8509 18.8787 24.9117C18.6682 24.9545 18.491 24.9891 18.3386 25.014C18.2003 24.815 18.1365 24.5737 18.1586 24.3325C18.0561 24.4015 17.9701 24.4924 17.9069 24.5985C17.8437 24.7046 17.8048 24.8233 17.793 24.9462C17.7889 24.9974 19.4949 31.2635 19.4949 31.2635C19.29 31.38 19.0743 31.4767 18.851 31.5524C18.4092 30.8784 18.0708 30.1422 17.847 29.3683C17.7956 29.8858 17.8021 30.4074 17.8664 30.9235C17.9006 31.2128 17.9496 31.5003 18.0132 31.7847C15.9859 32.2215 12.9365 32.0777 11.6099 30.2199L11.6092 30.1968C11.6082 30.1235 11.5817 30.0528 11.5342 29.9968C11.4866 29.9409 11.4211 29.9032 11.3488 29.8901C11.2765 29.8771 11.2019 29.8896 11.1378 29.9254C11.0737 29.9612 11.0241 30.0182 10.9974 30.0865C10.9653 30.1685 10.9356 30.2395 10.9092 30.2959C10.5228 28.9163 11.0228 27.3197 12.5003 24.5329Z" fill="#2F2E41"/>
<path d="M84.0636 0.558136H40.1458C39.6245 0.558136 39.1083 0.660628 38.6267 0.859761C38.1451 1.05889 37.7075 1.35077 37.3389 1.71872C36.9703 2.08667 36.6779 2.52349 36.4784 3.00424C36.2789 3.48498 36.1763 4.00025 36.1763 4.52061V70.7133C36.1763 71.7642 36.5945 72.7721 37.3389 73.5152C38.0833 74.2583 39.093 74.6758 40.1458 74.6758H84.0636C85.1164 74.6758 86.126 74.2583 86.8705 73.5152C87.6149 72.7721 88.0331 71.7642 88.0331 70.7133C93.859 48.2183 94.0382 26.1408 88.0331 4.52061C88.0331 3.4697 87.6149 2.46182 86.8705 1.71872C86.126 0.975609 85.1164 0.558136 84.0636 0.558136ZM41.4798 65.5049C41.4798 65.675 41.4121 65.8382 41.2916 65.9585C41.1711 66.0788 41.0076 66.1464 40.8372 66.1464H39.176C39.0056 66.1464 38.8421 66.0788 38.7216 65.9585C38.6011 65.8382 38.5334 65.675 38.5334 65.5049V63.8467C38.5334 63.6766 38.6011 63.5134 38.7216 63.3931C38.8421 63.2728 39.0056 63.2052 39.176 63.2052H40.8372C41.0076 63.2052 41.1711 63.2728 41.2916 63.3931C41.4121 63.5134 41.4798 63.6766 41.4798 63.8467V65.5049ZM41.4798 58.9608C41.4798 59.1309 41.4121 59.2941 41.2916 59.4144C41.1711 59.5347 41.0076 59.6023 40.8372 59.6023H39.176C39.0056 59.6023 38.8421 59.5347 38.7216 59.4144C38.6011 59.2941 38.5334 59.1309 38.5334 58.9608V57.3026C38.5334 57.2183 38.55 57.1349 38.5823 57.0571C38.6146 56.9793 38.662 56.9085 38.7216 56.849C38.7813 56.7894 38.8521 56.7421 38.9301 56.7099C39.0081 56.6777 39.0916 56.6611 39.176 56.6611H40.8372C40.9216 56.6611 41.0051 56.6777 41.0831 56.7099C41.1611 56.7421 41.2319 56.7894 41.2916 56.849C41.3513 56.9085 41.3986 56.9793 41.4309 57.0571C41.4632 57.1349 41.4798 57.2183 41.4798 57.3026V58.9608ZM41.4798 52.4166C41.4798 52.5868 41.4121 52.7499 41.2916 52.8702C41.1711 52.9906 41.0076 53.0581 40.8372 53.0581H39.176C39.0056 53.0581 38.8421 52.9906 38.7216 52.8702C38.6011 52.7499 38.5334 52.5868 38.5334 52.4166V50.7585C38.5334 50.5883 38.6011 50.4252 38.7216 50.3049C38.8421 50.1846 39.0056 50.117 39.176 50.117H40.8372C41.0076 50.117 41.1711 50.1846 41.2916 50.3049C41.4121 50.4252 41.4798 50.5883 41.4798 50.7585V52.4166ZM41.4798 45.8725C41.4798 46.0427 41.4121 46.2058 41.2916 46.3261C41.1711 46.4464 41.0076 46.514 40.8372 46.514H39.176C39.0056 46.514 38.8421 46.4464 38.7216 46.3261C38.6011 46.2058 38.5334 46.0427 38.5334 45.8725V44.2143C38.5334 44.0442 38.6011 43.881 38.7216 43.7607C38.8421 43.6404 39.0056 43.5728 39.176 43.5728H40.8372C41.0076 43.5728 41.1711 43.6404 41.2916 43.7607C41.4121 43.881 41.4798 44.0442 41.4798 44.2143V45.8725ZM41.4798 39.3284C41.4798 39.4985 41.4121 39.6617 41.2916 39.782C41.1711 39.9023 41.0076 39.9699 40.8372 39.9699H39.176C39.0056 39.9699 38.8421 39.9023 38.7216 39.782C38.6011 39.6617 38.5334 39.4985 38.5334 39.3284V37.6702C38.5334 37.5001 38.6011 37.3369 38.7216 37.2166C38.8421 37.0963 39.0056 37.0287 39.176 37.0287H40.8372C41.0076 37.0287 41.1711 37.0963 41.2916 37.2166C41.4121 37.3369 41.4798 37.5001 41.4798 37.6702V39.3284ZM41.4798 32.7843C41.4798 32.9544 41.4121 33.1176 41.2916 33.2379C41.1711 33.3582 41.0076 33.4258 40.8372 33.4258H39.176C39.0056 33.4258 38.8421 33.3582 38.7216 33.2379C38.6011 33.1176 38.5334 32.9544 38.5334 32.7843V31.1261C38.5334 30.956 38.6011 30.7928 38.7216 30.6725C38.8421 30.5522 39.0056 30.4846 39.176 30.4846H40.8372C41.0076 30.4846 41.1711 30.5522 41.2916 30.6725C41.4121 30.7928 41.4798 30.956 41.4798 31.1261V32.7843ZM41.4798 26.2402C41.4798 26.4103 41.4121 26.5735 41.2916 26.6938C41.1711 26.8141 41.0076 26.8817 40.8372 26.8817H39.176C39.0056 26.8817 38.8421 26.8141 38.7216 26.6938C38.6011 26.5735 38.5334 26.4103 38.5334 26.2402V24.582C38.5334 24.4119 38.6011 24.2487 38.7216 24.1284C38.8421 24.0081 39.0056 23.9405 39.176 23.9405H40.8372C41.0076 23.9405 41.1711 24.0081 41.2916 24.1284C41.4121 24.2487 41.4798 24.4119 41.4798 24.582V26.2402ZM41.4798 19.6961C41.4798 19.8662 41.4121 20.0294 41.2916 20.1497C41.1711 20.27 41.0076 20.3375 40.8372 20.3375H39.176C39.0056 20.3375 38.8421 20.27 38.7216 20.1497C38.6011 20.0294 38.5334 19.8662 38.5334 19.6961V18.0379C38.5334 17.8677 38.6011 17.7046 38.7216 17.5843C38.8421 17.464 39.0056 17.3964 39.176 17.3964H40.8372C41.0076 17.3964 41.1711 17.464 41.2916 17.5843C41.4121 17.7046 41.4798 17.8677 41.4798 18.0379V19.6961ZM41.4798 13.1519C41.4798 13.3221 41.4121 13.4852 41.2916 13.6055C41.1711 13.7258 41.0076 13.7934 40.8372 13.7934H39.176C39.0056 13.7934 38.8421 13.7258 38.7216 13.6055C38.6011 13.4852 38.5334 13.3221 38.5334 13.1519V11.4938C38.5334 11.3236 38.6011 11.1604 38.7216 11.0401C38.8421 10.9198 39.0056 10.8523 39.176 10.8523H40.8372C41.0076 10.8523 41.1711 10.9198 41.2916 11.0401C41.4121 11.1604 41.4798 11.3236 41.4798 11.4938V13.1519Z" fill="#E9F5F8"/>
<path d="M41.1052 4.08731H38.9086C38.7015 4.08731 38.5337 4.25485 38.5337 4.46152V6.65428C38.5337 6.86095 38.7015 7.02849 38.9086 7.02849H41.1052C41.3123 7.02849 41.4801 6.86095 41.4801 6.65428V4.46152C41.4801 4.25485 41.3123 4.08731 41.1052 4.08731Z" fill="#219EBC"/>
<path d="M79.489 12.4942H47.4149C47.3693 12.4942 47.3256 12.4762 47.2933 12.444C47.2611 12.4118 47.243 12.3682 47.243 12.3227C47.243 12.2772 47.2611 12.2335 47.2933 12.2013C47.3256 12.1692 47.3693 12.1511 47.4149 12.1511H79.489C79.5346 12.1511 79.5783 12.1692 79.6105 12.2013C79.6428 12.2335 79.6609 12.2772 79.6609 12.3227C79.6609 12.3682 79.6428 12.4118 79.6105 12.444C79.5783 12.4762 79.5346 12.4942 79.489 12.4942Z" fill="#E6E6E6"/>
<path d="M79.489 6.02392H70.3551C70.3095 6.02392 70.2658 6.00584 70.2336 5.97367C70.2013 5.94149 70.1832 5.89786 70.1832 5.85235C70.1832 5.80685 70.2013 5.76321 70.2336 5.73104C70.2658 5.69886 70.3095 5.68079 70.3551 5.68079H79.489C79.5346 5.68079 79.5783 5.69886 79.6105 5.73104C79.6428 5.76321 79.6609 5.80685 79.6609 5.85235C79.6609 5.89786 79.6428 5.94149 79.6105 5.97367C79.5783 6.00584 79.5346 6.02392 79.489 6.02392Z" fill="#E6E6E6"/>
<path d="M79.489 18.9649H47.4149C47.3693 18.9649 47.3256 18.9468 47.2933 18.9146C47.2611 18.8824 47.243 18.8388 47.243 18.7933C47.243 18.7478 47.2611 18.7041 47.2933 18.672C47.3256 18.6398 47.3693 18.6217 47.4149 18.6217H79.489C79.5346 18.6217 79.5783 18.6398 79.6105 18.672C79.6428 18.7041 79.6609 18.7478 79.6609 18.7933C79.6609 18.8388 79.6428 18.8824 79.6105 18.9146C79.5783 18.9468 79.5346 18.9649 79.489 18.9649Z" fill="#E6E6E6"/>
<path d="M79.489 25.4354H47.4149C47.3693 25.4354 47.3256 25.4173 47.2933 25.3852C47.2611 25.353 47.243 25.3093 47.243 25.2638C47.243 25.2183 47.2611 25.1747 47.2933 25.1425C47.3256 25.1103 47.3693 25.0923 47.4149 25.0923H79.489C79.5346 25.0923 79.5783 25.1103 79.6105 25.1425C79.6428 25.1747 79.6609 25.2183 79.6609 25.2638C79.6609 25.3093 79.6428 25.353 79.6105 25.3852C79.5783 25.4173 79.5346 25.4354 79.489 25.4354Z" fill="#E6E6E6"/>
<path d="M79.489 31.906H47.4149C47.3693 31.906 47.3256 31.888 47.2933 31.8558C47.2611 31.8236 47.243 31.78 47.243 31.7345C47.243 31.689 47.2611 31.6453 47.2933 31.6132C47.3256 31.581 47.3693 31.5629 47.4149 31.5629H79.489C79.5346 31.5629 79.5783 31.581 79.6105 31.6132C79.6428 31.6453 79.6609 31.689 79.6609 31.7345C79.6609 31.78 79.6428 31.8236 79.6105 31.8558C79.5783 31.888 79.5346 31.906 79.489 31.906Z" fill="#E6E6E6"/>
<path d="M79.489 38.3767H47.4149C47.3693 38.3767 47.3256 38.3586 47.2933 38.3264C47.2611 38.2942 47.243 38.2506 47.243 38.2051C47.243 38.1596 47.2611 38.116 47.2933 38.0838C47.3256 38.0516 47.3693 38.0335 47.4149 38.0335H79.489C79.5346 38.0335 79.5783 38.0516 79.6105 38.0838C79.6428 38.116 79.6609 38.1596 79.6609 38.2051C79.6609 38.2506 79.6428 38.2942 79.6105 38.3264C79.5783 38.3586 79.5346 38.3767 79.489 38.3767Z" fill="#E6E6E6"/>
<path d="M79.489 44.8473H47.4149C47.3693 44.8473 47.3256 44.8292 47.2933 44.797C47.2611 44.7649 47.243 44.7212 47.243 44.6757C47.243 44.6302 47.2611 44.5866 47.2933 44.5544C47.3256 44.5222 47.3693 44.5042 47.4149 44.5042H79.489C79.5346 44.5042 79.5783 44.5222 79.6105 44.5544C79.6428 44.5866 79.6609 44.6302 79.6609 44.6757C79.6609 44.7212 79.6428 44.7649 79.6105 44.797C79.5783 44.8292 79.5346 44.8473 79.489 44.8473Z" fill="#E6E6E6"/>
<path d="M79.489 51.3179H47.4149C47.3693 51.3179 47.3256 51.2998 47.2933 51.2677C47.2611 51.2355 47.243 51.1918 47.243 51.1463C47.243 51.1008 47.2611 51.0572 47.2933 51.025C47.3256 50.9929 47.3693 50.9748 47.4149 50.9748H79.489C79.5346 50.9748 79.5783 50.9929 79.6105 51.025C79.6428 51.0572 79.6609 51.1008 79.6609 51.1463C79.6609 51.1918 79.6428 51.2355 79.6105 51.2677C79.5783 51.2998 79.5346 51.3179 79.489 51.3179Z" fill="#E6E6E6"/>
<path d="M79.489 57.7885H47.4149C47.3693 57.7885 47.3256 57.7705 47.2933 57.7383C47.2611 57.7061 47.243 57.6625 47.243 57.617C47.243 57.5715 47.2611 57.5278 47.2933 57.4956C47.3256 57.4635 47.3693 57.4454 47.4149 57.4454H79.489C79.5346 57.4454 79.5783 57.4635 79.6105 57.4956C79.6428 57.5278 79.6609 57.5715 79.6609 57.617C79.6609 57.6625 79.6428 57.7061 79.6105 57.7383C79.5783 57.7705 79.5346 57.7885 79.489 57.7885Z" fill="#E6E6E6"/>
<path d="M79.489 64.2592H47.4149C47.3693 64.2592 47.3256 64.2411 47.2933 64.2089C47.2611 64.1767 47.243 64.1331 47.243 64.0876C47.243 64.0421 47.2611 63.9985 47.2933 63.9663C47.3256 63.9341 47.3693 63.916 47.4149 63.916H79.489C79.5346 63.916 79.5783 63.9341 79.6105 63.9663C79.6428 63.9985 79.6609 64.0421 79.6609 64.0876C79.6609 64.1331 79.6428 64.1767 79.6105 64.2089C79.5783 64.2411 79.5346 64.2592 79.489 64.2592Z" fill="#E6E6E6"/>
<path d="M74.7339 10.9838H52.6135C52.5274 10.984 52.4421 10.9672 52.3625 10.9344C52.2829 10.9016 52.2105 10.8534 52.1496 10.7927C52.0886 10.7319 52.0402 10.6598 52.0073 10.5803C51.9743 10.5009 51.9573 10.4158 51.9573 10.3298C51.9573 10.2438 51.9743 10.1587 52.0073 10.0793C52.0402 9.99986 52.0886 9.92772 52.1496 9.86697C52.2105 9.80622 52.2829 9.75807 52.3625 9.72527C52.4421 9.69246 52.5274 9.67564 52.6135 9.67578H74.7339C74.9075 9.67606 75.0739 9.74509 75.1965 9.86772C75.3192 9.99034 75.388 10.1565 75.388 10.3298C75.388 10.5031 75.3192 10.6693 75.1965 10.7919C75.0739 10.9145 74.9075 10.9836 74.7339 10.9838Z" fill="#CCCCCC"/>
<path d="M74.7339 17.4545H52.6136C52.4398 17.4545 52.2731 17.3856 52.1503 17.2629C52.0274 17.1403 51.9584 16.9739 51.9584 16.8005C51.9584 16.627 52.0274 16.4606 52.1503 16.338C52.2731 16.2153 52.4398 16.1464 52.6136 16.1464H74.7339C74.9077 16.1464 75.0744 16.2153 75.1972 16.338C75.3201 16.4606 75.3891 16.627 75.3891 16.8005C75.3891 16.9739 75.3201 17.1403 75.1972 17.2629C75.0744 17.3856 74.9077 17.4545 74.7339 17.4545Z" fill="#CCCCCC"/>
<path d="M74.7339 23.9251H52.6135C52.5274 23.9252 52.4421 23.9084 52.3625 23.8756C52.2829 23.8428 52.2105 23.7947 52.1496 23.7339C52.0886 23.6732 52.0402 23.601 52.0073 23.5216C51.9743 23.4422 51.9573 23.357 51.9573 23.2711C51.9573 23.1851 51.9743 23.1 52.0073 23.0205C52.0402 22.9411 52.0886 22.869 52.1496 22.8082C52.2105 22.7475 52.2829 22.6993 52.3625 22.6665C52.4421 22.6337 52.5274 22.6169 52.6135 22.617H74.7339C74.9075 22.6173 75.0739 22.6863 75.1965 22.809C75.3192 22.9316 75.388 23.0978 75.388 23.2711C75.388 23.4443 75.3192 23.6105 75.1965 23.7332C75.0739 23.8558 74.9075 23.9248 74.7339 23.9251Z" fill="#CCCCCC"/>
<path d="M74.7339 30.3957H52.6136C52.4398 30.3957 52.2731 30.3268 52.1503 30.2042C52.0274 30.0815 51.9584 29.9152 51.9584 29.7417C51.9584 29.5682 52.0274 29.4019 52.1503 29.2792C52.2731 29.1566 52.4398 29.0877 52.6136 29.0877H74.7339C74.9077 29.0877 75.0744 29.1566 75.1972 29.2792C75.3201 29.4019 75.3891 29.5682 75.3891 29.7417C75.3891 29.9152 75.3201 30.0815 75.1972 30.2042C75.0744 30.3268 74.9077 30.3957 74.7339 30.3957Z" fill="#CCCCCC"/>
<path d="M74.7339 36.8664H52.6135C52.5274 36.8665 52.4421 36.8497 52.3625 36.8169C52.2829 36.7841 52.2105 36.7359 52.1496 36.6752C52.0886 36.6144 52.0402 36.5423 52.0073 36.4629C51.9743 36.3834 51.9573 36.2983 51.9573 36.2123C51.9573 36.1264 51.9743 36.0412 52.0073 35.9618C52.0402 35.8824 52.0886 35.8102 52.1496 35.7495C52.2105 35.6887 52.2829 35.6406 52.3625 35.6078C52.4421 35.575 52.5274 35.5582 52.6135 35.5583H74.7339C74.9075 35.5586 75.0739 35.6276 75.1965 35.7502C75.3192 35.8729 75.388 36.0391 75.388 36.2123C75.388 36.3856 75.3192 36.5518 75.1965 36.6744C75.0739 36.7971 74.9075 36.8661 74.7339 36.8664Z" fill="#CCCCCC"/>
<path d="M74.7339 43.3369H52.6135C52.5274 43.337 52.4421 43.3202 52.3625 43.2874C52.2829 43.2546 52.2105 43.2065 52.1496 43.1457C52.0886 43.085 52.0402 43.0128 52.0073 42.9334C51.9743 42.854 51.9573 42.7688 51.9573 42.6829C51.9573 42.5969 51.9743 42.5118 52.0073 42.4323C52.0402 42.3529 52.0886 42.2808 52.1496 42.22C52.2105 42.1593 52.2829 42.1111 52.3625 42.0783C52.4421 42.0455 52.5274 42.0287 52.6135 42.0288H74.7339C74.9075 42.0291 75.0739 42.0982 75.1965 42.2208C75.3192 42.3434 75.388 42.5096 75.388 42.6829C75.388 42.8561 75.3192 43.0223 75.1965 43.145C75.0739 43.2676 74.9075 43.3366 74.7339 43.3369Z" fill="#CCCCCC"/>
<path d="M74.7339 49.8072H52.6136C52.4398 49.8072 52.2731 49.7383 52.1503 49.6157C52.0274 49.493 51.9584 49.3267 51.9584 49.1532C51.9584 48.9797 52.0274 48.8134 52.1503 48.6907C52.2731 48.5681 52.4398 48.4992 52.6136 48.4992H74.7339C74.9077 48.4992 75.0744 48.5681 75.1972 48.6907C75.3201 48.8134 75.3891 48.9797 75.3891 49.1532C75.3891 49.3267 75.3201 49.493 75.1972 49.6157C75.0744 49.7383 74.9077 49.8072 74.7339 49.8072Z" fill="#CCCCCC"/>
<path d="M74.7339 56.2778H52.6135C52.5274 56.2779 52.4421 56.2611 52.3625 56.2283C52.2829 56.1955 52.2105 56.1473 52.1496 56.0866C52.0886 56.0258 52.0402 55.9537 52.0073 55.8743C51.9743 55.7948 51.9573 55.7097 51.9573 55.6237C51.9573 55.5377 51.9743 55.4526 52.0073 55.3732C52.0402 55.2938 52.0886 55.2216 52.1496 55.1609C52.2105 55.1001 52.2829 55.052 52.3625 55.0192C52.4421 54.9864 52.5274 54.9696 52.6135 54.9697H74.7339C74.9075 54.97 75.0739 55.039 75.1965 55.1616C75.3192 55.2842 75.388 55.4504 75.388 55.6237C75.388 55.797 75.3192 55.9632 75.1965 56.0858C75.0739 56.2084 74.9075 56.2775 74.7339 56.2778Z" fill="#CCCCCC"/>
<path d="M74.7339 62.7484H52.6136C52.5275 62.7484 52.4423 62.7315 52.3628 62.6986C52.2833 62.6658 52.2111 62.6176 52.1503 62.5568C52.0894 62.4961 52.0412 62.424 52.0082 62.3447C51.9753 62.2653 51.9584 62.1803 51.9584 62.0944C51.9584 62.0085 51.9753 61.9234 52.0082 61.8441C52.0412 61.7647 52.0894 61.6926 52.1503 61.6319C52.2111 61.5712 52.2833 61.523 52.3628 61.4901C52.4423 61.4573 52.5275 61.4403 52.6136 61.4403H74.7339C74.9077 61.4403 75.0744 61.5093 75.1972 61.6319C75.3201 61.7546 75.3891 61.9209 75.3891 62.0944C75.3891 62.2678 75.3201 62.4342 75.1972 62.5568C75.0744 62.6795 74.9077 62.7484 74.7339 62.7484Z" fill="#CCCCCC"/>
<path d="M54.751 6.08891H49.0264C48.9808 6.08891 48.9371 6.10699 48.9049 6.13916C48.8727 6.17134 48.8546 6.21498 48.8546 6.26048C48.8546 6.30598 48.8727 6.34962 48.9049 6.3818C48.9371 6.41397 48.9808 6.43205 49.0264 6.43205H51.7168V12.0317C51.7168 12.0772 51.7349 12.1208 51.7672 12.153C51.7994 12.1851 51.8431 12.2032 51.8887 12.2032C51.9343 12.2032 51.978 12.1851 52.0102 12.153C52.0425 12.1208 52.0606 12.0772 52.0606 12.0317V9.11766C52.0606 8.40539 52.344 7.7223 52.8486 7.21865C53.3531 6.715 54.0374 6.43205 54.751 6.43205C54.7966 6.43205 54.8403 6.41398 54.8725 6.3818C54.9047 6.34963 54.9228 6.30598 54.9228 6.26048C54.9228 6.21498 54.9047 6.17134 54.8725 6.13917C54.8403 6.10699 54.7966 6.08891 54.751 6.08891Z" fill="#219EBC"/>
<path d="M75.5358 64.1122C75.4409 64.1122 74.236 64.0354 74.236 63.9406L75.364 58.2263C75.364 58.1808 75.3821 58.1371 75.4143 58.105C75.4465 58.0728 75.4902 58.0547 75.5358 58.0547C75.5814 58.0547 75.6251 58.0728 75.6574 58.105C75.6896 58.1371 75.7077 58.1808 75.7077 58.2263V63.9406C75.7077 63.9861 75.6896 64.0298 75.6574 64.062C75.6251 64.0941 75.5814 64.1122 75.5358 64.1122Z" fill="#219EBC"/>
<path d="M88.5266 4.52061C88.5266 3.4697 88.1084 2.46183 87.3639 1.71872C86.6195 0.975616 85.6098 0.55814 84.5571 0.558136H40.1295C41.9258 0.558136 63.5098 1.82514 77.2606 3.42442C79.5532 3.69077 81.7039 4.66961 83.4088 6.22259C85.1137 7.77557 86.2865 9.82414 86.7615 12.0787C90.8044 31.2792 90.0659 50.8332 84.9172 70.7133C84.9172 71.7642 84.499 72.7721 83.7546 73.5152C83.0102 74.2583 82.0005 74.6758 80.9477 74.6758H84.5571C85.6099 74.6758 86.6195 74.2583 87.3639 73.5152C88.1084 72.7721 88.5266 71.7642 88.5266 70.7133C94.3525 48.2183 94.5317 26.1408 88.5266 4.52061Z" fill="#219EBC"/>
<path d="M86.8512 72.7206L86.5184 72.6348C92.3955 49.9421 92.3975 27.7082 86.5246 6.55018C85.9133 5.44386 85.0338 4.50822 83.9666 3.82887C82.8994 3.14951 81.6786 2.74811 80.4159 2.6614L62.8048 1.4156L62.8291 1.0733L80.4402 2.3191C81.7636 2.41004 83.0428 2.83162 84.1603 3.54509C85.2778 4.25857 86.1977 5.24103 86.8354 6.40215L86.8505 6.4391C89.8198 17.1246 91.3145 28.1646 91.2934 39.2536C91.2712 50.165 89.7766 61.425 86.8512 72.7206Z" fill="#177085"/>
<line x1="0.764709" y1="90.4082" x2="99.2353" y2="90.4082" stroke="black" stroke-width="0.3"/>
</svg>
