<svg width="362" height="170" viewBox="0 0 362 170" fill="none" xmlns="http://www.w3.org/2000/svg">
<path d="M305.508 64.1015C300.762 62.4643 297.519 59.6238 293.862 55.4633L295.409 52.1797C299.247 57.245 300.505 59.9861 305.303 59.59L305.506 64.1015H305.508Z" fill="#FFB900"/>
<path d="M359.991 136.852C356.46 132.277 354.885 127.58 353.576 121.41L356.585 119.42C357.621 126.532 357.433 129.85 362 132.604L359.991 136.851V136.852Z" fill="#007BFF"/>
<path d="M241.743 76.4571C236.746 77.6943 232.591 76.9846 227.496 75.3137L227.487 71.4556C233.136 73.838 235.451 75.5991 239.621 72.4938L241.743 76.459V76.4571Z" fill="#14CCA1"/>
<path d="M113.284 60.7636C110.921 64.111 108.268 65.9002 104.697 67.6369L103.164 65.4403C107.332 63.8163 109.351 63.5985 110.501 59.6221L113.282 60.7636H113.284Z" fill="#FF5C33"/>
<path d="M31.0949 158.165C25.4819 158.447 21.2801 156.9 16.3397 154.185L17.3572 150.235C22.6932 153.787 24.6717 156.046 29.9078 153.689L31.0949 158.165Z" fill="#007BFF"/>
<path d="M41.33 62.2974C37.0472 59.1959 34.805 55.3941 32.6608 50.1691L35.5756 47.4487C37.5521 53.6143 37.7669 56.6914 42.9127 57.8216L41.33 62.2956V62.2974Z" fill="#14CCA1"/>
<path d="M66.9532 96.5138C62.1014 99.8894 57.5227 100.871 51.661 101.237L50.4495 97.1972C57.1139 97.3474 60.089 98.2297 63.4938 93.2395L66.9532 96.5138Z" fill="#007BFF"/>
<path d="M136.439 3.42446C131.572 6.2763 127.116 6.85079 121.461 6.73064L120.54 2.75046C126.933 3.43197 129.74 4.52088 133.313 0L136.439 3.42446Z" fill="#FFB900"/>
<path d="M205.412 13.2585C201.355 11.2647 198.732 8.37905 195.857 4.27683L197.509 1.55078C200.468 6.47156 201.344 9.04178 205.619 9.24455L205.41 13.2566L205.412 13.2585Z" fill="#14CCA1"/>
<path d="M268.559 29.0328C272.998 26.4269 275.461 23.0269 277.918 18.2882L275.202 15.5415C272.853 21.172 272.444 24.0351 267.276 24.7372L268.559 29.0309V29.0328Z" fill="#FF5C33"/>
<g opacity="0.84">
<path d="M122.413 169C117.938 166.343 115.155 162.81 112.176 157.869L114.25 154.923C117.267 160.807 118.081 163.816 122.935 164.453L122.411 169.002L122.413 169Z" fill="#FF5C33"/>
</g>
<path d="M270.437 129.035C268.657 134.562 265.906 138.225 261.951 142.286L259.132 140.222C263.905 136.006 266.431 134.697 266.405 128.971L270.435 129.035H270.437Z" fill="#FF5C33"/>
<path d="M86.6562 39.4263C87.6968 39.4263 88.5404 38.5857 88.5404 37.5488C88.5404 36.5119 87.6968 35.6714 86.6562 35.6714C85.6156 35.6714 84.772 36.5119 84.772 37.5488C84.772 38.5857 85.6156 39.4263 86.6562 39.4263Z" fill="#FF5C33"/>
<path d="M236.386 39.4263C237.427 39.4263 238.27 38.5857 238.27 37.5488C238.27 36.5119 237.427 35.6714 236.386 35.6714C235.345 35.6714 234.502 36.5119 234.502 37.5488C234.502 38.5857 235.345 39.4263 236.386 39.4263Z" fill="#FFB900"/>
<path d="M285.628 96.6265C286.668 96.6265 287.512 95.7859 287.512 94.749C287.512 93.7121 286.668 92.8716 285.628 92.8716C284.587 92.8716 283.744 93.7121 283.744 94.749C283.744 95.7859 284.587 96.6265 285.628 96.6265Z" fill="#FF5C33"/>
<path d="M89.6709 115.651C90.7116 115.651 91.5551 114.81 91.5551 113.773C91.5551 112.736 90.7116 111.896 89.6709 111.896C88.6303 111.896 87.7867 112.736 87.7867 113.773C87.7867 114.81 88.6303 115.651 89.6709 115.651Z" fill="#14CCA1"/>
<path d="M3.76783 93.5596L0 97.314L3.76783 101.068L7.53566 97.314L3.76783 93.5596Z" fill="#FFB900"/>
<path d="M331.007 87.4107L327.239 91.165L331.007 94.9194L334.775 91.165L331.007 87.4107Z" fill="#14CCA1"/>
<path d="M180.959 150.235C205.789 150.235 225.918 130.178 225.918 105.437C225.918 80.6963 205.789 60.6396 180.959 60.6396C156.129 60.6396 136 80.6963 136 105.437C136 130.178 156.129 150.235 180.959 150.235Z" fill="#22CC15"/>
<path d="M170.377 128.543L154 112.224L159.329 106.915L170.377 117.924L203.436 84.9844L208.764 90.2957L170.377 128.543Z" fill="white"/>
</svg>
