<svg width="48" height="49" viewBox="0 0 48 49" fill="none" xmlns="http://www.w3.org/2000/svg">
<rect x="0.75" y="-0.75" width="46.5" height="46.5" rx="23.25" transform="matrix(-1 0 0 1 48 2)" fill="white" stroke="#219EBC" stroke-width="1.5"/>
<g clip-path="url(#clip0_307_5323)">
<path d="M20.2492 33.6626C19.5679 33.6629 18.9146 33.3921 18.4332 32.91L12.9431 27.4219C12.3523 26.8309 12.3523 25.873 12.9431 25.2821C13.534 24.6913 14.4919 24.6913 15.0828 25.2821L20.2492 30.4484L33.9172 16.7805C34.5081 16.1897 35.466 16.1897 36.0569 16.7805C36.6477 17.3714 36.6477 18.3293 36.0569 18.9202L22.0651 32.91C21.5838 33.3921 20.9305 33.6629 20.2492 33.6626Z" fill="#49AFC8"/>
</g>
<defs>
<clipPath id="clip0_307_5323">
<rect width="24" height="24" fill="white" transform="translate(12.5 13)"/>
</clipPath>
</defs>
</svg>
