<svg width="14" height="15" viewBox="0 0 14 15" fill="none" xmlns="http://www.w3.org/2000/svg">
<path d="M6.99967 11.2917C9.09375 11.2917 10.7913 9.59407 10.7913 7.49999C10.7913 5.40592 9.09375 3.70833 6.99967 3.70833C4.90559 3.70833 3.20801 5.40592 3.20801 7.49999C3.20801 9.59407 4.90559 11.2917 6.99967 11.2917Z" stroke="white" stroke-width="0.875" stroke-linecap="round" stroke-linejoin="round"/>
<path d="M11.1653 11.665L11.0895 11.5892M11.0895 3.41084L11.1653 3.33501L11.0895 3.41084ZM2.83533 11.665L2.91116 11.5892L2.83533 11.665ZM7.00033 1.71334V1.66667V1.71334ZM7.00033 13.3333V13.2867V13.3333ZM1.21366 7.5H1.16699H1.21366ZM12.8337 7.5H12.787H12.8337ZM2.91116 3.41084L2.83533 3.33501L2.91116 3.41084Z" stroke="white" stroke-width="1.16667" stroke-linecap="round" stroke-linejoin="round"/>
</svg>
