<svg width="22" height="24" viewBox="0 0 22 24" fill="none" xmlns="http://www.w3.org/2000/svg">
<path d="M11.4219 24C10.9155 23.8918 10.4317 23.7337 10.0085 23.4167C8.97138 22.6421 8.55046 21.3273 8.96532 20.1245C9.38624 18.9035 10.5407 18.1107 11.8497 18.1433C13.0912 18.1743 14.2177 19.0458 14.5599 20.2607C14.6129 20.449 14.6855 20.5028 14.8756 20.4907C16.2958 20.3968 17.4503 19.7977 18.3443 18.694C18.3754 18.6554 18.4428 18.6146 18.3981 18.5578C18.3776 18.5313 18.3133 18.5344 18.2686 18.5329C18.1127 18.5298 17.956 18.5374 17.8 18.5298C17.4654 18.514 17.2421 18.2946 17.2421 17.961C17.2391 15.5167 17.2375 13.0718 17.2444 10.6276C17.2459 10.1411 17.4843 9.93008 17.9757 9.92933C18.2775 9.92933 18.4284 9.77677 18.4284 9.47165C18.4284 8.55857 18.439 7.64852 18.2278 6.74678C17.5888 4.01283 15.2276 1.78044 12.4553 1.31369C8.51942 0.651759 4.91892 3.05285 4.03242 6.92834C3.8424 7.75972 3.86966 8.60396 3.87041 9.44669C3.87041 9.76794 4.02687 9.92882 4.33978 9.92933C4.84397 9.92933 5.0514 10.1442 5.05216 10.6911C5.05519 12.9954 5.03929 15.2989 5.06124 17.6031C5.06882 18.4224 4.84852 18.5609 4.12932 18.5366C3.48129 18.5147 2.83099 18.5487 2.18372 18.5185C1.02696 18.464 0.0533994 17.5108 0.0246317 16.3549C-0.00943528 14.9736 -0.0079212 13.59 0.0276599 12.2086C0.0571846 11.0535 1.03831 9.87562 2.41159 9.93311C2.62281 9.94219 2.68943 9.88545 2.68867 9.66456C2.68488 8.73634 2.63795 7.80511 2.83251 6.88673C3.45101 3.95761 5.11954 1.84247 7.86988 0.678236C12.4856 -1.27577 17.685 1.1518 19.2218 5.91389C19.5299 6.86782 19.6359 7.84823 19.6222 8.84604C19.6184 9.1509 19.6222 9.45501 19.6215 9.75987C19.6215 9.84989 19.6192 9.92327 19.7487 9.93311C20.7744 10.0088 21.3422 10.6654 21.7389 11.5248C21.932 11.9423 21.9963 12.3887 21.9956 12.8471C21.9925 13.9871 21.9766 15.1279 21.9993 16.2679C22.0266 17.6099 21.2029 18.3052 20.1143 18.4519C19.9531 18.4739 19.8637 18.5389 19.7857 18.6652C19.2543 19.5284 18.5896 20.2622 17.713 20.7917C16.8249 21.3281 15.8627 21.6103 14.8279 21.6511C14.7211 21.6556 14.6348 21.6398 14.5939 21.7986C14.2775 23.0393 13.4357 23.711 12.2115 23.9584C12.1669 23.9675 12.1237 23.9864 12.079 24H11.4227H11.4219ZM3.86966 14.2179C3.86966 13.3751 3.86966 12.5324 3.86966 11.6897C3.86966 11.3049 3.67636 11.1125 3.28976 11.1125C3.02404 11.1125 2.75907 11.1125 2.49335 11.1125C1.71511 11.1125 1.20335 11.6087 1.19805 12.3932C1.18972 13.6497 1.19351 14.9055 1.19578 16.162C1.19729 16.8489 1.68786 17.3399 2.37601 17.3467C2.80525 17.3512 3.23525 17.3399 3.6645 17.3512C3.82726 17.3558 3.87496 17.3096 3.87344 17.1447C3.86587 16.1696 3.86966 15.1937 3.86966 14.2186V14.2179ZM18.4269 14.23C18.4269 15.1975 18.4261 16.1651 18.4284 17.1326C18.4284 17.2219 18.3799 17.3497 18.5548 17.3474C18.9999 17.3414 19.4473 17.3671 19.8887 17.3285C20.4754 17.2771 20.7979 16.9541 20.8009 16.454C20.807 15.1824 20.8108 13.91 20.7979 12.6383C20.7934 12.189 20.6208 11.7865 20.3232 11.4453C20.1294 11.2222 19.8895 11.1004 19.5836 11.1102C19.2717 11.12 18.9583 11.1223 18.6472 11.1087C18.473 11.1004 18.4208 11.1503 18.4223 11.3281C18.4306 12.2956 18.4261 13.2632 18.4261 14.2307L18.4269 14.23ZM13.4924 21.1102C13.4871 20.0829 12.7309 19.3075 11.7361 19.3105C10.7731 19.3136 9.97749 20.1086 9.99187 21.0527C10.0063 22.0036 10.8163 22.8063 11.7702 22.8131C12.7074 22.8206 13.497 22.0392 13.4917 21.1095L13.4924 21.1102Z" fill="#858585"/>
</svg>
