<svg width="116" height="85" viewBox="0 0 116 85" fill="none" xmlns="http://www.w3.org/2000/svg">
<path d="M69.9223 81.8232C71.8583 80.5614 73.266 78.2935 72.9779 76.0006C71.2346 77.8107 68.9072 78.9457 66.4076 79.205C65.4432 79.3015 64.3606 79.3084 63.6757 79.9942C63.2496 80.4209 63.0685 81.0446 63.0592 81.6475C63.0499 82.2505 63.1948 82.844 63.3387 83.4296L63.3034 83.576C65.6127 83.4906 67.9862 83.0849 69.9223 81.8232Z" fill="#E5E5E5"/>
<path d="M72.9295 76.0002C72.2052 77.7706 70.9416 79.2677 69.318 80.279C68.9724 80.5029 68.5936 80.671 68.1956 80.7769C67.8046 80.8676 67.3964 80.852 67.0135 80.7316C66.6542 80.6265 66.2989 80.4774 65.9203 80.4614C65.7264 80.4562 65.5336 80.4919 65.3545 80.5664C65.1753 80.6409 65.014 80.7524 64.881 80.8936C64.5405 81.2368 64.3436 81.6819 64.1661 82.1239C63.9691 82.6146 63.7723 83.1274 63.371 83.4909C63.3224 83.5349 63.3936 83.6078 63.4421 83.5638C64.1402 82.9315 64.217 81.9169 64.7658 81.1833C65.0218 80.841 65.3825 80.5737 65.8236 80.5624C66.2092 80.5525 66.5758 80.706 66.9387 80.8155C67.3105 80.9385 67.7067 80.9685 68.0928 80.903C68.4949 80.8176 68.8796 80.6645 69.2303 80.4501C70.0275 79.98 70.7459 79.3874 71.3591 78.6942C72.0633 77.9069 72.6276 77.0049 73.0277 76.0273C73.0524 75.9668 72.954 75.9401 72.9295 76.0002Z" fill="white"/>
<path d="M69.8598 79.9841C70.0665 80.2335 70.3551 80.4013 70.674 80.4575C70.993 80.5137 71.3215 80.4548 71.601 80.2911C71.6574 80.2578 71.6083 80.1686 71.5518 80.2019C71.2918 80.3548 70.9858 80.4097 70.6889 80.3567C70.392 80.3037 70.1238 80.1463 69.9328 79.913C69.8912 79.8623 69.8185 79.9337 69.8598 79.9841Z" fill="white"/>
<path d="M67.1885 80.8088C67.2443 80.1491 67.5467 79.5347 68.0354 79.0881C68.0839 79.0439 68.0127 78.971 67.9643 79.0152C67.4566 79.4809 67.1432 80.1209 67.0866 80.8075C67.0813 80.873 67.1831 80.8739 67.1885 80.8088Z" fill="white"/>
<path d="M71.935 77.8642C71.8349 77.7844 71.7562 77.681 71.706 77.5632C71.6558 77.4455 71.6356 77.3171 71.6473 77.1896C71.6535 77.1243 71.5516 77.1234 71.5455 77.1883C71.5332 77.3292 71.5557 77.471 71.6109 77.6012C71.6661 77.7314 71.7523 77.8461 71.8621 77.9353C71.8717 77.9446 71.8845 77.9498 71.8979 77.95C71.9113 77.9502 71.9242 77.9453 71.9341 77.9362C71.9437 77.9268 71.9492 77.9139 71.9493 77.9004C71.9495 77.8869 71.9444 77.8739 71.935 77.8642Z" fill="white"/>
<path d="M66.3738 71.8048C66.3688 71.8455 66.3638 71.8862 66.358 71.9273C66.2877 72.4741 66.1731 73.0142 66.0154 73.5424C66.0038 73.5835 65.9915 73.6249 65.9788 73.6655C65.5851 74.934 64.9594 76.1184 64.1334 77.1585C63.8043 77.572 63.4443 77.96 63.0563 78.3189C62.5206 78.8146 61.9002 79.3094 61.5692 79.9348C61.534 79.9996 61.5028 80.0666 61.4758 80.1353L63.1276 83.5215C63.1352 83.5273 63.142 83.5336 63.1497 83.5394L63.2094 83.6776C63.2307 83.6605 63.2525 83.6423 63.2738 83.6252C63.2862 83.6153 63.2982 83.6047 63.3106 83.5948C63.3187 83.588 63.3269 83.5811 63.3346 83.5754C63.3373 83.5732 63.34 83.5709 63.342 83.569C63.3497 83.5633 63.3563 83.5572 63.3633 83.5519C63.485 83.4504 63.6062 83.348 63.7269 83.2444C63.7277 83.2441 63.7277 83.2441 63.7281 83.2429C64.6458 82.4519 65.5056 81.5773 66.2052 80.6C66.2263 80.5706 66.2481 80.5408 66.2684 80.5099C66.5813 80.0676 66.8576 79.6005 67.0944 79.1132C67.2232 78.846 67.3385 78.5724 67.4396 78.2935C67.6996 77.5724 67.8446 76.8149 67.8692 76.0487C67.918 74.5214 67.4778 72.9955 66.4529 71.8886C66.4267 71.8603 66.4008 71.8327 66.3738 71.8048Z" fill="#E5E5E5"/>
<path d="M66.3345 71.8333C66.8221 73.6829 66.7146 75.6391 66.0271 77.4241C65.8859 77.811 65.6847 78.1732 65.4307 78.4974C65.1731 78.8052 64.8378 79.0385 64.4595 79.1729C64.1094 79.3053 63.7359 79.4002 63.4241 79.6154C63.2661 79.7279 63.1336 79.8726 63.0355 80.0399C62.9373 80.2072 62.8756 80.3933 62.8544 80.5861C62.7892 81.0652 62.8999 81.5392 63.0244 81.9989C63.1625 82.5093 63.3141 83.0373 63.2126 83.5691C63.2003 83.6335 63.301 83.6488 63.3132 83.5845C63.4899 82.6593 62.9404 81.803 62.9368 80.8868C62.9352 80.4594 63.0623 80.0288 63.4076 79.7542C63.7096 79.5142 64.0947 79.416 64.4504 79.285C64.8213 79.1593 65.1557 78.9447 65.4246 78.6599C65.6942 78.3497 65.9091 77.9958 66.06 77.6135C66.4136 76.7581 66.6304 75.8525 66.7026 74.9298C66.7909 73.8772 66.6984 72.8172 66.4292 71.7958C66.4125 71.7326 66.3179 71.7705 66.3345 71.8333Z" fill="white"/>
<path d="M66.2823 76.8624C66.5974 76.9371 66.9288 76.8974 67.2173 76.7502C67.5059 76.6031 67.7327 76.3582 67.8573 76.0593C67.8824 75.9987 67.7894 75.957 67.7644 76.0177C67.6488 76.2963 67.4375 76.5244 67.1685 76.6608C66.8996 76.7972 66.5907 76.8331 66.2977 76.7618C66.234 76.7464 66.2189 76.8471 66.2823 76.8624Z" fill="white"/>
<path d="M64.6459 79.1291C64.2933 78.5688 64.1649 77.8961 64.2862 77.2453C64.2983 77.1808 64.1976 77.1655 64.1855 77.2299C64.0605 77.9074 64.1956 78.6071 64.5638 79.1894C64.599 79.2449 64.6809 79.1843 64.6459 79.1291Z" fill="white"/>
<path d="M66.6629 73.9203C66.5349 73.9168 66.4098 73.8816 66.2989 73.8178C66.1879 73.7541 66.0945 73.6637 66.027 73.5549C65.9926 73.499 65.9108 73.5597 65.9449 73.6152C66.02 73.7351 66.1233 73.8347 66.2457 73.9055C66.3682 73.9762 66.5061 74.0159 66.6475 74.021C66.6607 74.0226 66.6741 74.0191 66.6849 74.0112C66.6957 74.0033 66.7031 73.9915 66.7055 73.9784C66.7075 73.965 66.7041 73.9515 66.6961 73.9406C66.6881 73.9297 66.6762 73.9224 66.6629 73.9203Z" fill="white"/>
<path d="M10.838 81.8232C8.90189 80.5614 7.49419 78.2935 7.7823 76.0006C9.52561 77.8107 11.853 78.9457 14.3526 79.205C15.317 79.3015 16.3996 79.3084 17.0845 79.9942C17.5106 80.4209 17.6917 81.0446 17.701 81.6475C17.7103 82.2505 17.5654 82.844 17.4215 83.4296L17.4568 83.576C15.1475 83.4906 12.774 83.0849 10.838 81.8232Z" fill="#E5E5E5"/>
<path d="M7.83069 76.0002C8.55493 77.7706 9.81857 79.2677 11.4421 80.279C11.7878 80.5029 12.1666 80.671 12.5646 80.7769C12.9556 80.8676 13.3638 80.852 13.7467 80.7316C14.1059 80.6265 14.4613 80.4774 14.8399 80.4614C15.0338 80.4562 15.2266 80.4919 15.4057 80.5664C15.5848 80.6409 15.7462 80.7524 15.8791 80.8936C16.2197 81.2368 16.4166 81.6819 16.594 82.1239C16.791 82.6146 16.9879 83.1274 17.3891 83.4909C17.4377 83.5349 17.3666 83.6078 17.318 83.5638C16.62 82.9315 16.5431 81.9169 15.9944 81.1833C15.7384 80.841 15.3776 80.5737 14.9366 80.5624C14.5509 80.5525 14.1844 80.706 13.8215 80.8155C13.4497 80.9385 13.0534 80.9685 12.6673 80.903C12.2652 80.8176 11.8806 80.6645 11.5299 80.4501C10.7327 79.98 10.0143 79.3874 9.4011 78.6942C8.69689 77.9069 8.13255 77.0049 7.7325 76.0273C7.70776 75.9668 7.80612 75.9401 7.83069 76.0002Z" fill="white"/>
<path d="M10.9002 79.9841C10.6935 80.2335 10.4049 80.4013 10.086 80.4575C9.76706 80.5137 9.43852 80.4548 9.15903 80.2911C9.10259 80.2578 9.15169 80.1686 9.2082 80.2019C9.46818 80.3548 9.77423 80.4097 10.0711 80.3567C10.368 80.3037 10.6362 80.1463 10.8273 79.913C10.8688 79.8623 10.9415 79.9337 10.9002 79.9841Z" fill="white"/>
<path d="M13.5715 80.8088C13.5157 80.1491 13.2133 79.5347 12.7246 79.0881C12.6761 79.0439 12.7473 78.971 12.7957 79.0152C13.3034 79.4809 13.6168 80.1209 13.6734 80.8075C13.6787 80.873 13.5769 80.8739 13.5715 80.8088Z" fill="white"/>
<path d="M8.82512 77.8642C8.92518 77.7844 9.00385 77.681 9.05407 77.5632C9.10428 77.4455 9.12447 77.3171 9.11281 77.1896C9.10663 77.1243 9.20852 77.1234 9.21465 77.1883C9.22688 77.3292 9.20441 77.471 9.14922 77.6012C9.09403 77.7314 9.00779 77.8461 8.89804 77.9353C8.8884 77.9446 8.8756 77.9498 8.86222 77.95C8.84884 77.9502 8.8359 77.9453 8.82603 77.9362C8.81642 77.9268 8.81094 77.9139 8.81077 77.9004C8.8106 77.8869 8.81575 77.8739 8.82512 77.8642Z" fill="white"/>
<path d="M14.3864 71.8048C14.3914 71.8455 14.3964 71.8862 14.4022 71.9273C14.4725 72.4741 14.5871 73.0142 14.7448 73.5424C14.7564 73.5835 14.7687 73.6249 14.7814 73.6655C15.175 74.934 15.8008 76.1184 16.6268 77.1585C16.9559 77.572 17.3159 77.96 17.7038 78.3189C18.2396 78.8146 18.86 79.3094 19.191 79.9348C19.2262 79.9996 19.2574 80.0666 19.2844 80.1353L17.6326 83.5215C17.625 83.5273 17.6182 83.5336 17.6105 83.5394L17.5507 83.6776C17.5294 83.6605 17.5077 83.6423 17.4864 83.6252C17.474 83.6153 17.462 83.6047 17.4496 83.5948C17.4415 83.588 17.4333 83.5811 17.4256 83.5754C17.4229 83.5732 17.4202 83.5709 17.4182 83.569C17.4105 83.5633 17.4039 83.5572 17.3969 83.5519C17.2752 83.4504 17.154 83.3479 17.0333 83.2444C17.0325 83.2441 17.0325 83.2441 17.0321 83.2429C16.1144 82.4519 15.2546 81.5773 14.555 80.6C14.5339 80.5706 14.5121 80.5408 14.4918 80.5099C14.1789 80.0676 13.9026 79.6005 13.6658 79.1132C13.5369 78.846 13.4217 78.5724 13.3206 78.2935C13.0606 77.5724 12.9156 76.8149 12.891 76.0487C12.8422 74.5214 13.2824 72.9955 14.3073 71.8886C14.3335 71.8603 14.3594 71.8327 14.3864 71.8048Z" fill="#E5E5E5"/>
<path d="M14.4258 71.8333C13.9381 73.6829 14.0457 75.6391 14.7331 77.4241C14.8743 77.811 15.0756 78.1732 15.3295 78.4974C15.5871 78.8052 15.9225 79.0385 16.3007 79.1729C16.6509 79.3053 17.0243 79.4002 17.3362 79.6154C17.4942 79.7279 17.6266 79.8726 17.7248 80.0399C17.823 80.2072 17.8847 80.3933 17.9058 80.5861C17.9711 81.0652 17.8603 81.5392 17.7359 81.9989C17.5977 82.5093 17.4462 83.0373 17.5477 83.5691C17.56 83.6335 17.4593 83.6488 17.447 83.5845C17.2704 82.6593 17.8199 81.803 17.8234 80.8868C17.8251 80.4594 17.698 80.0288 17.3526 79.7542C17.0506 79.5142 16.6656 79.416 16.3099 79.285C15.939 79.1593 15.6045 78.9447 15.3357 78.6599C15.066 78.3497 14.8512 77.9958 14.7002 77.6135C14.3467 76.7581 14.1299 75.8525 14.0577 74.9298C13.9694 73.8772 14.0619 72.8172 14.331 71.7958C14.3477 71.7326 14.4423 71.7705 14.4258 71.8333Z" fill="white"/>
<path d="M14.4778 76.8624C14.1627 76.9371 13.8313 76.8974 13.5427 76.7502C13.2542 76.6031 13.0274 76.3582 12.9028 76.0593C12.8777 75.9987 12.9707 75.957 12.9957 76.0177C13.1113 76.2963 13.3226 76.5244 13.5916 76.6608C13.8605 76.7972 14.1694 76.8331 14.4624 76.7618C14.5261 76.7464 14.5412 76.8471 14.4778 76.8624Z" fill="white"/>
<path d="M16.1142 79.1291C16.4668 78.5688 16.5952 77.8961 16.4739 77.2453C16.4618 77.1808 16.5625 77.1655 16.5746 77.2299C16.6996 77.9074 16.5645 78.6071 16.1963 79.1894C16.1611 79.2449 16.0792 79.1843 16.1142 79.1291Z" fill="white"/>
<path d="M14.0972 73.9203C14.2252 73.9168 14.3503 73.8816 14.4613 73.8178C14.5723 73.7541 14.6657 73.6637 14.7331 73.5549C14.7675 73.499 14.8494 73.5597 14.8152 73.6152C14.7401 73.7351 14.6368 73.8347 14.5144 73.9055C14.3919 73.9762 14.254 74.0159 14.1127 74.021C14.0994 74.0226 14.086 74.0191 14.0752 74.0112C14.0644 74.0033 14.0571 73.9915 14.0546 73.9784C14.0526 73.965 14.056 73.9515 14.064 73.9406C14.072 73.9297 14.0839 73.9224 14.0972 73.9203Z" fill="white"/>
<path d="M17.8578 83.7303H62.6848C63.1464 83.7298 63.589 83.5462 63.9154 83.2198C64.2419 82.8934 64.4255 82.4508 64.426 81.9891V48.3369C64.4255 47.8753 64.2419 47.4327 63.9154 47.1063C63.589 46.7798 63.1464 46.5962 62.6848 46.5957H17.8578C17.3961 46.5962 16.9536 46.7798 16.6272 47.1063C16.3007 47.4327 16.1171 47.8753 16.1166 48.3369V81.9891C16.1171 82.4508 16.3007 82.8933 16.6272 83.2198C16.9536 83.5462 17.3961 83.7298 17.8578 83.7303Z" fill="#DBF1F7"/>
<path d="M29.1399 62.0469H36.0597C36.4017 62.0469 36.7297 61.9111 36.9715 61.6693C37.2133 61.4275 37.3491 61.0995 37.3491 60.7575C37.3491 60.4156 37.2133 60.0876 36.9715 59.8458C36.7297 59.604 36.4017 59.4681 36.0597 59.4681H29.1399C28.798 59.4681 28.47 59.604 28.2282 59.8458C27.9864 60.0876 27.8505 60.4156 27.8505 60.7575C27.8505 61.0995 27.9864 61.4275 28.2282 61.6693C28.47 61.9111 28.798 62.0469 29.1399 62.0469Z" fill="white"/>
<path d="M35.2001 65.5713H36.8334C36.9588 65.5713 37.079 65.5215 37.1677 65.4328C37.2563 65.3442 37.3062 65.2239 37.3062 65.0985C37.3062 64.9731 37.2563 64.8529 37.1677 64.7642C37.079 64.6755 36.9588 64.6257 36.8334 64.6257H35.2001C35.0747 64.6257 34.9545 64.6755 34.8658 64.7642C34.7772 64.8529 34.7274 64.9731 34.7274 65.0985C34.7274 65.2239 34.7772 65.3442 34.8658 65.4328C34.9545 65.5215 35.0747 65.5713 35.2001 65.5713Z" fill="#FAFEFF"/>
<path d="M28.4094 65.5713H30.0426C30.168 65.5713 30.2882 65.5215 30.3769 65.4328C30.4656 65.3442 30.5154 65.2239 30.5154 65.0985C30.5154 64.9731 30.4656 64.8529 30.3769 64.7642C30.2882 64.6755 30.168 64.6257 30.0426 64.6257H28.4094C28.284 64.6257 28.1637 64.6755 28.0751 64.7642C27.9864 64.8529 27.9366 64.9731 27.9366 65.0985C27.9366 65.2239 27.9864 65.3442 28.0751 65.4328C28.1637 65.5215 28.284 65.5713 28.4094 65.5713Z" fill="#FAFEFF"/>
<path d="M31.8477 65.5713H33.481C33.6063 65.5713 33.7266 65.5215 33.8153 65.4328C33.9039 65.3442 33.9537 65.2239 33.9537 65.0985C33.9537 64.9731 33.9039 64.8529 33.8153 64.7642C33.7266 64.6755 33.6063 64.6257 33.481 64.6257H31.8477C31.7223 64.6257 31.6021 64.6755 31.5134 64.7642C31.4248 64.8529 31.3749 64.9731 31.3749 65.0985C31.3749 65.2239 31.4248 65.3442 31.5134 65.4328C31.6021 65.5215 31.7223 65.5713 31.8477 65.5713Z" fill="#FAFEFF"/>
<path d="M35.2001 67.3765H36.8334C36.9588 67.3765 37.079 67.3267 37.1677 67.238C37.2563 67.1493 37.3062 67.0291 37.3062 66.9037C37.3062 66.7783 37.2563 66.658 37.1677 66.5694C37.079 66.4807 36.9588 66.4309 36.8334 66.4309H35.2001C35.0747 66.4309 34.9545 66.4807 34.8658 66.5694C34.7772 66.658 34.7274 66.7783 34.7274 66.9037C34.7274 67.0291 34.7772 67.1493 34.8658 67.238C34.9545 67.3267 35.0747 67.3765 35.2001 67.3765Z" fill="#FAFEFF"/>
<path d="M28.4094 67.3765H30.0426C30.168 67.3765 30.2882 67.3267 30.3769 67.238C30.4656 67.1493 30.5154 67.0291 30.5154 66.9037C30.5154 66.7783 30.4656 66.658 30.3769 66.5694C30.2882 66.4807 30.168 66.4309 30.0426 66.4309H28.4094C28.284 66.4309 28.1637 66.4807 28.0751 66.5694C27.9864 66.658 27.9366 66.7783 27.9366 66.9037C27.9366 67.0291 27.9864 67.1493 28.0751 67.238C28.1637 67.3267 28.284 67.3765 28.4094 67.3765Z" fill="#FAFEFF"/>
<path d="M31.8477 67.3765H33.481C33.6063 67.3765 33.7266 67.3267 33.8153 67.238C33.9039 67.1493 33.9537 67.0291 33.9537 66.9037C33.9537 66.7783 33.9039 66.658 33.8153 66.5694C33.7266 66.4807 33.6063 66.4309 33.481 66.4309H31.8477C31.7223 66.4309 31.6021 66.4807 31.5134 66.5694C31.4248 66.658 31.3749 66.7783 31.3749 66.9037C31.3749 67.0291 31.4248 67.1493 31.5134 67.238C31.6021 67.3267 31.7223 67.3765 31.8477 67.3765Z" fill="#FAFEFF"/>
<path d="M35.2001 69.1816H36.8334C36.9588 69.1816 37.079 69.1318 37.1677 69.0432C37.2563 68.9545 37.3062 68.8343 37.3062 68.7089C37.3062 68.5835 37.2563 68.4632 37.1677 68.3746C37.079 68.2859 36.9588 68.2361 36.8334 68.2361H35.2001C35.0747 68.2361 34.9545 68.2859 34.8658 68.3746C34.7772 68.4632 34.7274 68.5835 34.7274 68.7089C34.7274 68.8343 34.7772 68.9545 34.8658 69.0432C34.9545 69.1318 35.0747 69.1816 35.2001 69.1816Z" fill="#FAFEFF"/>
<path d="M28.4094 69.1816H30.0426C30.168 69.1816 30.2882 69.1318 30.3769 69.0432C30.4656 68.9545 30.5154 68.8343 30.5154 68.7089C30.5154 68.5835 30.4656 68.4632 30.3769 68.3746C30.2882 68.2859 30.168 68.2361 30.0426 68.2361H28.4094C28.284 68.2361 28.1637 68.2859 28.0751 68.3746C27.9864 68.4632 27.9366 68.5835 27.9366 68.7089C27.9366 68.8343 27.9864 68.9545 28.0751 69.0432C28.1637 69.1318 28.284 69.1816 28.4094 69.1816Z" fill="#FAFEFF"/>
<path d="M31.8477 69.1816H33.481C33.6063 69.1816 33.7266 69.1318 33.8153 69.0432C33.9039 68.9545 33.9537 68.8343 33.9537 68.7089C33.9537 68.5835 33.9039 68.4632 33.8153 68.3746C33.7266 68.2859 33.6063 68.2361 33.481 68.2361H31.8477C31.7223 68.2361 31.6021 68.2859 31.5134 68.3746C31.4248 68.4632 31.3749 68.5835 31.3749 68.7089C31.3749 68.8343 31.4248 68.9545 31.5134 69.0432C31.6021 69.1318 31.7223 69.1816 31.8477 69.1816Z" fill="#FAFEFF"/>
<path d="M35.2001 70.9868H36.8334C36.9588 70.9868 37.079 70.937 37.1677 70.8483C37.2563 70.7597 37.3062 70.6394 37.3062 70.514C37.3062 70.3886 37.2563 70.2684 37.1677 70.1797C37.079 70.0911 36.9588 70.0413 36.8334 70.0413H35.2001C35.0747 70.0413 34.9545 70.0911 34.8658 70.1797C34.7772 70.2684 34.7274 70.3886 34.7274 70.514C34.7274 70.6394 34.7772 70.7597 34.8658 70.8483C34.9545 70.937 35.0747 70.9868 35.2001 70.9868Z" fill="#FAFEFF"/>
<path d="M28.4094 70.9868H30.0426C30.168 70.9868 30.2882 70.937 30.3769 70.8483C30.4656 70.7597 30.5154 70.6394 30.5154 70.514C30.5154 70.3886 30.4656 70.2684 30.3769 70.1797C30.2882 70.0911 30.168 70.0413 30.0426 70.0413H28.4094C28.284 70.0413 28.1637 70.0911 28.0751 70.1797C27.9864 70.2684 27.9366 70.3886 27.9366 70.514C27.9366 70.6394 27.9864 70.7597 28.0751 70.8483C28.1637 70.937 28.284 70.9868 28.4094 70.9868Z" fill="#FAFEFF"/>
<path d="M31.8477 70.9868H33.481C33.6063 70.9868 33.7266 70.937 33.8153 70.8483C33.9039 70.7597 33.9537 70.6394 33.9537 70.514C33.9537 70.3886 33.9039 70.2684 33.8153 70.1797C33.7266 70.0911 33.6063 70.0413 33.481 70.0413H31.8477C31.7223 70.0413 31.6021 70.0911 31.5134 70.1797C31.4248 70.2684 31.3749 70.3886 31.3749 70.514C31.3749 70.6394 31.4248 70.7597 31.5134 70.8483C31.6021 70.937 31.7223 70.9868 31.8477 70.9868Z" fill="#FAFEFF"/>
<path d="M46.2461 69.0957C43.8249 69.0957 41.8621 67.1329 41.8621 64.7117C41.8621 62.2905 43.8249 60.3278 46.2461 60.3278C48.6672 60.3278 50.63 62.2905 50.63 64.7117C50.63 67.1329 48.6672 69.0957 46.2461 69.0957Z" fill="#73C2D5"/>
<path d="M46.246 70.0842C46.5879 70.0838 46.9156 69.9478 47.1573 69.7061C47.399 69.4643 47.535 69.1366 47.5354 68.7948V60.6286C47.5355 60.4592 47.5023 60.2914 47.4376 60.1348C47.3728 59.9783 47.2779 59.836 47.1581 59.7162C47.0384 59.5963 46.8962 59.5012 46.7397 59.4364C46.5832 59.3715 46.4154 59.3381 46.246 59.3381C46.0766 59.3381 45.9088 59.3715 45.7523 59.4364C45.5958 59.5012 45.4536 59.5963 45.3339 59.7162C45.2142 59.836 45.1192 59.9783 45.0545 60.1348C44.9897 60.2914 44.9565 60.4592 44.9566 60.6286V68.7948C44.957 69.1366 45.093 69.4643 45.3347 69.7061C45.5764 69.9478 45.9042 70.0838 46.246 70.0842Z" fill="white"/>
<path d="M34.793 61.4933H35.9964C36.042 61.4933 36.0857 61.4751 36.118 61.4429C36.1502 61.4107 36.1683 61.3669 36.1683 61.3213C36.1683 61.2757 36.1502 61.232 36.118 61.1998C36.0857 61.1675 36.042 61.1494 35.9964 61.1494H34.793C34.7474 61.1494 34.7037 61.1675 34.6714 61.1998C34.6392 61.232 34.6211 61.2757 34.6211 61.3213C34.6211 61.3669 34.6392 61.4107 34.6714 61.4429C34.7037 61.4751 34.7474 61.4933 34.793 61.4933Z" fill="#CAE8EF"/>
<path d="M32.902 61.5362H34.1054C34.151 61.5362 34.1948 61.5181 34.227 61.4859C34.2592 61.4536 34.2773 61.4099 34.2773 61.3643C34.2773 61.3187 34.2592 61.275 34.227 61.2427C34.1948 61.2105 34.151 61.1924 34.1054 61.1924H32.902C32.8564 61.1924 32.8127 61.2105 32.7804 61.2427C32.7482 61.275 32.7301 61.3187 32.7301 61.3643C32.7301 61.4099 32.7482 61.4536 32.7804 61.4859C32.8127 61.5181 32.8564 61.5362 32.902 61.5362Z" fill="#CAE8EF"/>
<path d="M31.0109 61.5792H32.2143C32.2599 61.5792 32.3036 61.5611 32.3359 61.5288C32.3681 61.4966 32.3862 61.4529 32.3862 61.4073C32.3862 61.3617 32.3681 61.3179 32.3359 61.2857C32.3036 61.2535 32.2599 61.2354 32.2143 61.2354H31.0109C30.9653 61.2354 30.9216 61.2535 30.8893 61.2857C30.8571 61.3179 30.839 61.3617 30.839 61.4073C30.839 61.4529 30.8571 61.4966 30.8893 61.5288C30.9216 61.5611 30.9653 61.5792 31.0109 61.5792Z" fill="#CAE8EF"/>
<path d="M29.1198 61.6222H30.3232C30.3688 61.6222 30.4125 61.604 30.4448 61.5718C30.477 61.5396 30.4951 61.4958 30.4951 61.4502C30.4951 61.4046 30.477 61.3609 30.4448 61.3287C30.4125 61.2964 30.3688 61.2783 30.3232 61.2783H29.1198C29.0742 61.2783 29.0304 61.2964 28.9982 61.3287C28.966 61.3609 28.9478 61.4046 28.9478 61.4502C28.9478 61.4958 28.966 61.5396 28.9982 61.5718C29.0304 61.604 29.0742 61.6222 29.1198 61.6222Z" fill="#CAE8EF"/>
<path d="M58.7101 78.4221C58.7102 78.635 58.668 78.8457 58.5859 79.0421C58.5039 79.2386 58.3836 79.4167 58.2322 79.5662H58.9423C59.1518 79.5662 59.3592 79.525 59.5528 79.4448C59.7463 79.3646 59.9222 79.2471 60.0703 79.099C60.2185 78.9508 60.336 78.775 60.4162 78.5814C60.4963 78.3879 60.5376 78.1804 60.5376 77.9709V52.1072C60.5376 51.8977 60.4963 51.6902 60.4162 51.4967C60.336 51.3031 60.2185 51.1272 60.0703 50.9791C59.9222 50.831 59.7463 50.7135 59.5528 50.6333C59.3592 50.5531 59.1518 50.5118 58.9423 50.5118H57.9089C58.1526 50.6536 58.3549 50.8568 58.4955 51.1011C58.6361 51.3455 58.7101 51.6225 58.7101 51.9044L58.7101 78.4221Z" fill="#73C2D5"/>
<path d="M58.8821 57.6217V66.2014C58.8245 66.1824 58.7669 66.1644 58.7102 66.1472V57.6999C58.7677 57.6733 58.8244 57.6475 58.8821 57.6217ZM58.8821 57.6217V66.2014C58.8245 66.1824 58.7669 66.1644 58.7102 66.1472V57.6999C58.7677 57.6733 58.8244 57.6475 58.8821 57.6217ZM58.8821 57.6217V66.2014C58.8245 66.1824 58.7669 66.1644 58.7102 66.1472V57.6999C58.7677 57.6733 58.8244 57.6475 58.8821 57.6217ZM58.8821 58.2484V68.1346C58.8245 68.1208 58.7669 68.1079 58.7102 68.095V58.2973C58.7677 58.2802 58.8253 58.2638 58.8821 58.2484ZM58.8821 58.2484V68.1346C58.8245 68.1208 58.7669 68.1079 58.7102 68.095V58.2973C58.7677 58.2802 58.8253 58.2638 58.8821 58.2484ZM58.8821 58.2484V68.1346C58.8245 68.1208 58.7669 68.1079 58.7102 68.095V58.2973C58.7677 58.2802 58.8253 58.2638 58.8821 58.2484ZM58.8821 58.2484V68.1346C58.8245 68.1208 58.7669 68.1079 58.7102 68.095V58.2973C58.7677 58.2802 58.8253 58.2638 58.8821 58.2484ZM58.8821 58.2484V68.224C58.8245 68.2102 58.7677 68.1965 58.7102 68.1836V58.2973C58.7677 58.2802 58.8253 58.2638 58.8821 58.2484ZM21.3821 50.12H57.0975C57.5706 50.1208 58.024 50.309 58.3585 50.6435C58.693 50.978 58.8813 51.4315 58.8821 51.9045V78.4223C58.8813 78.8952 58.693 79.3486 58.3585 79.6829C58.0239 80.0173 57.5705 80.2053 57.0975 80.2059H21.3821C20.9092 80.2053 20.4559 80.0172 20.1215 79.6829C19.7871 79.3485 19.599 78.8951 19.5985 78.4223V51.9045C19.5989 51.4315 19.7869 50.978 20.1213 50.6434C20.4557 50.3089 20.9091 50.1206 21.3821 50.12ZM19.7704 78.4223C19.7708 78.8496 19.9408 79.2593 20.2429 79.5614C20.5451 79.8636 20.9548 80.0336 21.3821 80.034H57.0975C57.525 80.0336 57.9348 79.8637 58.2371 79.5615C58.5394 79.2594 58.7095 78.8497 58.7102 78.4223V51.9045C58.7095 51.477 58.5394 51.0672 58.2371 50.7649C57.9348 50.4627 57.525 50.2926 57.0975 50.2919H21.3821C20.9547 50.2924 20.5449 50.4625 20.2427 50.7648C19.9405 51.0672 19.7706 51.4771 19.7704 51.9045V78.4223ZM58.8821 58.2484V68.0478C58.8245 68.034 58.7677 68.0203 58.7102 68.0065V58.2973C58.7677 58.2802 58.8253 58.2638 58.8821 58.2484ZM58.8821 58.2484V68.1346C58.8245 68.1208 58.7669 68.1079 58.7102 68.095V58.2973C58.7677 58.2802 58.8253 58.2638 58.8821 58.2484ZM58.8821 58.2484V68.1346C58.8245 68.1208 58.7669 68.1079 58.7102 68.095V58.2973C58.7677 58.2802 58.8253 58.2638 58.8821 58.2484ZM58.8821 58.2484V68.1346C58.8245 68.1208 58.7669 68.1079 58.7102 68.095V58.2973C58.7677 58.2802 58.8253 58.2638 58.8821 58.2484ZM58.8821 57.6217V66.2014C58.8245 66.1824 58.7669 66.1644 58.7102 66.1472V57.6999C58.7677 57.6733 58.8244 57.6475 58.8821 57.6217ZM58.8821 57.6217V66.2014C58.8245 66.1824 58.7669 66.1644 58.7102 66.1472V57.6999C58.7677 57.6733 58.8244 57.6475 58.8821 57.6217Z" fill="#135A6B"/>
<path d="M70.9483 24.1999C71.1789 24.0297 71.444 23.9121 71.7249 23.8553C72.0059 23.7986 72.2958 23.8042 72.5744 23.8717C72.8529 23.9392 73.1133 24.0669 73.3372 24.2459C73.561 24.4249 73.7429 24.6508 73.87 24.9077L80.0795 24.6037L79.3011 26.7085L72.8642 27.6138C72.4185 27.7987 71.9205 27.8137 71.4644 27.656C71.0084 27.4982 70.6261 27.1786 70.3899 26.7578C70.1538 26.337 70.0802 25.8442 70.1831 25.3728C70.286 24.9013 70.5583 24.484 70.9483 24.1999Z" fill="#FFB8B8"/>
<path d="M53.6122 39.6779C49.6884 39.6779 45.8527 38.5144 42.5902 36.3345C39.3277 34.1545 36.7849 31.0561 35.2834 27.431C33.7818 23.8059 33.3889 19.817 34.1544 15.9686C34.9199 12.1202 36.8094 8.58523 39.5839 5.8107C42.3584 3.03618 45.8934 1.1467 49.7418 0.381209C53.5902 -0.384282 57.5791 0.00859654 61.2042 1.51016C64.8293 3.01172 67.9277 5.55453 70.1077 8.81703C72.2876 12.0795 73.4511 15.9152 73.4511 19.839C73.4452 25.0988 71.3531 30.1414 67.6339 33.8607C63.9146 37.5799 58.872 39.672 53.6122 39.6779ZM53.6122 0.532169C49.7936 0.532169 46.0609 1.66449 42.8859 3.78595C39.7109 5.90741 37.2363 8.92272 35.775 12.4506C34.3137 15.9784 33.9314 19.8604 34.6763 23.6055C35.4213 27.3507 37.2601 30.7908 39.9602 33.4909C42.6603 36.191 46.1004 38.0298 49.8456 38.7748C53.5907 39.5197 57.4727 39.1374 61.0006 37.6761C64.5284 36.2148 67.5437 33.7402 69.6652 30.5653C71.7866 27.3903 72.919 23.6575 72.919 19.839C72.9132 14.7203 70.8772 9.81286 67.2577 6.19339C63.6383 2.57392 58.7309 0.537955 53.6122 0.532169Z" fill="#0F4755"/>
<path d="M63.1501 35.1343C63.3273 34.8851 63.5603 34.6808 63.8305 34.5376C64.1007 34.3944 64.4006 34.3164 64.7063 34.3097C65.012 34.303 65.3151 34.3679 65.5913 34.4991C65.8675 34.6304 66.1092 34.8244 66.2971 35.0656L72.8933 32.8236L71.9789 36.3266L65.8552 37.9186C65.4717 38.1784 65.0091 38.2949 64.5484 38.2476C64.0877 38.2004 63.6583 37.9925 63.3356 37.6603C63.0129 37.3281 62.8174 36.8929 62.7835 36.4311C62.7496 35.9692 62.8794 35.5101 63.1501 35.1343Z" fill="#FFB8B8"/>
<path d="M92.6155 24.9962L87.2899 27.0997L75.5374 27.5955L75.3348 24.0888L93.2662 21.4873L93.6112 22.1962C93.7424 22.4659 93.8208 22.7696 93.8394 23.08C93.8579 23.3905 93.816 23.6981 93.7174 23.9754C93.6188 24.2527 93.4665 24.491 93.2742 24.6692C93.082 24.8473 92.8557 24.9597 92.6155 24.9962Z" fill="#FFAA00"/>
<path d="M83.9974 81.7344L81.6072 81.7342L80.4702 72.5149L83.9978 72.5151L83.9974 81.7344Z" fill="#FFB8B8"/>
<path d="M79.9 81.0514H84.5097V83.9537H76.9977C76.9977 83.5726 77.0728 83.1952 77.2186 82.8431C77.3645 82.4909 77.5783 82.171 77.8478 81.9015C78.1173 81.632 78.4372 81.4182 78.7894 81.2723C79.1415 81.1265 79.5189 81.0514 79.9 81.0514Z" fill="#0F4755"/>
<path d="M103.884 78.8779L101.715 79.8821L96.8098 71.9936L100.011 70.5117L103.884 78.8779Z" fill="#FFB8B8"/>
<path d="M99.8788 79.9796L104.062 78.043L105.281 80.6769L98.4643 83.8327C98.1409 83.1341 98.1083 82.3358 98.3736 81.6132C98.6388 80.8906 99.1803 80.3029 99.8788 79.9796Z" fill="#0F4755"/>
<path d="M78.3221 51.6468L80.7872 79.7775L84.1015 79.3875L86.551 53.6917L100.088 78.2178L103.598 77.2429C103.598 77.2429 92.3023 43.4562 91.425 40.6293C90.4632 37.5303 82.8467 36.3402 82.8467 36.3402L82.5543 36.0477C79.2815 40.4534 77.9706 46.1698 78.3221 51.6468Z" fill="#0F4755"/>
<path d="M91.4541 17.9544C94.0987 17.9544 96.2425 15.8106 96.2425 13.166C96.2425 10.5214 94.0987 8.37756 91.4541 8.37756C88.8095 8.37756 86.6656 10.5214 86.6656 13.166C86.6656 15.8106 88.8095 17.9544 91.4541 17.9544Z" fill="#FFB8B8"/>
<path d="M94.4605 22.4054L91.1325 39.7511C91.1325 39.7511 86.0751 38.7412 84.2738 37.5246C83.5602 37.0411 82.9129 36.542 82.367 36.0897C82.2598 36.002 82.1584 35.9142 82.059 35.8304C81.1583 35.0603 80.6046 34.4871 80.6046 34.4871C80.6046 34.4871 80.8931 33.0737 81.2459 31.4009C81.6398 29.5273 82.1175 27.3262 82.3612 26.4274C82.8973 24.4564 84.7377 22.1597 86.1726 20.5961C86.6922 20.0291 87.3562 19.6142 88.0936 19.3957C88.831 19.1773 89.6139 19.1636 90.3585 19.3562L92.9553 20.0269C93.4617 20.1575 93.8992 20.4762 94.1789 20.9181C94.4585 21.36 94.5592 21.8918 94.4605 22.4054Z" fill="#FFAA00"/>
<path opacity="0.2" d="M86.4124 29.9816C86.4124 29.9816 84.6227 33.7015 82.059 35.8305C81.1583 35.0604 80.6046 34.4872 80.6046 34.4872C80.6046 34.4872 80.8931 33.0737 81.2459 31.4009C83.3944 30.2663 85.6093 29.5508 86.4124 29.9816Z" fill="#8C5E00"/>
<path d="M89.5864 23.1726C89.4097 23.0824 89.2249 23.009 89.0345 22.9533C88.6457 22.8468 88.2366 22.8384 87.8437 22.9289C87.4509 23.0194 87.0866 23.206 86.7837 23.4719L76.2641 31.1774L67.8975 33.9916L69.4091 37.5674L81.8819 34.5213L90.154 27.1698C90.4387 26.8968 90.6543 26.5599 90.7831 26.1871C90.9119 25.8143 90.9502 25.4162 90.8947 25.0257C90.8392 24.6352 90.6917 24.2635 90.4642 23.9412C90.2367 23.619 89.9358 23.3555 89.5864 23.1726Z" fill="#FFAA00"/>
<path d="M91.7376 17.9104C92.4191 16.8903 92.9569 15.4758 92.2066 14.5052C91.4659 13.5471 90.005 13.6883 88.8707 13.2644C87.2907 12.6739 86.3744 10.8177 86.6602 9.15543C86.946 7.49313 88.2804 6.11513 89.87 5.5513C91.4597 4.98747 93.2523 5.17084 94.809 5.82012C96.7253 6.61941 98.3692 8.16556 99.0585 10.1241C99.7478 12.0827 99.3793 14.4343 97.9493 15.9397C96.4162 17.5537 94.01 17.9838 91.7841 17.9577" fill="#2F2E41"/>
<path d="M99.257 12.2644C99.452 13.3544 100.648 13.9735 101.747 14.1096C102.846 14.2457 103.983 14.0712 105.052 14.357C106.938 14.8609 108.182 16.6747 108.867 18.5029C109.552 20.3311 109.855 22.3043 110.745 24.0421C111.635 25.7798 113.36 27.3118 115.305 27.1493C114.924 28.1088 114.256 28.9274 113.393 29.4933C112.529 30.0592 111.512 30.345 110.48 30.3115C109.448 30.278 108.452 29.927 107.627 29.3063C106.802 28.6857 106.188 27.8255 105.87 26.8433C105.155 24.637 105.976 22.0058 104.726 20.0522C104.034 18.9711 102.84 18.3352 101.689 17.7686C100.537 17.202 99.3284 16.6204 98.5564 15.5953C97.7844 14.5701 97.6301 12.951 98.5815 12.0897" fill="#2F2E41"/>
<path d="M115.572 84.0675H0.428041C0.314517 84.0675 0.205649 84.0331 0.125375 83.972C0.0451018 83.9109 0 83.828 0 83.7416C0 83.6552 0.0451018 83.5723 0.125375 83.5112C0.205649 83.4501 0.314517 83.4158 0.428041 83.4158H115.572C115.685 83.4158 115.794 83.4501 115.875 83.5112C115.955 83.5723 116 83.6552 116 83.7416C116 83.828 115.955 83.9109 115.875 83.972C115.794 84.0331 115.685 84.0675 115.572 84.0675Z" fill="#3F3D56"/>
<path d="M56.1875 32C56.0208 32 55.8592 31.9694 55.7025 31.9083C55.5458 31.8472 55.4054 31.7556 55.2812 31.6333L47.75 23.9639C47.6042 23.8213 47.4842 23.6278 47.39 23.3833C47.2958 23.1389 47.2492 22.9148 47.25 22.7111C47.25 22.2426 47.4221 21.8401 47.7663 21.5036C48.1104 21.167 48.5217 20.9992 49 21H51.625C52.7292 21 53.6825 20.6484 54.485 19.9452C55.2875 19.242 55.7717 18.3714 55.9375 17.3333H47.25C46.8958 17.3333 46.5988 17.216 46.3588 16.9813C46.1188 16.7467 45.9992 16.4566 46 16.1111C46 15.7648 46.12 15.4743 46.36 15.2397C46.6 15.005 46.8967 14.8881 47.25 14.8889H55.5625C55.2083 14.1759 54.6821 13.5901 53.9837 13.1313C53.2854 12.6726 52.4992 12.4436 51.625 12.4444H47.25C46.8958 12.4444 46.5988 12.3271 46.3588 12.0924C46.1188 11.8578 45.9992 11.5677 46 11.2222C46 10.8759 46.12 10.5854 46.36 10.3508C46.6 10.1161 46.8967 9.99919 47.25 10H59.75C60.1042 10 60.4012 10.1173 60.6412 10.352C60.8812 10.5867 61.0008 10.8767 61 11.2222C61 11.5685 60.88 11.859 60.64 12.0937C60.4 12.3283 60.1033 12.4453 59.75 12.4444H56.9375C57.2292 12.7907 57.4896 13.1676 57.7187 13.575C57.9479 13.9824 58.125 14.4204 58.25 14.8889H59.75C60.1042 14.8889 60.4012 15.0062 60.6412 15.2409C60.8812 15.4756 61.0008 15.7656 61 16.1111C61 16.4574 60.88 16.7479 60.64 16.9826C60.4 17.2172 60.1033 17.3342 59.75 17.3333H58.4687C58.3021 19.0648 57.5729 20.5164 56.2812 21.6881C54.9896 22.8598 53.4375 23.4453 51.625 23.4444H50.7188L57.0937 29.9222C57.4687 30.3093 57.5471 30.7525 57.3287 31.252C57.1104 31.7515 56.73 32.0008 56.1875 32Z" fill="#219EBC"/>
</svg>
