<svg width="23" height="24" viewBox="0 0 23 24" fill="none" xmlns="http://www.w3.org/2000/svg">
<path fill-rule="evenodd" clip-rule="evenodd" d="M12.1326 1.21375L20.3062 5.77787C20.9187 6.11986 21.296 6.75189 21.296 7.43588V16.5641C21.296 17.2481 20.9187 17.8801 20.3062 18.2221L12.1326 22.7863C11.5201 23.1283 10.7656 23.1283 10.1531 22.7863L1.97949 18.2221C1.36703 17.8801 0.989743 17.2481 0.989743 16.5641V7.43588C0.989743 6.75189 1.36703 6.11986 1.97949 5.77787L10.1531 1.21375C10.7656 0.871753 11.5201 0.871753 12.1326 1.21375ZM9.65824 0.384742C10.5769 -0.128247 11.7088 -0.128247 12.6275 0.384742L20.8011 4.94887C21.7198 5.46185 22.2857 6.4099 22.2857 7.43588V16.5641C22.2857 17.5901 21.7198 18.5381 20.8011 19.0511L12.6275 23.6153C11.7088 24.1283 10.5769 24.1283 9.65824 23.6153L1.48461 19.0511C0.565932 18.5381 0 17.5901 0 16.5641V7.43588C0 6.4099 0.565932 5.46185 1.48461 4.94887L9.65824 0.384742ZM9.89743 10.393V17.2305H11.8769V10.393H9.89743ZM9.89743 7.65799V9.5178H11.8769V7.65799H9.89743Z" fill="#858585"/>
</svg>
