<svg width="224" height="200" viewBox="0 0 224 200" fill="none" xmlns="http://www.w3.org/2000/svg">
<path d="M177.756 127.205C177.756 116.425 186.519 90.8442 197.328 90.8442C208.137 90.8442 216.899 116.425 216.899 127.205C216.895 132.382 214.832 137.347 211.162 141.006C207.492 144.666 202.516 146.722 197.328 146.722C192.139 146.722 187.164 144.666 183.494 141.006C179.824 137.347 177.76 132.382 177.756 127.205Z" fill="#F2F2F2"/>
<path d="M197.328 174.692C197.306 174.692 197.286 174.688 197.266 174.68C197.247 174.672 197.229 174.66 197.214 174.645C197.199 174.63 197.187 174.612 197.179 174.593C197.171 174.573 197.167 174.553 197.167 174.531V107.237C197.167 107.194 197.184 107.153 197.214 107.123C197.244 107.093 197.285 107.077 197.328 107.077C197.37 107.077 197.411 107.093 197.441 107.123C197.471 107.153 197.488 107.194 197.489 107.237V174.531C197.489 174.553 197.484 174.573 197.476 174.593C197.468 174.612 197.456 174.63 197.441 174.645C197.426 174.66 197.409 174.672 197.389 174.68C197.37 174.688 197.349 174.692 197.328 174.692Z" fill="#3F3D56"/>
<path d="M197.327 120.229C197.306 120.229 197.285 120.224 197.266 120.216C197.246 120.208 197.229 120.196 197.214 120.181L189.467 112.456C189.437 112.426 189.42 112.385 189.42 112.342C189.42 112.3 189.437 112.259 189.468 112.229C189.498 112.199 189.539 112.182 189.581 112.182C189.624 112.182 189.665 112.199 189.695 112.229L197.441 119.955C197.464 119.977 197.479 120.006 197.485 120.037C197.491 120.068 197.488 120.1 197.476 120.129C197.464 120.159 197.443 120.184 197.417 120.201C197.39 120.219 197.359 120.229 197.327 120.229Z" fill="#3F3D56"/>
<path d="M197.913 134C197.882 134 197.852 133.99 197.826 133.971C197.8 133.953 197.78 133.926 197.768 133.895C197.756 133.864 197.753 133.83 197.759 133.798C197.765 133.765 197.78 133.734 197.802 133.711L210.488 120.049C210.517 120.018 210.557 120 210.599 120C210.64 120 210.68 120.018 210.71 120.05C210.739 120.081 210.756 120.124 210.756 120.169C210.756 120.214 210.74 120.257 210.71 120.289L198.025 133.95C198.01 133.966 197.993 133.979 197.974 133.987C197.955 133.996 197.934 134 197.913 134Z" fill="#3F3D56"/>
<path d="M51.5961 115.807C51.5961 102.439 62.4618 70.7192 75.8652 70.7192C89.2686 70.7192 100.134 102.439 100.134 115.807C100.129 122.227 97.5703 128.383 93.0195 132.921C88.4687 137.459 82.2986 140.009 75.8652 140.009C69.4318 140.009 63.2617 137.459 58.7109 132.921C54.1601 128.383 51.601 122.227 51.5961 115.807Z" fill="#E6E6E6"/>
<path d="M75.865 174.692C75.8388 174.692 75.8129 174.687 75.7887 174.677C75.7645 174.667 75.7425 174.652 75.7239 174.634C75.7054 174.615 75.6907 174.593 75.6807 174.569C75.6706 174.545 75.6655 174.519 75.6655 174.493V91.0461C75.6657 90.9934 75.6868 90.9429 75.7242 90.9057C75.7616 90.8685 75.8122 90.8477 75.865 90.8477C75.9178 90.8477 75.9685 90.8685 76.0059 90.9057C76.0433 90.9429 76.0644 90.9934 76.0646 91.0461V174.493C76.0646 174.519 76.0594 174.545 76.0494 174.569C76.0393 174.593 76.0246 174.615 76.0061 174.634C75.9876 174.652 75.9656 174.667 75.9414 174.677C75.9172 174.687 75.8912 174.692 75.865 174.692Z" fill="#3F3D56"/>
<path d="M75.8651 107.156C75.8389 107.156 75.813 107.151 75.7888 107.141C75.7645 107.131 75.7425 107.116 75.724 107.098L66.1184 97.518C66.0999 97.4995 66.0852 97.4776 66.0751 97.4534C66.0651 97.4293 66.06 97.4034 66.06 97.3772C66.06 97.3244 66.0811 97.2738 66.1185 97.2365C66.1559 97.1991 66.2067 97.1782 66.2596 97.1782C66.3125 97.1782 66.3632 97.1992 66.4006 97.2366L76.0063 106.816C76.0342 106.844 76.0531 106.88 76.0608 106.918C76.0685 106.957 76.0646 106.997 76.0495 107.033C76.0343 107.07 76.0088 107.101 75.976 107.123C75.9432 107.144 75.9046 107.156 75.8651 107.156Z" fill="#3F3D56"/>
<path d="M75.8652 123.741C75.8258 123.741 75.7872 123.729 75.7544 123.707C75.7216 123.685 75.696 123.654 75.6809 123.618C75.6658 123.581 75.6618 123.541 75.6695 123.503C75.6772 123.464 75.6962 123.429 75.7241 123.401L91.8105 107.358C91.8479 107.32 91.8986 107.299 91.9516 107.299C92.0045 107.299 92.0552 107.32 92.0926 107.358C92.1301 107.395 92.1511 107.446 92.1511 107.498C92.1511 107.551 92.1302 107.602 92.0928 107.639L76.0063 123.682C75.9878 123.701 75.9658 123.716 75.9416 123.726C75.9174 123.736 75.8914 123.741 75.8652 123.741Z" fill="#3F3D56"/>
<path d="M19.756 92.7454C19.756 74.1429 34.8668 30 53.5069 30C72.147 30 87.2577 74.1429 87.2577 92.7454C87.2577 101.679 83.7018 110.246 77.3723 116.563C71.0428 122.88 62.4582 126.428 53.5069 126.428C44.5556 126.428 35.9709 122.88 29.6414 116.563C23.3119 110.246 19.756 101.679 19.756 92.7454Z" fill="#219EBC"/>
<path d="M53.507 174.692C53.4334 174.692 53.3628 174.663 53.3107 174.611C53.2587 174.559 53.2294 174.489 53.2294 174.415V58.2877C53.2294 58.2143 53.2587 58.1438 53.3107 58.0919C53.3628 58.0399 53.4334 58.0107 53.507 58.0107C53.5806 58.0107 53.6512 58.0399 53.7032 58.0919C53.7552 58.1438 53.7845 58.2143 53.7845 58.2877V174.415C53.7845 174.489 53.7552 174.559 53.7032 174.611C53.6512 174.663 53.5806 174.692 53.507 174.692Z" fill="#3F3D56"/>
<path d="M53.507 80.7069C53.4705 80.7069 53.4344 80.6998 53.4007 80.6859C53.367 80.6719 53.3364 80.6515 53.3107 80.6257L39.9522 67.2942C39.9007 67.2421 39.872 67.1719 39.8723 67.0987C39.8725 67.0256 39.9017 66.9556 39.9536 66.9039C40.0054 66.8522 40.0756 66.823 40.1488 66.8228C40.2221 66.8225 40.2925 66.8512 40.3447 66.9025L53.7032 80.2341C53.742 80.2728 53.7684 80.3222 53.7791 80.3759C53.7898 80.4296 53.7843 80.4853 53.7633 80.5359C53.7423 80.5865 53.7068 80.6298 53.6611 80.6602C53.6155 80.6906 53.5618 80.7069 53.507 80.7069Z" fill="#3F3D56"/>
<path d="M53.5069 103.786C53.452 103.786 53.3984 103.77 53.3528 103.74C53.3071 103.709 53.2716 103.666 53.2506 103.615C53.2296 103.565 53.2241 103.509 53.2348 103.455C53.2455 103.402 53.2719 103.352 53.3107 103.313L75.682 80.9872C75.7077 80.9612 75.7383 80.9405 75.772 80.9264C75.8058 80.9122 75.842 80.9049 75.8786 80.9048C75.9151 80.9047 75.9514 80.9118 75.9852 80.9257C76.0191 80.9396 76.0498 80.9601 76.0757 80.9859C76.1016 81.0117 76.1221 81.0424 76.136 81.0761C76.15 81.1099 76.1571 81.1461 76.157 81.1826C76.1569 81.2191 76.1495 81.2553 76.1354 81.2889C76.1212 81.3226 76.1005 81.3532 76.0745 81.3788L53.7032 103.705C53.6774 103.731 53.6469 103.751 53.6132 103.765C53.5795 103.779 53.5434 103.786 53.5069 103.786Z" fill="#3F3D56"/>
<path d="M206.479 174.898H0.277525C0.203921 174.898 0.133331 174.869 0.0812849 174.817C0.0292389 174.765 0 174.694 0 174.621C0 174.548 0.0292389 174.477 0.0812849 174.425C0.133331 174.373 0.203921 174.344 0.277525 174.344H206.479C206.552 174.344 206.623 174.373 206.675 174.425C206.727 174.477 206.756 174.548 206.756 174.621C206.756 174.694 206.727 174.765 206.675 174.817C206.623 174.869 206.552 174.898 206.479 174.898Z" fill="#3F3D56"/>
<path d="M190.116 152.971C190.211 152.971 190.306 152.953 190.394 152.916C190.482 152.88 190.562 152.826 190.629 152.759C190.697 152.692 190.75 152.612 190.787 152.524C190.823 152.436 190.842 152.342 190.842 152.247C190.842 152.151 190.823 152.057 190.787 151.969C190.75 151.881 190.697 151.802 190.629 151.734C190.562 151.667 190.482 151.614 190.394 151.577C190.306 151.541 190.211 151.522 190.116 151.522H183.217V148.623H190.116C190.308 148.623 190.493 148.547 190.629 148.411C190.766 148.275 190.842 148.091 190.842 147.898C190.842 147.706 190.766 147.522 190.629 147.386C190.493 147.25 190.308 147.174 190.116 147.174H131.296C131.104 147.174 130.919 147.25 130.783 147.386C130.647 147.522 130.57 147.706 130.57 147.898C130.57 148.091 130.647 148.275 130.783 148.411C130.919 148.547 131.104 148.623 131.296 148.623H138.195V151.522H131.296C131.104 151.522 130.919 151.598 130.783 151.734C130.647 151.87 130.57 152.054 130.57 152.247C130.57 152.439 130.647 152.623 130.783 152.759C130.919 152.895 131.104 152.971 131.296 152.971H138.195V155.87H131.296C131.104 155.87 130.919 155.947 130.783 156.082C130.647 156.218 130.57 156.403 130.57 156.595C130.57 156.787 130.647 156.971 130.783 157.107C130.919 157.243 131.104 157.32 131.296 157.32H138.195V160.218H132.022C131.638 160.219 131.269 160.372 130.997 160.644C130.725 160.915 130.572 161.284 130.572 161.668C130.572 162.052 130.725 162.42 130.997 162.692C131.269 162.964 131.638 163.117 132.022 163.117H137.898C137.856 163.233 137.833 163.356 137.832 163.48V173.625C137.832 173.914 137.946 174.19 138.151 174.394C138.355 174.598 138.632 174.713 138.921 174.713C139.21 174.713 139.487 174.598 139.691 174.394C139.895 174.19 140.01 173.914 140.01 173.625V163.48C140.009 163.356 139.986 163.233 139.944 163.117H181.469C181.426 163.233 181.403 163.356 181.402 163.48V173.625C181.402 173.914 181.517 174.19 181.721 174.394C181.925 174.598 182.202 174.713 182.491 174.713C182.78 174.713 183.057 174.598 183.261 174.394C183.466 174.19 183.58 173.914 183.58 173.625V163.48C183.579 163.356 183.557 163.233 183.514 163.117H189.39C189.581 163.118 189.77 163.08 189.946 163.007C190.123 162.935 190.283 162.828 190.418 162.693C190.553 162.559 190.66 162.399 190.733 162.223C190.806 162.047 190.844 161.858 190.844 161.668C190.844 161.477 190.806 161.289 190.733 161.113C190.66 160.937 190.553 160.777 190.418 160.642C190.283 160.508 190.123 160.401 189.946 160.328C189.77 160.255 189.581 160.218 189.39 160.218H183.217V157.32H190.116C190.211 157.32 190.306 157.301 190.394 157.265C190.483 157.228 190.563 157.175 190.63 157.108C190.698 157.041 190.751 156.961 190.788 156.873C190.825 156.785 190.843 156.69 190.843 156.595C190.843 156.5 190.825 156.405 190.788 156.317C190.751 156.229 190.698 156.149 190.63 156.082C190.563 156.015 190.483 155.961 190.394 155.925C190.306 155.889 190.211 155.87 190.116 155.87H183.217V152.971H190.116ZM139.647 148.623H181.765V151.522H139.647V148.623ZM181.765 160.218H139.647V157.32H181.765V160.218ZM181.765 155.87H139.647V152.971H181.765V155.87Z" fill="#3F3D56"/>
<path d="M163.67 143.499C165.85 143.499 167.617 141.735 167.617 139.559C167.617 137.384 165.85 135.62 163.67 135.62C161.49 135.62 159.722 137.384 159.722 139.559C159.722 141.735 161.49 143.499 163.67 143.499Z" fill="#2F2E41"/>
<path d="M153.846 173.267L152.117 173.266L151.295 166.613H153.846L153.846 173.267Z" fill="#FFB7B7"/>
<path d="M150.883 172.774H154.216V174.868H148.784C148.784 174.593 148.838 174.321 148.944 174.067C149.049 173.812 149.204 173.582 149.399 173.387C149.594 173.193 149.825 173.038 150.08 172.933C150.334 172.828 150.607 172.774 150.883 172.774Z" fill="#2F2E41"/>
<path d="M151.148 172.304L149.499 171.787L150.71 165.193L153.144 165.956L151.148 172.304Z" fill="#FFB7B7"/>
<path d="M148.469 170.948L151.649 171.944L151.021 173.943L145.838 172.32C146.004 171.789 146.375 171.347 146.869 171.09C147.362 170.833 147.937 170.782 148.469 170.948Z" fill="#2F2E41"/>
<path d="M151.71 169.649C151.634 169.649 151.559 169.636 151.488 169.609L150.217 169.133C150.074 169.079 149.956 168.976 149.883 168.842C149.81 168.708 149.788 168.553 149.82 168.404C150.14 166.967 151.231 162.076 151.829 159.453C152.537 156.341 162.874 155.763 163.314 155.74L163.35 155.738L164.512 157.197C164.933 158.544 164.799 159.596 164.117 160.321C162.124 162.438 156.175 161.125 155.466 160.958L152.304 169.242C152.258 169.361 152.177 169.465 152.071 169.537C151.964 169.61 151.839 169.649 151.71 169.649Z" fill="#200A4E"/>
<path d="M153.543 170.634C153.467 170.634 153.392 170.62 153.321 170.594L152.05 170.118C151.907 170.064 151.788 169.961 151.716 169.827C151.643 169.693 151.621 169.537 151.653 169.389C151.973 167.952 153.064 163.061 153.662 160.438C154.37 157.326 164.707 156.748 165.146 156.725L165.182 156.723L166.345 158.181C166.765 159.529 166.632 160.58 165.949 161.306C163.957 163.423 158.008 162.109 157.299 161.943L154.137 170.226C154.091 170.346 154.009 170.449 153.903 170.522C153.797 170.595 153.672 170.634 153.543 170.634Z" fill="#200A4E"/>
<path d="M149.864 150.37C149.911 150.433 149.952 150.499 149.989 150.568L156.942 151.299L157.943 149.929L160.212 151.166L158.246 154.49L149.718 152.32C149.503 152.529 149.229 152.668 148.933 152.719C148.636 152.769 148.332 152.728 148.059 152.601C147.787 152.474 147.56 152.268 147.408 152.009C147.256 151.75 147.187 151.452 147.209 151.153C147.232 150.853 147.345 150.568 147.534 150.335C147.722 150.102 147.978 149.931 148.266 149.846C148.554 149.761 148.861 149.766 149.147 149.86C149.432 149.953 149.682 150.131 149.864 150.37Z" fill="#A0616A"/>
<path d="M166.023 158.74C165.922 158.739 165.823 158.715 165.734 158.669C164.343 157.964 161.636 156.742 159.125 156.486C159.039 156.478 158.956 156.451 158.881 156.409C158.806 156.366 158.74 156.309 158.689 156.24C158.636 156.17 158.599 156.09 158.578 156.005C158.558 155.92 158.556 155.832 158.571 155.746C158.798 154.494 159.317 151.307 159.25 148.753C159.231 147.967 159.479 147.199 159.955 146.573C160.432 145.947 161.107 145.502 161.87 145.31C162.33 145.189 162.797 145.097 163.268 145.035C163.809 144.967 164.359 145.026 164.874 145.208C165.389 145.39 165.853 145.689 166.231 146.083C166.609 146.476 166.889 146.952 167.049 147.473C167.209 147.994 167.245 148.545 167.153 149.082C166.705 151.729 166.254 155.426 166.646 158.007C166.664 158.123 166.65 158.241 166.605 158.349C166.559 158.457 166.485 158.55 166.39 158.619C166.283 158.697 166.155 158.739 166.023 158.74Z" fill="#73B3FF"/>
<path d="M159.379 152.007C159.292 152.007 159.207 151.989 159.127 151.954L157.316 151.172C157.162 151.105 157.04 150.98 156.978 150.824C156.916 150.668 156.919 150.493 156.986 150.339L158.386 147.111C158.47 146.916 158.593 146.74 158.746 146.592C158.898 146.444 159.079 146.328 159.277 146.25C159.475 146.171 159.686 146.133 159.899 146.136C160.112 146.14 160.322 146.185 160.518 146.269C160.713 146.354 160.89 146.475 161.038 146.628C161.186 146.781 161.303 146.961 161.381 147.158C161.46 147.356 161.498 147.567 161.495 147.78C161.491 147.992 161.446 148.202 161.362 148.397L159.961 151.625C159.912 151.738 159.831 151.835 159.727 151.902C159.624 151.97 159.503 152.007 159.379 152.007Z" fill="#73B3FF"/>
<path d="M163.525 143.937C165.438 143.937 166.988 142.39 166.988 140.481C166.988 138.573 165.438 137.026 163.525 137.026C161.613 137.026 160.063 138.573 160.063 140.481C160.063 142.39 161.613 143.937 163.525 143.937Z" fill="#FFB7B7"/>
<path d="M160 138.783C161.641 139.783 163.49 140.391 165.404 140.56L164.834 139.879C165.249 140.032 165.685 140.119 166.127 140.135C166.348 140.142 166.568 140.096 166.768 140.003C166.969 139.909 167.144 139.77 167.281 139.596C167.393 139.416 167.459 139.211 167.475 139C167.49 138.789 167.454 138.577 167.369 138.382C167.196 137.994 166.926 137.657 166.585 137.403C165.98 136.926 165.267 136.605 164.508 136.47C163.749 136.334 162.969 136.388 162.236 136.627C161.733 136.777 161.283 137.065 160.937 137.459C160.609 137.863 159.977 138.223 160.145 138.715L160 138.783Z" fill="#2F2E41"/>
<path d="M164.108 135.995C163.016 134.889 161.694 134.036 160.236 133.496C159.31 133.107 158.295 132.982 157.303 133.133C156.324 133.329 155.399 134.005 155.126 134.963C154.903 135.746 155.133 136.59 155.479 137.327C155.826 138.065 156.288 138.749 156.569 139.514C156.854 140.294 156.94 141.134 156.819 141.956C156.697 142.778 156.371 143.557 155.872 144.222C155.372 144.887 154.713 145.416 153.956 145.763C153.2 146.109 152.368 146.262 151.537 146.206C152.498 146.334 153.385 146.785 154.324 147.025C155.264 147.265 156.373 147.249 157.072 146.577C157.81 145.866 157.825 144.711 157.79 143.687L157.63 139.122C157.603 138.346 157.58 137.545 157.86 136.821C158.141 136.096 158.807 135.462 159.585 135.469C160.175 135.474 160.697 135.83 161.17 136.182C161.643 136.533 162.143 136.908 162.731 136.961C163.318 137.013 163.989 136.579 163.945 135.992" fill="#2F2E41"/>
<path d="M157.704 157.852C157.474 157.852 157.248 157.801 157.04 157.702C156.833 157.604 156.65 157.461 156.505 157.284C156.36 157.107 156.256 156.9 156.2 156.678C156.145 156.455 156.139 156.224 156.184 155.999C156.229 155.775 156.324 155.563 156.461 155.379C156.598 155.196 156.774 155.044 156.976 154.937C157.179 154.829 157.403 154.768 157.632 154.757C157.861 154.746 158.09 154.786 158.302 154.874C158.366 154.901 158.427 154.932 158.487 154.968L164.794 152.141L164.972 150.434L167.691 150.361L167.673 153.204C167.669 153.533 167.56 153.853 167.36 154.115C167.16 154.377 166.881 154.568 166.564 154.659L159.188 156.755C159.173 156.803 159.157 156.851 159.137 156.898C159.019 157.18 158.82 157.421 158.565 157.591C158.31 157.76 158.01 157.851 157.704 157.852Z" fill="#FFB7B7"/>
<path d="M167.46 151.755C167.383 151.794 167.299 151.817 167.212 151.822L165.242 151.943C165.074 151.953 164.909 151.896 164.783 151.785C164.657 151.674 164.58 151.517 164.57 151.35L164.354 147.839C164.34 147.627 164.369 147.414 164.438 147.213C164.507 147.011 164.615 146.826 164.756 146.666C164.897 146.507 165.068 146.377 165.26 146.284C165.451 146.19 165.659 146.135 165.872 146.122C166.085 146.109 166.298 146.138 166.499 146.208C166.701 146.277 166.887 146.385 167.046 146.526C167.206 146.667 167.336 146.838 167.429 147.029C167.523 147.22 167.577 147.428 167.59 147.64L167.806 151.151C167.814 151.274 167.785 151.397 167.724 151.504C167.662 151.612 167.571 151.699 167.46 151.755Z" fill="#73B3FF"/>
<path d="M152.041 158.207H163.179C163.451 158.207 163.672 157.986 163.672 157.714C163.672 157.442 163.451 157.222 163.179 157.222H152.041C151.768 157.222 151.548 157.442 151.548 157.714C151.548 157.986 151.768 158.207 152.041 158.207Z" fill="#3F3D56"/>
<path d="M147.177 157.292V150.398C147.177 150.155 147.274 149.923 147.446 149.752C147.618 149.58 147.85 149.484 148.093 149.483H160.641C160.884 149.484 161.117 149.58 161.289 149.752C161.46 149.923 161.557 150.155 161.557 150.398V157.292C161.557 157.535 161.46 157.767 161.289 157.939C161.117 158.11 160.884 158.207 160.641 158.207H148.093C147.85 158.207 147.618 158.11 147.446 157.939C147.274 157.767 147.177 157.535 147.177 157.292Z" fill="#3F3D56"/>
<path d="M154.367 154.689C154.834 154.689 155.213 154.311 155.213 153.845C155.213 153.379 154.834 153.001 154.367 153.001C153.9 153.001 153.521 153.379 153.521 153.845C153.521 154.311 153.9 154.689 154.367 154.689Z" fill="white"/>
<path d="M112.39 157.672C112.439 157.339 112.415 156.999 112.318 156.676C112.221 156.353 112.054 156.055 111.83 155.804C111.605 155.552 111.328 155.353 111.018 155.219C110.708 155.086 110.372 155.023 110.035 155.033L95.242 140.106L92.3198 144.183L107.779 157.574C107.834 158.138 108.095 158.663 108.512 159.049C108.928 159.435 109.472 159.655 110.041 159.667C110.609 159.679 111.162 159.483 111.595 159.115C112.028 158.747 112.311 158.234 112.39 157.672Z" fill="#BE9292"/>
<path d="M104.273 150.161L101.607 152.817C101.426 152.996 101.182 153.097 100.927 153.098C100.672 153.099 100.427 153 100.245 152.822L89.9281 142.7C89.5714 142.35 89.2877 141.933 89.0936 141.472C88.8994 141.012 88.7985 140.518 88.7968 140.019C88.7952 139.52 88.8927 139.025 89.0837 138.564C89.2748 138.102 89.5557 137.683 89.91 137.331C90.2644 136.979 90.6853 136.7 91.1483 136.511C91.6113 136.322 92.1073 136.226 92.6075 136.23C93.1078 136.233 93.6024 136.335 94.0627 136.531C94.5231 136.726 94.94 137.011 95.2895 137.368L104.281 148.803C104.458 148.986 104.557 149.23 104.555 149.484C104.553 149.738 104.452 149.981 104.273 150.161Z" fill="#FFAA00"/>
<path d="M92.1415 129.47C95.0578 129.47 97.422 127.111 97.422 124.201C97.422 121.29 95.0578 118.931 92.1415 118.931C89.2252 118.931 86.861 121.29 86.861 124.201C86.861 127.111 89.2252 129.47 92.1415 129.47Z" fill="#BE9292"/>
<path d="M74.299 188.459L75.6361 190.726L85.0337 186.658L83.0605 183.312L74.299 188.459Z" fill="#BE9292"/>
<path d="M74.6995 187.445L77.3326 191.91C77.553 192.283 77.6976 192.697 77.7579 193.126C77.8182 193.555 77.7932 193.992 77.6842 194.412C77.5753 194.832 77.3847 195.226 77.1231 195.572C76.8615 195.918 76.5342 196.21 76.1598 196.429L76.0672 196.484L71.756 189.174L74.6995 187.445Z" fill="#2F2E41"/>
<path d="M89.7905 196.626H92.4264L93.6803 186.479L89.7902 186.48L89.7905 196.626Z" fill="#BE9292"/>
<path d="M89.1183 195.767L94.3091 195.767C94.7435 195.767 95.1739 195.852 95.5753 196.018C95.9766 196.184 96.3413 196.427 96.6485 196.734C96.9556 197.041 97.1993 197.404 97.3656 197.805C97.5318 198.206 97.6174 198.635 97.6174 199.068V199.176L89.1185 199.176L89.1183 195.767Z" fill="#2F2E41"/>
<path d="M79.1939 190.479C79.0422 190.479 78.8926 190.443 78.7572 190.375C78.6219 190.307 78.5045 190.207 78.4147 190.085L75.8727 186.64C75.7951 186.535 75.7397 186.415 75.7099 186.288C75.68 186.161 75.6762 186.029 75.6988 185.901C75.7214 185.772 75.7699 185.649 75.8413 185.54C75.9128 185.431 76.0057 185.337 76.1145 185.264L87.4262 177.724L80.6008 159.814L95.1966 161.016L95.6882 176.407C95.7344 177.809 95.3977 179.197 94.7144 180.422C94.031 181.648 93.0266 182.665 91.8086 183.364L79.6772 190.349C79.5304 190.434 79.3636 190.479 79.1939 190.479Z" fill="#200A4E"/>
<path d="M89.8703 194.566C89.62 194.566 89.3796 194.469 89.1996 194.295C89.0196 194.121 88.9141 193.885 88.9052 193.635L88.3703 178.641L94.9939 178.293L94.4665 193.395C94.4588 193.634 94.362 193.862 94.195 194.034C94.0281 194.205 93.803 194.309 93.5636 194.324L89.9361 194.564C89.9141 194.566 89.8921 194.566 89.8703 194.566Z" fill="#200A4E"/>
<path d="M94.6657 163.993C92.9805 163.993 89.3146 162.102 87.2711 161.427C86.9654 161.672 85.286 162.925 83.3257 162.696C82.1162 162.554 81.0513 161.871 80.1608 160.665C78.1943 158.001 82.1603 148.155 84.5443 139.041C85.5472 135.207 87.8374 131.285 91.7206 132.127C93.0703 132.424 94.3102 133.091 95.301 134.053C96.2918 135.015 96.9942 136.234 97.3293 137.572C97.7781 139.395 97.392 141.54 97.1101 143.106C96.9854 143.632 96.9178 144.17 96.9086 144.71C97.047 145.815 95.5954 163.139 95.1012 163.879C95.0485 163.958 94.8963 163.993 94.6657 163.993Z" fill="#FFAA00"/>
<path d="M90.7209 164.024C90.9917 163.823 91.2151 163.565 91.3752 163.268C91.5353 162.971 91.6283 162.643 91.6476 162.307C91.6669 161.97 91.612 161.634 91.4869 161.321C91.3618 161.008 91.1694 160.726 90.9233 160.495L91.0277 139.502L86.0732 140.325L87.5285 160.702C87.1675 161.141 86.9801 161.696 87.0018 162.263C87.0235 162.83 87.2528 163.369 87.6463 163.778C88.0398 164.188 88.5702 164.439 89.1368 164.484C89.7035 164.529 90.2671 164.366 90.7209 164.024Z" fill="#BE9292"/>
<path d="M91.8668 152.984H86.5302C86.2754 152.984 86.0311 152.883 85.85 152.704C85.669 152.525 85.5658 152.282 85.5627 152.028L85.4317 137.589C85.4272 137.09 85.5219 136.595 85.7103 136.133C85.8988 135.67 86.1772 135.249 86.5296 134.895C86.8819 134.541 87.3012 134.259 87.7631 134.068C88.2251 133.876 88.7205 133.778 89.2207 133.778C89.721 133.779 90.2162 133.879 90.6776 134.071C91.1391 134.264 91.5577 134.546 91.9092 134.902C92.2607 135.257 92.5381 135.678 92.7254 136.141C92.9127 136.604 93.0062 137.099 93.0004 137.599L92.8342 152.03C92.8304 152.284 92.7269 152.526 92.546 152.705C92.3651 152.883 92.1212 152.984 91.8668 152.984Z" fill="#FFAA00"/>
<path d="M90.7967 129.449C89.5844 129.419 88.4181 128.979 87.4885 128.202C86.5589 127.424 85.9211 126.355 85.6793 125.169C85.5293 124.236 85.5969 123.28 85.8769 122.377C86.1809 121.349 86.7023 120.398 87.4059 119.588C88.1094 118.778 88.9788 118.127 89.9555 117.681C90.9322 117.235 91.9934 117.002 93.0676 117C94.1418 116.998 95.204 117.225 96.1827 117.667C96.8295 117.959 97.4665 118.379 97.7627 119.022C98.0588 119.666 97.8735 120.566 97.2257 120.856C96.8023 121.045 96.271 120.952 95.8954 121.224C95.356 121.615 95.4948 122.445 95.7357 123.065C95.9766 123.685 96.2491 124.436 95.8453 124.965C95.469 125.458 94.7168 125.442 94.1244 125.257C93.5319 125.071 92.9472 124.761 92.3295 124.824C91.4286 124.916 90.7811 125.81 90.6613 126.706C90.5415 127.602 90.8236 128.498 91.1021 129.358L90.7967 129.449Z" fill="#2F2E41"/>
<path d="M110.662 157.55C114.092 156.776 117.978 159.454 118.099 163.049C118.133 164.06 117.836 165.122 117.056 165.809C116.733 166.105 116.34 166.313 115.914 166.414C115.489 166.515 115.044 166.505 114.623 166.386C113.021 165.852 112.936 163.625 113.795 162.436C114.958 160.826 117.262 160.551 119.09 160.743C121.33 161.026 123.452 161.908 125.232 163.295C128.801 165.979 131.073 170.092 132.912 174.066C134.795 178.143 136.164 182.437 136.988 186.85C137.092 187.404 137.187 187.96 137.273 188.517C137.298 188.598 137.353 188.667 137.428 188.708C137.503 188.749 137.591 188.759 137.673 188.736C137.754 188.71 137.822 188.654 137.863 188.58C137.904 188.506 137.914 188.419 137.893 188.337C137.14 183.521 135.749 178.827 133.757 174.377C131.832 170.07 129.404 165.603 125.542 162.729C123.626 161.256 121.34 160.342 118.936 160.086C116.911 159.906 114.512 160.334 113.252 162.092C112.259 163.479 112.36 165.784 113.897 166.75C114.322 166.991 114.8 167.123 115.289 167.133C115.777 167.142 116.26 167.03 116.695 166.807C117.16 166.577 117.571 166.249 117.897 165.846C118.223 165.442 118.457 164.973 118.583 164.47C119.129 162.473 118.3 160.314 116.879 158.887C115.545 157.543 113.732 156.783 111.837 156.771C111.381 156.775 110.926 156.83 110.482 156.932C110.077 157.023 110.258 157.641 110.662 157.55Z" fill="#CCCCCC"/>
<path d="M127.204 197.086L125.073 193.453L127.701 191.917L129.833 195.549C130.037 195.897 130.094 196.312 129.992 196.702C129.89 197.092 129.637 197.425 129.288 197.629C128.94 197.833 128.524 197.89 128.134 197.788C127.743 197.686 127.408 197.433 127.204 197.086Z" fill="#219EBC"/>
<path d="M120.156 189.536C121.191 189.536 122.031 188.698 122.031 187.665C122.031 186.632 121.191 185.794 120.156 185.794C119.121 185.794 118.282 186.632 118.282 187.665C118.282 188.698 119.121 189.536 120.156 189.536Z" fill="#219EBC"/>
<path d="M135.452 197.086L133.32 193.453L135.948 191.917L138.08 195.549C138.284 195.897 138.342 196.311 138.239 196.701C138.137 197.091 137.884 197.425 137.536 197.629C137.187 197.833 136.772 197.89 136.381 197.788C135.99 197.686 135.656 197.433 135.452 197.086Z" fill="#219EBC"/>
<path d="M120.512 191.434C120.514 190.38 120.934 189.369 121.68 188.624C122.427 187.879 123.44 187.46 124.496 187.458H137.105C137.552 187.459 137.98 187.636 138.295 187.951C138.611 188.266 138.789 188.693 138.789 189.139V190.571C138.788 191.854 138.276 193.083 137.367 193.99C136.459 194.898 135.226 195.408 133.941 195.409H124.496C123.44 195.408 122.427 194.989 121.68 194.244C120.934 193.498 120.514 192.488 120.512 191.434Z" fill="#3F3D56"/>
<path d="M123.42 197.554V193.345H126.466V197.554C126.466 197.957 126.306 198.344 126.02 198.629C125.734 198.914 125.347 199.074 124.943 199.074C124.539 199.074 124.152 198.914 123.866 198.629C123.581 198.344 123.42 197.957 123.42 197.554Z" fill="#3F3D56"/>
<path d="M132.259 197.554V193.345H135.305V197.554C135.305 197.957 135.145 198.344 134.859 198.629C134.574 198.914 134.186 199.074 133.782 199.074C133.378 199.074 132.991 198.914 132.705 198.629C132.42 198.344 132.259 197.957 132.259 197.554Z" fill="#3F3D56"/>
<path d="M144.652 180.901C144.964 180.515 145.416 180.268 145.91 180.214C146.404 180.161 146.899 180.305 147.286 180.615C147.674 180.926 147.922 181.377 147.976 181.87C148.03 182.363 147.886 182.857 147.576 183.244L144.494 187.072L141.571 184.729L144.652 180.901Z" fill="#219EBC"/>
<path d="M137.23 188.443L139.699 185.375C140.299 184.631 141.17 184.155 142.122 184.052C143.073 183.948 144.027 184.225 144.774 184.822L145.546 185.441C146.435 186.155 147.003 187.192 147.127 188.324C147.251 189.456 146.92 190.591 146.206 191.48L144.172 194.007C143.948 194.286 143.621 194.464 143.265 194.503C142.909 194.542 142.552 194.438 142.272 194.214L137.438 190.339C137.159 190.115 136.98 189.789 136.941 189.434C136.902 189.078 137.006 188.722 137.23 188.443Z" fill="#3F3D56"/>
<path d="M145.019 180.445C145.233 180.179 145.544 180.008 145.884 179.971C146.224 179.934 146.565 180.034 146.831 180.247C147.098 180.461 147.268 180.771 147.305 181.11C147.342 181.45 147.243 181.789 147.029 182.055L143.581 186.34L141.571 184.729L145.019 180.445Z" fill="#3F3D56"/>
<path d="M140.08 187.606L145.378 191.853C145.57 192.007 145.729 192.197 145.848 192.412C145.966 192.628 146.041 192.864 146.067 193.108C146.094 193.353 146.072 193.6 146.003 193.836C145.934 194.071 145.82 194.291 145.665 194.483C145.511 194.675 145.321 194.834 145.105 194.952C144.889 195.07 144.652 195.145 144.407 195.171C144.163 195.198 143.915 195.176 143.679 195.107C143.442 195.039 143.222 194.924 143.03 194.77L137.732 190.524L140.08 187.606Z" fill="#3F3D56"/>
<path d="M145.892 194.622C146.166 194.282 146.234 193.884 146.045 193.732C145.856 193.58 145.481 193.733 145.207 194.073C144.934 194.412 144.865 194.811 145.055 194.963C145.244 195.114 145.619 194.962 145.892 194.622Z" fill="#219EBC"/>
<path d="M92.7312 133.087H89.6784C89.384 133.087 89.1016 132.97 88.8934 132.762C88.6853 132.555 88.5683 132.273 88.5683 131.979C88.5683 131.685 88.6853 131.403 88.8934 131.196C89.1016 130.988 89.384 130.871 89.6784 130.871H92.7312C93.0256 130.871 93.3079 130.988 93.5161 131.196C93.7243 131.403 93.8413 131.685 93.8413 131.979C93.8413 132.273 93.7243 132.555 93.5161 132.762C93.3079 132.97 93.0256 133.087 92.7312 133.087Z" fill="#FFAA00"/>
<path d="M16.9101 38.289C18.6521 38.289 20.0643 36.8811 20.0643 35.1445C20.0643 33.4078 18.6521 32 16.9101 32C15.1682 32 13.756 33.4078 13.756 35.1445C13.756 36.8811 15.1682 38.289 16.9101 38.289Z" fill="#85CBDC"/>
<path d="M104.91 107.289C106.652 107.289 108.064 105.881 108.064 104.144C108.064 102.408 106.652 101 104.91 101C103.168 101 101.756 102.408 101.756 104.144C101.756 105.881 103.168 107.289 104.91 107.289Z" fill="#BDF2FF"/>
<path d="M167.91 6.28896C169.652 6.28896 171.064 4.88113 171.064 3.14448C171.064 1.40783 169.652 0 167.91 0C166.168 0 164.756 1.40783 164.756 3.14448C164.756 4.88113 166.168 6.28896 167.91 6.28896Z" fill="#F9E7D7"/>
<path d="M219.234 102.147C219.234 102.147 219.026 103.408 219.233 104.17C219.489 105.113 220.367 105.302 220.636 106.241C220.845 106.969 220.514 107.447 220.707 108.179C220.939 109.057 221.635 109.122 221.872 110.193C222.11 111.264 221.553 111.577 221.77 112.42C221.947 113.109 222.632 114.025 222.632 114.025" stroke="#FFAA00" stroke-width="0.930681" stroke-linecap="round"/>
<path d="M93.8058 11.417C93.8058 11.417 94.8396 11.0834 95.5068 11.1613C96.3319 11.2578 96.6016 11.972 97.4253 12.0805C98.0635 12.1646 98.4234 11.826 99.0634 11.8962C99.8314 11.9804 99.9731 12.5571 100.904 12.622C101.834 12.6869 102.027 12.1794 102.764 12.2553C103.366 12.3173 104.222 12.7784 104.222 12.7784" stroke="#4C1ADA" stroke-opacity="0.7" stroke-width="0.930681" stroke-linecap="round"/>
<path d="M157.241 41.1107C157.241 41.1107 156.956 42.3566 157.115 43.1307C157.313 44.088 158.178 44.331 158.389 45.2852C158.553 46.0247 158.193 46.4813 158.341 47.2242C158.518 48.1157 159.209 48.2228 159.38 49.3069C159.552 50.3911 158.977 50.6692 159.141 51.5246C159.275 52.2237 159.903 53.1802 159.903 53.1802" stroke="#7B2289" stroke-opacity="0.6" stroke-width="0.930681" stroke-linecap="round"/>
<path d="M211.013 155L211.722 157.282L214.111 157.251L212.16 158.63L212.928 160.893L211.013 159.463L209.099 160.893L209.867 158.63L207.915 157.251L210.305 157.282L211.013 155Z" stroke="#EB3AE4" stroke-opacity="0.6" stroke-width="0.930681"/>
<path d="M14.4094 133L15.4215 136.26L18.8351 136.215L16.0469 138.185L17.1446 141.418L14.4094 139.375L11.6742 141.418L12.772 138.185L9.9838 136.215L13.3974 136.26L14.4094 133Z" stroke="#ADCFF6" stroke-opacity="0.7" stroke-width="0.930681"/>
<path d="M200.479 43L201.288 45.6084L204.019 45.5723L201.789 47.1484L202.667 49.7345L200.479 48.1001L198.291 49.7345L199.169 47.1484L196.938 45.5723L199.669 45.6084L200.479 43Z" stroke="#4C1ADA" stroke-opacity="0.6" stroke-width="0.930681"/>
<path d="M95.1577 53.9455L95.5843 53.7426L95.375 53.3191C94.9787 52.517 94.9197 51.597 95.2087 50.7606C95.4978 49.9242 96.1121 49.2369 96.9192 48.8506C97.7265 48.4641 98.6608 48.4105 99.5168 48.7038C100.373 48.997 101.078 49.612 101.478 50.4122C101.478 50.4124 101.479 50.4126 101.479 50.4128L104.692 56.8752L98.1809 59.992L98.1808 59.992L98.165 59.9996C98.1649 59.9997 98.1647 59.9997 98.1646 59.9998C97.3549 60.3847 96.4189 60.4353 95.5628 60.1383C94.7065 59.8412 94.0029 59.2217 93.6057 58.4179C93.2086 57.6144 93.1501 56.6927 93.4407 55.8552C93.7313 55.0178 94.3482 54.3304 95.1577 53.9455Z" stroke="#EC0A0A" stroke-opacity="0.6" stroke-width="0.930681"/>
<path d="M138.901 87.2845L139.231 87.6219L139.564 87.2862C140.079 86.7662 140.774 86.4761 141.497 86.477C142.22 86.4779 142.915 86.7698 143.428 87.291C143.942 87.8125 144.232 88.521 144.233 89.2615C144.234 90.0018 143.946 90.7109 143.434 91.2338C143.434 91.234 143.434 91.2341 143.434 91.2343L139.233 95.498L135.032 91.2333L135.032 91.2333L135.021 91.223C135.021 91.2229 135.021 91.2227 135.021 91.2226C134.508 90.6989 134.22 89.9883 134.221 89.2468C134.223 88.505 134.515 87.7957 135.031 87.2746C135.547 86.7538 136.244 86.4635 136.968 86.4653C137.692 86.4672 138.388 86.761 138.901 87.2845Z" stroke="#79F100" stroke-opacity="0.8" stroke-width="0.930681"/>
</svg>
